<svg width="266" height="36" viewBox="0 0 266 36" fill="none" xmlns="http://www.w3.org/2000/svg">
<path d="M0.916016 13V3.10156H2.66602V6.79297H2.73438C3.00098 6.2666 3.54102 5.48047 4.85352 5.48047C6.56934 5.48047 7.92285 6.82031 7.92969 9.29492C7.92285 11.7354 6.61035 13.1299 4.86719 13.1367C3.58203 13.1299 3.00781 12.3711 2.73438 11.8242H2.625V13H0.916016ZM2.625 9.28125C2.625 10.7305 3.26074 11.7012 4.375 11.7012C5.53711 11.7012 6.14551 10.6826 6.15234 9.28125C6.14551 7.90039 5.55078 6.90918 4.375 6.90234C3.24707 6.90918 2.625 7.83887 2.625 9.28125ZM9.29688 13V5.57617H10.9922V6.80664H11.0742C11.3408 5.95215 12.0518 5.4668 12.9062 5.4668C13.0977 5.4668 13.3711 5.4873 13.5352 5.50781V7.12109C13.3779 7.06641 13.0156 7.01855 12.7285 7.01172C11.7578 7.01855 11.0469 7.68848 11.0469 8.625V13H9.29688ZM17.5684 13.1504C15.4014 13.1504 14.0137 11.6123 14.0137 9.32227C14.0137 7.01172 15.4014 5.48047 17.5684 5.48047C19.7422 5.48047 21.1299 7.01172 21.123 9.32227C21.1299 11.6123 19.7422 13.1504 17.5684 13.1504ZM15.7773 9.30859C15.7773 10.6689 16.3721 11.7559 17.582 11.7559C18.7715 11.7559 19.3662 10.6689 19.3594 9.30859C19.3662 7.94824 18.7715 6.85449 17.582 6.86133C16.3721 6.85449 15.7773 7.94824 15.7773 9.30859ZM22.1348 10.9082C22.1348 9.24023 23.5225 8.75488 24.8965 8.66602C25.416 8.625 26.4756 8.57715 26.8037 8.56348L26.7969 7.96875C26.7969 7.23047 26.3252 6.80664 25.457 6.80664C24.6777 6.80664 24.1992 7.16211 24.0625 7.69531H22.3809C22.5039 6.43066 23.6387 5.48047 25.498 5.48047C26.9062 5.48047 28.5332 6.06152 28.5332 8.03711V13H26.8652V11.9746H26.8105C26.4824 12.6035 25.792 13.1504 24.623 13.1504C23.208 13.1504 22.1348 12.3779 22.1348 10.9082ZM23.8164 10.8945C23.8164 11.5371 24.3428 11.8652 25.0742 11.8652C26.1338 11.8652 26.8105 11.168 26.8105 10.334L26.8037 9.72559C26.4893 9.73926 25.5186 9.80078 25.1699 9.82812C24.3428 9.89648 23.8164 10.2451 23.8164 10.8945ZM32.9355 13.1367C31.1924 13.1299 29.873 11.7354 29.873 9.29492C29.873 6.82031 31.2266 5.48047 32.9492 5.48047C34.2549 5.48047 34.8018 6.2666 35.0684 6.79297H35.1367V3.10156H36.873V13H35.1641V11.8242H35.0684C34.7881 12.3711 34.2207 13.1299 32.9355 13.1367ZM31.6504 9.28125C31.6504 10.6826 32.2656 11.7012 33.4141 11.7012C34.542 11.7012 35.1777 10.7305 35.1777 9.28125C35.1777 7.83887 34.5488 6.90918 33.4141 6.90234C32.252 6.90918 31.6504 7.90039 31.6504 9.28125ZM41.9316 13.1504C39.6963 13.1504 38.3223 11.6602 38.3223 9.33594C38.3223 7.03906 39.7168 5.48047 41.8359 5.48047C43.6543 5.48047 45.2266 6.62207 45.2266 9.22656V9.77344H40.0449C40.0723 11.0381 40.8174 11.79 41.9453 11.7832C42.7109 11.79 43.2236 11.4619 43.4492 11.0176H45.1582C44.8438 12.3027 43.6543 13.1504 41.9316 13.1504ZM40.0518 8.58398H43.5586C43.5518 7.57227 42.8682 6.83398 41.8633 6.83398C40.8174 6.83398 40.1133 7.64062 40.0518 8.58398ZM48.3301 8.65234V13H46.5801V5.57617H48.248V6.83398H48.3438C48.6787 6.00684 49.4375 5.48047 50.5449 5.48047C52.083 5.48047 53.0947 6.49219 53.0879 8.26953V13H51.3516V8.54297C51.3516 7.54492 50.8115 6.9502 49.9023 6.95703C48.9795 6.9502 48.3301 7.57227 48.3301 8.65234ZM60.2383 13V14.3945H53.8398V13H60.2383ZM62.7402 8.65234V13H60.9902V3.10156H62.6992V6.83398H62.7949C63.1299 5.99316 63.8545 5.48047 64.9961 5.48047C66.5342 5.48047 67.5527 6.47852 67.5527 8.26953V13H65.8164V8.54297C65.8096 7.53125 65.2695 6.9502 64.3535 6.95703C63.4102 6.9502 62.7402 7.57227 62.7402 8.65234ZM72.4473 13.1504C70.2803 13.1504 68.8926 11.6123 68.8926 9.32227C68.8926 7.01172 70.2803 5.48047 72.4473 5.48047C74.6211 5.48047 76.0088 7.01172 76.002 9.32227C76.0088 11.6123 74.6211 13.1504 72.4473 13.1504ZM70.6562 9.30859C70.6562 10.6689 71.251 11.7559 72.4609 11.7559C73.6504 11.7559 74.2451 10.6689 74.2383 9.30859C74.2451 7.94824 73.6504 6.85449 72.4609 6.86133C71.251 6.85449 70.6562 7.94824 70.6562 9.30859ZM77.3555 13V5.57617H79.0508V6.80664H79.1328C79.3994 5.95215 80.1104 5.4668 80.9648 5.4668C81.1562 5.4668 81.4297 5.4873 81.5938 5.50781V7.12109C81.4365 7.06641 81.0742 7.01855 80.7871 7.01172C79.8164 7.01855 79.1055 7.68848 79.1055 8.625V13H77.3555ZM82.6328 13V5.57617H84.3828V13H82.6328ZM82.5098 3.56641C82.5098 3.04688 82.9678 2.62305 83.5215 2.62305C84.0752 2.62305 84.5332 3.04688 84.5332 3.56641C84.5332 4.09277 84.0752 4.5166 83.5215 4.52344C82.9678 4.5166 82.5098 4.09277 82.5098 3.56641ZM85.9551 13V11.8926L89.7832 7.08008V7.01172H86.0781V5.57617H91.916V6.76562L88.2656 11.4961V11.5645H92.0527V13H85.9551ZM96.5781 13.1504C94.4111 13.1504 93.0234 11.6123 93.0234 9.32227C93.0234 7.01172 94.4111 5.48047 96.5781 5.48047C98.752 5.48047 100.14 7.01172 100.133 9.32227C100.14 11.6123 98.752 13.1504 96.5781 13.1504ZM94.7871 9.30859C94.7871 10.6689 95.3818 11.7559 96.5918 11.7559C97.7812 11.7559 98.376 10.6689 98.3691 9.30859C98.376 7.94824 97.7812 6.85449 96.5918 6.86133C95.3818 6.85449 94.7871 7.94824 94.7871 9.30859ZM103.236 8.65234V13H101.486V5.57617H103.154V6.83398H103.25C103.585 6.00684 104.344 5.48047 105.451 5.48047C106.989 5.48047 108.001 6.49219 107.994 8.26953V13H106.258V8.54297C106.258 7.54492 105.718 6.9502 104.809 6.95703C103.886 6.9502 103.236 7.57227 103.236 8.65234ZM113.873 7.69531C113.764 7.13477 113.299 6.77246 112.561 6.7793C111.815 6.77246 111.269 7.14844 111.275 7.6543C111.269 8.03711 111.576 8.32422 112.328 8.50195L113.586 8.76172C114.987 9.06934 115.671 9.71875 115.678 10.7852C115.671 12.1797 114.447 13.1504 112.506 13.1504C110.619 13.1504 109.505 12.3027 109.32 10.8809H111.098C111.2 11.5166 111.692 11.8311 112.506 11.8242C113.347 11.8311 113.894 11.4893 113.9 10.9355C113.894 10.5049 113.559 10.2314 112.82 10.0742L111.631 9.81445C110.25 9.53418 109.532 8.80957 109.539 7.75C109.532 6.37598 110.722 5.48047 112.533 5.48047C114.304 5.48047 115.397 6.34863 115.527 7.69531H113.873Z" fill="white"/>
<path d="M4.20703 25.3242C4.20117 26.7305 5.04492 28.1016 6.69141 28.6641L5.97656 29.6836C4.83398 29.2559 4.01953 28.4297 3.56836 27.3867C3.11719 28.5527 2.25 29.4668 1.00781 29.9297L0.316406 28.8984C2.02148 28.3242 2.88867 26.8594 2.89453 25.3125V24.1055H4.20703V25.3242ZM2.23828 33.832V30.4688H3.5625V32.7773H9.45703V33.832H2.23828ZM5.8125 26.8594V25.793H7.92188V23.4609H9.22266V31.3242H7.92188V26.8594H5.8125ZM19.9102 24.8672V25.9219H11.1562V24.8672H14.8945V23.5898H16.1836V24.8672H19.9102ZM10.7227 32.9062V31.8516H14.8945V30.5508C13.0664 30.4102 11.959 29.6719 11.9648 28.5C11.959 27.2227 13.3301 26.4609 15.5391 26.4609C17.7188 26.4609 19.1074 27.2227 19.1016 28.5C19.1074 29.666 17.9883 30.4043 16.1836 30.5508V31.8516H20.4023V32.9062H10.7227ZM13.3008 28.5C13.2949 29.1797 14.0977 29.5254 15.5391 29.5312C16.9512 29.5254 17.7656 29.1797 17.7656 28.5C17.7656 27.832 16.9512 27.4863 15.5391 27.4805C14.0977 27.4863 13.2949 27.832 13.3008 28.5ZM29.6836 24.4922C29.6719 27.6855 28.7109 30.4746 24.7734 32.4023L24.082 31.3945C25.9043 30.5039 27.0352 29.4434 27.6855 28.1719L24.3164 28.4766L24.1523 27.3633L28.1016 27.1172C28.248 26.625 28.3359 26.0977 28.3828 25.5469H24.6914V24.4922H29.6836ZM31.4766 34.043V23.4492H32.7891V34.043H31.4766ZM43.2539 23.4609V34.0312H41.9297V31.6055H39.6797V30.6211H41.9297V23.4609H43.2539ZM34.2656 28.8984C36.2578 28.8926 38.9062 28.8867 41.2031 28.5703L41.2852 29.5312C40.3125 29.6953 39.3105 29.8008 38.332 29.8652V33.7148H37.0195V29.9297C36.0938 29.9648 35.2148 29.9648 34.4297 29.9648L34.2656 28.8984ZM35.0273 26.0625C35.0273 24.8027 36.1523 23.918 37.7461 23.918C39.3047 23.918 40.4414 24.8027 40.4414 26.0625C40.4414 27.3516 39.3047 28.1895 37.7461 28.1953C36.1523 28.1895 35.0273 27.3516 35.0273 26.0625ZM36.2578 26.0625C36.252 26.7715 36.8555 27.1992 37.7461 27.1992C38.5898 27.1992 39.1992 26.7715 39.1992 26.0625C39.1992 25.3711 38.5957 24.9141 37.7461 24.9141C36.8555 24.9141 36.252 25.3711 36.2578 26.0625ZM53.2852 28.418V29.4609H45.8555V24.375H53.2031V25.4297H47.1445V28.418H53.2852ZM44.6836 32.6953V31.6172H54.3633V32.6953H44.6836Z" fill="white" fill-opacity="0.5"/>
<path d="M64.3125 33L64.6699 30.8086H62.8418L62.4844 33H61.3242L61.6816 30.8086H60.4922L60.6797 29.6602H61.875L62.168 27.8555H60.9844L61.1719 26.707H62.3613L62.7188 24.5156H63.8789L63.5215 26.707H65.3496L65.707 24.5156H66.8555L66.498 26.707H67.6992L67.5 27.8555H66.3047L66.0117 29.6602H67.207L67.0195 30.8086H65.8184L65.4609 33H64.3125ZM63.0352 29.6602H64.8633L65.1562 27.8555H63.3281L63.0352 29.6602ZM72.457 24.668V25.6992H69.7383V27.5156H72.0117V28.5234H69.7383V30.5801C70.998 30.5625 71.8652 30.5039 72.9023 30.3281L73.0195 31.3711C71.8008 31.6113 70.7871 31.6289 69.1875 31.6289H68.4961V24.668H72.457ZM72.5273 28.418V27.3633H73.8398V23.6602H75.0586V33.5273H73.8398V28.418H72.5273ZM76.0195 34.043V23.4492H77.2852V34.043H76.0195ZM87.1055 24.4336V25.6992C87.1055 27.2402 87.1055 28.6934 86.6367 30.9375L85.3359 30.8203C85.5527 29.8945 85.6699 29.0801 85.7402 28.3301L79.5 28.6523L79.3242 27.5977L85.7988 27.3516C85.8223 26.7832 85.8281 26.2383 85.8281 25.6992V25.4883H79.6406V24.4336H87.1055ZM78.5156 32.6953V31.6289H88.1719V32.6953H78.5156ZM90.9492 32.168L89.9648 35.4492H88.8516L89.4609 32.168H90.9492ZM98.3555 33L98.7129 30.8086H96.8848L96.5273 33H95.3672L95.7246 30.8086H94.5352L94.7227 29.6602H95.918L96.2109 27.8555H95.0273L95.2148 26.707H96.4043L96.7617 24.5156H97.9219L97.5645 26.707H99.3926L99.75 24.5156H100.898L100.541 26.707H101.742L101.543 27.8555H100.348L100.055 29.6602H101.25L101.062 30.8086H99.8613L99.5039 33H98.3555ZM97.0781 29.6602H98.9062L99.1992 27.8555H97.3711L97.0781 29.6602ZM110.484 23.4492V27.5156H112.113V28.6055H110.484V34.0547H109.195V23.4492H110.484ZM102.609 25.4297V24.375H107.484V28.3711H103.922V30.4805C105.604 30.4688 106.91 30.3984 108.387 30.1406L108.504 31.1953C106.869 31.4883 105.428 31.5586 103.5 31.5586H102.633V27.3281H106.184V25.4297H102.609ZM121.371 23.4492V34.0547H120.059V23.4492H121.371ZM112.898 27.9609C112.893 25.6758 114.059 24.2227 115.664 24.2227C117.252 24.2227 118.424 25.6758 118.43 27.9609C118.424 30.2637 117.252 31.7109 115.664 31.7109C114.059 31.7109 112.893 30.2637 112.898 27.9609ZM114.152 27.9609C114.152 29.5898 114.768 30.5332 115.664 30.5391C116.555 30.5332 117.164 29.5898 117.164 27.9609C117.164 26.3438 116.555 25.3945 115.664 25.3945C114.768 25.3945 114.152 26.3438 114.152 27.9609ZM132.609 31.6758V32.7656H122.93V31.6758H132.609ZM123.727 25.4766V24.4336H131.766V25.4766H130.219V28.8516H131.73V29.8828H123.762V28.8516H125.25V25.4766H123.727ZM126.551 28.8516H128.93V25.4766H126.551V28.8516ZM135.363 32.168L134.379 35.4492H133.266L133.875 32.168H135.363ZM142.77 33L143.127 30.8086H141.299L140.941 33H139.781L140.139 30.8086H138.949L139.137 29.6602H140.332L140.625 27.8555H139.441L139.629 26.707H140.818L141.176 24.5156H142.336L141.979 26.707H143.807L144.164 24.5156H145.312L144.955 26.707H146.156L145.957 27.8555H144.762L144.469 29.6602H145.664L145.477 30.8086H144.275L143.918 33H142.77ZM141.492 29.6602H143.32L143.613 27.8555H141.785L141.492 29.6602ZM156.27 28.7461V29.7891H152.18V31.7344H150.891V29.7891H146.59V28.7461H156.27ZM147.762 33.832V30.7617H149.062V32.7773H155.203V33.832H147.762ZM147.82 27.7617V23.9297H155.027V27.7617H147.82ZM149.086 26.7422H153.738V24.9492H149.086V26.7422ZM165.352 23.4492V27.8203H166.84V28.9102H165.352V34.043H164.039V23.4492H165.352ZM156.844 31.1016C157.646 31.1016 158.578 31.1016 159.551 31.0781V30.0879C158.396 29.8887 157.646 29.168 157.652 28.1719C157.646 26.9766 158.695 26.1855 160.219 26.1797C161.725 26.1855 162.785 26.9766 162.797 28.1719C162.785 29.1738 162.018 29.8945 160.863 30.0879V31.0312C161.754 30.9844 162.645 30.9141 163.477 30.7969L163.559 31.7461C161.285 32.1621 158.836 32.1797 157.031 32.1797L156.844 31.1016ZM157.043 25.6992V24.668H159.551V23.4961H160.863V24.668H163.359V25.6992H157.043ZM158.883 28.1719C158.877 28.7812 159.416 29.1387 160.219 29.1328C161.01 29.1387 161.543 28.7812 161.543 28.1719C161.543 27.5566 161.01 27.1816 160.219 27.1758C159.416 27.1816 158.877 27.5566 158.883 28.1719Z" fill="white"/>
</svg>
