<svg width="246" height="342" viewBox="0 0 246 342" fill="none" xmlns="http://www.w3.org/2000/svg">
<path opacity="0.5" d="M22.6816 49.7461C22.6816 50.9648 23.6309 52.0957 25.2363 52.5469L24.7207 53.4258C23.5137 53.0742 22.6172 52.3301 22.1543 51.375C21.6914 52.4531 20.7773 53.291 19.541 53.6953L18.9902 52.8164C20.5957 52.3418 21.5801 51.1055 21.5801 49.7461V49.6172H19.2949V48.7148H21.5801V47.4492H22.6934V48.7148H24.9668V49.6172H22.6816V49.7461ZM20.3379 56.0625C20.3379 54.832 21.668 54.1348 23.8652 54.1406C26.0391 54.1348 27.3457 54.832 27.3457 56.0625C27.3457 57.2695 26.0391 57.9668 23.8652 57.9727C21.668 57.9668 20.3379 57.2695 20.3379 56.0625ZM21.4512 56.0625C21.4453 56.7363 22.3359 57.1113 23.8652 57.1172C25.3711 57.1113 26.2617 56.7363 26.2559 56.0625C26.2617 55.3711 25.3711 55.0078 23.8652 55.0078C22.3359 55.0078 21.4453 55.3711 21.4512 56.0625ZM26.1387 53.8945V47.4961H27.252V50.1445H28.7754V51.0586H27.252V53.8945H26.1387ZM37.623 47.4961V50.0625H39.1465V51H37.623V53.6484H36.5098V47.4961H37.623ZM29.7832 53.0391V48.1289H30.873V49.6406H33.627V48.1289H34.7285V53.0391H29.7832ZM30.4395 55.043V54.1406H33.8379V57.9844H32.7363V55.043H30.4395ZM30.873 52.1484H33.627V50.5195H30.873V52.1484ZM34.3301 55.043V54.1406H37.623V57.9844H36.5215V55.043H34.3301ZM44.5254 47.6719C46.8926 47.666 48.2695 48.3047 48.2754 49.4766C48.2695 50.6543 46.8926 51.293 44.5254 51.293C42.1582 51.293 40.7695 50.6543 40.7754 49.4766C40.7695 48.3047 42.1582 47.666 44.5254 47.6719ZM39.7441 52.8281V51.9375H49.3184V52.8281H39.7441ZM40.8926 54.4688V53.6367H48.1113V56.0977H41.9941V57.0352H48.4043V57.8906H40.9043V55.2891H47.0098V54.4688H40.8926ZM41.9355 49.4766C41.9297 50.127 42.8555 50.4609 44.5254 50.4609C46.207 50.4609 47.1328 50.127 47.127 49.4766C47.1328 48.8555 46.207 48.4922 44.5254 48.4922C42.8555 48.4922 41.9297 48.8555 41.9355 49.4766ZM59.7246 55.7695V56.6953H50.1152V55.7695H54.3457V53.6133H51.2168V48.2109H52.3301V50.0156H57.4863V48.2109H58.5879V53.6133H55.4473V55.7695H59.7246ZM52.3301 52.7109H57.4863V50.918H52.3301V52.7109ZM68.666 47.4961V51.5977H70.3535V52.5352H68.666V58.0195H67.5645V47.4961H68.666ZM60.8965 49.3477V48.4453H65.7012V52.3008H62.0215V54.5742C63.8203 54.5684 65.1621 54.5039 66.6973 54.2227L66.8027 55.125C65.1621 55.4297 63.7441 55.5 61.7754 55.5117H60.9199V51.3984H64.5996V49.3477H60.8965ZM79.3535 50.5664V51.457H72.123V47.8711H73.2246V50.5664H79.3535ZM70.8457 53.6719V52.7812H80.4551V53.6719H70.8457ZM72.041 57.75V54.668H73.1543V56.8359H79.4238V57.75H72.041ZM88.2246 53.0742V54.8906C89.1855 54.8379 90.1582 54.7559 91.0723 54.6211L91.1543 55.4414C88.7812 55.8809 86.2324 55.8984 84.3574 55.8984L84.2168 54.9844C85.0605 54.9785 86.0625 54.9727 87.1113 54.9375V53.0742H88.2246ZM84.498 52.5703C86.0625 52.1191 87.041 51.0234 87.0996 49.7344H84.7793V48.832H87.1113V47.5781H88.2246V48.832H90.5801V49.7344H88.2246C88.2832 50.9707 89.2793 52.0312 90.8496 52.4531L90.334 53.3203C89.0801 52.9629 88.1426 52.2012 87.668 51.2051C87.2109 52.2539 86.2852 53.0566 85.0254 53.4141L84.498 52.5703ZM91.7285 58.0195V47.4961H92.8418V58.0195H91.7285ZM103.236 47.5078V55.1953H102.123V47.5078H103.236ZM94.5879 52.8281C96.2344 52.2188 97.207 50.707 97.2129 49.125V48.082H98.3496V49.125C98.3438 50.6602 99.3164 52.0664 100.939 52.6289L100.365 53.5195C99.1523 53.0684 98.2559 52.1777 97.7871 51.041C97.3242 52.2598 96.416 53.2324 95.1855 53.707L94.5879 52.8281ZM96.3691 57.7734V54.4688H97.4941V56.8711H103.553V57.7734H96.3691ZM116.303 50.9648V51.8672H109.025V48.0117H110.15V50.9648H116.303ZM107.83 54.1875V53.2852H117.404V54.1875H115.014V57.9961H113.889V54.1875H111.346V57.9961H110.232V54.1875H107.83ZM123.533 48.9844C123.533 50.6953 125.355 52.3125 127.377 52.6758L126.861 53.6016C125.18 53.2383 123.639 52.1367 122.959 50.6602C122.268 52.1309 120.727 53.2266 119.045 53.6016L118.553 52.6758C120.545 52.3008 122.355 50.6953 122.361 48.9844V48.1875H123.533V48.9844ZM118.201 56.6133V55.6875H127.811V56.6133H118.201ZM138.17 53.6719V54.5508H133.881V57.9961H132.791V54.5508H128.561V53.6719H138.17ZM129.756 52.4766V47.918H130.857V49.2891H135.85V47.918H136.963V52.4766H129.756ZM130.857 51.5859H135.85V50.1797H130.857V51.5859ZM147.697 47.4961V58.0195H146.596V52.2891H144.51V51.375H146.596V47.4961H147.697ZM139.424 55.5352V48.4336H144.334V49.3359H140.549V51.375H143.889V52.2656H140.549V54.6094C142.307 54.6094 143.525 54.5566 144.92 54.3164L145.037 55.2188C143.508 55.4648 142.189 55.5293 140.244 55.5352H139.424ZM160.424 47.4961V51.6797H162.053V52.6055H160.424V57.9844H159.311V47.4961H160.424ZM152.256 55.1836C154.887 53.8711 156.316 51.9727 156.545 49.5234H152.783V48.5977H157.682C157.67 51.6328 156.334 54.3457 152.877 56.0508L152.256 55.1836ZM171.369 47.4961V58.0195H170.268V53.8242H167.947V55.418H163.025V48.3047H164.15V50.9883H166.857V48.3047H167.947V50.0742H170.268V47.4961H171.369ZM164.15 54.5039H166.857V51.8672H164.15V54.5039ZM167.947 52.8984H170.268V50.9766H167.947V52.8984ZM182.584 52.7578V53.6602H178.424V55.6992H177.299V53.6602H172.975V52.7578H182.584ZM174.029 49.875C174.023 48.5625 175.512 47.748 177.768 47.7422C180.023 47.748 181.5 48.5625 181.494 49.875C181.5 51.1816 180.023 51.9961 177.768 51.9961C175.512 51.9961 174.023 51.1816 174.029 49.875ZM174.182 57.7734V54.6914H175.295V56.8594H181.518V57.7734H174.182ZM175.225 49.875C175.213 50.6309 176.232 51.0938 177.768 51.0938C179.309 51.0938 180.316 50.6309 180.322 49.875C180.316 49.0957 179.309 48.6387 177.768 48.6328C176.232 48.6387 175.213 49.0957 175.225 49.875ZM191.678 47.9414C191.672 50.6016 190.066 52.418 186.85 53.2383L186.428 52.3711C188.027 51.9668 189.117 51.334 189.768 50.543L186.58 50.7773L186.404 49.875L190.254 49.7344C190.377 49.4414 190.453 49.1367 190.488 48.8203H186.932V47.9414H191.678ZM187.752 54.2695V53.4023H194.537V55.9922H188.877V56.9883H194.9V57.8672H187.775V55.1719H193.424V54.2695H187.752ZM193.424 52.957V47.4961H194.537V49.8164H196.061V50.7422H194.537V52.957H193.424ZM205.412 54.2109V57.8672H198.439V54.2109H205.412ZM197.08 48.9258V48.0117H201.779V51.0234H198.193V52.3711C199.875 52.3711 201.129 52.3125 202.611 52.0781L202.705 52.9922C201.105 53.2441 199.764 53.291 197.912 53.2852H197.092V50.1797H200.701V48.9258H197.08ZM199.541 56.9648H204.311V55.0781H199.541V56.9648ZM202.4 50.707V49.793H204.299V47.5078H205.412V53.6719H204.299V50.707H202.4ZM215.373 47.4961V51.7617H216.896V52.6758H215.373V57.9961H214.26V47.4961H215.373ZM206.936 55.043C208.471 53.4434 209.027 51.6387 209.139 49.5352H207.311V48.6211H210.193C210.188 51.2461 209.719 53.6367 207.814 55.6641L206.936 55.043ZM209.936 55.7461C211.5 53.918 211.957 51.7734 212.039 49.5352H210.533V48.6211H213.088C213.088 51.2754 212.754 54.0762 210.826 56.3555L209.936 55.7461ZM221.268 50.5898C221.262 52.3477 222.416 54.1641 224.033 54.8555L223.424 55.7227C222.188 55.1777 221.203 54.0176 220.717 52.6172C220.23 54.1172 219.246 55.3945 218.021 55.9922L217.377 55.1133C218.959 54.3691 220.131 52.4004 220.143 50.5898V49.4766H217.74V48.5508H223.658V49.4766H221.268V50.5898ZM224.982 57.9961V47.4961H226.096V57.9961H224.982ZM12.6211 71.3672C12.6211 73.043 13.3242 74.8301 14.7305 75.6914L14.1094 76.5469C13.125 75.9551 12.4629 74.9062 12.0996 73.6934C11.7188 75.0234 10.9922 76.1602 9.97266 76.7812L9.28125 75.9492C10.7637 75.0586 11.5488 73.2012 11.543 71.4141V69.457H12.6211V71.3672ZM13.5938 73.1133V72.1875H15.2227V68.6953H16.2773V78.4805H15.2227V73.1133H13.5938ZM17.3906 78.9961V68.4961H18.457V78.9961H17.3906ZM23.4141 70.1719C23.4082 71.5488 24.3809 72.832 25.9453 73.3477L25.3477 74.2266C24.1992 73.8223 23.3379 73.002 22.8809 71.9648C22.4238 73.1426 21.5332 74.0684 20.3086 74.5195L19.7109 73.6289C21.3516 73.0488 22.3008 71.6484 22.3125 70.0781V69.0469H23.4141V70.1719ZM21.1289 77.0273C21.1289 75.7969 22.4707 75.0762 24.6562 75.082C26.8125 75.0762 28.1367 75.7969 28.1367 77.0273C28.1367 78.2695 26.8125 78.9785 24.6562 78.9727C22.4707 78.9785 21.1289 78.2695 21.1289 77.0273ZM22.2422 77.0273C22.2363 77.7188 23.1387 78.0938 24.6562 78.1055C26.1621 78.0938 27.0527 77.7188 27.0469 77.0273C27.0527 76.3594 26.1621 75.9609 24.6562 75.9609C23.1387 75.9609 22.2363 76.3594 22.2422 77.0273ZM26.9297 74.8359V68.4961H28.043V71.1328H29.5664V72.0703H28.043V74.8359H26.9297ZM33.5859 69.2461C35.2441 69.2402 36.4395 70.2656 36.4453 71.7422C36.4395 73.2188 35.2441 74.2441 33.5859 74.25C31.9336 74.2441 30.7207 73.2188 30.7266 71.7422C30.7207 70.2656 31.9336 69.2402 33.5859 69.2461ZM30.2227 75.832C32.1328 75.832 34.7812 75.8145 37.0781 75.4805L37.1602 76.2891C34.7871 76.7461 32.2383 76.7578 30.3633 76.7578L30.2227 75.832ZM31.8281 71.7422C31.8164 72.6738 32.5664 73.2773 33.5859 73.2773C34.6055 73.2773 35.3555 72.6738 35.3555 71.7422C35.3555 70.8223 34.6055 70.207 33.5859 70.207C32.5664 70.207 31.8164 70.8223 31.8281 71.7422ZM37.7344 79.0195V68.4961H38.8477V79.0195H37.7344ZM53.0742 76.7578V77.6836H43.4648V76.7578H47.6953V74.332H44.5664V69.3398H51.9258V74.332H48.7969V76.7578H53.0742ZM45.6445 73.4531H50.8359V70.2305H45.6445V73.4531ZM63.4219 73.7578V74.6484H53.8359V73.7578H63.4219ZM55.0312 72.7031V68.9297H62.2383V69.8203H56.1445V71.7891H62.3438V72.7031H55.0312ZM55.043 78.7734V75.6797H56.1445V77.8594H62.4141V78.7734H55.043ZM75.832 68.4961V79.0195H74.7188V68.4961H75.832ZM67.5 72.9609C67.5 70.7168 68.6309 69.2871 70.2188 69.2812C71.7773 69.2871 72.9258 70.7168 72.9258 72.9609C72.9258 75.2285 71.7773 76.6582 70.2188 76.6523C68.6309 76.6582 67.5 75.2285 67.5 72.9609ZM68.5781 72.9609C68.5723 74.6309 69.2402 75.6562 70.2188 75.6562C71.1797 75.6562 71.8477 74.6309 71.8477 72.9609C71.8477 71.3145 71.1797 70.2832 70.2188 70.2773C69.2402 70.2832 68.5723 71.3145 68.5781 72.9609ZM80.3203 69.2812C81.8906 69.2871 83.0098 70.7168 83.0156 72.9609C83.0098 75.2285 81.8906 76.6582 80.3203 76.6523C78.75 76.6582 77.6309 75.2285 77.6367 72.9609C77.6309 70.7168 78.75 69.2871 80.3203 69.2812ZM78.7031 72.9609C78.6973 74.6309 79.3652 75.6562 80.3203 75.6562C81.293 75.6562 81.9492 74.6309 81.9492 72.9609C81.9492 71.3145 81.293 70.2832 80.3203 70.2773C79.3652 70.2832 78.6973 71.3145 78.7031 72.9609ZM84.5742 78.9961V68.4961H85.6875V71.0625H87.3164V72.0117H85.6875V74.1914H87.3164V75.1055H85.6875V78.9961H84.5742ZM96.6094 68.4961V78.9961H95.4844V68.4961H96.6094ZM87.9844 76.1836C90.7734 74.8535 92.1387 72.9609 92.3555 70.5117H88.4883V69.6211H93.4805C93.4805 72.6973 92.1738 75.3574 88.5703 77.0859L87.9844 76.1836ZM107.848 73.3125V74.168H98.2383V73.3125H107.848ZM99.375 75.7031V74.9062H106.664V77.2148H100.5V78.082H106.992V78.8672H99.3867V76.4766H105.562V75.7031H99.375ZM99.4453 69.5508V68.7656H106.641V71.0391H100.57V71.8359H106.816V72.6211H99.4688V70.3008H105.527V69.5508H99.4453ZM120.07 71.9531V72.8555H112.77V69.0117H113.883V71.9531H120.07ZM111.551 75.2227V74.3086H121.16V75.2227H116.859V78.9961H115.758V75.2227H111.551ZM130.277 69.1523V70.0781C130.277 71.0742 130.277 72.1582 129.984 73.6523H131.496V74.5664H127.242V79.0078H126.117V74.5664H121.922V73.6523H128.859C129.17 72.1523 129.17 71.0566 129.176 70.0781V70.0664H123.094V69.1523H130.277ZM142.102 72.6211V73.5352H140.473V78.9844H139.359V68.4961H140.473V72.6211H142.102ZM132.691 76.3477V69.5156H133.793V75.4219C135.258 75.416 136.787 75.293 138.457 74.9531L138.586 75.8906C136.787 76.248 135.135 76.3535 133.559 76.3477H132.691ZM154.289 68.4961V79.0195H153.176V68.4961H154.289ZM145.957 72.9609C145.957 70.7168 147.088 69.2871 148.676 69.2812C150.234 69.2871 151.383 70.7168 151.383 72.9609C151.383 75.2285 150.234 76.6582 148.676 76.6523C147.088 76.6582 145.957 75.2285 145.957 72.9609ZM147.035 72.9609C147.029 74.6309 147.697 75.6562 148.676 75.6562C149.637 75.6562 150.305 74.6309 150.305 72.9609C150.305 71.3145 149.637 70.2832 148.676 70.2773C147.697 70.2832 147.029 71.3145 147.035 72.9609ZM161.156 70.2305V71.1328H155.941V70.2305H158.004V68.8008H159.105V70.2305H161.156ZM156.281 74.1797C156.275 72.7676 157.236 71.7656 158.555 71.7656C159.885 71.7656 160.834 72.7676 160.84 74.1797C160.834 75.6152 159.885 76.623 158.555 76.6172C157.236 76.623 156.275 75.6152 156.281 74.1797ZM157.266 74.1797C157.26 75.0703 157.799 75.668 158.555 75.668C159.311 75.668 159.855 75.0703 159.855 74.1797C159.855 73.3066 159.311 72.6973 158.555 72.6914C157.799 72.6973 157.26 73.3066 157.266 74.1797ZM161.637 78.5039V68.7305H162.691V72.8672H163.898V68.4961H164.953V78.9961H163.898V73.7812H162.691V78.5039H161.637ZM174.516 68.4961V72.75H176.203V73.6758H174.516V78.9961H173.414V68.4961H174.516ZM166.277 71.0508V70.1367H168.867V68.6367H169.98V70.1367H172.5V71.0508H166.277ZM166.816 74.2617C166.816 72.832 167.918 71.8242 169.43 71.8242C170.936 71.8242 172.037 72.832 172.043 74.2617C172.037 75.7031 170.936 76.7051 169.43 76.7109C167.918 76.7051 166.816 75.7031 166.816 74.2617ZM167.883 74.2617C167.877 75.1758 168.533 75.7852 169.43 75.7734C170.32 75.7852 170.971 75.1758 170.977 74.2617C170.971 73.3652 170.32 72.7441 169.43 72.7383C168.533 72.7441 167.877 73.3652 167.883 74.2617ZM185.438 68.4961V78.9961H184.312V68.4961H185.438ZM176.812 76.1836C179.602 74.8535 180.967 72.9609 181.184 70.5117H177.316V69.6211H182.309C182.309 72.6973 181.002 75.3574 177.398 77.0859L176.812 76.1836ZM194.039 69.5508C194.027 70.7344 194.994 71.7363 196.629 72.1172L196.113 72.9961C194.859 72.6738 193.945 72.0059 193.471 71.0918C193.002 72.1055 192.053 72.8789 190.781 73.2305L190.23 72.3633C191.889 71.9355 192.885 70.8164 192.891 69.5508V68.9414H194.039V69.5508ZM189.996 74.0742C191.953 74.0801 194.613 74.0566 196.91 73.7344L196.992 74.5312C196.037 74.707 195.041 74.8184 194.074 74.8887V78.668H192.961V74.9531C191.947 75 190.986 75 190.148 75L189.996 74.0742ZM197.637 78.9961V68.5078H198.738V78.9961H197.637ZM209.977 73.7578V74.6602H205.816V76.6992H204.691V74.6602H200.367V73.7578H209.977ZM201.422 70.875C201.416 69.5625 202.904 68.748 205.16 68.7422C207.416 68.748 208.893 69.5625 208.887 70.875C208.893 72.1816 207.416 72.9961 205.16 72.9961C202.904 72.9961 201.416 72.1816 201.422 70.875ZM201.574 78.7734V75.6914H202.688V77.8594H208.91V78.7734H201.574ZM202.617 70.875C202.605 71.6309 203.625 72.0938 205.16 72.0938C206.701 72.0938 207.709 71.6309 207.715 70.875C207.709 70.0957 206.701 69.6387 205.16 69.6328C203.625 69.6387 202.605 70.0957 202.617 70.875ZM221.93 68.4961V70.6875H223.453V71.6133H221.93V73.8047H220.816V68.4961H221.93ZM214.09 73.3125V69.0586H219V73.3125H214.09ZM215.145 75.1523V74.2852H221.93V76.9453H216.258V77.9766H222.293V78.8672H215.168V76.1133H220.828V75.1523H215.145ZM215.18 72.4219H217.91V69.9492H215.18V72.4219ZM233.66 76.8047V77.7422H224.051V76.8047H228.281V74.9648H225.223V71.625H231.387V70.1484H225.199V69.2344H232.488V72.5156H226.324V74.0508H232.734V74.9648H229.383V76.8047H233.66ZM9.15234 90.4961V96.7422H8.03906V94.082H6.08203V93.168H8.03906V90.4961H9.15234ZM0.398438 95.793C2.02734 95.2246 3.0293 93.8066 3.02344 92.3594V92.125H0.75V91.2227H6.41016V92.125H4.16016V92.3477C4.1543 93.6777 5.10352 94.9727 6.69141 95.5117L6.11719 96.3906C4.93945 95.9863 4.07227 95.1426 3.61523 94.1055C3.1582 95.2773 2.23828 96.2207 0.984375 96.6836L0.398438 95.793ZM2.08594 99.0156C2.08008 97.7676 3.42773 97.041 5.63672 97.0352C7.83398 97.041 9.18164 97.7676 9.1875 99.0156C9.18164 100.264 7.83398 100.99 5.63672 100.996C3.42773 100.99 2.08008 100.264 2.08594 99.0156ZM3.1875 99.0156C3.18164 99.7246 4.0957 100.129 5.63672 100.117C7.16602 100.129 8.08008 99.7246 8.08594 99.0156C8.08008 98.3008 7.16602 97.8965 5.63672 97.9023C4.0957 97.8965 3.18164 98.3008 3.1875 99.0156ZM19.4883 90.4961V101.02H18.375V90.4961H19.4883ZM11.3555 92.3477V91.4453H16.2773V95.2773H12.5039V97.5742C14.209 97.5684 15.6914 97.4863 17.4492 97.1992L17.5547 98.1133C15.6973 98.4238 14.1152 98.4941 12.2578 98.5H11.3672V94.3867H15.1406V92.3477H11.3555ZM26.332 92.2305V93.1328H21.1172V92.2305H23.1797V90.8008H24.2812V92.2305H26.332ZM21.457 96.1797C21.4512 94.7676 22.4121 93.7656 23.7305 93.7656C25.0605 93.7656 26.0098 94.7676 26.0156 96.1797C26.0098 97.6152 25.0605 98.623 23.7305 98.6172C22.4121 98.623 21.4512 97.6152 21.457 96.1797ZM22.4414 96.1797C22.4355 97.0703 22.9746 97.668 23.7305 97.668C24.4863 97.668 25.0312 97.0703 25.0312 96.1797C25.0312 95.3066 24.4863 94.6973 23.7305 94.6914C22.9746 94.6973 22.4355 95.3066 22.4414 96.1797ZM26.8125 100.504V90.7305H27.8672V94.8672H29.0742V90.4961H30.1289V100.996H29.0742V95.7812H27.8672V100.504H26.8125ZM35.2969 93.168C35.2969 95.0898 36.375 97.0059 37.9805 97.7266L37.3008 98.6172C36.1113 98.0195 35.209 96.8359 34.7461 95.4004C34.2832 96.9121 33.3691 98.1895 32.1562 98.8164L31.4531 97.9141C33.082 97.1348 34.166 95.1133 34.1719 93.168V91.375H35.2969V93.168ZM36.8203 94.8906V93.9883H39.1641V90.4961H40.2656V101.02H39.1641V94.8906H36.8203ZM52.9922 90.4961V94.75H54.6797V95.6758H52.9922V100.996H51.8906V90.4961H52.9922ZM44.7539 93.0508V92.1367H47.3438V90.6367H48.457V92.1367H50.9766V93.0508H44.7539ZM45.293 96.2617C45.293 94.832 46.3945 93.8242 47.9062 93.8242C49.4121 93.8242 50.5137 94.832 50.5195 96.2617C50.5137 97.7031 49.4121 98.7051 47.9062 98.7109C46.3945 98.7051 45.293 97.7031 45.293 96.2617ZM46.3594 96.2617C46.3535 97.1758 47.0098 97.7852 47.9062 97.7734C48.7969 97.7852 49.4473 97.1758 49.4531 96.2617C49.4473 95.3652 48.7969 94.7441 47.9062 94.7383C47.0098 94.7441 46.3535 95.3652 46.3594 96.2617ZM64.9922 94.6211V95.5352H63.3633V100.984H62.25V90.4961H63.3633V94.6211H64.9922ZM55.582 98.3477V91.5156H56.6836V97.4219C58.1484 97.416 59.6777 97.293 61.3477 96.9531L61.4766 97.8906C59.6777 98.248 58.0254 98.3535 56.4492 98.3477H55.582ZM68.9766 91.2461C70.6348 91.2402 71.8301 92.2656 71.8359 93.7422C71.8301 95.2188 70.6348 96.2441 68.9766 96.25C67.3242 96.2441 66.1113 95.2188 66.1172 93.7422C66.1113 92.2656 67.3242 91.2402 68.9766 91.2461ZM65.6133 97.832C67.5234 97.832 70.1719 97.8145 72.4688 97.4805L72.5508 98.2891C70.1777 98.7461 67.6289 98.7578 65.7539 98.7578L65.6133 97.832ZM67.2188 93.7422C67.207 94.6738 67.957 95.2773 68.9766 95.2773C69.9961 95.2773 70.7461 94.6738 70.7461 93.7422C70.7461 92.8223 69.9961 92.207 68.9766 92.207C67.957 92.207 67.207 92.8223 67.2188 93.7422ZM73.125 101.02V90.4961H74.2383V101.02H73.125ZM87.2461 90.9414V91.6328C87.252 92.3242 87.252 93.209 87.0234 94.3516H88.4648V95.2422H78.8555V94.3516H85.9043C86.1211 93.291 86.1445 92.4883 86.1445 91.832H80.0625V90.9414H87.2461ZM79.9805 97.0703V96.1797H87.2578V98.9336H81.1055V100H87.5273V100.891H79.9922V98.0781H86.1562V97.0703H79.9805ZM98.8359 98.8047V99.7422H89.2266V98.8047H93.457V96.9648H90.3984V93.625H96.5625V92.1484H90.375V91.2344H97.6641V94.5156H91.5V96.0508H97.9102V96.9648H94.5586V98.8047H98.8359ZM104.027 90.9414V92.3711H106.781V90.9414H107.883V95.5234H102.938V90.9414H104.027ZM103.992 97.2344V96.3555H110.777V99.0039H105.105V100H111.141V100.891H104.016V98.1836H109.676V97.2344H103.992ZM104.027 94.6328H106.781V93.2266H104.027V94.6328ZM109.664 95.8984V90.4961H110.777V92.6992H112.301V93.6016H110.777V95.8984H109.664ZM121.852 90.4961V97.1172H120.797V94.1875H119.578V96.7539H118.535V90.6953H119.578V93.2734H120.797V90.4961H121.852ZM112.84 92.5703V91.6914H114.961V90.5781H116.062V91.6914H118.148V92.5703H112.84ZM113.25 94.8672C113.25 93.7773 114.188 93.0625 115.5 93.0625C116.842 93.0625 117.773 93.7773 117.773 94.8672C117.773 95.957 116.842 96.6719 115.5 96.6719C114.188 96.6719 113.25 95.957 113.25 94.8672ZM114.246 94.8672C114.246 95.4648 114.756 95.8574 115.5 95.8633C116.256 95.8574 116.771 95.4648 116.766 94.8672C116.771 94.2695 116.256 93.877 115.5 93.8828C114.756 93.877 114.246 94.2695 114.246 94.8672ZM114.785 99.1328C114.773 97.9434 116.109 97.2695 118.336 97.2695C120.568 97.2695 121.904 97.9434 121.91 99.1328C121.904 100.311 120.568 100.979 118.336 100.973C116.109 100.979 114.773 100.311 114.785 99.1328ZM115.887 99.1328C115.875 99.7656 116.777 100.129 118.336 100.117C119.9 100.129 120.791 99.7656 120.797 99.1328C120.791 98.4707 119.9 98.1191 118.336 98.125C116.777 98.1191 115.875 98.4707 115.887 99.1328ZM131.449 90.4961V94.75H133.137V95.6758H131.449V100.996H130.348V90.4961H131.449ZM123.211 93.0508V92.1367H125.801V90.6367H126.914V92.1367H129.434V93.0508H123.211ZM123.75 96.2617C123.75 94.832 124.852 93.8242 126.363 93.8242C127.869 93.8242 128.971 94.832 128.977 96.2617C128.971 97.7031 127.869 98.7051 126.363 98.7109C124.852 98.7051 123.75 97.7031 123.75 96.2617ZM124.816 96.2617C124.811 97.1758 125.467 97.7852 126.363 97.7734C127.254 97.7852 127.904 97.1758 127.91 96.2617C127.904 95.3652 127.254 94.7441 126.363 94.7383C125.467 94.7441 124.811 95.3652 124.816 96.2617ZM142.137 93.5664V94.457H134.906V90.8711H136.008V93.5664H142.137ZM133.629 96.6719V95.7812H143.238V96.6719H133.629ZM134.824 100.75V97.668H135.938V99.8359H142.207V100.75H134.824ZM149.754 91.2812C151.324 91.2871 152.443 92.7168 152.449 94.9609C152.443 97.2285 151.324 98.6582 149.754 98.6523C148.184 98.6582 147.064 97.2285 147.07 94.9609C147.064 92.7168 148.184 91.2871 149.754 91.2812ZM148.137 94.9609C148.131 96.6309 148.799 97.6562 149.754 97.6562C150.727 97.6562 151.383 96.6309 151.383 94.9609C151.383 93.3145 150.727 92.2832 149.754 92.2773C148.799 92.2832 148.131 93.3145 148.137 94.9609ZM154.008 100.996V90.4961H155.121V94.6094H156.809V95.5469H155.121V100.996H154.008ZM163.148 91.4219V92.3359H159.059V94.3633H162.75V95.2539H159.059V97.6094C160.893 97.5977 162.223 97.5332 163.781 97.2812L163.898 98.1836C162.234 98.4531 160.793 98.5059 158.812 98.5117H157.957V91.4219H163.148ZM164.918 100.996V90.4961H166.043V100.996H164.918ZM176.074 90.9648V91.7969C176.08 92.6113 176.08 93.5312 175.846 94.7148H177.246V95.6172H167.695V94.7148H174.727C174.814 94.2812 174.873 93.8887 174.908 93.5254L168.762 93.7773L168.621 92.9102L174.961 92.7344C174.973 92.4297 174.973 92.1367 174.973 91.8555H168.891V90.9648H176.074ZM168.785 97.3516V96.4961H176.145V99.0391H169.922V99.9883H176.52V100.867H168.809V98.207H175.043V97.3516H168.785ZM189.656 90.8125V91.6562H188.133V93.4727H189.609V94.3281H181.91V93.4727H183.398V91.6562H181.863V90.8125H189.656ZM180.984 95.9805V95.1016H190.559V95.9805H180.984ZM182.133 97.6328V96.8008H189.352V99.2031H183.234V100.047H189.645V100.891H182.145V98.418H188.25V97.6328H182.133ZM184.5 93.4727H187.02V91.6562H184.5V93.4727ZM200.309 90.5078V97.6328H199.254V94.0938H197.965V96.7305H196.922V90.6953H197.965V93.1797H199.254V90.5078H200.309ZM191.801 92.1953V91.293H195.785V94.3047H192.902V95.6992C194.203 95.6934 195.193 95.6289 196.348 95.3945L196.465 96.2734C195.158 96.543 194.074 96.584 192.516 96.5898H191.824V93.4844H194.719V92.1953H191.801ZM192.668 100.082C194.637 99.8008 196.189 98.6758 196.195 97.3867V97.1406H197.309V97.3867C197.309 98.6758 198.861 99.8008 200.848 100.082L200.402 100.949C198.791 100.691 197.402 99.9121 196.758 98.8105C196.102 99.9121 194.719 100.691 193.113 100.949L192.668 100.082ZM211.301 95.7227V96.6133H201.727V95.7227H205.945V94.6328H202.652V93.7305H204.141V91.7266H202.605V90.8242H210.398V91.7266H208.875V93.7305H210.352V94.6328H207.059V95.7227H211.301ZM202.875 100.867V97.5273H210.129V100.867H202.875ZM203.977 99.9648H209.051V98.3945H203.977V99.9648ZM205.242 93.7305H207.762V91.7266H205.242V93.7305ZM220.793 90.4961V101.02H219.68V90.4961H220.793ZM212.461 94.9609C212.461 92.7168 213.592 91.2871 215.18 91.2812C216.738 91.2871 217.887 92.7168 217.887 94.9609C217.887 97.2285 216.738 98.6582 215.18 98.6523C213.592 98.6582 212.461 97.2285 212.461 94.9609ZM213.539 94.9609C213.533 96.6309 214.201 97.6562 215.18 97.6562C216.141 97.6562 216.809 96.6309 216.809 94.9609C216.809 93.3145 216.141 92.2832 215.18 92.2773C214.201 92.2832 213.533 93.3145 213.539 94.9609ZM231.504 90.4961V100.996H230.438V90.4961H231.504ZM222.586 95.0312C222.586 92.7578 223.477 91.334 224.848 91.3398C226.125 91.334 226.986 92.5469 227.115 94.5156H228.305V90.6953H229.371V100.48H228.305V95.418H227.121C227.021 97.4688 226.148 98.7402 224.848 98.7344C223.477 98.7402 222.586 97.3105 222.586 95.0312ZM223.617 95.0312C223.617 96.7012 224.092 97.6855 224.848 97.6797C225.621 97.6855 226.102 96.7012 226.102 95.0312C226.102 93.3555 225.621 92.377 224.848 92.3828C224.092 92.377 223.617 93.3555 223.617 95.0312ZM242.449 98.7578V99.6836H232.84V98.7578H235.137V96.0156C234.275 95.541 233.748 94.791 233.754 93.8477C233.748 92.1953 235.371 91.1113 237.621 91.1055C239.877 91.1113 241.5 92.1953 241.5 93.8477C241.5 94.7734 240.996 95.5176 240.152 95.9922V98.7578H242.449ZM234.832 93.8477C234.832 94.9727 235.975 95.7051 237.621 95.7109C239.256 95.7051 240.416 94.9727 240.422 93.8477C240.416 92.7168 239.256 91.9961 237.621 91.9961C235.975 91.9961 234.832 92.7168 234.832 93.8477ZM236.238 98.7578H239.027V96.4258C238.6 96.5254 238.125 96.5781 237.621 96.5781C237.129 96.5781 236.66 96.5254 236.238 96.4258V98.7578ZM244.406 100.082C243.949 100.076 243.568 99.707 243.574 99.25C243.568 98.793 243.949 98.418 244.406 98.418C244.857 98.418 245.232 98.793 245.238 99.25C245.232 99.707 244.857 100.076 244.406 100.082ZM21.3223 133.496V137.75H23.0098V138.676H21.3223V143.996H20.2207V133.496H21.3223ZM13.084 136.051V135.137H15.6738V133.637H16.7871V135.137H19.3066V136.051H13.084ZM13.623 139.262C13.623 137.832 14.7246 136.824 16.2363 136.824C17.7422 136.824 18.8438 137.832 18.8496 139.262C18.8438 140.703 17.7422 141.705 16.2363 141.711C14.7246 141.705 13.623 140.703 13.623 139.262ZM14.6895 139.262C14.6836 140.176 15.3398 140.785 16.2363 140.773C17.127 140.785 17.7773 140.176 17.7832 139.262C17.7773 138.365 17.127 137.744 16.2363 137.738C15.3398 137.744 14.6836 138.365 14.6895 139.262ZM27.3809 136.59C27.375 138.348 28.5293 140.164 30.1465 140.855L29.5371 141.723C28.3008 141.178 27.3164 140.018 26.8301 138.617C26.3438 140.117 25.3594 141.395 24.1348 141.992L23.4902 141.113C25.0723 140.369 26.2441 138.4 26.2559 136.59V135.477H23.8535V134.551H29.7715V135.477H27.3809V136.59ZM31.0957 143.996V133.496H32.209V143.996H31.0957ZM39.2051 134.422V139.32H34.2949V134.422H39.2051ZM35.3848 138.441H38.1152V135.324H35.3848V138.441ZM35.4785 143.773V140.445H36.5918V142.871H42.5801V143.773H35.4785ZM41.0215 141.184V133.484H42.1348V136.625H43.6582V137.562H42.1348V141.184H41.0215ZM55.5762 133.941V134.633C55.582 135.324 55.582 136.209 55.3535 137.352H56.7949V138.242H47.1855V137.352H54.2344C54.4512 136.291 54.4746 135.488 54.4746 134.832H48.3926V133.941H55.5762ZM48.3105 140.07V139.18H55.5879V141.934H49.4355V143H55.8574V143.891H48.3223V141.078H54.4863V140.07H48.3105ZM68.666 133.496V137.75H70.3535V138.676H68.666V143.996H67.5645V133.496H68.666ZM60.4277 136.051V135.137H63.0176V133.637H64.1309V135.137H66.6504V136.051H60.4277ZM60.9668 139.262C60.9668 137.832 62.0684 136.824 63.5801 136.824C65.0859 136.824 66.1875 137.832 66.1934 139.262C66.1875 140.703 65.0859 141.705 63.5801 141.711C62.0684 141.705 60.9668 140.703 60.9668 139.262ZM62.0332 139.262C62.0273 140.176 62.6836 140.785 63.5801 140.773C64.4707 140.785 65.1211 140.176 65.127 139.262C65.1211 138.365 64.4707 137.744 63.5801 137.738C62.6836 137.744 62.0273 138.365 62.0332 139.262ZM80.666 137.621V138.535H79.0371V143.984H77.9238V133.496H79.0371V137.621H80.666ZM71.2559 141.348V134.516H72.3574V140.422C73.8223 140.416 75.3516 140.293 77.0215 139.953L77.1504 140.891C75.3516 141.248 73.6992 141.354 72.123 141.348H71.2559ZM90.8262 138.312V139.168H81.2168V138.312H90.8262ZM82.3535 140.703V139.906H89.6426V142.215H83.4785V143.082H89.9707V143.867H82.3652V141.477H88.541V140.703H82.3535ZM82.4238 134.551V133.766H89.6191V136.039H83.5488V136.836H89.7949V137.621H82.4473V135.301H88.5059V134.551H82.4238ZM102.779 133.484V136.531H104.314V137.457H102.779V141.09H101.666V133.484H102.779ZM94.998 139.273V134.387H99.6855V135.289H96.0996V138.348C98.1445 138.354 99.293 138.289 100.611 138.02L100.74 138.922C99.3223 139.203 98.0801 139.273 95.8301 139.273H94.998ZM96.123 143.773V140.305H97.2363V142.871H103.225V143.773H96.123ZM110.256 134.223C110.262 135.535 111.943 136.807 113.936 137.094L113.502 137.973C111.832 137.697 110.367 136.836 109.693 135.658C109.025 136.854 107.549 137.721 105.873 137.996L105.451 137.117C107.443 136.812 109.113 135.576 109.119 134.223V133.766H110.256V134.223ZM104.889 139.684V138.781H114.498V139.684H110.326V141.711H109.225V139.684H104.889ZM106.084 143.773V140.727H107.197V142.871H113.432V143.773H106.084ZM123.967 133.496V143.996H122.854V133.496H123.967ZM115.506 136.062V135.16H118.096V133.602H119.221V135.16H121.834V136.062H115.506ZM116.045 139.262C116.039 137.832 117.152 136.824 118.682 136.824C120.211 136.824 121.324 137.832 121.33 139.262C121.324 140.703 120.211 141.705 118.682 141.711C117.152 141.705 116.039 140.703 116.045 139.262ZM117.1 139.262C117.1 140.176 117.762 140.785 118.682 140.773C119.602 140.785 120.264 140.176 120.264 139.262C120.264 138.365 119.602 137.744 118.682 137.738C117.762 137.744 117.1 138.365 117.1 139.262ZM137.268 133.496V139.039H136.166V133.496H137.268ZM128.783 136.332C128.789 134.938 129.949 133.953 131.549 133.953C133.131 133.953 134.297 134.938 134.303 136.332C134.297 137.721 133.131 138.705 131.549 138.699C129.949 138.705 128.789 137.721 128.783 136.332ZM129.873 143.867V141.207H132.322V140.328H129.873V139.473H133.412V142.004H130.951V143.023C132.264 143.012 133.096 142.977 134.092 142.789L134.209 143.621C133.055 143.844 132.135 143.861 130.529 143.867H129.873ZM129.873 136.332C129.867 137.193 130.582 137.797 131.549 137.797C132.51 137.797 133.225 137.193 133.225 136.332C133.225 135.465 132.51 134.873 131.549 134.879C130.582 134.873 129.867 135.465 129.873 136.332ZM133.846 140.387V139.473H137.268V143.926H136.178V140.387H133.846ZM147.439 136.566V137.457H140.209V133.871H141.311V136.566H147.439ZM138.932 139.672V138.781H148.541V139.672H138.932ZM140.127 143.75V140.668H141.24V142.836H147.51V143.75H140.127ZM160.998 133.508V140.562H159.885V137.316H157.74V136.402H159.885V133.508H160.998ZM152.396 139.074C154.869 138.324 156.27 136.965 156.48 135.219H152.936V134.316H157.67C157.67 137.059 155.965 138.98 152.889 139.953L152.396 139.074ZM153.51 143.07C155.484 142.754 156.984 141.559 156.99 140.129V139.695H158.092V140.129C158.092 141.547 159.574 142.719 161.549 143.059L161.092 143.938C159.498 143.65 158.168 142.854 157.535 141.699C156.896 142.859 155.549 143.662 153.943 143.961L153.51 143.07ZM171.65 133.496V143.996H170.584V133.496H171.65ZM162.732 138.031C162.732 135.758 163.623 134.334 164.994 134.34C166.271 134.334 167.133 135.547 167.262 137.516H168.451V133.695H169.518V143.48H168.451V138.418H167.268C167.168 140.469 166.295 141.74 164.994 141.734C163.623 141.74 162.732 140.311 162.732 138.031ZM163.764 138.031C163.764 139.701 164.238 140.686 164.994 140.68C165.768 140.686 166.248 139.701 166.248 138.031C166.248 136.355 165.768 135.377 164.994 135.383C164.238 135.377 163.764 136.355 163.764 138.031ZM184.236 134.562V135.688C184.236 137.047 184.236 138.518 183.85 140.762L182.713 140.656C183.135 138.553 183.135 137.012 183.135 135.688V135.477H176.947V134.562H184.236ZM175.916 142.508V141.582H185.49V142.508H175.916ZM194.982 133.496V143.996H193.869V133.496H194.982ZM186.439 141.125C188.062 140.398 189.141 138.629 189.146 136.871V136.18H186.756V135.289H189.135V133.707H190.236V135.289H192.592V136.18H190.236V136.871C190.242 138.547 191.344 140.258 192.979 140.949L192.369 141.805C191.156 141.277 190.195 140.182 189.709 138.857C189.234 140.264 188.279 141.43 187.061 141.98L186.439 141.125ZM200.525 136.59C200.52 138.348 201.674 140.164 203.291 140.855L202.682 141.723C201.445 141.178 200.461 140.018 199.975 138.617C199.488 140.117 198.504 141.395 197.279 141.992L196.635 141.113C198.217 140.369 199.389 138.4 199.4 136.59V135.477H196.998V134.551H202.916V135.477H200.525V136.59ZM204.24 143.996V133.496H205.354V143.996H204.24ZM212.877 134.059C214.465 134.064 215.631 135.072 215.631 136.496C215.631 137.926 214.465 138.928 212.877 138.934C211.295 138.928 210.111 137.926 210.123 136.496C210.111 135.072 211.295 134.064 212.877 134.059ZM211.014 143.715V139.812H212.104V142.801C212.719 142.771 213.428 142.684 214.096 142.461L214.26 143.34C213.281 143.674 212.338 143.715 211.553 143.715H211.014ZM211.201 136.496C211.195 137.393 211.928 138.02 212.877 138.02C213.832 138.02 214.553 137.393 214.553 136.496C214.553 135.605 213.832 134.984 212.877 134.984C211.928 134.984 211.195 135.605 211.201 136.496ZM213.896 140.703V139.848H216.018V138.992H217.107V139.848H219.193V140.703H213.896ZM214.564 142.508C214.553 141.594 215.361 141.014 216.545 141.008C217.705 141.014 218.525 141.594 218.525 142.508C218.525 143.41 217.705 143.979 216.545 143.973C215.361 143.979 214.553 143.41 214.564 142.508ZM215.549 142.508C215.549 142.936 215.965 143.199 216.545 143.199C217.113 143.199 217.523 142.936 217.529 142.508C217.523 142.08 217.113 141.805 216.545 141.805C215.965 141.805 215.549 142.08 215.549 142.508ZM217.096 138.723V133.496H218.209V135.793H219.732V136.719H218.209V138.723H217.096ZM228.826 134.504V135.535C228.82 136.83 228.82 138.283 228.428 140.434L227.303 140.316C227.707 138.283 227.707 136.795 227.713 135.535V135.406H221.338V134.504H228.826ZM220.33 142.578V141.652H223.975V137.949H225.076V141.652H229.904V142.578H220.33ZM53.0742 162.758V163.684H43.4648V162.758H47.6953V160.332H44.5664V155.34H51.9258V160.332H48.7969V162.758H53.0742ZM45.6445 159.453H50.8359V156.23H45.6445V159.453ZM63.4219 159.758V160.648H53.8359V159.758H63.4219ZM55.0312 158.703V154.93H62.2383V155.82H56.1445V157.789H62.3438V158.703H55.0312ZM55.043 164.773V161.68H56.1445V163.859H62.4141V164.773H55.043ZM76.7344 159.805V160.707H72.5625V162.746H71.4609V160.707H67.125V159.805H76.7344ZM68.3203 164.773V161.75H69.4336V163.871H75.668V164.773H68.3203ZM68.3555 158.715V154.988H75.4922V158.715H68.3555ZM69.4453 157.836H74.3906V155.867H69.4453V157.836ZM81.1758 156.43C81.1699 157.766 82.1016 158.984 83.6953 159.488L83.168 160.355C81.9727 159.975 81.0996 159.184 80.6367 158.188C80.1797 159.336 79.2598 160.244 78 160.684L77.4258 159.793C79.0664 159.254 80.0566 157.9 80.0625 156.441V156.148H77.7539V155.246H83.4375V156.148H81.1758V156.43ZM78.8438 163.004C78.8438 161.773 80.1855 161.053 82.3711 161.059C84.5332 161.053 85.8516 161.773 85.8516 163.004C85.8516 164.252 84.5332 164.979 82.3711 164.973C80.1855 164.979 78.8438 164.252 78.8438 163.004ZM79.957 163.004C79.9512 163.707 80.8535 164.1 82.3711 164.094C83.877 164.1 84.7676 163.707 84.7617 163.004C84.7676 162.318 83.877 161.932 82.3711 161.938C80.8535 161.932 79.9512 162.318 79.957 163.004ZM84.6445 160.801V154.496H85.7578V157.098H87.2812V158.012H85.7578V160.801H84.6445ZM92.6602 154.672C95.0273 154.666 96.4043 155.305 96.4102 156.477C96.4043 157.654 95.0273 158.293 92.6602 158.293C90.293 158.293 88.9043 157.654 88.9102 156.477C88.9043 155.305 90.293 154.666 92.6602 154.672ZM87.8789 159.828V158.938H97.4531V159.828H87.8789ZM89.0273 161.469V160.637H96.2461V163.098H90.1289V164.035H96.5391V164.891H89.0391V162.289H95.1445V161.469H89.0273ZM90.0703 156.477C90.0645 157.127 90.9902 157.461 92.6602 157.461C94.3418 157.461 95.2676 157.127 95.2617 156.477C95.2676 155.855 94.3418 155.492 92.6602 155.492C90.9902 155.492 90.0645 155.855 90.0703 156.477ZM104.391 156.512C104.391 157.66 105.123 158.82 106.488 159.336L105.902 160.191C104.924 159.816 104.238 159.102 103.863 158.24C103.477 159.213 102.762 160.057 101.742 160.496L101.133 159.629C102.551 159.014 103.312 157.678 103.312 156.512V155.152H104.391V156.512ZM103.066 163.074C103.055 161.879 104.42 161.17 106.617 161.164C108.809 161.17 110.186 161.879 110.191 163.074C110.186 164.27 108.809 164.979 106.617 164.973C104.42 164.979 103.055 164.27 103.066 163.074ZM104.168 163.074C104.156 163.742 105.088 164.129 106.617 164.117C108.141 164.129 109.072 163.742 109.078 163.074C109.072 162.4 108.141 162.014 106.617 162.02C105.088 162.014 104.156 162.4 104.168 163.074ZM106.816 160.637V154.695H107.848V157.238H109.078V154.508H110.133V160.965H109.078V158.152H107.848V160.637H106.816ZM119.801 154.496V157.086H121.324V158.023H119.801V160.637H118.688V154.496H119.801ZM111.492 159.688C114.012 159.025 115.506 157.695 115.699 156.043H111.996V155.141H116.895C116.889 157.842 115.066 159.74 111.949 160.543L111.492 159.688ZM112.863 161.996V161.094H119.801V164.996H118.688V161.996H112.863ZM125.344 155.246C127.002 155.24 128.197 156.266 128.203 157.742C128.197 159.219 127.002 160.244 125.344 160.25C123.691 160.244 122.479 159.219 122.484 157.742C122.479 156.266 123.691 155.24 125.344 155.246ZM121.98 161.832C123.891 161.832 126.539 161.814 128.836 161.48L128.918 162.289C126.545 162.746 123.996 162.758 122.121 162.758L121.98 161.832ZM123.586 157.742C123.574 158.674 124.324 159.277 125.344 159.277C126.363 159.277 127.113 158.674 127.113 157.742C127.113 156.822 126.363 156.207 125.344 156.207C124.324 156.207 123.574 156.822 123.586 157.742ZM129.492 165.02V154.496H130.605V165.02H129.492ZM143.473 154.496V157.086H144.996V158.023H143.473V160.637H142.359V154.496H143.473ZM135.164 159.688C137.684 159.025 139.178 157.695 139.371 156.043H135.668V155.141H140.566C140.561 157.842 138.738 159.74 135.621 160.543L135.164 159.688ZM136.535 161.996V161.094H143.473V164.996H142.359V161.996H136.535ZM155.168 160.414V161.316H150.902V164.984H149.812V161.316H145.594V160.414H155.168ZM146.133 158.738C148.09 158.469 149.719 157.303 149.754 156.008H146.484V155.117H154.266V156.008H151.02C151.037 157.303 152.654 158.469 154.641 158.738L154.23 159.617C152.508 159.348 151.02 158.498 150.381 157.303C149.736 158.498 148.254 159.348 146.555 159.617L146.133 158.738ZM165.574 162.805V163.742H155.965V162.805H160.195V160.965H157.137V157.625H163.301V156.148H157.113V155.234H164.402V158.516H158.238V160.051H164.648V160.965H161.297V162.805H165.574ZM174.586 155.422V160.32H169.676V155.422H174.586ZM170.766 159.441H173.496V156.324H170.766V159.441ZM170.859 164.773V161.445H171.973V163.871H177.961V164.773H170.859ZM176.402 162.184V154.484H177.516V157.625H179.039V158.562H177.516V162.184H176.402ZM189.223 158.797V159.688H179.637V158.797H189.223ZM180.785 161.375V160.52H188.004V163.062H181.887V164H188.297V164.879H180.797V162.242H186.902V161.375H180.785ZM180.891 158.035V154.801H187.98V155.703H182.004V157.145H188.086V158.035H180.891ZM192.855 155.281C194.285 155.287 195.322 156.494 195.492 158.434H197.66V154.496H198.762V165.02H197.66V159.336H195.504C195.381 161.387 194.32 162.658 192.855 162.652C191.291 162.658 190.184 161.229 190.195 158.961C190.184 156.717 191.291 155.287 192.855 155.281ZM191.25 158.961C191.256 160.631 191.906 161.656 192.855 161.656C193.805 161.656 194.455 160.631 194.461 158.961C194.455 157.314 193.805 156.283 192.855 156.277C191.906 156.283 191.256 157.314 191.25 158.961ZM16.9395 176.469V177.395H13.248V182.516C15.0117 182.504 16.2129 182.439 17.5957 182.176L17.7246 183.09C16.2129 183.377 14.9355 183.441 12.9551 183.441H12.123V176.469H16.9395ZM16.3418 180.172V179.246H19.2598V175.496H20.373V186.02H19.2598V180.172H16.3418ZM33.1582 175.496V177.805H34.6816V178.73H33.1582V180.828H32.0449V175.496H33.1582ZM25.3184 180.488V176.176H30.2285V180.488H25.3184ZM25.9629 185.715V181.742H27.0527V184.801C27.668 184.771 28.377 184.684 29.0449 184.461L29.209 185.34C28.2305 185.674 27.2871 185.715 26.502 185.715H25.9629ZM26.4082 179.598H29.1387V177.066H26.4082V179.598ZM28.8457 182.68V181.859H30.9668V180.98H32.0566V181.859H34.1426V182.68H28.8457ZM29.5137 184.496C29.502 183.588 30.3105 183.031 31.4941 183.02C32.6543 183.031 33.4746 183.588 33.4746 184.496C33.4746 185.404 32.6543 185.973 31.4941 185.973C30.3105 185.973 29.502 185.404 29.5137 184.496ZM30.498 184.496C30.498 184.941 30.9141 185.211 31.4941 185.211C32.0625 185.211 32.4727 184.941 32.4785 184.496C32.4727 184.062 32.0625 183.805 31.4941 183.793C30.9141 183.805 30.498 184.062 30.498 184.496ZM44.8535 180.98V181.871H35.2793V180.98H44.8535ZM36.3105 177.945C36.3047 176.627 37.7754 175.842 40.0605 175.848C42.334 175.842 43.8047 176.627 43.8105 177.945C43.8047 179.27 42.334 180.072 40.0605 180.078C37.7754 180.072 36.3047 179.27 36.3105 177.945ZM36.4863 185.773V182.727H37.6113V184.871H43.7754V185.773H36.4863ZM37.459 177.945C37.4531 178.725 38.4492 179.164 40.0605 179.164C41.666 179.164 42.668 178.725 42.6621 177.945C42.668 177.195 41.666 176.738 40.0605 176.738C38.4492 176.738 37.4531 177.195 37.459 177.945ZM52.2246 178.168C52.2129 180.025 53.2969 181.93 54.8613 182.691L54.1699 183.582C53.0273 182.984 52.1426 181.812 51.6797 180.412C51.2109 181.9 50.291 183.16 49.0957 183.781L48.4043 182.879C50.0156 182.105 51.1055 180.09 51.1113 178.168V176.375H52.2246V178.168ZM55.6465 185.996V175.496H56.7598V179.68H58.4473V180.629H56.7598V185.996H55.6465ZM67.2012 175.508V178.121H68.7363V179.059H67.2012V181.754H66.0879V175.508H67.2012ZM59.373 176.949V176.059H64.1543V179.023H60.498V180.336C62.3203 180.33 63.6094 180.277 65.1387 180.02L65.2559 180.91C63.6328 181.203 62.2441 181.262 60.2285 181.262H59.3848V178.18H63.0645V176.949H59.373ZM60.4746 185.867V182.246H67.2012V185.867H60.4746ZM61.5645 184.965H66.123V183.113H61.5645V184.965ZM78.9082 179.797V180.688H69.3223V179.797H78.9082ZM70.4707 182.375V181.52H77.6895V184.062H71.5723V185H77.9824V185.879H70.4824V183.242H76.5879V182.375H70.4707ZM70.5762 179.035V175.801H77.666V176.703H71.6895V178.145H77.7715V179.035H70.5762ZM83.1152 176.246C84.7734 176.24 85.9688 177.266 85.9746 178.742C85.9688 180.219 84.7734 181.244 83.1152 181.25C81.4629 181.244 80.25 180.219 80.2559 178.742C80.25 177.266 81.4629 176.24 83.1152 176.246ZM79.752 182.832C81.6621 182.832 84.3105 182.814 86.6074 182.48L86.6895 183.289C84.3164 183.746 81.7676 183.758 79.8926 183.758L79.752 182.832ZM81.3574 178.742C81.3457 179.674 82.0957 180.277 83.1152 180.277C84.1348 180.277 84.8848 179.674 84.8848 178.742C84.8848 177.822 84.1348 177.207 83.1152 177.207C82.0957 177.207 81.3457 177.822 81.3574 178.742ZM87.2637 186.02V175.496H88.377V186.02H87.2637ZM91.9512 184.191L91.0137 187.426H90.0176L90.6387 184.191H91.9512ZM101.396 176.469V177.395H97.7051V182.516C99.4688 182.504 100.67 182.439 102.053 182.176L102.182 183.09C100.67 183.377 99.3926 183.441 97.4121 183.441H96.5801V176.469H101.396ZM100.799 180.172V179.246H103.717V175.496H104.83V186.02H103.717V180.172H100.799ZM117.545 175.496V179.562H119.232V180.477H117.545V186.02H116.432V175.496H117.545ZM109.811 183.406V176.504H114.721V177.406H110.924V182.48C112.688 182.475 114.006 182.398 115.506 182.129L115.646 183.066C114 183.359 112.605 183.412 110.654 183.406H109.811ZM129.475 176.984V177.898H127.986V179.234H129.475V180.16H127.986V181.695H126.873V175.496H127.986V176.984H129.475ZM119.9 178.602C119.889 177.125 121.084 176.105 122.689 176.105C124.301 176.105 125.479 177.125 125.49 178.602C125.479 180.066 124.301 181.092 122.689 181.098C121.084 181.092 119.889 180.066 119.9 178.602ZM120.99 178.602C120.979 179.533 121.705 180.148 122.689 180.16C123.674 180.148 124.395 179.533 124.4 178.602C124.395 177.676 123.674 177.037 122.689 177.043C121.705 177.037 120.979 177.676 120.99 178.602ZM121.072 183.98C121.072 182.721 122.432 181.982 124.6 181.977C126.744 181.982 128.08 182.721 128.08 183.98C128.08 185.234 126.744 185.979 124.6 185.973C122.432 185.979 121.072 185.234 121.072 183.98ZM122.186 183.98C122.18 184.695 123.082 185.088 124.6 185.082C126.105 185.088 126.996 184.695 126.99 183.98C126.996 183.277 126.105 182.873 124.6 182.879C123.082 182.873 122.18 183.277 122.186 183.98ZM138.357 175.508V178.883H139.881V179.809H138.357V183.359H137.244V175.508H138.357ZM130.119 177.629V176.727H132.697V175.496H133.811V176.727H136.377V177.629H130.119ZM130.693 180.113C130.688 178.912 131.725 178.127 133.248 178.133C134.754 178.127 135.791 178.912 135.791 180.113C135.791 181.303 134.754 182.076 133.248 182.082C131.725 182.076 130.688 181.303 130.693 180.113ZM131.701 185.773V182.738H132.814V184.871H138.803V185.773H131.701ZM131.771 180.113C131.76 180.799 132.357 181.221 133.248 181.215C134.139 181.221 134.736 180.799 134.748 180.113C134.736 179.422 134.139 178.994 133.248 178.988C132.357 178.994 131.76 179.422 131.771 180.113ZM146.83 176.246C148.488 176.24 149.684 177.266 149.689 178.742C149.684 180.219 148.488 181.244 146.83 181.25C145.178 181.244 143.965 180.219 143.971 178.742C143.965 177.266 145.178 176.24 146.83 176.246ZM143.467 182.832C145.377 182.832 148.025 182.814 150.322 182.48L150.404 183.289C148.031 183.746 145.482 183.758 143.607 183.758L143.467 182.832ZM145.072 178.742C145.061 179.674 145.811 180.277 146.83 180.277C147.85 180.277 148.6 179.674 148.6 178.742C148.6 177.822 147.85 177.207 146.83 177.207C145.811 177.207 145.061 177.822 145.072 178.742ZM150.979 186.02V175.496H152.092V186.02H150.979ZM162.533 175.508V183.301H161.42V180.887H158.736V179.973H161.42V178.531H158.883C158.139 180.166 156.562 181.396 154.424 182.07L153.943 181.191C156.334 180.418 157.922 178.994 158.145 177.207H154.482V176.316H159.357C159.357 176.773 159.299 177.213 159.199 177.629H161.42V175.508H162.533ZM155.771 185.773V182.527H156.896V184.871H162.803V185.773H155.771ZM168.932 175.672C171.299 175.666 172.676 176.305 172.682 177.477C172.676 178.654 171.299 179.293 168.932 179.293C166.564 179.293 165.176 178.654 165.182 177.477C165.176 176.305 166.564 175.666 168.932 175.672ZM164.15 180.828V179.938H173.725V180.828H164.15ZM165.299 182.469V181.637H172.518V184.098H166.4V185.035H172.811V185.891H165.311V183.289H171.416V182.469H165.299ZM166.342 177.477C166.336 178.127 167.262 178.461 168.932 178.461C170.613 178.461 171.539 178.127 171.533 177.477C171.539 176.855 170.613 176.492 168.932 176.492C167.262 176.492 166.336 176.855 166.342 177.477ZM185.971 178.953V179.855H178.67V176.012H179.783V178.953H185.971ZM177.451 182.223V181.309H187.061V182.223H182.76V185.996H181.658V182.223H177.451ZM196.178 176.152V177.078C196.178 178.074 196.178 179.158 195.885 180.652H197.396V181.566H193.143V186.008H192.018V181.566H187.822V180.652H194.76C195.07 179.152 195.07 178.057 195.076 177.078V177.066H188.994V176.152H196.178ZM208.002 179.621V180.535H206.373V185.984H205.26V175.496H206.373V179.621H208.002ZM198.592 183.348V176.516H199.693V182.422C201.158 182.416 202.688 182.293 204.357 181.953L204.486 182.891C202.688 183.248 201.035 183.354 199.459 183.348H198.592ZM214.248 182.012V183.078H219.064V182.012H220.166V185.867H213.135V182.012H214.248ZM211.506 180.031C213.486 180.037 216.1 180.037 218.385 179.738L218.455 180.535C217.553 180.688 216.615 180.781 215.701 180.84V182.305H214.6V180.898C213.539 180.939 212.531 180.945 211.646 180.945L211.506 180.031ZM211.939 178.602C213.521 178.25 214.477 177.318 214.482 176.246V175.754H215.619V176.246C215.619 177.26 216.592 178.133 218.15 178.461L217.658 179.293C216.439 179.029 215.525 178.42 215.062 177.582C214.611 178.484 213.691 179.164 212.443 179.469L211.939 178.602ZM214.248 184.965H219.064V183.934H214.248V184.965ZM219.053 181.531V175.508H220.166V181.531H219.053ZM230.889 175.496V185.996H229.834V175.496H230.889ZM221.83 182.961C224.057 181.637 225.123 179.873 225.316 177.711H222.322V176.797H226.424C226.418 177.822 226.277 178.801 225.955 179.715H227.619V175.766H228.674V185.48H227.619V180.605H225.568C224.947 181.824 223.945 182.891 222.463 183.758L221.83 182.961ZM41.2383 205.77V206.695H31.6289V205.77H35.8594V203.613H32.7305V198.211H33.8438V200.016H39V198.211H40.1016V203.613H36.9609V205.77H41.2383ZM33.8438 202.711H39V200.918H33.8438V202.711ZM50.4961 198.504V199.535C50.4902 200.83 50.4902 202.283 50.0977 204.434L48.9727 204.316C49.377 202.283 49.377 200.795 49.3828 199.535V199.406H43.0078V198.504H50.4961ZM42 206.578V205.652H45.6445V201.949H46.7461V205.652H51.5742V206.578H42ZM64.8867 201.797V202.688H55.3008V201.797H64.8867ZM56.4492 204.375V203.52H63.668V206.062H57.5508V207H63.9609V207.879H56.4609V205.242H62.5664V204.375H56.4492ZM56.5547 201.035V197.801H63.6445V198.703H57.668V200.145H63.75V201.035H56.5547ZM70.4531 197.672C72.8203 197.666 74.1973 198.305 74.2031 199.477C74.1973 200.654 72.8203 201.293 70.4531 201.293C68.0859 201.293 66.6973 200.654 66.7031 199.477C66.6973 198.305 68.0859 197.666 70.4531 197.672ZM65.6719 202.828V201.938H75.2461V202.828H65.6719ZM66.8203 204.469V203.637H74.0391V206.098H67.9219V207.035H74.332V207.891H66.832V205.289H72.9375V204.469H66.8203ZM67.8633 199.477C67.8574 200.127 68.7832 200.461 70.4531 200.461C72.1348 200.461 73.0605 200.127 73.0547 199.477C73.0605 198.855 72.1348 198.492 70.4531 198.492C68.7832 198.492 67.8574 198.855 67.8633 199.477ZM84.3516 198.422C84.3457 199.816 86.0508 201.123 88.1133 201.398L87.6797 202.312C85.9629 202.037 84.457 201.146 83.7715 199.91C83.0859 201.146 81.5801 202.037 79.875 202.312L79.4297 201.398C81.4863 201.123 83.1855 199.834 83.1914 198.422V197.848H84.3516V198.422ZM78.9727 204.258V203.344H88.5469V204.258H84.2812V207.996H83.1914V204.258H78.9727ZM95.918 204.434C95.918 205.336 96.3633 206.291 97.3184 206.859C98.2793 206.244 98.7539 205.242 98.7539 204.434V203.93H99.8438V204.434C99.8379 205.523 100.559 206.578 101.93 207.023L101.379 207.844C100.342 207.486 99.6328 206.783 99.2695 205.928C98.9355 206.771 98.3086 207.539 97.3477 207.938C96.3398 207.557 95.7012 206.812 95.3789 205.957C94.998 206.783 94.3066 207.48 93.3164 207.844L92.7539 207.023C94.1016 206.543 94.834 205.447 94.8398 204.434V203.93H95.918V204.434ZM92.4844 200.566C92.4902 199.096 93.6738 198.088 95.2852 198.082C96.8906 198.088 98.0742 199.096 98.0742 200.566C98.0742 202.02 96.8906 203.027 95.2852 203.027C93.6738 203.027 92.4902 202.02 92.4844 200.566ZM93.5742 200.566C93.5684 201.48 94.2891 202.102 95.2852 202.102C96.2695 202.102 96.9844 201.48 96.9844 200.566C96.9844 199.646 96.2695 199.025 95.2852 199.031C94.2891 199.025 93.5684 199.646 93.5742 200.566ZM99.8672 203.484V197.508H100.98V203.484H99.8672ZM111.141 200.566V201.457H103.91V197.871H105.012V200.566H111.141ZM102.633 203.672V202.781H112.242V203.672H102.633ZM103.828 207.75V204.668H104.941V206.836H111.211V207.75H103.828ZM119.18 200.344C119.18 202.084 119.9 203.842 121.324 204.609L120.668 205.488C119.678 204.932 119.004 203.93 118.635 202.734C118.248 204.041 117.527 205.154 116.508 205.758L115.805 204.949C117.305 204.076 118.102 202.201 118.102 200.414V198.457H119.18V200.344ZM121.582 207.48V197.695H122.648V201.68H123.914V197.496H124.98V207.996H123.914V202.582H122.648V207.48H121.582ZM135.926 205.805V206.742H126.316V205.805H130.547V203.965H127.488V200.625H133.652V199.148H127.465V198.234H134.754V201.516H128.59V203.051H135V203.965H131.648V205.805H135.926ZM146.285 202.758V203.66H142.125V205.699H141V203.66H136.676V202.758H146.285ZM137.73 199.875C137.725 198.562 139.213 197.748 141.469 197.742C143.725 197.748 145.201 198.562 145.195 199.875C145.201 201.182 143.725 201.996 141.469 201.996C139.213 201.996 137.725 201.182 137.73 199.875ZM137.883 207.773V204.691H138.996V206.859H145.219V207.773H137.883ZM138.926 199.875C138.914 200.631 139.934 201.094 141.469 201.094C143.01 201.094 144.018 200.631 144.023 199.875C144.018 199.096 143.01 198.639 141.469 198.633C139.934 198.639 138.914 199.096 138.926 199.875ZM153.633 200.168C153.621 202.025 154.705 203.93 156.27 204.691L155.578 205.582C154.436 204.984 153.551 203.812 153.088 202.412C152.619 203.9 151.699 205.16 150.504 205.781L149.812 204.879C151.424 204.105 152.514 202.09 152.52 200.168V198.375H153.633V200.168ZM157.055 207.996V197.496H158.168V201.68H159.855V202.629H158.168V207.996H157.055ZM168.855 198.504V199.535C168.85 200.83 168.85 202.283 168.457 204.434L167.332 204.316C167.736 202.283 167.736 200.795 167.742 199.535V199.406H161.367V198.504H168.855ZM160.359 206.578V205.652H164.004V201.949H165.105V205.652H169.934V206.578H160.359ZM174.152 198.246C175.811 198.24 177.006 199.266 177.012 200.742C177.006 202.219 175.811 203.244 174.152 203.25C172.5 203.244 171.287 202.219 171.293 200.742C171.287 199.266 172.5 198.24 174.152 198.246ZM170.789 204.832C172.699 204.832 175.348 204.814 177.645 204.48L177.727 205.289C175.354 205.746 172.805 205.758 170.93 205.758L170.789 204.832ZM172.395 200.742C172.383 201.674 173.133 202.277 174.152 202.277C175.172 202.277 175.922 201.674 175.922 200.742C175.922 199.822 175.172 199.207 174.152 199.207C173.133 199.207 172.383 199.822 172.395 200.742ZM178.301 208.02V197.496H179.414V208.02H178.301ZM187.699 199.43C187.693 200.766 188.625 201.984 190.219 202.488L189.691 203.355C188.496 202.975 187.623 202.184 187.16 201.188C186.703 202.336 185.783 203.244 184.523 203.684L183.949 202.793C185.59 202.254 186.58 200.9 186.586 199.441V199.148H184.277V198.246H189.961V199.148H187.699V199.43ZM185.367 206.004C185.367 204.773 186.709 204.053 188.895 204.059C191.057 204.053 192.375 204.773 192.375 206.004C192.375 207.252 191.057 207.979 188.895 207.973C186.709 207.979 185.367 207.252 185.367 206.004ZM186.48 206.004C186.475 206.707 187.377 207.1 188.895 207.094C190.4 207.1 191.291 206.707 191.285 206.004C191.291 205.318 190.4 204.932 188.895 204.938C187.377 204.932 186.475 205.318 186.48 206.004ZM191.168 203.801V197.496H192.281V200.098H193.805V201.012H192.281V203.801H191.168ZM203.098 197.496V208.02H201.984V197.496H203.098ZM194.766 201.961C194.766 199.717 195.896 198.287 197.484 198.281C199.043 198.287 200.191 199.717 200.191 201.961C200.191 204.229 199.043 205.658 197.484 205.652C195.896 205.658 194.766 204.229 194.766 201.961ZM195.844 201.961C195.838 203.631 196.506 204.656 197.484 204.656C198.445 204.656 199.113 203.631 199.113 201.961C199.113 200.314 198.445 199.283 197.484 199.277C196.506 199.283 195.838 200.314 195.844 201.961ZM208.43 200.59C208.424 202.248 209.52 204.1 211.113 204.855L210.48 205.723C209.303 205.16 208.365 203.977 207.891 202.605C207.41 204.1 206.426 205.395 205.23 205.992L204.574 205.113C206.168 204.346 207.322 202.365 207.328 200.59V199.477H204.961V198.551H210.715V199.477H208.43V200.59ZM211.84 207.996V197.496H212.953V201.656H214.641V202.594H212.953V207.996H211.84ZM42.0645 221.168C42.0645 223.09 43.1426 225.006 44.748 225.727L44.0684 226.617C42.8789 226.02 41.9766 224.836 41.5137 223.4C41.0508 224.912 40.1367 226.189 38.9238 226.816L38.2207 225.914C39.8496 225.135 40.9336 223.113 40.9395 221.168V219.375H42.0645V221.168ZM43.5879 222.891V221.988H45.9316V218.496H47.0332V229.02H45.9316V222.891H43.5879ZM58.2598 226.805V227.742H48.6504V226.805H52.8809V224.965H49.8223V221.625H55.9863V220.148H49.7988V219.234H57.0879V222.516H50.9238V224.051H57.334V224.965H53.9824V226.805H58.2598ZM68.0566 218.496V228.996H66.9902V218.496H68.0566ZM59.1387 223.031C59.1387 220.758 60.0293 219.334 61.4004 219.34C62.6777 219.334 63.5391 220.547 63.668 222.516H64.8574V218.695H65.9238V228.48H64.8574V223.418H63.6738C63.5742 225.469 62.7012 226.74 61.4004 226.734C60.0293 226.74 59.1387 225.311 59.1387 223.031ZM60.1699 223.031C60.1699 224.701 60.6445 225.686 61.4004 225.68C62.1738 225.686 62.6543 224.701 62.6543 223.031C62.6543 221.355 62.1738 220.377 61.4004 220.383C60.6445 220.377 60.1699 221.355 60.1699 223.031ZM81.334 218.496V228.996H80.2676V223.57H78.9082V228.457H77.8887V218.707H78.9082V222.656H80.2676V218.496H81.334ZM72.6738 226.477V219.762H76.6113V220.664H73.7871V225.527C75.0762 225.521 76.0488 225.463 77.1738 225.246L77.2559 226.16C75.9961 226.424 74.9062 226.465 73.377 226.477H72.6738ZM90.9434 218.508V221.883H92.4668V222.809H90.9434V226.359H89.8301V218.508H90.9434ZM82.7051 220.629V219.727H85.2832V218.496H86.3965V219.727H88.9629V220.629H82.7051ZM83.2793 223.113C83.2734 221.912 84.3105 221.127 85.834 221.133C87.3398 221.127 88.377 221.912 88.377 223.113C88.377 224.303 87.3398 225.076 85.834 225.082C84.3105 225.076 83.2734 224.303 83.2793 223.113ZM84.2871 228.773V225.738H85.4004V227.871H91.3887V228.773H84.2871ZM84.3574 223.113C84.3457 223.799 84.9434 224.221 85.834 224.215C86.7246 224.221 87.3223 223.799 87.334 223.113C87.3223 222.422 86.7246 221.994 85.834 221.988C84.9434 221.994 84.3457 222.422 84.3574 223.113ZM100.729 225.094C103.002 225.094 104.438 225.814 104.443 227.039C104.438 228.258 103.002 228.979 100.729 228.973C98.4785 228.979 97.0371 228.258 97.0371 227.039C97.0371 225.814 98.4785 225.094 100.729 225.094ZM96.0059 224.227V223.324H99.8379V221.355H100.928V223.324H105.557V224.227H96.0059ZM97.1191 219.902V219.012H104.361V219.891C104.367 220.729 104.367 221.596 104.068 222.68L102.979 222.562C103.26 221.49 103.26 220.717 103.26 219.902H97.1191ZM98.1504 227.039C98.1387 227.719 99.1406 228.111 100.729 228.117C102.334 228.111 103.33 227.719 103.342 227.039C103.33 226.348 102.334 225.943 100.729 225.938C99.1406 225.943 98.1387 226.348 98.1504 227.039ZM114.615 218.496V220.969H116.139V221.895H114.615V224.426H113.502V218.496H114.615ZM106.318 223.688C108.832 223.025 110.309 221.707 110.514 220.066H106.811V219.152H111.721C111.715 221.842 109.893 223.734 106.764 224.578L106.318 223.688ZM107.889 228.855V224.871H114.615V228.855H107.889ZM109.002 227.965H113.514V225.797H109.002V227.965ZM120.158 219.246C121.816 219.24 123.012 220.266 123.018 221.742C123.012 223.219 121.816 224.244 120.158 224.25C118.506 224.244 117.293 223.219 117.299 221.742C117.293 220.266 118.506 219.24 120.158 219.246ZM116.795 225.832C118.705 225.832 121.354 225.814 123.65 225.48L123.732 226.289C121.359 226.746 118.811 226.758 116.936 226.758L116.795 225.832ZM118.4 221.742C118.389 222.674 119.139 223.277 120.158 223.277C121.178 223.277 121.928 222.674 121.928 221.742C121.928 220.822 121.178 220.207 120.158 220.207C119.139 220.207 118.389 220.822 118.4 221.742ZM124.307 229.02V218.496H125.42V229.02H124.307ZM133.893 221.168C133.881 223.084 135.041 225.018 136.67 225.738L136.002 226.617C134.795 226.043 133.84 224.865 133.348 223.43C132.861 224.971 131.895 226.236 130.635 226.852L129.955 225.914C131.607 225.182 132.768 223.172 132.768 221.168V219.375H133.893V221.168ZM137.619 229.02V218.496H138.732V229.02H137.619ZM144.076 220.383C144.07 221.725 145.002 222.996 146.607 223.535L146.045 224.402C144.855 223.992 143.982 223.172 143.525 222.141C143.068 223.271 142.154 224.168 140.924 224.602L140.326 223.734C141.967 223.178 142.957 221.818 142.963 220.371V220.09H140.654V219.188H146.338V220.09H144.076V220.383ZM141.721 226.242V225.34H148.658V228.996H147.545V226.242H141.721ZM147.545 224.824V218.496H148.658V221.191H150.182V222.129H148.658V224.824H147.545ZM159.475 218.496V229.02H158.361V218.496H159.475ZM151.143 222.961C151.143 220.717 152.273 219.287 153.861 219.281C155.42 219.287 156.568 220.717 156.568 222.961C156.568 225.229 155.42 226.658 153.861 226.652C152.273 226.658 151.143 225.229 151.143 222.961ZM152.221 222.961C152.215 224.631 152.883 225.656 153.861 225.656C154.822 225.656 155.49 224.631 155.49 222.961C155.49 221.314 154.822 220.283 153.861 220.277C152.883 220.283 152.215 221.314 152.221 222.961ZM170.338 222.938V223.852H168.123V225.797C169.096 225.756 170.074 225.691 170.994 225.586L171.076 226.406C168.762 226.752 166.277 226.787 164.279 226.793L164.139 225.867C165.023 225.867 166.002 225.861 167.01 225.838V223.852H164.9V219.469H170.291V220.371H166.002V222.938H170.338ZM171.65 229.02V218.496H172.764V229.02H171.65ZM182.947 221.566V222.457H175.717V218.871H176.818V221.566H182.947ZM174.439 224.672V223.781H184.049V224.672H174.439ZM175.635 228.75V225.668H176.748V227.836H183.018V228.75H175.635ZM196.506 218.508V225.562H195.393V222.316H193.248V221.402H195.393V218.508H196.506ZM187.904 224.074C190.377 223.324 191.777 221.965 191.988 220.219H188.443V219.316H193.178C193.178 222.059 191.473 223.98 188.396 224.953L187.904 224.074ZM189.018 228.07C190.992 227.754 192.492 226.559 192.498 225.129V224.695H193.6V225.129C193.6 226.547 195.082 227.719 197.057 228.059L196.6 228.938C195.006 228.65 193.676 227.854 193.043 226.699C192.404 227.859 191.057 228.662 189.451 228.961L189.018 228.07ZM206.818 218.496V229.02H205.705V218.496H206.818ZM198.486 222.961C198.486 220.717 199.617 219.287 201.205 219.281C202.764 219.287 203.912 220.717 203.912 222.961C203.912 225.229 202.764 226.658 201.205 226.652C199.617 226.658 198.486 225.229 198.486 222.961ZM199.564 222.961C199.559 224.631 200.227 225.656 201.205 225.656C202.166 225.656 202.834 224.631 202.834 222.961C202.834 221.314 202.166 220.283 201.205 220.277C200.227 220.283 199.559 221.314 199.564 222.961ZM38.1211 242.746C38.1211 243.965 39.0703 245.096 40.6758 245.547L40.1602 246.426C38.9531 246.074 38.0566 245.33 37.5938 244.375C37.1309 245.453 36.2168 246.291 34.9805 246.695L34.4297 245.816C36.0352 245.342 37.0195 244.105 37.0195 242.746V242.617H34.7344V241.715H37.0195V240.449H38.1328V241.715H40.4062V242.617H38.1211V242.746ZM35.7773 249.062C35.7773 247.832 37.1074 247.135 39.3047 247.141C41.4785 247.135 42.7852 247.832 42.7852 249.062C42.7852 250.27 41.4785 250.967 39.3047 250.973C37.1074 250.967 35.7773 250.27 35.7773 249.062ZM36.8906 249.062C36.8848 249.736 37.7754 250.111 39.3047 250.117C40.8105 250.111 41.7012 249.736 41.6953 249.062C41.7012 248.371 40.8105 248.008 39.3047 248.008C37.7754 248.008 36.8848 248.371 36.8906 249.062ZM41.5781 246.895V240.496H42.6914V243.145H44.2148V244.059H42.6914V246.895H41.5781ZM53.0625 240.496V243.062H54.5859V244H53.0625V246.648H51.9492V240.496H53.0625ZM45.2227 246.039V241.129H46.3125V242.641H49.0664V241.129H50.168V246.039H45.2227ZM45.8789 248.043V247.141H49.2773V250.984H48.1758V248.043H45.8789ZM46.3125 245.148H49.0664V243.52H46.3125V245.148ZM49.7695 248.043V247.141H53.0625V250.984H51.9609V248.043H49.7695ZM59.9648 240.672C62.332 240.666 63.709 241.305 63.7148 242.477C63.709 243.654 62.332 244.293 59.9648 244.293C57.5977 244.293 56.209 243.654 56.2148 242.477C56.209 241.305 57.5977 240.666 59.9648 240.672ZM55.1836 245.828V244.938H64.7578V245.828H55.1836ZM56.332 247.469V246.637H63.5508V249.098H57.4336V250.035H63.8438V250.891H56.3438V248.289H62.4492V247.469H56.332ZM57.375 242.477C57.3691 243.127 58.2949 243.461 59.9648 243.461C61.6465 243.461 62.5723 243.127 62.5664 242.477C62.5723 241.855 61.6465 241.492 59.9648 241.492C58.2949 241.492 57.3691 241.855 57.375 242.477ZM75.1641 248.77V249.695H65.5547V248.77H69.7852V246.613H66.6562V241.211H67.7695V243.016H72.9258V241.211H74.0273V246.613H70.8867V248.77H75.1641ZM67.7695 245.711H72.9258V243.918H67.7695V245.711ZM84.1055 240.496V244.598H85.793V245.535H84.1055V251.02H83.0039V240.496H84.1055ZM76.3359 242.348V241.445H81.1406V245.301H77.4609V247.574C79.2598 247.568 80.6016 247.504 82.1367 247.223L82.2422 248.125C80.6016 248.43 79.1836 248.5 77.2148 248.512H76.3594V244.398H80.0391V242.348H76.3359ZM89.7188 241.246C91.377 241.24 92.5723 242.266 92.5781 243.742C92.5723 245.219 91.377 246.244 89.7188 246.25C88.0664 246.244 86.8535 245.219 86.8594 243.742C86.8535 242.266 88.0664 241.24 89.7188 241.246ZM86.3555 247.832C88.2656 247.832 90.9141 247.814 93.2109 247.48L93.293 248.289C90.9199 248.746 88.3711 248.758 86.4961 248.758L86.3555 247.832ZM87.9609 243.742C87.9492 244.674 88.6992 245.277 89.7188 245.277C90.7383 245.277 91.4883 244.674 91.4883 243.742C91.4883 242.822 90.7383 242.207 89.7188 242.207C88.6992 242.207 87.9492 242.822 87.9609 243.742ZM93.8672 251.02V240.496H94.9805V251.02H93.8672ZM107.777 240.496V244.68H109.406V245.605H107.777V250.984H106.664V240.496H107.777ZM99.6094 248.184C102.24 246.871 103.67 244.973 103.898 242.523H100.137V241.598H105.035C105.023 244.633 103.688 247.346 100.23 249.051L99.6094 248.184ZM113.637 242.43C113.631 243.766 114.562 244.984 116.156 245.488L115.629 246.355C114.434 245.975 113.561 245.184 113.098 244.188C112.641 245.336 111.721 246.244 110.461 246.684L109.887 245.793C111.527 245.254 112.518 243.9 112.523 242.441V242.148H110.215V241.246H115.898V242.148H113.637V242.43ZM111.305 249.004C111.305 247.773 112.646 247.053 114.832 247.059C116.994 247.053 118.312 247.773 118.312 249.004C118.312 250.252 116.994 250.979 114.832 250.973C112.646 250.979 111.305 250.252 111.305 249.004ZM112.418 249.004C112.412 249.707 113.314 250.1 114.832 250.094C116.338 250.1 117.229 249.707 117.223 249.004C117.229 248.318 116.338 247.932 114.832 247.938C113.314 247.932 112.412 248.318 112.418 249.004ZM117.105 246.801V240.496H118.219V243.098H119.742V244.012H118.219V246.801H117.105ZM128.625 241.562C128.619 244.656 127.611 247.41 123.879 249.309L123.258 248.465C125.098 247.527 126.234 246.396 126.873 245.061L123.469 245.383L123.293 244.422L127.213 244.176C127.377 243.637 127.477 243.062 127.518 242.465H123.832V241.562H128.625ZM128.602 245.57V244.656H130.91V240.496H132.012V250.996H130.91V245.57H128.602ZM141.82 240.496V244.562H143.508V245.477H141.82V251.02H140.707V240.496H141.82ZM134.086 248.406V241.504H138.996V242.406H135.199V247.48C136.963 247.475 138.281 247.398 139.781 247.129L139.922 248.066C138.275 248.359 136.881 248.412 134.93 248.406H134.086ZM152.262 240.508V243.66H153.797V244.598H152.262V248.23H151.148V240.508H152.262ZM144.434 242.09V241.176H149.215V244.27H145.559V245.734C147.381 245.734 148.67 245.658 150.199 245.395L150.316 246.309C148.693 246.59 147.305 246.643 145.289 246.648H144.445V243.414H148.125V242.09H144.434ZM145.664 250.773V247.633H146.789V249.871H152.73V250.773H145.664ZM165.668 240.93V244.527H162.645V245.746H166.887V246.648H157.312V245.746H161.543V244.527H158.531V240.93H165.668ZM158.379 248.523V247.645H165.715V250.996H164.59V248.523H158.379ZM159.621 243.637H164.566V241.809H159.621V243.637ZM177.293 248.84V249.754H167.684V248.84H170.262V246.508H168.527V245.605H170.098V242.336H168.504V241.422H176.414V242.336H174.809V245.605H176.379V246.508H174.656V248.84H177.293ZM171.199 245.605H173.719V242.336H171.199V245.605ZM171.375 248.84H173.543V246.508H171.375V248.84ZM186.762 240.496V246.133H185.648V240.496H186.762ZM178.266 243.414C178.271 241.973 179.455 240.971 181.066 240.977C182.672 240.971 183.855 241.973 183.855 243.414C183.855 244.85 182.672 245.852 181.066 245.84C179.455 245.852 178.271 244.85 178.266 243.414ZM179.355 243.414C179.35 244.322 180.07 244.926 181.066 244.926C182.051 244.926 182.766 244.322 182.766 243.414C182.766 242.518 182.051 241.908 181.066 241.914C180.07 241.908 179.35 242.518 179.355 243.414ZM179.895 250.867V246.637H180.984V247.82H185.66V246.637H186.762V250.867H179.895ZM180.984 249.953H185.66V248.699H180.984V249.953ZM197.145 240.496V250.996H196.031V240.496H197.145ZM189.07 248.324V241.516H190.172V247.363C191.707 247.357 193.318 247.223 195 246.883L195.152 247.82C193.295 248.201 191.607 248.33 189.949 248.324H189.07ZM206.977 240.496V244.562H208.664V245.477H206.977V251.02H205.863V240.496H206.977ZM199.242 248.406V241.504H204.152V242.406H200.355V247.48C202.119 247.475 203.438 247.398 204.938 247.129L205.078 248.066C203.432 248.359 202.037 248.412 200.086 248.406H199.242ZM210.363 250.082C209.906 250.076 209.525 249.707 209.531 249.25C209.525 248.793 209.906 248.418 210.363 248.418C210.814 248.418 211.189 248.793 211.195 249.25C211.189 249.707 210.814 250.076 210.363 250.082ZM81.041 282.859V283.75H77.8594C78.0469 284.729 79.5293 285.537 81.416 285.719L81.0176 286.598C79.1953 286.398 77.6836 285.648 77.1094 284.547C76.5293 285.648 75.0234 286.398 73.2012 286.598L72.8027 285.719C74.6836 285.537 76.1602 284.723 76.3477 283.75H73.2012V282.859H81.041ZM72.3223 288.32V287.406H76.5527V286.035H77.6543V287.406H81.8965V288.32H72.3223ZM73.5059 292.867V288.918H74.6074V289.949H79.5645V288.918H80.666V292.867H73.5059ZM74.6074 291.965H79.5645V290.816H74.6074V291.965ZM92.2676 287.98V288.871H82.6934V287.98H92.2676ZM83.7246 284.945C83.7188 283.627 85.1895 282.842 87.4746 282.848C89.748 282.842 91.2188 283.627 91.2246 284.945C91.2188 286.27 89.748 287.072 87.4746 287.078C85.1895 287.072 83.7188 286.27 83.7246 284.945ZM83.9004 292.773V289.727H85.0254V291.871H91.1895V292.773H83.9004ZM84.873 284.945C84.8672 285.725 85.8633 286.164 87.4746 286.164C89.0801 286.164 90.082 285.725 90.0762 284.945C90.082 284.195 89.0801 283.738 87.4746 283.738C85.8633 283.738 84.8672 284.195 84.873 284.945ZM104.947 282.508V290.395H103.893V286.797H102.697V290.184H101.654V282.695H102.697V285.871H103.893V282.508H104.947ZM95.9355 284.629V283.738H98.0566V282.59H99.1582V283.738H101.244V284.629H95.9355ZM96.3457 287.031C96.3457 285.877 97.2832 285.104 98.5957 285.109C99.9258 285.104 100.869 285.877 100.869 287.031C100.869 288.191 99.9258 288.971 98.5957 288.965C97.2832 288.971 96.3457 288.191 96.3457 287.031ZM97.3418 287.031C97.3418 287.682 97.8516 288.121 98.5957 288.109C99.3516 288.121 99.8672 287.682 99.8613 287.031C99.8672 286.369 99.3516 285.947 98.5957 285.953C97.8516 285.947 97.3418 286.369 97.3418 287.031ZM97.9863 292.773V289.691H99.0879V291.871H105.252V292.773H97.9863ZM114.873 287.477V288.391H107.561V283.434H114.779V284.348H108.662V287.477H114.873ZM106.365 291.613V290.688H115.975V291.613H106.365ZM125.408 282.941V283.855H123.885V286.059H125.361V286.938H122.068V288.121H126.311V289.012H116.736V288.121H120.967V286.938H117.662V286.059H119.15V283.855H117.615V282.941H125.408ZM117.943 292.773V289.855H119.068V291.871H125.232V292.773H117.943ZM120.252 286.059H122.771V283.855H120.252V286.059ZM133.717 284.746C133.717 285.965 134.666 287.096 136.271 287.547L135.756 288.426C134.549 288.074 133.652 287.33 133.189 286.375C132.727 287.453 131.812 288.291 130.576 288.695L130.025 287.816C131.631 287.342 132.615 286.105 132.615 284.746V284.617H130.33V283.715H132.615V282.449H133.729V283.715H136.002V284.617H133.717V284.746ZM131.373 291.062C131.373 289.832 132.703 289.135 134.9 289.141C137.074 289.135 138.381 289.832 138.381 291.062C138.381 292.27 137.074 292.967 134.9 292.973C132.703 292.967 131.373 292.27 131.373 291.062ZM132.486 291.062C132.48 291.736 133.371 292.111 134.9 292.117C136.406 292.111 137.297 291.736 137.291 291.062C137.297 290.371 136.406 290.008 134.9 290.008C133.371 290.008 132.48 290.371 132.486 291.062ZM137.174 288.895V282.496H138.287V285.145H139.811V286.059H138.287V288.895H137.174ZM152.104 282.496V293.02H150.99V286.797H147.861V285.883H150.99V282.496H152.104ZM143.9 290.488V283.656H145.025V289.562C146.525 289.539 147.938 289.445 149.467 289.141L149.607 290.055C147.914 290.4 146.391 290.494 144.744 290.488H143.9ZM158.994 283.504V286.27H161.361V282.496H162.463V293.02H161.361V287.172H158.994V290.371H154.119V283.504H158.994ZM155.221 289.48H157.904V284.371H155.221V289.48ZM173.689 290.805V291.742H164.08V290.805H168.311V288.965H165.252V285.625H171.416V284.148H165.229V283.234H172.518V286.516H166.354V288.051H172.764V288.965H169.412V290.805H173.689ZM53.2734 308.621V309.535H51.6445V314.984H50.5312V304.496H51.6445V308.621H53.2734ZM43.8633 312.348V305.516H44.9648V311.422C46.4297 311.416 47.959 311.293 49.6289 310.953L49.7578 311.891C47.959 312.248 46.3066 312.354 44.7305 312.348H43.8633ZM56.9883 305.164C58.6055 305.164 59.8066 306.184 59.8125 307.66C59.8066 308.961 58.875 309.904 57.5508 310.115V311.779C58.4824 311.732 59.4141 311.662 60.2812 311.551L60.3633 312.383C58.1426 312.77 55.6992 312.787 53.8828 312.77L53.707 311.855C54.5215 311.85 55.459 311.844 56.4375 311.82V310.115C55.084 309.916 54.1582 308.967 54.1641 307.66C54.1582 306.184 55.3418 305.164 56.9883 305.164ZM55.2422 307.66C55.2363 308.592 55.9805 309.213 56.9883 309.207C57.9844 309.213 58.7168 308.592 58.7227 307.66C58.7168 306.723 57.9844 306.113 56.9883 306.102C55.9805 306.113 55.2363 306.723 55.2422 307.66ZM60.9141 314.996V304.496H62.0273V308.762H63.6445V309.699H62.0273V314.996H60.9141ZM70.3359 307.367C70.3359 309.043 71.0391 310.83 72.4453 311.691L71.8242 312.547C70.8398 311.955 70.1777 310.906 69.8145 309.693C69.4336 311.023 68.707 312.16 67.6875 312.781L66.9961 311.949C68.4785 311.059 69.2637 309.201 69.2578 307.414V305.457H70.3359V307.367ZM71.3086 309.113V308.188H72.9375V304.695H73.9922V314.48H72.9375V309.113H71.3086ZM75.1055 314.996V304.496H76.1719V314.996H75.1055ZM81.1289 306.172C81.123 307.549 82.0957 308.832 83.6602 309.348L83.0625 310.227C81.9141 309.822 81.0527 309.002 80.5957 307.965C80.1387 309.143 79.248 310.068 78.0234 310.52L77.4258 309.629C79.0664 309.049 80.0156 307.648 80.0273 306.078V305.047H81.1289V306.172ZM78.8438 313.027C78.8438 311.797 80.1855 311.076 82.3711 311.082C84.5273 311.076 85.8516 311.797 85.8516 313.027C85.8516 314.27 84.5273 314.979 82.3711 314.973C80.1855 314.979 78.8438 314.27 78.8438 313.027ZM79.957 313.027C79.9512 313.719 80.8535 314.094 82.3711 314.105C83.877 314.094 84.7676 313.719 84.7617 313.027C84.7676 312.359 83.877 311.961 82.3711 311.961C80.8535 311.961 79.9512 312.359 79.957 313.027ZM84.6445 310.836V304.496H85.7578V307.133H87.2812V308.07H85.7578V310.836H84.6445ZM92.6602 304.672C95.0273 304.666 96.4043 305.305 96.4102 306.477C96.4043 307.654 95.0273 308.293 92.6602 308.293C90.293 308.293 88.9043 307.654 88.9102 306.477C88.9043 305.305 90.293 304.666 92.6602 304.672ZM87.8789 309.828V308.938H97.4531V309.828H87.8789ZM89.0273 311.469V310.637H96.2461V313.098H90.1289V314.035H96.5391V314.891H89.0391V312.289H95.1445V311.469H89.0273ZM90.0703 306.477C90.0645 307.127 90.9902 307.461 92.6602 307.461C94.3418 307.461 95.2676 307.127 95.2617 306.477C95.2676 305.855 94.3418 305.492 92.6602 305.492C90.9902 305.492 90.0645 305.855 90.0703 306.477ZM109.359 304.496V308.68H110.988V309.605H109.359V314.984H108.246V304.496H109.359ZM101.191 312.184C103.822 310.871 105.252 308.973 105.48 306.523H101.719V305.598H106.617C106.605 308.633 105.27 311.346 101.812 313.051L101.191 312.184ZM121.16 312.793V313.707H111.551V312.793H121.16ZM112.699 306.172V305.27H119.988V308.551H113.824V310.086H120.234V310.977H112.723V307.648H118.887V306.172H112.699ZM130.418 307.566V308.457H123.188V304.871H124.289V307.566H130.418ZM121.91 310.672V309.781H131.52V310.672H121.91ZM123.105 314.75V311.668H124.219V313.836H130.488V314.75H123.105ZM138.891 306.383C138.885 307.725 139.816 308.996 141.422 309.535L140.859 310.402C139.67 309.992 138.797 309.172 138.34 308.141C137.883 309.271 136.969 310.168 135.738 310.602L135.141 309.734C136.781 309.178 137.771 307.818 137.777 306.371V306.09H135.469V305.188H141.152V306.09H138.891V306.383ZM136.535 312.242V311.34H143.473V314.996H142.359V312.242H136.535ZM142.359 310.824V304.496H143.473V307.191H144.996V308.129H143.473V310.824H142.359ZM155.168 309.98V310.871H145.594V309.98H155.168ZM146.625 306.945C146.619 305.627 148.09 304.842 150.375 304.848C152.648 304.842 154.119 305.627 154.125 306.945C154.119 308.27 152.648 309.072 150.375 309.078C148.09 309.072 146.619 308.27 146.625 306.945ZM146.801 314.773V311.727H147.926V313.871H154.09V314.773H146.801ZM147.773 306.945C147.768 307.725 148.764 308.164 150.375 308.164C151.98 308.164 152.982 307.725 152.977 306.945C152.982 306.195 151.98 305.738 150.375 305.738C148.764 305.738 147.768 306.195 147.773 306.945ZM162.574 306.746C162.574 307.965 163.523 309.096 165.129 309.547L164.613 310.426C163.406 310.074 162.51 309.33 162.047 308.375C161.584 309.453 160.67 310.291 159.434 310.695L158.883 309.816C160.488 309.342 161.473 308.105 161.473 306.746V306.617H159.188V305.715H161.473V304.449H162.586V305.715H164.859V306.617H162.574V306.746ZM160.23 313.062C160.23 311.832 161.561 311.135 163.758 311.141C165.932 311.135 167.238 311.832 167.238 313.062C167.238 314.27 165.932 314.967 163.758 314.973C161.561 314.967 160.23 314.27 160.23 313.062ZM161.344 313.062C161.338 313.736 162.229 314.111 163.758 314.117C165.264 314.111 166.154 313.736 166.148 313.062C166.154 312.371 165.264 312.008 163.758 312.008C162.229 312.008 161.338 312.371 161.344 313.062ZM166.031 310.895V304.496H167.145V307.145H168.668V308.059H167.145V310.895H166.031ZM180.961 304.496V315.02H179.848V308.797H176.719V307.883H179.848V304.496H180.961ZM172.758 312.488V305.656H173.883V311.562C175.383 311.539 176.795 311.445 178.324 311.141L178.465 312.055C176.771 312.4 175.248 312.494 173.602 312.488H172.758ZM187.852 305.504V308.27H190.219V304.496H191.32V315.02H190.219V309.172H187.852V312.371H182.977V305.504H187.852ZM184.078 311.48H186.762V306.371H184.078V311.48ZM202.547 312.805V313.742H192.938V312.805H197.168V310.965H194.109V307.625H200.273V306.148H194.086V305.234H201.375V308.516H195.211V310.051H201.621V310.965H198.27V312.805H202.547ZM48.6797 326.469V327.395H44.9883V332.516C46.752 332.504 47.9531 332.439 49.3359 332.176L49.4648 333.09C47.9531 333.377 46.6758 333.441 44.6953 333.441H43.8633V326.469H48.6797ZM48.082 330.172V329.246H51V325.496H52.1133V336.02H51V330.172H48.082ZM58.3711 326V329.668C59.8828 329.662 61.2656 329.568 62.7656 329.27L62.918 330.184C61.2422 330.518 59.7715 330.594 58.0898 330.594H57.2695V326H58.3711ZM57.9023 332.398V331.555H61.3594V334.039H59.0156V335.023C60.0762 335.018 60.7324 334.988 61.5586 334.848L61.6641 335.691C60.6914 335.861 59.9297 335.885 58.5 335.879H57.9258V333.242H60.293V332.398H57.9023ZM61.4062 328.062V327.16H64.2891V325.496H65.4023V331.062H64.2891V328.062H61.4062ZM61.957 335.879V331.438H62.9766V332.727H64.3945V331.438H65.4023V335.879H61.957ZM62.9766 335H64.3945V333.582H62.9766V335ZM76.5938 330.98V331.871H67.0195V330.98H76.5938ZM68.0508 327.945C68.0449 326.627 69.5156 325.842 71.8008 325.848C74.0742 325.842 75.5449 326.627 75.5508 327.945C75.5449 329.27 74.0742 330.072 71.8008 330.078C69.5156 330.072 68.0449 329.27 68.0508 327.945ZM68.2266 335.773V332.727H69.3516V334.871H75.5156V335.773H68.2266ZM69.1992 327.945C69.1934 328.725 70.1895 329.164 71.8008 329.164C73.4062 329.164 74.4082 328.725 74.4023 327.945C74.4082 327.195 73.4062 326.738 71.8008 326.738C70.1895 326.738 69.1934 327.195 69.1992 327.945ZM83.9648 328.168C83.9531 330.025 85.0371 331.93 86.6016 332.691L85.9102 333.582C84.7676 332.984 83.8828 331.812 83.4199 330.412C82.9512 331.9 82.0312 333.16 80.8359 333.781L80.1445 332.879C81.7559 332.105 82.8457 330.09 82.8516 328.168V326.375H83.9648V328.168ZM87.3867 335.996V325.496H88.5V329.68H90.1875V330.629H88.5V335.996H87.3867ZM99.1875 326.504V327.535C99.1816 328.83 99.1816 330.283 98.7891 332.434L97.6641 332.316C98.0684 330.283 98.0684 328.795 98.0742 327.535V327.406H91.6992V326.504H99.1875ZM90.6914 334.578V333.652H94.3359V329.949H95.4375V333.652H100.266V334.578H90.6914ZM104.484 326.246C106.143 326.24 107.338 327.266 107.344 328.742C107.338 330.219 106.143 331.244 104.484 331.25C102.832 331.244 101.619 330.219 101.625 328.742C101.619 327.266 102.832 326.24 104.484 326.246ZM101.121 332.832C103.031 332.832 105.68 332.814 107.977 332.48L108.059 333.289C105.686 333.746 103.137 333.758 101.262 333.758L101.121 332.832ZM102.727 328.742C102.715 329.674 103.465 330.277 104.484 330.277C105.504 330.277 106.254 329.674 106.254 328.742C106.254 327.822 105.504 327.207 104.484 327.207C103.465 327.207 102.715 327.822 102.727 328.742ZM108.633 336.02V325.496H109.746V336.02H108.633ZM118.23 328.59C118.225 330.348 119.379 332.164 120.996 332.855L120.387 333.723C119.15 333.178 118.166 332.018 117.68 330.617C117.193 332.117 116.209 333.395 114.984 333.992L114.34 333.113C115.922 332.369 117.094 330.4 117.105 328.59V327.477H114.703V326.551H120.621V327.477H118.23V328.59ZM121.945 335.996V325.496H123.059V335.996H121.945ZM130.617 326.258V327.16H129.609V330.336C130.055 330.301 130.482 330.26 130.898 330.207L130.945 331.051C128.924 331.367 126.568 331.402 124.887 331.402L124.746 330.477C125.139 330.477 125.572 330.477 126.023 330.471V327.16H125.039V326.258H130.617ZM126.422 334.074C126.416 332.85 127.752 332.152 129.973 332.152C132.188 332.152 133.518 332.85 133.523 334.074C133.518 335.275 132.188 335.979 129.973 335.973C127.752 335.979 126.416 335.275 126.422 334.074ZM127.102 330.453C127.576 330.441 128.057 330.424 128.543 330.4V327.16H127.102V330.453ZM127.523 334.074C127.518 334.736 128.42 335.111 129.973 335.117C131.514 335.111 132.416 334.736 132.422 334.074C132.416 333.395 131.514 333.014 129.973 333.02C128.42 333.014 127.518 333.395 127.523 334.074ZM130.77 330.125V329.234H132.375V328.215H130.77V327.324H132.375V325.496H133.488V331.953H132.375V330.125H130.77ZM139.887 325.672C142.254 325.666 143.631 326.305 143.637 327.477C143.631 328.654 142.254 329.293 139.887 329.293C137.52 329.293 136.131 328.654 136.137 327.477C136.131 326.305 137.52 325.666 139.887 325.672ZM135.105 330.828V329.938H144.68V330.828H135.105ZM136.254 332.469V331.637H143.473V334.098H137.355V335.035H143.766V335.891H136.266V333.289H142.371V332.469H136.254ZM137.297 327.477C137.291 328.127 138.217 328.461 139.887 328.461C141.568 328.461 142.494 328.127 142.488 327.477C142.494 326.855 141.568 326.492 139.887 326.492C138.217 326.492 137.291 326.855 137.297 327.477ZM151.312 325.836C152.215 325.836 152.977 326.158 153.469 326.703H156.047V325.496H157.148V330.84H156.047V329.738H153.492C153 330.301 152.227 330.635 151.312 330.629C149.725 330.635 148.553 329.656 148.559 328.227C148.553 326.814 149.725 325.836 151.312 325.836ZM149.625 328.227C149.619 329.129 150.328 329.732 151.312 329.738C152.268 329.732 152.977 329.129 152.977 328.227C152.977 327.348 152.268 326.744 151.312 326.75C150.328 326.744 149.619 327.348 149.625 328.227ZM150.281 332.223V331.355H157.148V333.969H151.418V334.977H157.523V335.867H150.305V333.137H156.047V332.223H150.281ZM153.955 327.582C154.014 327.787 154.043 327.998 154.043 328.227C154.043 328.449 154.014 328.66 153.961 328.859H156.047V327.582H153.955ZM161.625 326.281C163.055 326.287 164.092 327.494 164.262 329.434H166.43V325.496H167.531V336.02H166.43V330.336H164.273C164.15 332.387 163.09 333.658 161.625 333.652C160.061 333.658 158.953 332.229 158.965 329.961C158.953 327.717 160.061 326.287 161.625 326.281ZM160.02 329.961C160.025 331.631 160.676 332.656 161.625 332.656C162.574 332.656 163.225 331.631 163.23 329.961C163.225 328.314 162.574 327.283 161.625 327.277C160.676 327.283 160.025 328.314 160.02 329.961ZM178.758 333.77V334.695H169.148V333.77H173.379V331.613H170.25V326.211H171.363V328.016H176.52V326.211H177.621V331.613H174.48V333.77H178.758ZM171.363 330.711H176.52V328.918H171.363V330.711ZM182.719 328.367C182.719 330.043 183.422 331.83 184.828 332.691L184.207 333.547C183.223 332.955 182.561 331.906 182.197 330.693C181.816 332.023 181.09 333.16 180.07 333.781L179.379 332.949C180.861 332.059 181.646 330.201 181.641 328.414V326.457H182.719V328.367ZM183.691 330.113V329.188H185.32V325.695H186.375V335.48H185.32V330.113H183.691ZM187.488 335.996V325.496H188.555V335.996H187.488ZM199.5 333.758V334.684H189.891V333.758H192.188V331.016C191.326 330.541 190.799 329.791 190.805 328.848C190.799 327.195 192.422 326.111 194.672 326.105C196.928 326.111 198.551 327.195 198.551 328.848C198.551 329.773 198.047 330.518 197.203 330.992V333.758H199.5ZM191.883 328.848C191.883 329.973 193.025 330.705 194.672 330.711C196.307 330.705 197.467 329.973 197.473 328.848C197.467 327.717 196.307 326.996 194.672 326.996C193.025 326.996 191.883 327.717 191.883 328.848ZM193.289 333.758H196.078V331.426C195.65 331.525 195.176 331.578 194.672 331.578C194.18 331.578 193.711 331.525 193.289 331.426V333.758ZM201.457 335.082C201 335.076 200.619 334.707 200.625 334.25C200.619 333.793 201 333.418 201.457 333.418C201.908 333.418 202.283 333.793 202.289 334.25C202.283 334.707 201.908 335.076 201.457 335.082Z" fill="white"/>
<path d="M122.435 11.793V13.4629H107.793V11.793H122.435ZM109.463 15.8008V14.2539H120.678V18.0332H111.713V18.9473H121.152V20.4766H109.48V16.6094H118.463V15.8008H109.463ZM109.586 6.43164V4.90234H120.66V8.66406H111.853V9.52539H120.941V11.0371H109.621V7.24023H118.41V6.43164H109.586ZM141.438 16.9082V18.7012H126.796V16.9082H132.913V13.2871H135.145V16.9082H141.438ZM127.147 11.9336C130.768 11.3711 132.807 8.93652 132.825 6.67773V5.53516H135.215V6.67773C135.207 8.96289 137.272 11.3711 140.928 11.9336L139.979 13.7969C137.167 13.2871 135.075 11.7842 134.02 9.78906C132.974 11.7754 130.891 13.2959 128.096 13.7969L127.147 11.9336ZM155.791 4.62109V20.6172H153.629V12.4785H152.17V19.9141H150.078V5.04297H152.17V10.6855H153.629V4.62109H155.791ZM141.799 15.7832C145.06 13.8672 146.466 11.5205 146.765 8.38281H142.607V6.58984H148.953C148.944 11.0547 147.608 14.7109 143.1 17.3301L141.799 15.7832ZM169.88 4.62109V8.4707H172.042V10.334H169.88V13.9902H167.63V4.62109H169.88ZM157.189 7.78516V6.02734H160.828V4.51562H163.06V6.02734H166.681V7.78516H157.189ZM157.962 11.0723C157.962 9.36719 159.579 8.24219 161.935 8.24219C164.264 8.24219 165.872 9.36719 165.872 11.0723C165.872 12.7773 164.264 13.9023 161.935 13.9023C159.579 13.9023 157.962 12.7773 157.962 11.0723ZM159.404 20.4414V14.6055H161.636V15.8184H167.63V14.6055H169.88V20.4414H159.404ZM160.16 11.0723C160.151 11.8457 160.863 12.2588 161.935 12.2676C163.016 12.2588 163.745 11.8457 163.745 11.0723C163.745 10.3252 163.016 9.87695 161.935 9.89453C160.863 9.87695 160.151 10.3252 160.16 11.0723ZM161.636 18.6836H167.63V17.541H161.636V18.6836ZM185.833 4.62109V20.6172H183.6V4.62109H185.833ZM173.247 16.6621V6.15039H175.462V14.7549C177.624 14.7197 179.944 14.5176 182.3 14.0605L182.581 15.9062C179.777 16.4951 177.123 16.6709 174.653 16.6621H173.247ZM200.203 4.62109V10.5625H202.559V12.3906H200.203V20.6523H197.953V4.62109H200.203ZM188.215 16.7676V6.09766H195.721V7.9082H190.447V14.9219C192.768 14.9043 194.684 14.7812 196.811 14.4121L197.057 16.293C194.569 16.7148 192.39 16.7764 189.568 16.7676H188.215Z" fill="white"/>
<path d="M59.7345 14.3817C59.7345 10.6871 62.5714 8.22401 66.376 8.22401C70.1806 8.22401 73.0175 10.6871 73.0175 14.3817C73.0175 18.0763 70.1806 20.5394 66.376 20.5394C62.5714 20.5394 59.7345 18.0763 59.7345 14.3817ZM63.8689 14.3817C63.8689 15.9651 64.8805 17.1087 66.376 17.1087C67.8714 17.1087 68.8831 15.9651 68.8831 14.3817C68.8831 12.7983 67.8714 11.6547 66.376 11.6547C64.8805 11.6547 63.8689 12.7983 63.8689 14.3817ZM84.5426 8.86177L83.3331 12.7763C82.6513 12.3365 81.8596 12.0726 80.9799 12.0726C79.6384 12.0726 78.5828 13.1282 78.5828 14.9315V20.0996H74.4484V8.66384H78.5828V10.5771C79.1326 9.01571 80.3422 8.22401 81.7497 8.22401C82.7173 8.22401 83.7069 8.44392 84.5426 8.86177ZM84.0466 14.3817C84.0466 10.6871 86.5097 8.22401 89.8085 8.22401C91.2599 8.22401 92.4695 8.88376 93.1952 9.96136V8.66384H97.2417V20.0996H93.1952V18.8021C92.4695 19.9456 91.2599 20.5394 89.8085 20.5394C86.5097 20.5394 84.0466 18.0763 84.0466 14.3817ZM88.1811 14.3817C88.1811 15.9651 89.1927 17.1087 90.6881 17.1087C92.1836 17.1087 93.1952 15.9651 93.1952 14.3817C93.1952 12.7983 92.1836 11.6547 90.6881 11.6547C89.1927 11.6547 88.1811 12.7983 88.1811 14.3817ZM102.048 21.1992C100.663 21.1992 99.5854 20.1216 99.5854 18.8021C99.5854 17.4826 100.663 16.405 102.048 16.405C103.434 16.405 104.512 17.4826 104.512 18.8021C104.512 20.1216 103.434 21.1992 102.048 21.1992Z" fill="white"/>
<g clip-path="url(#clip0_765_5292)">
<path d="M57.5136 12.8313C56.865 12.096 56.0028 11.6331 54.9275 11.4434L54.8359 11.4399C55.7847 11.2184 56.5359 10.7718 57.09 10.0993C57.6436 9.42723 57.9204 8.61628 57.9204 7.66744C57.9204 6.92419 57.7307 6.23621 57.3509 5.60348C56.971 4.97125 56.3816 4.46447 55.5831 4.08513C54.7846 3.70529 53.792 3.51562 52.6057 3.51562H45V20.7641L53.1478 20.6725C54.2549 20.6725 55.2117 20.4629 56.0187 20.0437C56.8252 19.625 57.438 19.0471 57.8576 18.3118C58.2763 17.5765 58.4864 16.7501 58.4864 15.8327C58.4864 14.5672 58.1618 13.5666 57.5136 12.8313ZM53.1478 17.8882L46.6503 19.5748V4.84132L53.1478 6.26159V17.8882Z" fill="white"/>
<path d="M51.8211 12.2133C52.1243 12.2133 52.3702 11.9229 52.3702 11.5647C52.3702 11.2064 52.1243 10.916 51.8211 10.916C51.5178 10.916 51.272 11.2064 51.272 11.5647C51.272 11.9229 51.5178 12.2133 51.8211 12.2133Z" fill="white"/>
</g>
<defs>
<clipPath id="clip0_765_5292">
<rect width="13.4864" height="17.2484" fill="white" transform="translate(45 3.51562)"/>
</clipPath>
</defs>
</svg>
