<svg width="31" height="31" viewBox="0 0 31 31" fill="none" xmlns="http://www.w3.org/2000/svg">
<circle cx="15.2273" cy="15.2273" r="15.2273" transform="matrix(-1 0 0 1 30.4546 0)" fill="#ABABAB" fill-opacity="0.35"/>
<path d="M16.4623 15.1654L11.6969 19.9308C11.5354 20.0923 11.4591 20.2808 11.4681 20.4962C11.477 20.7115 11.5623 20.9 11.7238 21.0615C11.8854 21.2231 12.0783 21.3038 12.3027 21.3038C12.527 21.3038 12.72 21.2231 12.8815 21.0615L18.2123 15.7308C18.302 15.641 18.3648 15.5513 18.4007 15.4615C18.4366 15.3718 18.4546 15.2731 18.4546 15.1654C18.4546 15.0577 18.4366 14.959 18.4007 14.8692C18.3648 14.7795 18.302 14.6897 18.2123 14.6L12.8546 9.24231C12.6931 9.08077 12.5001 9 12.2757 9C12.0514 9 11.8584 9.08077 11.6969 9.24231C11.5354 9.40385 11.4546 9.59679 11.4546 9.82115C11.4546 10.0455 11.5354 10.2385 11.6969 10.4L16.4623 15.1654Z" fill="white"/>
</svg>
