<svg width="31" height="31" viewBox="0 0 31 31" fill="none" xmlns="http://www.w3.org/2000/svg">
<circle cx="15.2273" cy="15.2273" r="15.2273" fill="#ABABAB" fill-opacity="0.35"/>
<path d="M13.9923 15.1654L18.7577 19.9308C18.9192 20.0923 18.9955 20.2808 18.9865 20.4962C18.9776 20.7115 18.8923 20.9 18.7308 21.0615C18.5692 21.2231 18.3763 21.3038 18.1519 21.3038C17.9276 21.3038 17.7346 21.2231 17.5731 21.0615L12.2423 15.7308C12.1526 15.641 12.0897 15.5513 12.0538 15.4615C12.0179 15.3718 12 15.2731 12 15.1654C12 15.0577 12.0179 14.959 12.0538 14.8692C12.0897 14.7795 12.1526 14.6897 12.2423 14.6L17.6 9.24231C17.7615 9.08077 17.9545 9 18.1788 9C18.4032 9 18.5962 9.08077 18.7577 9.24231C18.9192 9.40385 19 9.59679 19 9.82115C19 10.0455 18.9192 10.2385 18.7577 10.4L13.9923 15.1654Z" fill="white"/>
</svg>
