<svg width="209" height="42" viewBox="0 0 209 42" fill="none" xmlns="http://www.w3.org/2000/svg">
<path d="M83.2812 4.74609C83.2227 4.14714 82.9525 3.67839 82.4707 3.33984C81.9954 3.0013 81.3737 2.83203 80.6055 2.83203C80.0846 2.83203 79.6289 2.91016 79.2383 3.06641C78.8477 3.22266 78.5482 3.44076 78.3398 3.7207C78.1315 4.00065 78.0273 4.31641 78.0273 4.66797C78.0273 5.20833 78.252 5.62826 78.7012 5.92773C79.1504 6.2207 79.7331 6.45182 80.4492 6.62109L81.7773 6.97266C82.9948 7.2526 83.9876 7.7181 84.7559 8.36914C85.5306 9.01367 85.918 9.90234 85.918 11.0352C85.918 11.862 85.7064 12.5911 85.2832 13.2227C84.86 13.8542 84.2448 14.3457 83.4375 14.6973C82.6367 15.0423 81.6797 15.2148 80.5664 15.2148C79.4661 15.2148 78.5124 15.0456 77.7051 14.707C76.8978 14.362 76.2663 13.8639 75.8105 13.2129C75.3613 12.5553 75.1172 11.7643 75.0781 10.8398H77.5781C77.6367 11.556 77.9362 12.1029 78.4766 12.4805C79.0234 12.8581 79.7135 13.0469 80.5469 13.0469C81.1003 13.0469 81.5918 12.9622 82.0215 12.793C82.4512 12.6237 82.7832 12.3861 83.0176 12.0801C83.2585 11.7676 83.3789 11.4128 83.3789 11.0156C83.3789 10.5013 83.1641 10.1009 82.7344 9.81445C82.3112 9.52148 81.6732 9.26432 80.8203 9.04297L79.2188 8.63281C76.7057 7.97526 75.4492 6.70573 75.4492 4.82422C75.4492 4.00391 75.6738 3.28125 76.123 2.65625C76.5723 2.02474 77.1908 1.53646 77.9785 1.19141C78.7728 0.839844 79.6615 0.664062 80.6445 0.664062C81.6341 0.664062 82.5098 0.839844 83.2715 1.19141C84.0397 1.53646 84.6354 2.01823 85.0586 2.63672C85.4883 3.25521 85.7096 3.95833 85.7227 4.74609H83.2812ZM93.2031 6.30859H91.1133V11.8164C91.1133 12.2852 91.2109 12.6074 91.4062 12.7832C91.6081 12.959 91.888 13.0469 92.2461 13.0469C92.5586 13.0469 92.9232 13.0339 93.3398 13.0078V15.0391C93.0143 15.1042 92.5456 15.1367 91.9336 15.1367C91.2891 15.1367 90.7161 15.0326 90.2148 14.8242C89.7201 14.6094 89.3294 14.2839 89.043 13.8477C88.763 13.4115 88.6263 12.8711 88.6328 12.2266V6.30859H87.1094V4.39453H88.6328V1.85547H91.1133V4.39453H93.2031V6.30859ZM99.707 15.2148C98.6523 15.2148 97.7344 14.9935 96.9531 14.5508C96.1784 14.1016 95.5827 13.4668 95.166 12.6465C94.7559 11.8262 94.5508 10.8659 94.5508 9.76562C94.5508 8.67839 94.7591 7.72135 95.1758 6.89453C95.5924 6.0612 96.1784 5.41341 96.9336 4.95117C97.6953 4.48893 98.5742 4.25781 99.5703 4.25781C100.469 4.25781 101.283 4.44987 102.012 4.83398C102.747 5.2181 103.33 5.8138 103.76 6.62109C104.196 7.42188 104.414 8.41797 104.414 9.60938V10.3906H97.0117C97.0182 10.9831 97.1354 11.4974 97.3633 11.9336C97.5911 12.3633 97.9069 12.6921 98.3105 12.9199C98.7142 13.1478 99.1862 13.2617 99.7266 13.2617C100.254 13.2617 100.703 13.1608 101.074 12.959C101.445 12.7572 101.712 12.4935 101.875 12.168H104.316C104.167 12.7799 103.883 13.3171 103.467 13.7793C103.05 14.235 102.52 14.5898 101.875 14.8438C101.237 15.0911 100.514 15.2148 99.707 15.2148ZM102.031 8.69141C102.025 8.20964 101.921 7.77995 101.719 7.40234C101.517 7.02474 101.234 6.72852 100.869 6.51367C100.505 6.29883 100.085 6.19141 99.6094 6.19141C99.1211 6.19141 98.6849 6.30534 98.3008 6.5332C97.9232 6.75456 97.6237 7.05729 97.4023 7.44141C97.181 7.81901 97.054 8.23568 97.0215 8.69141H102.031ZM106.348 4.39453H108.789V6.13281H108.945C109.212 5.61198 109.58 5.16927 110.049 4.80469C110.518 4.4401 111.165 4.25781 111.992 4.25781C112.819 4.25781 113.561 4.4694 114.219 4.89258C114.883 5.31576 115.407 5.9375 115.791 6.75781C116.175 7.57812 116.367 8.5612 116.367 9.70703C116.367 10.8464 116.178 11.8294 115.801 12.6562C115.423 13.4831 114.902 14.1146 114.238 14.5508C113.581 14.9805 112.832 15.1953 111.992 15.1953C110.586 15.1953 109.57 14.5703 108.945 13.3203H108.848V18.9844H106.348V4.39453ZM108.789 9.6875C108.789 10.3776 108.887 10.9831 109.082 11.5039C109.277 12.0247 109.564 12.4284 109.941 12.7148C110.319 13.0013 110.775 13.1445 111.309 13.1445C111.842 13.1445 112.298 12.998 112.676 12.7051C113.053 12.4121 113.34 12.0052 113.535 11.4844C113.73 10.9635 113.828 10.3646 113.828 9.6875C113.828 9.02344 113.73 8.43424 113.535 7.91992C113.346 7.4056 113.063 7.00521 112.686 6.71875C112.308 6.43229 111.849 6.28906 111.309 6.28906C110.775 6.28906 110.319 6.42904 109.941 6.70898C109.564 6.98893 109.277 7.38607 109.082 7.90039C108.887 8.4082 108.789 9.00391 108.789 9.6875ZM128.789 15H126.23V3.33984H126.152L122.852 5.44922V3.125L126.348 0.859375H128.789V15ZM133.008 15.1562C132.734 15.1562 132.48 15.0879 132.246 14.9512C132.012 14.8145 131.826 14.6289 131.689 14.3945C131.553 14.1602 131.484 13.9062 131.484 13.6328C131.484 13.3659 131.553 13.1185 131.689 12.8906C131.826 12.6562 132.012 12.4707 132.246 12.334C132.48 12.1973 132.734 12.1289 133.008 12.1289C133.268 12.1289 133.512 12.1973 133.74 12.334C133.975 12.4707 134.16 12.6562 134.297 12.8906C134.44 13.1185 134.512 13.3659 134.512 13.6328C134.512 13.9062 134.44 14.1602 134.297 14.3945C134.16 14.6289 133.975 14.8145 133.74 14.9512C133.512 15.0879 133.268 15.1562 133.008 15.1562Z" fill="#5A45F5"/>
<path d="M61.624 38.707H49.5244V37.374H54.7393V34.7959H50.8574V27.9404H52.4834V30.1084H58.6211V27.9404H60.2471V34.7959H56.3506V37.374H61.624V38.707ZM58.6211 33.4775V31.4121H52.4834V33.4775H58.6211Z" fill="#A397FF"/>
<path d="M73.2109 32.1006H64.041V27.5449H65.6523V30.8115H73.2109V32.1006ZM74.5732 34.9277H62.4736V33.6387H74.5732V34.9277ZM73.2988 39.9961H63.9238V36.0996H65.5498V38.6777H73.2988V39.9961ZM82.5713 28.0283C83.2354 28.0283 83.8262 28.2212 84.3438 28.6069C84.8613 28.9878 85.2666 29.5322 85.5596 30.2402C85.8574 30.9434 86.0088 31.7637 86.0137 32.7012C86.0088 33.6484 85.8574 34.4761 85.5596 35.1841C85.2666 35.8921 84.8613 36.4365 84.3438 36.8174C83.8262 37.1982 83.2354 37.3887 82.5713 37.3887C81.9023 37.3887 81.3066 37.1982 80.7842 36.8174C80.2617 36.4316 79.854 35.8848 79.561 35.1768C79.2681 34.4688 79.124 33.6436 79.1289 32.7012C79.124 31.7686 79.2681 30.9482 79.561 30.2402C79.854 29.5322 80.2617 28.9878 80.7842 28.6069C81.3066 28.2212 81.9023 28.0283 82.5713 28.0283ZM82.5713 29.4932C82.2002 29.4932 81.873 29.6226 81.5898 29.8813C81.3066 30.1353 81.0869 30.5039 80.9307 30.9873C80.7744 31.4658 80.6963 32.0371 80.6963 32.7012C80.6963 33.3701 80.7744 33.9463 80.9307 34.4297C81.0869 34.9131 81.3066 35.2842 81.5898 35.543C81.873 35.7969 82.2002 35.9238 82.5713 35.9238C82.9473 35.9238 83.2769 35.7969 83.5601 35.543C83.8433 35.2842 84.0605 34.9131 84.2119 34.4297C84.3682 33.9463 84.4463 33.3701 84.4463 32.7012C84.4463 32.0371 84.3682 31.4634 84.2119 30.98C84.0605 30.4966 83.8433 30.1279 83.5601 29.874C83.2769 29.6201 82.9473 29.4932 82.5713 29.4932ZM89.3828 32.1445H91.4189V33.5215H89.3828V40.3037H87.7568V27.0615H89.3828V32.1445ZM99.373 29.5371H94.3486V31.8955H98.8457V33.1846H94.3486V35.9092C95.5205 35.9043 96.5435 35.875 97.4175 35.8213C98.2915 35.7627 99.1777 35.6602 100.076 35.5137L100.237 36.832C99.251 36.9834 98.2695 37.0884 97.293 37.147C96.3164 37.2007 95.1689 37.2275 93.8506 37.2275H92.7373V28.2041H99.373V29.5371ZM103.035 40.3037H101.395V27.0615H103.035V40.3037ZM115.56 28.7021C115.56 29.4053 115.542 30.0205 115.508 30.5479C115.479 31.0752 115.403 31.6514 115.281 32.2764H116.98V33.5801H104.969V32.2764H113.663C113.741 31.8613 113.804 31.4243 113.853 30.9653L106.287 31.2803L106.097 30.0205L113.919 29.8301C113.929 29.6152 113.934 29.3027 113.934 28.8926H106.434V27.6035H115.56V28.7021ZM115.633 37.8721H107.942V38.8682H116.102V40.1426H106.331V36.6855H114.007V35.7773H106.302V34.5322H115.633V37.8721ZM126.194 30.2402C126.189 31.0312 126.314 31.8076 126.568 32.5693C126.827 33.3262 127.2 34.0049 127.688 34.6055C128.177 35.2061 128.753 35.665 129.417 35.9824L128.421 37.2861C127.718 36.9297 127.107 36.4219 126.59 35.7627C126.077 35.1035 125.677 34.3418 125.389 33.4775C125.091 34.4004 124.671 35.2158 124.129 35.9238C123.592 36.627 122.952 37.1641 122.21 37.5352L121.214 36.2314C121.902 35.9043 122.498 35.4282 123.001 34.8032C123.509 34.1733 123.895 33.4629 124.158 32.6719C124.427 31.876 124.563 31.0654 124.568 30.2402V28.1309H126.194V30.2402ZM131.834 32.2471H133.87V33.6387H131.834V40.3037H130.208V27.0615H131.834V32.2471ZM146.497 34.7373H134.427V33.4336H137.239V31.7563C136.736 31.5415 136.348 31.2681 136.075 30.936C135.806 30.604 135.672 30.2256 135.672 29.8008C135.672 29.2783 135.865 28.8291 136.25 28.4531C136.641 28.0723 137.195 27.7817 137.913 27.5815C138.636 27.3813 139.48 27.2812 140.447 27.2812C141.414 27.2812 142.256 27.3813 142.974 27.5815C143.692 27.7817 144.244 28.0723 144.629 28.4531C145.02 28.8291 145.218 29.2783 145.223 29.8008C145.218 30.2305 145.079 30.6113 144.805 30.9434C144.537 31.2754 144.148 31.5464 143.641 31.7563V33.4336H146.497V34.7373ZM140.447 35.543C141.399 35.5381 142.217 35.6284 142.901 35.814C143.584 35.9946 144.109 36.2632 144.476 36.6196C144.842 36.9712 145.027 37.3984 145.032 37.9014C145.027 38.4092 144.842 38.8389 144.476 39.1904C144.109 39.5469 143.584 39.8154 142.901 39.9961C142.217 40.1816 141.399 40.2744 140.447 40.2744C139.485 40.2744 138.658 40.1816 137.964 39.9961C137.276 39.8154 136.749 39.5469 136.382 39.1904C136.016 38.8389 135.833 38.4092 135.833 37.9014C135.833 37.3984 136.016 36.9712 136.382 36.6196C136.749 36.2632 137.276 35.9946 137.964 35.814C138.658 35.6284 139.485 35.5381 140.447 35.543ZM140.447 36.7734C139.476 36.7734 138.738 36.8687 138.235 37.0591C137.732 37.2495 137.483 37.5303 137.488 37.9014C137.483 38.2725 137.732 38.5557 138.235 38.751C138.743 38.9463 139.48 39.0439 140.447 39.0439C141.395 39.0439 142.122 38.9463 142.63 38.751C143.143 38.5557 143.401 38.2725 143.406 37.9014C143.401 37.5303 143.145 37.2495 142.637 37.0591C142.129 36.8687 141.399 36.7734 140.447 36.7734ZM140.447 28.541C139.461 28.541 138.699 28.6509 138.162 28.8706C137.63 29.0854 137.366 29.3955 137.371 29.8008C137.366 30.2012 137.63 30.5063 138.162 30.7163C138.694 30.9263 139.456 31.0312 140.447 31.0312C141.429 31.0312 142.188 30.9263 142.725 30.7163C143.267 30.5063 143.538 30.2012 143.538 29.8008C143.538 29.3955 143.267 29.0854 142.725 28.8706C142.188 28.6509 141.429 28.541 140.447 28.541ZM142.015 33.4336V32.1738C141.521 32.2422 140.999 32.2764 140.447 32.2764C139.896 32.2764 139.373 32.2422 138.88 32.1738V33.4336H142.015ZM149.617 29.5518H152.576V27.75H154.188V30.167H156.854V27.0615H158.479V34.2979H156.854V31.5146H154.188V33.8877H147.991V27.75H149.617V29.5518ZM152.576 32.5693V30.8115H149.617V32.5693H152.576ZM151.375 36.2314H156.854V34.8838H158.479V40.1133H149.749V34.8838H151.375V36.2314ZM156.854 38.7949V37.4912H151.375V38.7949H156.854Z" fill="white"/>
</svg>
