<svg width="209" height="42" viewBox="0 0 209 42" fill="none" xmlns="http://www.w3.org/2000/svg">
<path d="M81.4551 4.74609C81.3281 3.52539 80.3027 2.82227 78.7793 2.83203C77.168 2.82227 76.2109 3.60352 76.2012 4.66797C76.1914 5.85938 77.4512 6.34766 78.623 6.62109L79.9512 6.97266C82.0605 7.46094 84.0918 8.57422 84.0918 11.0352C84.0918 13.5156 82.1289 15.2148 78.7402 15.2148C75.4492 15.2148 73.3594 13.6328 73.252 10.8398H75.752C75.8691 12.3145 77.1094 13.0371 78.7207 13.0469C80.3906 13.0371 81.543 12.2266 81.5527 11.0156C81.543 9.90234 80.5273 9.43359 78.9941 9.04297L77.3926 8.63281C75.0684 8.02734 73.623 6.85547 73.623 4.82422C73.623 2.32422 75.8398 0.664062 78.8184 0.664062C81.8164 0.664062 83.8574 2.35352 83.8965 4.74609H81.4551ZM91.377 4.39453V6.30859H89.2871V11.8164C89.2871 12.832 89.7949 13.0371 90.4199 13.0469C90.7129 13.0566 91.2012 13.0273 91.5137 13.0078V15.0391C91.2207 15.0879 90.7422 15.1465 90.1074 15.1367C88.2324 15.1465 86.7871 14.2188 86.8066 12.2266V6.30859H85.2832V4.39453H86.8066V1.85547H89.2871V4.39453H91.377ZM97.8809 15.2148C94.6875 15.2148 92.7246 13.0859 92.7246 9.76562C92.7246 6.48438 94.7168 4.25781 97.7441 4.25781C100.342 4.25781 102.588 5.88867 102.588 9.60938V10.3906H95.1855C95.2246 12.1973 96.2891 13.2715 97.9004 13.2617C98.9941 13.2715 99.7266 12.8027 100.049 12.168H102.49C102.041 14.0039 100.342 15.2148 97.8809 15.2148ZM95.1953 8.69141H100.205C100.195 7.24609 99.2188 6.19141 97.7832 6.19141C96.2891 6.19141 95.2832 7.34375 95.1953 8.69141ZM104.521 18.9844V4.39453H106.963V6.13281H107.119C107.5 5.38086 108.281 4.25781 110.166 4.25781C112.607 4.25781 114.531 6.17188 114.541 9.70703C114.531 13.1934 112.666 15.1855 110.166 15.1953C108.34 15.1855 107.51 14.1016 107.119 13.3203H107.021V18.9844H104.521ZM106.963 9.6875C106.973 11.7578 107.871 13.1445 109.482 13.1445C111.133 13.1445 112.002 11.6895 112.002 9.6875C112.002 7.71484 111.152 6.29883 109.482 6.28906C107.852 6.29883 106.973 7.62695 106.963 9.6875ZM121.221 15V13.1641L126.221 8.33984C127.646 6.91406 128.389 6.07422 128.389 4.88281C128.389 3.56445 127.344 2.73438 125.967 2.73438C124.512 2.73438 123.574 3.64258 123.584 5.07812H121.162C121.152 2.40234 123.164 0.664062 125.986 0.664062C128.877 0.664062 130.82 2.39258 130.83 4.76562C130.82 6.35742 130.059 7.64648 127.275 10.2734L124.756 12.7734V12.8711H131.045V15H121.221ZM134.834 15.1562C133.994 15.1562 133.301 14.4727 133.311 13.6328C133.301 12.8125 133.994 12.1387 134.834 12.1289C135.645 12.1387 136.338 12.8125 136.338 13.6328C136.338 14.4727 135.645 15.1562 134.834 15.1562Z" fill="#5A45F5"/>
<path d="M53.4136 32.1445H55.4497V33.5068H53.4136V40.3184H51.8022V27.0615H53.4136V32.1445ZM49.6636 33.2139H45.2104V35.8506C46.3335 35.8408 47.3247 35.8066 48.1841 35.748C49.0435 35.6846 49.9126 35.5771 50.7915 35.4258L50.938 36.7441C49.9712 36.9199 49.0068 37.0396 48.0449 37.103C47.0879 37.1665 45.9673 37.1982 44.6831 37.1982H43.5991V31.9102H48.0376V29.5371H43.5698V28.2188H49.6636V33.2139Z" fill="#A397FF"/>
<path d="M67.022 40.3184H65.3813V27.0615H67.022V40.3184ZM63.2134 29.5957H58.4673V35.748C59.7563 35.7432 60.8232 35.7139 61.668 35.6602C62.5127 35.6064 63.355 35.5039 64.1948 35.3525L64.356 36.7002C63.4526 36.8662 62.5298 36.9785 61.5874 37.0371C60.6499 37.0957 59.439 37.125 57.9546 37.125H56.8267V28.2627H63.2134V29.5957ZM74.9907 27.8086C75.9331 27.8086 76.7778 27.9575 77.5249 28.2554C78.2769 28.5532 78.8652 28.9731 79.29 29.5151C79.7148 30.0571 79.9272 30.6797 79.9272 31.3828C79.9272 32.0322 79.7515 32.6108 79.3999 33.1187C79.0532 33.6265 78.5674 34.0366 77.9424 34.3491C77.3223 34.6567 76.6069 34.8521 75.7964 34.9351V37.3594H81.0698V38.6924H68.9702V37.3594H74.1851V34.9351C73.3794 34.8521 72.6665 34.6567 72.0464 34.3491C71.4263 34.0366 70.9429 33.6265 70.5962 33.1187C70.2495 32.6108 70.0786 32.0322 70.0835 31.3828C70.0786 30.6797 70.2861 30.0571 70.7061 29.5151C71.1309 28.9731 71.7168 28.5532 72.4639 28.2554C73.2109 27.9575 74.0532 27.8086 74.9907 27.8086ZM74.9907 29.127C74.3462 29.1221 73.7725 29.2124 73.2695 29.3979C72.7666 29.5786 72.3735 29.8423 72.0903 30.189C71.812 30.5308 71.6753 30.9287 71.6802 31.3828C71.6753 31.8516 71.812 32.2593 72.0903 32.606C72.3735 32.9478 72.7666 33.2114 73.2695 33.397C73.7725 33.5776 74.3462 33.668 74.9907 33.668C75.645 33.668 76.2236 33.5776 76.7266 33.397C77.2344 33.2114 77.6274 32.9478 77.9058 32.606C78.189 32.2593 78.3306 31.8516 78.3306 31.3828C78.3306 30.9238 78.189 30.5234 77.9058 30.1816C77.6226 29.8398 77.2271 29.5786 76.7192 29.3979C76.2163 29.2124 75.6401 29.1221 74.9907 29.127ZM89.0532 28.0283C89.7173 28.0283 90.3081 28.2212 90.8257 28.6069C91.3433 28.9878 91.7485 29.5322 92.0415 30.2402C92.3394 30.9434 92.4907 31.7637 92.4956 32.7012C92.4907 33.6484 92.3394 34.4761 92.0415 35.1841C91.7485 35.8921 91.3433 36.4365 90.8257 36.8174C90.3081 37.1982 89.7173 37.3887 89.0532 37.3887C88.3843 37.3887 87.7886 37.1982 87.2661 36.8174C86.7437 36.4316 86.3359 35.8848 86.043 35.1768C85.75 34.4688 85.606 33.6436 85.6108 32.7012C85.606 31.7686 85.75 30.9482 86.043 30.2402C86.3359 29.5322 86.7437 28.9878 87.2661 28.6069C87.7886 28.2212 88.3843 28.0283 89.0532 28.0283ZM89.0532 29.4932C88.6821 29.4932 88.355 29.6226 88.0718 29.8813C87.7886 30.1353 87.5688 30.5039 87.4126 30.9873C87.2563 31.4658 87.1782 32.0371 87.1782 32.7012C87.1782 33.3701 87.2563 33.9463 87.4126 34.4297C87.5688 34.9131 87.7886 35.2842 88.0718 35.543C88.355 35.7969 88.6821 35.9238 89.0532 35.9238C89.4292 35.9238 89.7588 35.7969 90.042 35.543C90.3252 35.2842 90.5425 34.9131 90.6938 34.4297C90.8501 33.9463 90.9282 33.3701 90.9282 32.7012C90.9282 32.0371 90.8501 31.4634 90.6938 30.98C90.5425 30.4966 90.3252 30.1279 90.042 29.874C89.7588 29.6201 89.4292 29.4932 89.0532 29.4932ZM95.8647 32.1445H97.9009V33.5215H95.8647V40.3037H94.2388V27.0615H95.8647V32.1445ZM105.855 29.5371H100.831V31.8955H105.328V33.1846H100.831V35.9092C102.002 35.9043 103.025 35.875 103.899 35.8213C104.773 35.7627 105.66 35.6602 106.558 35.5137L106.719 36.832C105.733 36.9834 104.751 37.0884 103.775 37.147C102.798 37.2007 101.651 37.2275 100.333 37.2275H99.2192V28.2041H105.855V29.5371ZM109.517 40.3037H107.876V27.0615H109.517V40.3037ZM122.042 28.7021C122.042 29.4053 122.024 30.0205 121.99 30.5479C121.961 31.0752 121.885 31.6514 121.763 32.2764H123.462V33.5801H111.451V32.2764H120.145C120.223 31.8613 120.286 31.4243 120.335 30.9653L112.769 31.2803L112.579 30.0205L120.401 29.8301C120.411 29.6152 120.416 29.3027 120.416 28.8926H112.916V27.6035H122.042V28.7021ZM122.115 37.8721H114.424V38.8682H122.583V40.1426H112.813V36.6855H120.489V35.7773H112.784V34.5322H122.115V37.8721ZM132.676 30.2402C132.671 31.0312 132.796 31.8076 133.05 32.5693C133.309 33.3262 133.682 34.0049 134.17 34.6055C134.659 35.2061 135.235 35.665 135.899 35.9824L134.903 37.2861C134.2 36.9297 133.589 36.4219 133.072 35.7627C132.559 35.1035 132.159 34.3418 131.871 33.4775C131.573 34.4004 131.153 35.2158 130.611 35.9238C130.074 36.627 129.434 37.1641 128.692 37.5352L127.696 36.2314C128.384 35.9043 128.98 35.4282 129.483 34.8032C129.991 34.1733 130.376 33.4629 130.64 32.6719C130.909 31.876 131.045 31.0654 131.05 30.2402V28.1309H132.676V30.2402ZM138.316 32.2471H140.352V33.6387H138.316V40.3037H136.69V27.0615H138.316V32.2471ZM152.979 34.7373H140.909V33.4336H143.721V31.7563C143.218 31.5415 142.83 31.2681 142.557 30.936C142.288 30.604 142.154 30.2256 142.154 29.8008C142.154 29.2783 142.347 28.8291 142.732 28.4531C143.123 28.0723 143.677 27.7817 144.395 27.5815C145.118 27.3813 145.962 27.2812 146.929 27.2812C147.896 27.2812 148.738 27.3813 149.456 27.5815C150.174 27.7817 150.726 28.0723 151.111 28.4531C151.502 28.8291 151.7 29.2783 151.705 29.8008C151.7 30.2305 151.561 30.6113 151.287 30.9434C151.019 31.2754 150.63 31.5464 150.123 31.7563V33.4336H152.979V34.7373ZM146.929 35.543C147.881 35.5381 148.699 35.6284 149.383 35.814C150.066 35.9946 150.591 36.2632 150.958 36.6196C151.324 36.9712 151.509 37.3984 151.514 37.9014C151.509 38.4092 151.324 38.8389 150.958 39.1904C150.591 39.5469 150.066 39.8154 149.383 39.9961C148.699 40.1816 147.881 40.2744 146.929 40.2744C145.967 40.2744 145.14 40.1816 144.446 39.9961C143.758 39.8154 143.23 39.5469 142.864 39.1904C142.498 38.8389 142.315 38.4092 142.315 37.9014C142.315 37.3984 142.498 36.9712 142.864 36.6196C143.23 36.2632 143.758 35.9946 144.446 35.814C145.14 35.6284 145.967 35.5381 146.929 35.543ZM146.929 36.7734C145.958 36.7734 145.22 36.8687 144.717 37.0591C144.214 37.2495 143.965 37.5303 143.97 37.9014C143.965 38.2725 144.214 38.5557 144.717 38.751C145.225 38.9463 145.962 39.0439 146.929 39.0439C147.876 39.0439 148.604 38.9463 149.112 38.751C149.625 38.5557 149.883 38.2725 149.888 37.9014C149.883 37.5303 149.627 37.2495 149.119 37.0591C148.611 36.8687 147.881 36.7734 146.929 36.7734ZM146.929 28.541C145.943 28.541 145.181 28.6509 144.644 28.8706C144.112 29.0854 143.848 29.3955 143.853 29.8008C143.848 30.2012 144.112 30.5063 144.644 30.7163C145.176 30.9263 145.938 31.0312 146.929 31.0312C147.911 31.0312 148.67 30.9263 149.207 30.7163C149.749 30.5063 150.02 30.2012 150.02 29.8008C150.02 29.3955 149.749 29.0854 149.207 28.8706C148.67 28.6509 147.911 28.541 146.929 28.541ZM148.497 33.4336V32.1738C148.003 32.2422 147.481 32.2764 146.929 32.2764C146.377 32.2764 145.855 32.2422 145.362 32.1738V33.4336H148.497ZM156.099 29.5518H159.058V27.75H160.669V30.167H163.335V27.0615H164.961V34.2979H163.335V31.5146H160.669V33.8877H154.473V27.75H156.099V29.5518ZM159.058 32.5693V30.8115H156.099V32.5693H159.058ZM157.857 36.2314H163.335V34.8838H164.961V40.1133H156.231V34.8838H157.857V36.2314ZM163.335 38.7949V37.4912H157.857V38.7949H163.335Z" fill="white"/>
</svg>
