<svg width="16" height="15" viewBox="0 0 16 15" fill="none" xmlns="http://www.w3.org/2000/svg">
<path id="Vector" d="M3.57564 9.05202H8.33689C8.49686 9.05202 8.63094 8.9976 8.73915 8.88877C8.84736 8.77992 8.90147 8.64504 8.90147 8.48415C8.90147 8.32325 8.84736 8.18948 8.73915 8.08283C8.63094 7.97619 8.49686 7.92287 8.33689 7.92287H3.57564C3.41568 7.92287 3.28159 7.97729 3.17338 8.08613C3.06517 8.19498 3.01107 8.32985 3.01107 8.49074C3.01107 8.65164 3.06517 8.78542 3.17338 8.89206C3.28159 8.9987 3.41568 9.05202 3.57564 9.05202ZM3.57564 6.60553H11.4797C11.6397 6.60553 11.7737 6.55111 11.882 6.44227C11.9902 6.33342 12.0443 6.19855 12.0443 6.03766C12.0443 5.87676 11.9902 5.74298 11.882 5.63634C11.7737 5.5297 11.6397 5.47638 11.4797 5.47638H3.57564C3.41568 5.47638 3.28159 5.5308 3.17338 5.63964C3.06517 5.74849 3.01107 5.88336 3.01107 6.04425C3.01107 6.20515 3.06517 6.33892 3.17338 6.44557C3.28159 6.55221 3.41568 6.60553 3.57564 6.60553ZM3.57564 4.15904H11.4797C11.6397 4.15904 11.7737 4.10462 11.882 3.99578C11.9902 3.88693 12.0443 3.75206 12.0443 3.59117C12.0443 3.43026 11.9902 3.29649 11.882 3.18985C11.7737 3.08321 11.6397 3.02989 11.4797 3.02989H3.57564C3.41568 3.02989 3.28159 3.08431 3.17338 3.19314C3.06517 3.30199 3.01107 3.43686 3.01107 3.59775C3.01107 3.75866 3.06517 3.89243 3.17338 3.99907C3.28159 4.10572 3.41568 4.15904 3.57564 4.15904ZM3.01107 12.0443L0.959778 14.0956C0.784132 14.2712 0.580258 14.311 0.348155 14.2149C0.116052 14.1189 0 13.9474 0 13.7004V1.12915C0 0.828044 0.112915 0.564575 0.338745 0.338745C0.564575 0.112915 0.828044 0 1.12915 0H13.9262C14.2273 0 14.4908 0.112915 14.7166 0.338745C14.9424 0.564575 15.0553 0.828044 15.0553 1.12915V10.9151C15.0553 11.2162 14.9424 11.4797 14.7166 11.7055C14.4908 11.9314 14.2273 12.0443 13.9262 12.0443H3.01107Z" fill="#B9B9BD"/>
</svg>
