<svg width="14" height="14" viewBox="0 0 14 14" fill="none" xmlns="http://www.w3.org/2000/svg">
<path id="Subtract" fill-rule="evenodd" clip-rule="evenodd" d="M14 7C14 10.866 10.866 14 7 14C5.76093 14 4.59701 13.678 3.58738 13.1133C3.53076 13.0816 3.46494 13.0701 3.40116 13.0819L0.739533 13.5775C0.55187 13.6124 0.387585 13.4481 0.422524 13.2605L0.918071 10.5988C0.929947 10.5351 0.918436 10.4692 0.88676 10.4126C0.321949 9.40297 0 8.23907 0 7C0 3.134 3.134 0 7 0C10.866 0 14 3.134 14 7ZM6.64776 8.11647C6.73522 8.22013 6.85346 8.27196 7.00246 8.27196C7.13317 8.27196 7.24683 8.22661 7.34345 8.13591C7.44006 8.04521 7.49808 7.93183 7.51752 7.79578C7.54343 7.62086 7.60174 7.46537 7.69244 7.32932C7.78314 7.19327 7.94187 7.01511 8.16862 6.79483C8.46016 6.51625 8.67233 6.25063 8.80515 5.99796C8.93796 5.74529 9.00436 5.4648 9.00436 5.15648C9.00436 4.65083 8.82974 4.21764 8.48049 3.85691C8.13123 3.49617 7.63208 3.3158 6.98303 3.3158C6.58672 3.3158 6.24146 3.40165 5.94724 3.57333C5.65301 3.74501 5.4152 3.96367 5.2338 4.22929C5.16253 4.33943 5.14148 4.46252 5.17063 4.59857C5.19978 4.73463 5.27822 4.82964 5.40594 4.88363C5.51145 4.92682 5.61928 4.92899 5.72941 4.89011C5.83955 4.85124 5.93025 4.77998 6.00152 4.67632C6.0999 4.53296 6.22815 4.4129 6.38628 4.31613C6.5444 4.21937 6.74332 4.17098 6.98303 4.17098C7.33101 4.17098 7.60265 4.26816 7.79794 4.46252C7.99323 4.65688 8.09088 4.89927 8.09088 5.18969C8.09088 5.43052 8.01799 5.65621 7.87222 5.86677C7.72645 6.07732 7.51752 6.3057 7.24541 6.55188C7.02514 6.74624 6.86155 6.93412 6.75466 7.11552C6.64776 7.29693 6.57811 7.50424 6.54572 7.73747C6.52628 7.88648 6.5603 8.01282 6.64776 8.11647ZM6.50199 10.5014C6.6348 10.6348 6.79486 10.7014 6.98216 10.7014C7.16947 10.7014 7.32982 10.635 7.4632 10.5022C7.59659 10.3694 7.66329 10.2094 7.66329 10.0221C7.66329 9.83475 7.59688 9.6744 7.46407 9.54102C7.33126 9.40763 7.1712 9.34094 6.98389 9.34094C6.79658 9.34094 6.63624 9.40734 6.50285 9.54015C6.36947 9.67297 6.30277 9.83302 6.30277 10.0203C6.30277 10.2076 6.36918 10.368 6.50199 10.5014Z" fill="#B9B9BD"/>
</svg>
