<svg width="26" height="29" viewBox="0 0 26 29" fill="none" xmlns="http://www.w3.org/2000/svg">
<path d="M13 4C9 4 1 7 1 16C1 25.6 8.83333 28 12.5 28C16.8333 28 25 25.6 25 16M13 4L10 1M13 4L10 7.5" stroke="white" stroke-width="1.5"/>
<path d="M10.4287 20.0977C9.94694 20.0977 9.514 20.0163 9.12988 19.8535C8.74902 19.6908 8.44792 19.4629 8.22656 19.1699C8.00846 18.8737 7.8929 18.5352 7.87988 18.1543H8.97363C8.98665 18.3594 9.05664 18.5384 9.18359 18.6914C9.3138 18.8444 9.48633 18.9632 9.70117 19.0479C9.91602 19.1292 10.1553 19.1699 10.4189 19.1699C10.6989 19.1699 10.9512 19.1211 11.1758 19.0234C11.4004 18.9258 11.5762 18.7907 11.7031 18.6182C11.8301 18.4424 11.8936 18.2422 11.8936 18.0176C11.8936 17.7865 11.8301 17.5798 11.7031 17.3975C11.5762 17.2152 11.3923 17.0736 11.1514 16.9727C10.9137 16.8685 10.6305 16.8164 10.3018 16.8164H9.69629V15.9375H10.3018C10.5654 15.9375 10.8014 15.8903 11.0098 15.7959C11.2181 15.7015 11.3792 15.5697 11.4932 15.4004C11.6104 15.2311 11.6689 15.0358 11.6689 14.8145C11.6689 14.5996 11.6185 14.4108 11.5176 14.248C11.4167 14.0853 11.2734 13.9583 11.0879 13.8672C10.9023 13.776 10.6859 13.7305 10.4385 13.7305C10.1976 13.7305 9.97461 13.7728 9.76953 13.8574C9.56445 13.9421 9.39844 14.0625 9.27148 14.2188C9.14779 14.375 9.08105 14.5573 9.07129 14.7656H8.03613C8.0459 14.3913 8.1582 14.0576 8.37305 13.7646C8.59115 13.4684 8.88249 13.2389 9.24707 13.0762C9.61165 12.9134 10.012 12.832 10.4482 12.832C10.8975 12.832 11.293 12.9183 11.6348 13.0908C11.9798 13.2633 12.2451 13.4977 12.4307 13.7939C12.6162 14.0869 12.7074 14.4076 12.7041 14.7559C12.7074 15.153 12.5951 15.4915 12.3672 15.7715C12.1426 16.0482 11.8382 16.2337 11.4541 16.3281V16.377C11.9326 16.4453 12.3053 16.6292 12.5723 16.9287C12.8424 17.2282 12.9775 17.6042 12.9775 18.0566C12.9775 18.444 12.8669 18.7939 12.6455 19.1064C12.4242 19.4157 12.1198 19.6582 11.7324 19.834C11.3451 20.0098 10.9105 20.0977 10.4287 20.0977ZM16.6201 20.0977C16.0765 20.0977 15.6094 19.9561 15.2188 19.6729C14.8314 19.3896 14.5352 18.9762 14.3301 18.4326C14.125 17.8857 14.0225 17.2298 14.0225 16.4648C14.0225 15.7064 14.125 15.0553 14.3301 14.5117C14.5384 13.9648 14.8379 13.5482 15.2285 13.2617C15.6191 12.9753 16.083 12.832 16.6201 12.832C17.1572 12.832 17.6211 12.9753 18.0117 13.2617C18.4023 13.5482 18.7002 13.9648 18.9053 14.5117C19.1136 15.0553 19.2178 15.7064 19.2178 16.4648C19.2178 17.2298 19.1152 17.8841 18.9102 18.4277C18.7051 18.9714 18.4072 19.3864 18.0166 19.6729C17.626 19.9561 17.1605 20.0977 16.6201 20.0977ZM16.6201 19.1699C16.9391 19.1699 17.2126 19.0674 17.4404 18.8623C17.6683 18.654 17.8424 18.348 17.9629 17.9443C18.0833 17.5407 18.1436 17.0475 18.1436 16.4648C18.1436 15.8854 18.0817 15.3923 17.958 14.9854C17.8376 14.5752 17.6634 14.266 17.4355 14.0576C17.2077 13.846 16.9359 13.7402 16.6201 13.7402C16.3044 13.7402 16.0326 13.846 15.8047 14.0576C15.5768 14.266 15.401 14.5752 15.2773 14.9854C15.1569 15.3923 15.0967 15.8854 15.0967 16.4648C15.0967 17.0475 15.1569 17.5407 15.2773 17.9443C15.3978 18.348 15.5719 18.654 15.7998 18.8623C16.0277 19.0674 16.3011 19.1699 16.6201 19.1699Z" fill="white"/>
</svg>
