<svg width="26" height="29" viewBox="0 0 26 29" fill="none" xmlns="http://www.w3.org/2000/svg">
<path d="M11.4834 19.3125H10.3994V13.3164H10.3604L8.6709 14.4199V13.3945L10.4287 12.2422H11.4834V19.3125ZM15.7412 19.4102C15.1976 19.4102 14.7305 19.2686 14.3398 18.9854C13.9525 18.7021 13.6562 18.2887 13.4512 17.7451C13.2461 17.1982 13.1436 16.5423 13.1436 15.7773C13.1436 15.0189 13.2461 14.3678 13.4512 13.8242C13.6595 13.2773 13.959 12.8607 14.3496 12.5742C14.7402 12.2878 15.2041 12.1445 15.7412 12.1445C16.2783 12.1445 16.7422 12.2878 17.1328 12.5742C17.5234 12.8607 17.8213 13.2773 18.0264 13.8242C18.2347 14.3678 18.3389 15.0189 18.3389 15.7773C18.3389 16.5423 18.2363 17.1966 18.0312 17.7402C17.8262 18.2839 17.5283 18.6989 17.1377 18.9854C16.7471 19.2686 16.2816 19.4102 15.7412 19.4102ZM15.7412 18.4824C16.0602 18.4824 16.3337 18.3799 16.5615 18.1748C16.7894 17.9665 16.9635 17.6605 17.084 17.2568C17.2044 16.8532 17.2646 16.36 17.2646 15.7773C17.2646 15.1979 17.2028 14.7048 17.0791 14.2979C16.9587 13.8877 16.7845 13.5785 16.5566 13.3701C16.3288 13.1585 16.057 13.0527 15.7412 13.0527C15.4255 13.0527 15.1536 13.1585 14.9258 13.3701C14.6979 13.5785 14.5221 13.8877 14.3984 14.2979C14.278 14.7048 14.2178 15.1979 14.2178 15.7773C14.2178 16.36 14.278 16.8532 14.3984 17.2568C14.5189 17.6605 14.693 17.9665 14.9209 18.1748C15.1488 18.3799 15.4222 18.4824 15.7412 18.4824Z" fill="white"/>
<path d="M13 4C17 4 25 7 25 16C25 25.6 17.1667 28 13.5 28C9.16667 28 1 25.6 1 16M13 4L16 1M13 4L16 7.5" stroke="white" stroke-width="1.5"/>
</svg>
