<svg width="17" height="21" viewBox="0 0 17 21" fill="none" xmlns="http://www.w3.org/2000/svg">
<path fill-rule="evenodd" clip-rule="evenodd" d="M8.5 18.2939L2.55 20.8338C1.94286 21.0959 1.36607 21.048 0.819643 20.69C0.273214 20.3321 0 19.8257 0 19.1708V1.81427C0 1.33046 0.182143 0.907134 0.546429 0.54428C0.910714 0.181427 1.33571 0 1.82143 0H15.1786C15.6643 0 16.0893 0.181427 16.4536 0.54428C16.8179 0.907134 17 1.33046 17 1.81427V19.1708C17 19.8257 16.7268 20.3321 16.1804 20.69C15.6339 21.048 15.0571 21.0959 14.45 20.8338L8.5 18.2939ZM15.1786 19.1708L8.5 16.3587L1.82143 19.1708V1.81427H8.5H15.1786V19.1708Z" fill="white"/>
</svg>
