<svg width="88" height="12" viewBox="0 0 88 12" fill="none" xmlns="http://www.w3.org/2000/svg">
<g clip-path="url(#clip0_1434_15460)">
<path opacity="0.3" d="M84.6892 2.71379C85.6799 2.71379 86.4402 3.11352 86.9616 3.90862V2.87021H88V8.65751C88 9.55254 87.6959 10.239 87.0919 10.7343C86.488 11.2296 85.7624 11.4816 84.9152 11.4816C83.5639 11.4816 82.5473 10.9603 82.0519 10.0087L82.9687 9.48737C83.2946 10.1652 83.9593 10.5041 84.9369 10.5041C86.1926 10.5041 86.9529 9.80454 86.9529 8.65316V7.79723C86.4228 8.60537 85.6581 9.00509 84.6806 9.00509C83.8246 9.00509 83.086 8.70096 82.4951 8.08834C81.9042 7.47137 81.6001 6.73275 81.6001 5.8551C81.6001 4.97745 81.9042 4.23448 82.4951 3.63055C83.086 3.01359 83.8246 2.71379 84.6806 2.71379H84.6892ZM4.49689 0.189453C5.83075 0.189453 7.08206 0.776004 7.94233 1.79704L7.97709 1.84048L6.43468 3.10048C6.39992 3.06138 6.36951 3.02228 6.33909 2.99186C5.86551 2.47483 5.19206 2.17938 4.49689 2.17938C3.11089 2.17938 1.98558 3.30469 1.98558 4.69069V4.78627C2.03772 6.12448 3.14565 7.20199 4.49689 7.20199C5.19641 7.20199 5.86985 6.9022 6.34778 6.38517L6.3782 6.35041L6.39558 6.32868L6.41296 6.30696L6.43468 6.28089L7.97709 7.54089L7.94233 7.58434C7.0864 8.60537 5.83075 9.19192 4.49689 9.19192C2.016 9.18323 0 7.16723 0 4.68634V4.56469C0.0651723 2.14028 2.05945 0.189453 4.49689 0.189453ZM19.1085 0.189453C20.3468 0.189453 21.4982 0.680418 22.3541 1.57545C22.4323 1.65366 22.5062 1.74055 22.5887 1.84483C23.2448 2.64428 23.6054 3.65662 23.6054 4.69069C23.6054 5.72475 23.2448 6.73275 22.5887 7.5322C22.5887 7.5322 22.5583 7.5713 22.554 7.57999C21.698 8.60103 20.4424 9.18758 19.1085 9.18758C17.7747 9.18758 16.4843 8.58365 15.624 7.53654C15.4806 7.35841 15.3503 7.17158 15.2329 6.97606C14.8289 6.28958 14.6073 5.49448 14.6073 4.69069C14.6073 3.65662 14.9679 2.64428 15.6196 1.84483C16.4799 0.793383 17.7486 0.193798 19.1042 0.193798L19.1085 0.189453ZM66.1195 0.454487V3.90862C66.6409 3.10917 67.4012 2.71379 68.4049 2.71379C69.2521 2.71379 69.9733 3.02662 70.5686 3.64359C71.1595 4.26055 71.4636 5.00786 71.4636 5.88986C71.4636 6.77186 71.1595 7.5322 70.5686 8.14916C69.9777 8.76613 69.2521 9.06592 68.4049 9.06592C67.4012 9.06592 66.6409 8.6662 66.1195 7.8711V8.90951H65.068V0.454487H66.1195ZM58.7116 0.454487V3.90862C59.2329 3.10917 59.9933 2.71379 60.9969 2.71379C61.8442 2.71379 62.5654 3.02662 63.1607 3.64359C63.7516 4.26055 64.0557 5.00786 64.0557 5.88986C64.0557 6.77186 63.7516 7.5322 63.1607 8.14916C62.5698 8.76613 61.8442 9.06592 60.9969 9.06592C59.9933 9.06592 59.2329 8.6662 58.7116 7.8711V8.90951H57.6601V0.454487H58.7116ZM51.8294 2.87021V6.51986C51.8294 7.49744 52.3985 8.06661 53.3283 8.06661C54.3798 8.06661 55.0793 7.42792 55.0793 6.07234V2.87021H56.1307V8.91385H55.0793V8.04489C54.6578 8.73571 54.0018 9.07027 53.1198 9.07027C51.7077 9.07027 50.7779 8.11441 50.7779 6.58068V2.87021H51.8294ZM36.1098 0.458832L39.351 8.90951H37.2699L36.7355 7.42358H33.655L33.1206 8.90951H31.0394L34.2806 0.458832H36.1098ZM10.9359 0.458832V6.96737H14.2163V8.90951H8.99378V0.458832H10.9359ZM25.7865 0.458832L27.8633 5.86813L29.9402 0.458832H32.0213L28.7801 8.90951H26.9509L23.7097 0.458832H25.7909H25.7865ZM45.5815 0.454487C46.7285 0.454487 47.6844 0.867245 48.4448 1.68842C49.2051 2.49655 49.5918 3.50021 49.5918 4.68634C49.5918 5.87248 49.2051 6.87179 48.4448 7.69296C47.6844 8.50109 46.7285 8.91385 45.5815 8.91385H42.4141V0.454487H45.5815ZM73.8098 2.87021V8.91385H72.7584V2.87021H73.8098ZM78.3154 2.71379C79.7275 2.71379 80.6573 3.66965 80.6573 5.20338V8.91385H79.6058V5.2642C79.6058 4.28662 79.0366 3.71745 78.1068 3.71745C77.0554 3.71745 76.3559 4.35614 76.3559 5.71172V8.91385H75.3044V2.87021H76.3559V3.73917C76.7773 3.04834 77.4334 2.71379 78.3154 2.71379ZM68.2658 3.73048C67.6489 3.73048 67.1405 3.93469 66.7321 4.36048C66.3193 4.77324 66.1151 5.27724 66.1151 5.8942C66.1151 6.51117 66.3193 7.01951 66.7321 7.44096C67.1449 7.85372 67.6489 8.05792 68.2658 8.05792C68.8828 8.05792 69.3781 7.85372 69.7865 7.44096C70.1993 7.01951 70.4035 6.51117 70.4035 5.8942C70.4035 5.27724 70.1993 4.76889 69.7865 4.36048C69.3738 3.93903 68.8698 3.73048 68.2658 3.73048ZM60.8579 3.73048C60.2409 3.73048 59.7326 3.93469 59.3242 4.36048C58.9114 4.77324 58.7072 5.27724 58.7072 5.8942C58.7072 6.51117 58.9114 7.01951 59.3242 7.44096C59.7369 7.85372 60.2409 8.05792 60.8579 8.05792C61.4749 8.05792 61.9702 7.85372 62.3786 7.44096C62.7914 7.01951 62.9956 6.51117 62.9956 5.8942C62.9956 5.27724 62.7914 4.76889 62.3786 4.36048C61.9658 3.93903 61.4618 3.73048 60.8579 3.73048ZM84.8066 3.71745C84.1896 3.71745 83.6813 3.92165 83.2728 4.33441C82.8601 4.74717 82.6559 5.25117 82.6559 5.8551C82.6559 6.45903 82.8601 6.98041 83.2728 7.38882C83.6856 7.80158 84.1896 8.00578 84.8066 8.00578C85.4235 8.00578 85.9319 7.80158 86.3403 7.38882C86.753 6.97606 86.9572 6.47206 86.9572 5.8551C86.9572 5.23813 86.753 4.74283 86.3403 4.33441C85.9275 3.92165 85.4235 3.71745 84.8066 3.71745ZM45.5815 1.51897H43.5394V7.84937H45.5815C46.4374 7.84937 47.15 7.54523 47.6974 6.9413C48.2405 6.33737 48.5186 5.59007 48.5186 4.682C48.5186 3.77393 48.2405 3.02662 47.6974 2.42269C47.1543 1.81876 46.4418 1.51462 45.5815 1.51462V1.51897ZM19.1085 2.17938C18.3525 2.17938 17.6443 2.51393 17.1664 3.10048C16.8014 3.548 16.6016 4.10848 16.6016 4.68634C16.6016 5.2642 16.8014 5.82903 17.1664 6.2722C17.6443 6.85875 18.3525 7.1933 19.1085 7.1933C19.808 7.1933 20.4815 6.89351 20.9594 6.37648C20.9811 6.35041 21.0029 6.32434 21.0246 6.29827L21.0463 6.2722C21.42 5.816 21.6155 5.26855 21.6155 4.68634C21.6155 4.10414 21.42 3.55669 21.0463 3.10048C20.9638 2.99621 20.8856 2.918 20.8117 2.84414C20.3468 2.40966 19.7385 2.17069 19.1085 2.17069V2.17938ZM35.1931 2.92669L34.2328 5.68131H36.1489L35.1887 2.92669H35.1931ZM73.2928 0.358901C73.6795 0.358901 73.9923 0.684763 73.9923 1.07145C73.9923 1.45814 73.6795 1.77097 73.2928 1.77097C72.9061 1.77097 72.5802 1.45814 72.5802 1.07145C72.5802 0.684763 72.8931 0.358901 73.2928 0.358901Z" fill="white"/>
</g>
<defs>
<clipPath id="clip0_1434_15460">
<rect width="88" height="11.2965" fill="white" transform="translate(0 0.189453)"/>
</clipPath>
</defs>
</svg>
