<svg width="120" height="32" viewBox="0 0 120 32" fill="none" xmlns="http://www.w3.org/2000/svg">
<rect width="120" height="32" rx="10" fill="url(#paint0_linear_442_5270)"/>
<path d="M41.4902 12.7861C41.4902 13.2093 41.5728 13.6198 41.7378 14.0176C41.9028 14.4154 42.1525 14.7729 42.4868 15.0903C42.8254 15.4077 43.238 15.6595 43.7246 15.8457L42.9756 16.9248C42.4762 16.7344 42.0467 16.4657 41.687 16.1187C41.3273 15.7716 41.0417 15.3675 40.8301 14.9062C40.61 15.4395 40.3096 15.9113 39.9287 16.3218C39.5521 16.7323 39.0993 17.0475 38.5703 17.2676L37.8086 16.1885C38.3122 15.9642 38.7375 15.668 39.0845 15.2998C39.4315 14.9316 39.6917 14.5317 39.8652 14.1001C40.0387 13.6642 40.1276 13.2262 40.1318 12.7861V11.3643H41.4902V12.7861ZM47.7236 17.6992H46.3779V14.7158H45.2354V17.3438H43.915V10.8818H45.2354V13.5605H46.3779V10.666H47.7236V17.6992ZM43.8516 17.8896C44.6471 17.8896 45.339 17.9743 45.9272 18.1436C46.5197 18.3086 46.9767 18.5498 47.2983 18.8672C47.62 19.1846 47.7829 19.5612 47.7871 19.9971C47.7829 20.4329 47.62 20.8096 47.2983 21.127C46.9767 21.4486 46.5197 21.694 45.9272 21.8633C45.339 22.0326 44.6471 22.1172 43.8516 22.1172C43.0475 22.1172 42.3493 22.0326 41.7568 21.8633C41.1644 21.694 40.7095 21.4486 40.3921 21.127C40.0747 20.8096 39.916 20.4329 39.916 19.9971C39.916 19.5612 40.0747 19.1846 40.3921 18.8672C40.7095 18.5498 41.1644 18.3086 41.7568 18.1436C42.3493 17.9743 43.0475 17.8896 43.8516 17.8896ZM43.8516 18.9561C43.0518 18.9561 42.4297 19.047 41.9854 19.229C41.5452 19.4067 41.3252 19.6628 41.3252 19.9971C41.3252 20.3356 41.5452 20.5938 41.9854 20.7715C42.4255 20.9492 43.0475 21.0381 43.8516 21.0381C44.6471 21.0381 45.265 20.9492 45.7051 20.7715C46.1452 20.5938 46.3652 20.3356 46.3652 19.9971C46.3652 19.6628 46.1431 19.4067 45.6987 19.229C45.2586 19.047 44.6429 18.9561 43.8516 18.9561ZM53.3477 12.3037C53.3434 12.8327 53.4429 13.332 53.646 13.8018C53.8491 14.2715 54.1538 14.6862 54.5601 15.0459C54.9705 15.4014 55.4678 15.6722 56.0518 15.8584L55.29 16.9629C54.6722 16.7471 54.1432 16.4382 53.7031 16.0361C53.2673 15.6341 52.9245 15.1559 52.6748 14.6016C52.4167 15.2406 52.0464 15.7949 51.564 16.2646C51.0815 16.7301 50.4997 17.0814 49.8184 17.3184L49.0693 16.1758C49.6872 15.9727 50.2098 15.6785 50.6372 15.2935C51.0646 14.9084 51.3862 14.464 51.6021 13.9604C51.8179 13.4569 51.9258 12.9258 51.9258 12.3672V11.2754H53.3477V12.3037ZM58.7559 17.4072H57.3467V14.0303H55.0615V12.875H57.3467V10.6533H58.7559V17.4072ZM54.8711 17.7119C55.6794 17.7119 56.3776 17.7987 56.9658 17.9722C57.5583 18.1457 58.0111 18.3996 58.3242 18.7339C58.6374 19.064 58.7939 19.4596 58.7939 19.9209C58.7939 20.3822 58.6374 20.7778 58.3242 21.1079C58.0111 21.438 57.5604 21.6877 56.9722 21.8569C56.384 22.0304 55.6836 22.1172 54.8711 22.1172C54.0628 22.1172 53.3646 22.0304 52.7764 21.8569C52.1924 21.6877 51.7438 21.438 51.4307 21.1079C51.1217 20.7778 50.9694 20.3822 50.9736 19.9209C50.9694 19.4596 51.1217 19.064 51.4307 18.7339C51.7438 18.3996 52.1945 18.1457 52.7827 17.9722C53.3709 17.7987 54.0671 17.7119 54.8711 17.7119ZM54.8711 18.8037C54.0671 18.8037 53.4492 18.901 53.0176 19.0957C52.5859 19.2861 52.3701 19.5612 52.3701 19.9209C52.3701 20.2721 52.5859 20.543 53.0176 20.7334C53.4535 20.9196 54.0713 21.0127 54.8711 21.0127C55.6709 21.0127 56.2887 20.9175 56.7246 20.7271C57.1647 20.5366 57.3848 20.2679 57.3848 19.9209C57.3848 19.5612 57.1668 19.2861 56.731 19.0957C56.2951 18.901 55.6751 18.8037 54.8711 18.8037ZM69.3691 15.2236H71.1338V16.3916H69.3691V22.1299H67.9727V10.6533H69.3691V15.2236ZM67.084 13.5479H60.3174V12.418H63.0342V10.8184H64.4434V12.418H67.084V13.5479ZM63.7451 14.2969C64.291 14.2969 64.7819 14.4132 65.2178 14.646C65.6579 14.8745 66.0028 15.194 66.2524 15.6045C66.5021 16.015 66.627 16.4805 66.627 17.001C66.627 17.5215 66.5021 17.987 66.2524 18.3975C66.0028 18.8037 65.6579 19.1211 65.2178 19.3496C64.7819 19.5781 64.291 19.6924 63.7451 19.6924C63.1908 19.6924 62.6935 19.5781 62.2534 19.3496C61.8133 19.1211 61.4684 18.8037 61.2188 18.3975C60.9691 17.987 60.8464 17.5215 60.8506 17.001C60.8464 16.4805 60.9691 16.015 61.2188 15.6045C61.4684 15.194 61.8133 14.8745 62.2534 14.646C62.6935 14.4132 63.1908 14.2969 63.7451 14.2969ZM63.7451 15.4521C63.4447 15.4521 63.1759 15.5156 62.939 15.6426C62.7062 15.7695 62.5243 15.9515 62.3931 16.1885C62.2619 16.4212 62.1963 16.6921 62.1963 17.001C62.1963 17.3099 62.2619 17.5807 62.3931 17.8135C62.5243 18.042 62.7062 18.2197 62.939 18.3467C63.1759 18.4694 63.4447 18.5286 63.7451 18.5244C64.0371 18.5286 64.2974 18.4694 64.5259 18.3467C64.7586 18.2197 64.9406 18.042 65.0718 17.8135C65.2072 17.5807 65.277 17.3099 65.2812 17.001C65.277 16.6921 65.2072 16.4212 65.0718 16.1885C64.9406 15.9557 64.7586 15.7759 64.5259 15.6489C64.2974 15.5177 64.0371 15.4521 63.7451 15.4521ZM81.2012 22.1299H79.7793V10.6533H81.2012V22.1299ZM77.7734 11.8721C77.7734 13.696 77.3608 15.2977 76.5356 16.6772C75.7104 18.0526 74.3415 19.193 72.4287 20.0986L71.6924 18.9688C73.1693 18.2663 74.2801 17.4263 75.0249 16.4487C75.7739 15.467 76.2119 14.3138 76.3389 12.9893H72.2764V11.8721H77.7734Z" fill="white"/>
<defs>
<linearGradient id="paint0_linear_442_5270" x1="1.78814e-06" y1="32" x2="35.9845" y2="-41.2648" gradientUnits="userSpaceOnUse">
<stop stop-color="#5A45F5"/>
<stop offset="1" stop-color="#AC85FF"/>
</linearGradient>
</defs>
</svg>
