<svg width="179" height="39" viewBox="0 0 179 39" fill="none" xmlns="http://www.w3.org/2000/svg">
<path d="M19.6855 0.222656V13.1426H18.792V6.33105H16.8145V12.4688H15.9355V0.515625H16.8145V5.52539H18.792V0.222656H19.6855ZM12.376 3.85547C12.376 6.24316 13.4453 8.32324 15.2471 9.23145L14.6904 9.96387C13.3574 9.23877 12.4053 7.91309 11.9512 6.25781C11.5044 8.14014 10.5229 9.58301 9.13867 10.4033L8.53809 9.7002C10.3838 8.68945 11.4824 6.52148 11.4824 3.85547V2.61035H8.81641V1.81934H14.9102V2.61035H12.376V3.85547ZM25.3691 2.87402C25.3691 4.30957 26.4531 5.78906 28.1084 6.38965L27.6104 7.12207C26.3286 6.62402 25.3838 5.63525 24.9297 4.4707C24.4609 5.73779 23.4795 6.8877 22.1904 7.45898L21.6777 6.74121C23.3477 6.00879 24.4756 4.30957 24.4902 2.87402V1.02832H25.3691V2.87402ZM32.5322 0.222656V8.23535H31.6533V4.58789H29.7197V7.8252H28.8408V0.47168H29.7197V3.81152H31.6533V0.222656H32.5322ZM28.3135 8.55762C30.9648 8.55762 32.6055 9.39258 32.6055 10.8281C32.6055 12.2637 30.9648 13.0986 28.3135 13.0986C25.6328 13.0986 24.0068 12.2637 24.0068 10.8281C24.0068 9.39258 25.6328 8.55762 28.3135 8.55762ZM28.3135 9.29004C26.2334 9.29004 24.915 9.87598 24.9297 10.8281C24.915 11.7803 26.2334 12.3662 28.3135 12.3662C30.3643 12.3662 31.6826 11.7803 31.6973 10.8281C31.6826 9.87598 30.3643 9.29004 28.3135 9.29004ZM44.8223 0.764648V5.08594H40.9258V6.8584H46.3457V7.63477H34.5684V6.8584H40.0029V5.08594H36.1064V0.764648H44.8223ZM37.0146 1.52637V4.32422H43.9141V1.52637H37.0146ZM44.8662 9.11426V13.1426H43.9434V9.87598H35.8721V9.11426H44.8662ZM59.3389 7.38574V8.17676H47.5176V7.38574H52.9668V5.87695H49.0703V2.85938H56.8779V1.33594H49.0264V0.574219H57.8008V3.57715H49.9785V5.11523H58.0791V5.87695H53.875V7.38574H59.3389ZM57.874 9.24609V12.9961H56.9365V10.0225H48.8359V9.24609H57.874ZM71.1016 0.222656V13.1572H70.1787V0.222656H71.1016ZM64.2754 1.24805C66.1797 1.24805 67.542 2.99121 67.542 5.71582C67.542 8.44043 66.1797 10.1836 64.2754 10.1836C62.3564 10.1836 61.0088 8.44043 61.0088 5.71582C61.0088 2.99121 62.3564 1.24805 64.2754 1.24805ZM64.2754 2.06836C62.8838 2.06836 61.9023 3.5625 61.9023 5.71582C61.9023 7.88379 62.8838 9.36328 64.2754 9.36328C65.667 9.36328 66.6338 7.88379 66.6338 5.71582C66.6338 3.5625 65.667 2.06836 64.2754 2.06836ZM80.8428 2.87402C80.8428 4.30957 81.9268 5.78906 83.582 6.38965L83.084 7.12207C81.8022 6.62402 80.8574 5.63525 80.4033 4.4707C79.9346 5.73779 78.9531 6.8877 77.6641 7.45898L77.1514 6.74121C78.8213 6.00879 79.9492 4.30957 79.9639 2.87402V1.02832H80.8428V2.87402ZM88.0059 0.222656V8.23535H87.127V4.58789H85.1934V7.8252H84.3145V0.47168H85.1934V3.81152H87.127V0.222656H88.0059ZM83.7871 8.55762C86.4385 8.55762 88.0791 9.39258 88.0791 10.8281C88.0791 12.2637 86.4385 13.0986 83.7871 13.0986C81.1064 13.0986 79.4805 12.2637 79.4805 10.8281C79.4805 9.39258 81.1064 8.55762 83.7871 8.55762ZM83.7871 9.29004C81.707 9.29004 80.3887 9.87598 80.4033 10.8281C80.3887 11.7803 81.707 12.3662 83.7871 12.3662C85.8379 12.3662 87.1562 11.7803 87.1709 10.8281C87.1562 9.87598 85.8379 9.29004 83.7871 9.29004ZM94.334 2.34668C94.334 4.22168 95.7842 5.84766 97.6299 6.49219L97.1025 7.20996C95.667 6.66064 94.4658 5.56201 93.9092 4.13379C93.3745 5.75244 92.1221 6.99023 90.5693 7.60547L90.0713 6.84375C91.9756 6.15527 93.4258 4.44141 93.4404 2.37598V0.969727H94.334V2.34668ZM100.691 0.222656V7.89844H99.7686V3.88477H96.751V3.1084H99.7686V0.222656H100.691ZM96.4434 8.2793C99.1094 8.29395 100.735 9.17285 100.735 10.7109C100.735 12.2344 99.1094 13.0986 96.4434 13.0986C93.7773 13.0986 92.1514 12.2344 92.166 10.7109C92.1514 9.17285 93.7773 8.29395 96.4434 8.2793ZM96.4434 9.04102C94.3779 9.04102 93.0596 9.6709 93.0742 10.7109C93.0596 11.7217 94.3779 12.3516 96.4434 12.3516C98.5088 12.3516 99.8271 11.7217 99.8271 10.7109C99.8271 9.6709 98.5088 9.04102 96.4434 9.04102ZM110.711 5.90625V6.68262H107.781V9.34863C109.107 9.30469 110.455 9.2168 111.707 9.07031L111.78 9.75879C108.895 10.1836 105.716 10.2568 103.226 10.2568L103.079 9.45117C104.236 9.44385 105.533 9.4292 106.858 9.39258V6.68262H104.104V1.46777H110.652V2.24414H105.013V5.90625H110.711ZM113.523 0.222656V13.1572H112.601V0.222656H113.523ZM120.291 8.99707C120.276 10.1982 120.958 11.4653 122.254 12.1611C123.536 11.3921 124.231 10.0151 124.246 8.99707V8.13281H125.14V8.99707C125.14 10.3447 126.18 11.707 127.85 12.2637L127.352 12.9814C126.055 12.4907 125.11 11.5532 124.686 10.4326C124.283 11.502 123.477 12.5566 122.269 13.084C121.009 12.5859 120.196 11.5972 119.822 10.4766C119.354 11.5459 118.431 12.4907 117.171 12.9814L116.717 12.2637C118.328 11.6777 119.383 10.2422 119.397 8.99707V8.13281H120.291V8.99707ZM119.515 0.969727C121.229 0.969727 122.554 2.00977 122.781 3.54785H125.696V0.222656H126.619V7.64941H125.696V4.32422H122.796C122.613 5.91357 121.265 6.97559 119.515 6.97559C117.596 6.97559 116.204 5.75977 116.204 3.9873C116.204 2.21484 117.596 0.969727 119.515 0.969727ZM119.515 1.77539C118.108 1.76074 117.083 2.71289 117.098 3.9873C117.083 5.24707 118.108 6.19922 119.515 6.19922C120.892 6.19922 121.917 5.24707 121.917 3.9873C121.917 2.71289 120.892 1.76074 119.515 1.77539ZM131.395 7.97168V9.6123H138.221V7.97168H139.158V12.9521H130.472V7.97168H131.395ZM131.395 12.1904H138.221V10.374H131.395V12.1904ZM140.711 6.18457V6.97559H128.934V6.18457H140.711ZM135.291 1.02832C135.291 2.72754 137.928 4.13379 140.008 4.42676L139.656 5.15918C137.759 4.86621 135.628 3.81885 134.822 2.30273C134.031 3.8335 131.885 4.86621 129.988 5.15918L129.637 4.42676C131.746 4.11914 134.354 2.77148 134.354 1.02832V0.354492H135.291V1.02832ZM152.474 0.222656V13.1426H151.565V0.222656H152.474ZM143.685 1.49707V8.93848H143.802C145.823 8.93848 147.859 8.77734 150.086 8.30859L150.218 9.11426C147.918 9.59766 145.896 9.75879 143.802 9.75879H142.776V1.49707H143.685ZM164.808 0.222656V5.4375H167.034V6.21387H164.808V13.1572H163.885V0.222656H164.808ZM156.443 9.08496C158.904 9.08496 160.574 8.99707 162.537 8.63086L162.669 9.43652C160.633 9.80273 158.948 9.89062 156.443 9.89062H155.447V1.49707H161.468V2.27344H156.37V9.08496H156.443ZM169.1 12.0732C168.66 12.0732 168.309 11.7217 168.309 11.2969C168.309 10.8574 168.66 10.5059 169.1 10.5059C169.524 10.5059 169.876 10.8574 169.876 11.2969C169.876 11.7217 169.524 12.0732 169.1 12.0732ZM6.7583 26.541V34.8027H0.884277V26.541H6.7583ZM1.77783 27.3027V34.041H5.8501V27.3027H1.77783ZM10.2593 25.2227V30.4814H12.4858V31.2725H10.2593V38.1426H9.33643V25.2227H10.2593ZM23.8823 25.2227V38.1572H22.9595V25.2227H23.8823ZM17.0562 26.248C18.9604 26.248 20.3228 27.9912 20.3228 30.7158C20.3228 33.4404 18.9604 35.1836 17.0562 35.1836C15.1372 35.1836 13.7896 33.4404 13.7896 30.7158C13.7896 27.9912 15.1372 26.248 17.0562 26.248ZM17.0562 27.0684C15.6646 27.0684 14.6831 28.5625 14.6831 30.7158C14.6831 32.8838 15.6646 34.3633 17.0562 34.3633C18.4478 34.3633 19.4146 32.8838 19.4146 30.7158C19.4146 28.5625 18.4478 27.0684 17.0562 27.0684ZM37.3003 25.2227V38.1426H36.3921V25.2227H37.3003ZM34.7954 25.5596V37.4248H33.9019V31.0381H31.9243V30.2031H33.9019V25.5596H34.7954ZM32.3345 26.9219V27.7129H31.1626V33.8945C31.6826 33.8579 32.188 33.8066 32.6421 33.748L32.7153 34.4365C30.6646 34.8027 27.9253 34.8613 26.2261 34.8613L26.0942 34.0557C26.519 34.0557 27.0244 34.0557 27.5591 34.041V27.7129H26.3872V26.9219H32.3345ZM28.4087 34.0264C29.0239 34.0117 29.6685 33.9897 30.2983 33.9531V27.7129H28.4087V34.0264ZM49.8101 25.2227V38.1572H48.8872V25.2227H49.8101ZM42.9839 26.248C44.8882 26.248 46.2505 27.9912 46.2505 30.7158C46.2505 33.4404 44.8882 35.1836 42.9839 35.1836C41.0649 35.1836 39.7173 33.4404 39.7173 30.7158C39.7173 27.9912 41.0649 26.248 42.9839 26.248ZM42.9839 27.0684C41.5923 27.0684 40.6108 28.5625 40.6108 30.7158C40.6108 32.8838 41.5923 34.3633 42.9839 34.3633C44.3755 34.3633 45.3423 32.8838 45.3423 30.7158C45.3423 28.5625 44.3755 27.0684 42.9839 27.0684ZM56.6655 29.3389C56.6655 31.5508 58.438 33.792 60.2544 34.583L59.7271 35.3154C58.2402 34.6196 56.8193 33.0742 56.2114 31.2285C55.6108 33.1694 54.1973 34.8833 52.7544 35.6377L52.1978 34.9053C53.9556 34.041 55.728 31.5801 55.7427 29.3389V27.3613H52.5933V26.5703H59.8589V27.3613H56.6655V29.3389ZM62.7739 25.2227V38.1426H61.8511V25.2227H62.7739ZM76.1626 25.2227V38.1426H75.269V25.2227H76.1626ZM73.5991 25.5156V37.4688H72.7056V31.126H70.8452C70.7354 33.6309 69.6587 35.2129 68.062 35.2129C66.3921 35.2129 65.3081 33.4844 65.3081 30.7891C65.3081 28.0791 66.3921 26.3652 68.062 26.3652C69.6367 26.3652 70.7061 27.8887 70.8306 30.335H72.7056V25.5156H73.5991ZM68.062 27.2295C66.9194 27.2295 66.1724 28.6504 66.187 30.7891C66.1724 32.9131 66.9194 34.3486 68.062 34.3486C69.2192 34.3486 69.9663 32.9131 69.9663 30.7891C69.9663 28.6504 69.2192 27.2295 68.062 27.2295ZM82.52 28.8701C82.52 31.1699 84.2046 33.5283 85.9917 34.3633L85.4351 35.125C83.9775 34.356 82.6445 32.7227 82.0806 30.833C81.5093 32.8252 80.1909 34.561 78.7407 35.3594L78.1401 34.627C79.9272 33.7188 81.5825 31.2285 81.5972 28.8701V26.3799H82.52V28.8701ZM88.7456 25.2227V38.1572H87.8374V30.5107H84.5854V29.7344H87.8374V25.2227H88.7456ZM104.683 25.2227V29.207H106.705V29.998H104.683V33.8359H103.76V25.2227H104.683ZM94.6343 32.6348C95.6963 32.6348 96.9561 32.6348 98.2671 32.5908V31.5801C96.7217 31.4629 95.7329 30.7598 95.7329 29.6758C95.7329 28.4893 96.9194 27.7568 98.7212 27.7715C100.523 27.7568 101.695 28.4893 101.709 29.6758C101.695 30.7524 100.721 31.4629 99.1899 31.5801V32.5469C100.442 32.4956 101.717 32.3931 102.896 32.21L102.969 32.8984C100.157 33.4111 97.0366 33.4258 94.7661 33.4258L94.6343 32.6348ZM104.683 34.5391V38.1426H103.76V35.2861H96.2163V34.5391H104.683ZM102.486 26.4678V27.2002H94.9712V26.4678H98.2671V25.1201H99.1899V26.4678H102.486ZM98.7212 28.4453C97.4321 28.4307 96.6118 28.9141 96.6118 29.6758C96.6118 30.4082 97.4321 30.9209 98.7212 30.9062C99.9956 30.9209 100.816 30.4082 100.831 29.6758C100.816 28.9141 99.9956 28.4307 98.7212 28.4453ZM118.262 25.2227V34.7295H117.339V25.2227H118.262ZM118.687 37.0586V37.835H110.015V33.748H110.938V37.0586H118.687ZM111.319 26.1602C113.238 26.1602 114.659 27.4492 114.659 29.2949C114.659 31.1553 113.238 32.459 111.319 32.4443C109.4 32.459 107.964 31.1553 107.979 29.2949C107.964 27.4492 109.4 26.1602 111.319 26.1602ZM111.319 26.9658C109.913 26.9658 108.873 27.9619 108.873 29.2949C108.873 30.6426 109.913 31.624 111.319 31.624C112.71 31.624 113.765 30.6426 113.765 29.2949C113.765 27.9619 112.71 26.9658 111.319 26.9658ZM127.139 27.5371V28.2988H120.577V27.5371H123.389V25.6182H124.327V27.5371H127.139ZM123.858 29.2656C125.469 29.2803 126.626 30.4668 126.626 32.166C126.626 33.8799 125.469 35.0811 123.858 35.0811C122.247 35.0811 121.089 33.8799 121.089 32.166C121.089 30.4668 122.247 29.2803 123.858 29.2656ZM123.858 30.0566C122.73 30.0713 121.91 30.9795 121.924 32.166C121.91 33.3672 122.73 34.2754 123.858 34.2607C124.971 34.2754 125.792 33.3672 125.806 32.166C125.792 30.9795 124.971 30.0713 123.858 30.0566ZM131.563 25.2227V38.1426H130.684V31.5068H128.736V37.4834H127.872V25.5449H128.736V30.7305H130.684V25.2227H131.563ZM145.406 35.6523V36.4434H133.57V35.6523H138.99V32.7373H135.005V26.1602H135.943V28.5918H143.003V26.1602H143.912V32.7373H139.913V35.6523H145.406ZM135.943 31.9609H143.003V29.3682H135.943V31.9609ZM150.269 29.0312C150.269 31.0674 151.412 33.3086 153.111 34.29L152.554 35.0078C151.28 34.2388 150.306 32.7886 149.844 31.1553C149.375 32.9351 148.335 34.4731 147.032 35.2715L146.417 34.583C148.16 33.5869 149.375 31.2871 149.39 29.0605V26.4678H150.269V29.0312ZM157.564 25.2227V38.1426H156.67V25.2227H157.564ZM154.898 25.5156V37.4688H154.019V30.7451H151.661V29.9395H154.019V25.5156H154.898ZM171.333 35.6377V36.4287H159.498V35.6377H162.515V32.0342C161.38 31.4775 160.699 30.5474 160.699 29.3828C160.699 27.3906 162.632 26.1016 165.372 26.0869C168.125 26.1016 170.059 27.3906 170.059 29.3828C170.059 30.5327 169.393 31.4556 168.287 32.0195V35.6377H171.333ZM165.372 26.8633C163.174 26.8486 161.578 27.874 161.578 29.3828C161.578 30.8623 163.174 31.9023 165.372 31.8877C167.569 31.9023 169.18 30.8623 169.18 29.3828C169.18 27.874 167.569 26.8486 165.372 26.8633ZM163.423 35.6377H167.364V32.3711C166.771 32.5469 166.097 32.6348 165.372 32.6348C164.661 32.6348 164.002 32.5469 163.423 32.3857V35.6377ZM177.94 26.3945L177.867 33.9678H176.885L176.812 26.3945H177.94ZM177.383 37.0732C176.944 37.0732 176.592 36.7217 176.592 36.2969C176.592 35.8574 176.944 35.5059 177.383 35.5059C177.808 35.5059 178.16 35.8574 178.16 36.2969C178.16 36.7217 177.808 37.0732 177.383 37.0732Z" fill="white"/>
</svg>
