<svg width="155" height="89" viewBox="0 0 155 89" fill="none" xmlns="http://www.w3.org/2000/svg">
<path d="M11.1611 0.222656V10.0957H10.2383V7.19531H7.82129V6.43359H10.2383V4.5293H7.82129V3.73828H10.2383V0.222656H11.1611ZM7.87988 1.87793V2.6543H0.511719V1.87793H3.77832V0.222656H4.68652V1.87793H7.87988ZM4.23242 3.44531C5.94629 3.44531 7.13281 4.41211 7.13281 5.8916C7.13281 7.35645 5.94629 8.33789 4.23242 8.33789C2.50391 8.33789 1.31738 7.35645 1.33203 5.8916C1.31738 4.41211 2.50391 3.44531 4.23242 3.44531ZM4.23242 4.19238C3.0166 4.20703 2.18164 4.91016 2.19629 5.8916C2.18164 6.8877 3.0166 7.59082 4.23242 7.59082C5.43359 7.59082 6.25391 6.8877 6.26855 5.8916C6.25391 4.91016 5.43359 4.20703 4.23242 4.19238ZM11.4688 12.0586V12.835H2.88477V9.20215H3.80762V12.0586H11.4688ZM24.5205 0.222656V13.1426H23.627V6.33105H21.6494V12.4688H20.7705V0.515625H21.6494V5.52539H23.627V0.222656H24.5205ZM17.2109 3.85547C17.2109 6.24316 18.2803 8.32324 20.082 9.23145L19.5254 9.96387C18.1924 9.23877 17.2402 7.91309 16.7861 6.25781C16.3394 8.14014 15.3579 9.58301 13.9736 10.4033L13.373 9.7002C15.2188 8.68945 16.3174 6.52148 16.3174 3.85547V2.61035H13.6514V1.81934H19.7451V2.61035H17.2109V3.85547ZM40.7217 0.222656V13.1426H39.7988V0.222656H40.7217ZM29.9697 6.46289C31.7568 6.45557 33.8223 6.43359 35.873 6.33105C36.2319 4.35352 36.2759 2.91797 36.2832 2.03906H31.1416V1.24805H37.1914V1.70215C37.1914 2.51514 37.1914 4.06055 36.8105 6.27246C37.4771 6.23584 38.1436 6.17725 38.7881 6.11133L38.8613 6.81445C37.499 6.99023 36.0781 7.1001 34.6865 7.16602V12.3662H33.7637V7.20996C32.4746 7.25391 31.2295 7.26855 30.1016 7.26855L29.9697 6.46289ZM52.9678 0.222656V5.62793H55.1943V6.41895H52.9678V13.1426H52.0449V0.222656H52.9678ZM50.668 2.34668V3.12305H42.9482V2.34668H46.3906V0.354492H47.3135V2.34668H50.668ZM46.874 4.30957C48.6904 4.30957 49.9941 5.51074 49.9941 7.23926C49.9941 8.96777 48.6904 10.1689 46.874 10.1689C45.0576 10.1689 43.7393 8.96777 43.7539 7.23926C43.7393 5.51074 45.0576 4.30957 46.874 4.30957ZM46.874 5.08594C45.585 5.10059 44.6328 6.00879 44.6328 7.23926C44.6328 8.46973 45.585 9.37793 46.874 9.36328C48.1631 9.37793 49.1152 8.46973 49.1152 7.23926C49.1152 6.00879 48.1631 5.10059 46.874 5.08594ZM66.415 4.25098V5.02734H57.626V0.691406H58.5342V4.25098H66.415ZM67.792 6.90234V7.66406H55.9707V6.90234H67.792ZM66.4883 12.0293V12.8203H57.5674V9.07031H58.4756V12.0293H66.4883ZM82.792 0.105469V3.91406H84.7109V5.07129H82.792V9.6123H81.4004V0.105469H82.792ZM78.9248 1.2334V2.36133H74.4424V6.18457C76.9985 6.19189 78.4414 6.11133 80.082 5.77441L80.2432 6.90234C78.4707 7.25391 76.918 7.3418 74.1055 7.3418H73.0654V1.2334H78.9248ZM83.3486 11.8389V12.9668H74.4717V8.63086H75.8633V11.8389H83.3486ZM89.1641 0.55957C91.1416 0.574219 92.5918 1.79004 92.6064 3.50391C92.5918 5.23242 91.1416 6.43359 89.1641 6.43359C87.1719 6.43359 85.707 5.23242 85.707 3.50391C85.707 1.79004 87.1719 0.574219 89.1641 0.55957ZM89.1641 1.73145C87.9482 1.7168 87.0547 2.43457 87.0693 3.50391C87.0547 4.58789 87.9482 5.30566 89.1641 5.30566C90.3652 5.30566 91.2588 4.58789 91.2588 3.50391C91.2588 2.43457 90.3652 1.7168 89.1641 1.73145ZM96.3271 0.120117V6.7998H94.9355V0.120117H96.3271ZM96.3271 7.40039V10.7109H89.0908V11.9707H96.7666V13.084H87.7432V9.6709H94.9502V8.51367H87.6992V7.40039H96.3271ZM105.585 1.10156C107.548 1.10156 108.939 2.88867 108.954 5.70117C108.939 8.52832 107.548 10.3154 105.585 10.3154C103.622 10.3154 102.216 8.52832 102.23 5.70117C102.216 2.88867 103.622 1.10156 105.585 1.10156ZM105.585 2.34668C104.384 2.34668 103.563 3.63574 103.563 5.70117C103.563 7.78125 104.384 9.07031 105.585 9.07031C106.801 9.07031 107.621 7.78125 107.621 5.70117C107.621 3.63574 106.801 2.34668 105.585 2.34668ZM112.294 0.120117V5.26172H114.403V6.43359H112.294V13.2451H110.902V0.120117H112.294ZM122.328 1.27734V2.41992H117.216V4.9541H121.83V6.06738H117.216V9.01172C119.516 9.00439 121.171 8.90918 123.119 8.60156L123.266 9.72949C121.186 10.0664 119.384 10.1396 116.908 10.1396H115.839V1.27734H122.328ZM125.946 0.120117V13.2451H124.54V0.120117H125.946ZM138.485 0.706055V1.74609C138.485 2.76416 138.485 3.91406 138.192 5.39355H139.95V6.52148H128.012V5.39355H136.801C136.911 4.85156 136.984 4.36084 137.035 3.89941L129.345 4.22168L129.169 3.1377L137.094 2.91797C137.108 2.52979 137.108 2.1709 137.108 1.81934H129.506V0.706055H138.485ZM138.573 7.62012V10.7988H130.795V11.9854H139.042V13.084H129.403V9.75879H137.196V8.68945H129.374V7.62012H138.573ZM146.923 0.457031C149.765 0.457031 151.449 1.24805 151.449 2.69824C151.449 4.16309 149.765 4.96875 146.923 4.96875C144.081 4.96875 142.396 4.16309 142.396 2.69824C142.396 1.24805 144.081 0.457031 146.923 0.457031ZM146.923 1.1748C144.711 1.1748 143.349 1.76074 143.349 2.69824C143.349 3.67969 144.711 4.25098 146.923 4.25098C149.149 4.25098 150.512 3.67969 150.512 2.69824C150.512 1.76074 149.149 1.1748 146.923 1.1748ZM152.826 5.93555V6.69727H141.049V5.93555H152.826ZM151.273 7.92773V10.6963H143.437V12.2197H151.684V12.9814H142.543V9.97852H150.38V8.66016H142.499V7.92773H151.273ZM26.0586 27.9912C26.0586 29.6904 27.582 31.1699 29.4424 31.7266L28.9736 32.459C27.4795 31.9902 26.2051 30.9575 25.6338 29.6025C25.0918 31.0967 23.8394 32.2612 22.3086 32.8105L21.8398 32.0928C23.6855 31.4482 25.1504 29.8369 25.1504 27.9912V27.625H22.1328V26.8633H25.1504V25.1494H26.0879V26.8633H29.0762V27.625H26.0586V27.9912ZM32.416 25.2227V33.0596H31.4932V29.7783H28.666V28.9873H31.4932V25.2227H32.416ZM28.168 33.4404C30.834 33.4404 32.46 34.29 32.46 35.7695C32.46 37.249 30.834 38.0986 28.168 38.0986C25.502 38.0986 23.876 37.249 23.8906 35.7695C23.876 34.29 25.502 33.4404 28.168 33.4404ZM28.168 34.1729C26.1025 34.1875 24.7842 34.7881 24.7988 35.7695C24.7842 36.7363 26.1025 37.3516 28.168 37.3516C30.2334 37.3516 31.5518 36.7363 31.5518 35.7695C31.5518 34.7881 30.2334 34.1875 28.168 34.1729ZM39.4912 27.5957C39.4912 28.9873 40.8975 30.1445 42.6992 30.5693L42.3037 31.3164C40.8169 30.9209 39.6011 30.0859 39.0518 28.9727C38.5171 30.1738 37.2866 31.082 35.7705 31.4922L35.3604 30.7451C37.1621 30.3057 38.5684 29.0605 38.583 27.5957V27.5078H35.5947V26.7461H38.5684V25.252H39.4912V26.7461H42.4795V27.5078H39.4912V27.5957ZM45.3213 25.2227V38.1572H44.4131V25.2227H45.3213ZM34.6865 32.5176C37.1914 32.5176 40.502 32.5029 43.4023 32.1074L43.4756 32.7959C42.1792 33.0083 40.8389 33.1328 39.5352 33.2061V37.7617H38.6123V33.25C37.25 33.3159 35.9536 33.3232 34.8184 33.3232L34.6865 32.5176ZM57.6406 25.2227V30.6279H59.8672V31.4189H57.6406V38.1426H56.7178V25.2227H57.6406ZM55.3408 27.3467V28.123H47.6211V27.3467H51.0635V25.3545H51.9863V27.3467H55.3408ZM51.5469 29.3096C53.3633 29.3096 54.667 30.5107 54.667 32.2393C54.667 33.9678 53.3633 35.1689 51.5469 35.1689C49.7305 35.1689 48.4121 33.9678 48.4268 32.2393C48.4121 30.5107 49.7305 29.3096 51.5469 29.3096ZM51.5469 30.0859C50.2578 30.1006 49.3057 31.0088 49.3057 32.2393C49.3057 33.4697 50.2578 34.3779 51.5469 34.3633C52.8359 34.3779 53.7881 33.4697 53.7881 32.2393C53.7881 31.0088 52.8359 30.1006 51.5469 30.0859ZM70.9268 26.585V27.8887C70.9121 29.4707 70.9121 31.2285 70.458 33.7773L69.5205 33.6602C69.9893 31.2285 69.9893 29.4414 70.0039 27.8887V27.3613H61.9326V26.585H70.9268ZM72.4355 35.4326V36.2236H60.6582V35.4326H65.4043V30.7598H66.3125V35.4326H72.4355ZM88.2559 25.2227V38.1426H87.3623V25.2227H88.2559ZM85.6631 25.5889V37.4541H84.7695V32.8984H82.1914V32.1221H84.7695V29.6465H82.4111C81.7666 31.8584 80.3091 33.8433 77.8555 35.3154L77.2988 34.6416C80.1699 32.9277 81.6641 30.4302 81.8838 27.6836H77.8115V26.8926H82.7773C82.7773 27.5591 82.7188 28.2256 82.5869 28.8701H84.7695V25.5889H85.6631ZM94.6572 26.8779C94.6426 28.7529 96.1953 30.3936 98.0557 31.0234L97.5869 31.7559C96.0708 31.2065 94.7817 30.0786 94.2031 28.6064C93.6465 30.1812 92.3574 31.4263 90.8193 32.0049L90.3359 31.2725C92.2109 30.584 93.7197 28.8555 93.7344 26.8779V25.6621H94.6572V26.8779ZM100.824 25.2227V32.1367H99.9014V25.2227H100.824ZM93.4561 32.8252V34.5244H99.916V32.8252H100.824V37.9521H92.5479V32.8252H93.4561ZM93.4561 37.1904H99.916V35.2861H93.4561V37.1904ZM113.744 25.2227V38.1426H112.836V25.2227H113.744ZM104.955 26.4971V33.9385H105.072C107.094 33.9385 109.13 33.7773 111.356 33.3086L111.488 34.1143C109.188 34.5977 107.167 34.7588 105.072 34.7588H104.047V26.4971H104.955ZM126.078 25.2227V30.4375H128.305V31.2139H126.078V38.1572H125.155V25.2227H126.078ZM117.714 34.085C120.175 34.085 121.845 33.9971 123.808 33.6309L123.939 34.4365C121.903 34.8027 120.219 34.8906 117.714 34.8906H116.718V26.4971H122.738V27.2734H117.641V34.085H117.714ZM130.37 37.0732C129.931 37.0732 129.579 36.7217 129.579 36.2969C129.579 35.8574 129.931 35.5059 130.37 35.5059C130.795 35.5059 131.146 35.8574 131.146 36.2969C131.146 36.7217 130.795 37.0732 130.37 37.0732ZM21.8838 50.1201V63.2451H20.5508V56.5068H18.9834V62.6006H17.665V50.3691H18.9834V55.335H20.5508V50.1201H21.8838ZM14.5303 53.5918C14.5303 55.9502 15.4238 58.0889 17.3281 59.0703L16.5078 60.1396C15.2188 59.4438 14.3545 58.2207 13.8857 56.6973C13.439 58.4258 12.5674 59.8027 11.2344 60.5938L10.3701 59.5391C12.2891 58.4551 13.1826 56.1992 13.1826 53.5918V52.7422H10.7217V51.6143H16.8154V52.7422H14.5303V53.5918ZM27.5234 52.6396C27.5234 54.0752 28.4463 55.5254 30.1455 56.1699L29.4131 57.2393C28.1899 56.7705 27.333 55.877 26.8643 54.793C26.3809 56.0161 25.48 57.0781 24.2129 57.6201L23.4512 56.5361C25.2236 55.7598 26.1758 54.1045 26.1758 52.6396V50.9404H27.5234V52.6396ZM34.7012 50.1348V58.2061H33.3828V54.6904H31.8447V57.7959H30.5557V50.3691H31.8447V53.5479H33.3828V50.1348H34.7012ZM30.3066 58.4551C33.0459 58.4551 34.7598 59.3486 34.7744 60.8428C34.7598 62.3369 33.0459 63.2305 30.3066 63.2158C27.5674 63.2305 25.8535 62.3369 25.8682 60.8428C25.8535 59.3486 27.5674 58.4551 30.3066 58.4551ZM30.3066 59.5244C28.4023 59.5244 27.2305 60.0078 27.2451 60.8428C27.2305 61.6777 28.4023 62.1611 30.3066 62.1465C32.2109 62.1611 33.3682 61.6777 33.3828 60.8428C33.3682 60.0078 32.2109 59.5244 30.3066 59.5244ZM46.918 50.6621V55.1592H43.1387V56.6826H48.4414V57.8105H36.4736V56.6826H41.7617V55.1592H37.9971V50.6621H46.918ZM39.3594 51.7607V54.0459H45.541V51.7607H39.3594ZM46.9766 59.0557V63.2451H45.5703V60.1543H37.8066V59.0557H46.9766ZM61.4346 57.2832V58.4111H49.4229V57.2832H54.7402V56.0381H50.9609V52.6982H58.5342V51.5264H50.9316V50.4277H59.9258V53.7236H52.3379V54.9541H60.1895V56.0381H56.1172V57.2832H61.4346ZM59.999 59.334V63.1426H58.5928V60.4473H50.7705V59.334H59.999ZM68.3633 50.457C71.2051 50.457 72.8896 51.248 72.8896 52.6982C72.8896 54.1631 71.2051 54.9688 68.3633 54.9688C65.5215 54.9688 63.8369 54.1631 63.8369 52.6982C63.8369 51.248 65.5215 50.457 68.3633 50.457ZM68.3633 51.1748C66.1514 51.1748 64.7891 51.7607 64.7891 52.6982C64.7891 53.6797 66.1514 54.251 68.3633 54.251C70.5898 54.251 71.9521 53.6797 71.9521 52.6982C71.9521 51.7607 70.5898 51.1748 68.3633 51.1748ZM74.2666 55.9355V56.6973H62.4893V55.9355H74.2666ZM72.7139 57.9277V60.6963H64.877V62.2197H73.124V62.9814H63.9834V59.9785H71.8203V58.6602H63.9395V57.9277H72.7139ZM89.6768 50.2227V63.1572H88.7539V50.2227H89.6768ZM82.8506 51.248C84.7549 51.248 86.1172 52.9912 86.1172 55.7158C86.1172 58.4404 84.7549 60.1836 82.8506 60.1836C80.9316 60.1836 79.584 58.4404 79.584 55.7158C79.584 52.9912 80.9316 51.248 82.8506 51.248ZM82.8506 52.0684C81.459 52.0684 80.4775 53.5625 80.4775 55.7158C80.4775 57.8838 81.459 59.3633 82.8506 59.3633C84.2422 59.3633 85.209 57.8838 85.209 55.7158C85.209 53.5625 84.2422 52.0684 82.8506 52.0684ZM103.812 56.6973V57.4736H92.0352V56.6973H95.0381V54.7783C93.9761 54.3901 93.3828 53.731 93.3828 52.8447C93.3828 51.3359 95.0967 50.4863 97.9092 50.4863C100.722 50.4863 102.436 51.3359 102.436 52.8447C102.436 53.7236 101.85 54.3828 100.81 54.7637V56.6973H103.812ZM97.9238 58.5723C100.692 58.5576 102.348 59.3633 102.348 60.8281C102.348 62.293 100.692 63.1133 97.9238 63.1133C95.126 63.1133 93.4707 62.293 93.4707 60.8281C93.4707 59.3633 95.126 58.5576 97.9238 58.5723ZM97.9238 59.29C95.7559 59.3047 94.4082 59.876 94.4082 60.8281C94.4082 61.7949 95.7559 62.3662 97.9238 62.3662C100.062 62.3662 101.425 61.7949 101.425 60.8281C101.425 59.876 100.062 59.3047 97.9238 59.29ZM97.9092 51.2188C95.7119 51.2188 94.3203 51.8486 94.335 52.8447C94.3203 53.8555 95.7119 54.4707 97.9092 54.4707C100.106 54.4707 101.498 53.8555 101.498 52.8447C101.498 51.8486 100.106 51.2188 97.9092 51.2188ZM95.9609 56.6973H99.9014V55.0273C99.3228 55.1445 98.6562 55.2031 97.9092 55.2031C97.1841 55.2031 96.5322 55.1445 95.9609 55.0273V56.6973ZM114.945 50.2227V55.6279H117.172V56.4189H114.945V63.1426H114.022V50.2227H114.945ZM112.646 52.3467V53.123H104.926V52.3467H108.368V50.3545H109.291V52.3467H112.646ZM108.852 54.3096C110.668 54.3096 111.972 55.5107 111.972 57.2393C111.972 58.9678 110.668 60.1689 108.852 60.1689C107.035 60.1689 105.717 58.9678 105.731 57.2393C105.717 55.5107 107.035 54.3096 108.852 54.3096ZM108.852 55.0859C107.562 55.1006 106.61 56.0088 106.61 57.2393C106.61 58.4697 107.562 59.3779 108.852 59.3633C110.141 59.3779 111.093 58.4697 111.093 57.2393C111.093 56.0088 110.141 55.1006 108.852 55.0859ZM128.598 50.2227V63.1572H127.689V57.5615H124.848V56.7705H127.689V54.0312H124.95V53.2402H127.689V50.2227H128.598ZM119.413 59.3047C121.464 59.3047 123.119 59.2168 125.17 58.8945L125.258 59.6855C123.148 60.0225 121.493 60.0957 119.413 60.0957H118.461V55.1152H123.163V52.2148H118.432V51.4238H124.071V55.8916H119.384V59.3047H119.413ZM137.416 51.3799V52.5811H140.653V50.2227H141.576V59.6709H140.653V56.126H137.416V57.3125H131.557V51.3799H137.416ZM132.465 52.1416V56.5654H136.508V52.1416H132.465ZM141.884 62.0586V62.835H133.3V58.8359H134.223V62.0586H141.884ZM137.416 55.335H140.653V53.3721H137.416V55.335ZM12.626 84.29V87.9521H3.77832V84.29H12.626ZM4.68652 85.0225V87.2197H11.7324V85.0225H4.68652ZM13.3877 76.3506V77.0977H2.94336V76.3506H7.74805V74.9883H8.65625V76.3506H13.3877ZM8.1875 77.6836C10.8389 77.6836 12.333 78.2988 12.333 79.5C12.333 80.6426 11.0146 81.2578 8.65625 81.3164V82.4297H14.0908V83.1914H2.31348V82.4297H7.74805V81.3164C5.38232 81.2578 4.04199 80.6499 4.04199 79.5C4.04199 78.2988 5.55078 77.6836 8.1875 77.6836ZM8.1875 78.3428C6.20996 78.3574 5.02344 78.7676 5.02344 79.5C5.02344 80.2324 6.20996 80.6572 8.1875 80.6572C10.1797 80.6572 11.3662 80.2324 11.3662 79.5C11.3662 78.7676 10.1797 78.3574 8.1875 78.3428ZM26.3076 75.2227V88.1426H25.4141V75.2227H26.3076ZM23.7441 75.5156V87.4688H22.8506V81.126H20.9902C20.8804 83.6309 19.8037 85.2129 18.207 85.2129C16.5371 85.2129 15.4531 83.4844 15.4531 80.7891C15.4531 78.0791 16.5371 76.3652 18.207 76.3652C19.7817 76.3652 20.8511 77.8887 20.9756 80.335H22.8506V75.5156H23.7441ZM18.207 77.2295C17.0645 77.2295 16.3174 78.6504 16.332 80.7891C16.3174 82.9131 17.0645 84.3486 18.207 84.3486C19.3643 84.3486 20.1113 82.9131 20.1113 80.7891C20.1113 78.6504 19.3643 77.2295 18.207 77.2295ZM32.665 78.8701C32.665 81.1699 34.3496 83.5283 36.1367 84.3633L35.5801 85.125C34.1226 84.356 32.7896 82.7227 32.2256 80.833C31.6543 82.8252 30.3359 84.561 28.8857 85.3594L28.2852 84.627C30.0723 83.7188 31.7275 81.2285 31.7422 78.8701V76.3799H32.665V78.8701ZM38.8906 75.2227V88.1572H37.9824V80.5107H34.7305V79.7344H37.9824V75.2227H38.8906ZM54.7695 75.2227V80.4375H56.9961V81.2139H54.7695V88.1572H53.8467V75.2227H54.7695ZM46.4053 84.085C48.8662 84.085 50.5361 83.9971 52.499 83.6309L52.6309 84.4365C50.5947 84.8027 48.9102 84.8906 46.4053 84.8906H45.4092V76.4971H51.4297V77.2734H46.332V84.085H46.4053ZM62.2402 78.8701C62.2256 81.2139 63.998 83.5869 65.8145 84.4365L65.2432 85.1689C63.7856 84.4365 62.394 82.8325 61.7861 80.9209C61.1929 82.9277 59.8159 84.6343 58.3438 85.4033L57.7432 84.627C59.5596 83.7627 61.3174 81.3018 61.3174 78.8701V76.3799H62.2402V78.8701ZM68.3926 75.2227V88.1572H67.4697V75.2227H68.3926ZM78.6611 77.7275C78.6465 79.5732 80.0967 81.2871 81.9277 81.9609L81.4004 82.6934C79.9648 82.1074 78.7563 80.9282 78.2217 79.4561C77.6724 81.082 76.4272 82.3711 74.9111 83.001L74.4131 82.2393C76.2734 81.5215 77.7529 79.7051 77.7529 77.6689V75.999H78.6611V77.7275ZM85.0186 75.2227V84.9492H84.0957V79.1631H81.0635V78.3721H84.0957V75.2227H85.0186ZM85.3262 87.0586V87.835H76.7422V83.8066H77.665V87.0586H85.3262ZM92.9287 76.1895V76.9658H88.8418V78.7822H92.7822V79.5293H88.8418V81.5068C90.8853 81.5068 92.0864 81.4409 93.5293 81.1406L93.6318 81.917C92.1084 82.2393 90.8926 82.2979 88.7393 82.2979H87.9482V76.1895H92.9287ZM98.2607 75.2227V83.0449H97.3818V79.4414H95.3457V82.957H94.4668V75.4717H95.3457V78.665H97.3818V75.2227H98.2607ZM98.2607 83.748V88.1426H97.3672V84.5244H89.6182V83.748H98.2607ZM106.83 77.5371V78.2988H100.268V77.5371H103.08V75.6182H104.018V77.5371H106.83ZM103.549 79.2656C105.16 79.2803 106.317 80.4668 106.317 82.166C106.317 83.8799 105.16 85.0811 103.549 85.0811C101.938 85.0811 100.78 83.8799 100.78 82.166C100.78 80.4668 101.938 79.2803 103.549 79.2656ZM103.549 80.0566C102.421 80.0713 101.601 80.9795 101.615 82.166C101.601 83.3672 102.421 84.2754 103.549 84.2607C104.662 84.2754 105.482 83.3672 105.497 82.166C105.482 80.9795 104.662 80.0713 103.549 80.0566ZM111.254 75.2227V88.1426H110.375V81.5068H108.427V87.4834H107.562V75.5449H108.427V80.7305H110.375V75.2227H111.254ZM119.647 77.0391C119.647 78.8994 122.226 80.3789 124.291 80.7012L123.939 81.4336C122.028 81.082 119.918 79.9834 119.149 78.3574C118.366 79.9834 116.249 81.082 114.374 81.4336L114.008 80.7012C116.059 80.3789 118.637 78.8994 118.637 77.0391V76.834H114.389V76.0723H123.881V76.834H119.647V77.0391ZM125.038 82.6494V83.4404H119.574V88.1279H118.681V83.4404H113.261V82.6494H125.038ZM129.96 79.0312C129.96 81.0674 131.103 83.3086 132.802 84.29L132.245 85.0078C130.971 84.2388 129.997 82.7886 129.535 81.1553C129.066 82.9351 128.026 84.4731 126.723 85.2715L126.107 84.583C127.851 83.5869 129.066 81.2871 129.081 79.0605V76.4678H129.96V79.0312ZM137.255 75.2227V88.1426H136.361V75.2227H137.255ZM134.589 75.5156V87.4688H133.71V80.7451H131.352V79.9395H133.71V75.5156H134.589ZM151.024 85.6377V86.4287H139.188V85.6377H142.206V82.0342C141.071 81.4775 140.39 80.5474 140.39 79.3828C140.39 77.3906 142.323 76.1016 145.062 76.0869C147.816 76.1016 149.75 77.3906 149.75 79.3828C149.75 80.5327 149.083 81.4556 147.978 82.0195V85.6377H151.024ZM145.062 76.8633C142.865 76.8486 141.269 77.874 141.269 79.3828C141.269 80.8623 142.865 81.9023 145.062 81.8877C147.26 81.9023 148.871 80.8623 148.871 79.3828C148.871 77.874 147.26 76.8486 145.062 76.8633ZM143.114 85.6377H147.055V82.3711C146.461 82.5469 145.788 82.6348 145.062 82.6348C144.352 82.6348 143.693 82.5469 143.114 82.3857V85.6377ZM153.427 87.0732C152.987 87.0732 152.636 86.7217 152.636 86.2969C152.636 85.8574 152.987 85.5059 153.427 85.5059C153.852 85.5059 154.203 85.8574 154.203 86.2969C154.203 86.7217 153.852 87.0732 153.427 87.0732Z" fill="white"/>
</svg>
