<svg width="120" height="32" viewBox="0 0 120 32" fill="none" xmlns="http://www.w3.org/2000/svg">
<path d="M40.1636 10.7041V22.1045H38.9575V10.7041H40.1636ZM34.0825 11.5547C35.771 11.5547 37.0151 13.1035 37.0151 15.541C37.0151 17.9912 35.771 19.54 34.0825 19.54C32.3687 19.54 31.1372 17.9912 31.1372 15.541C31.1372 13.1035 32.3687 11.5547 34.0825 11.5547ZM34.0825 12.6338C33.0288 12.6338 32.3052 13.751 32.3052 15.541C32.3052 17.3438 33.0288 18.4609 34.0825 18.4609C35.1235 18.4609 35.8472 17.3438 35.8472 15.541C35.8472 13.751 35.1235 12.6338 34.0825 12.6338ZM52.3511 16.252V17.2295H41.979V16.252H44.4673V14.7158C43.5913 14.3604 43.0962 13.7891 43.0962 13.04C43.0962 11.6943 44.6577 10.9072 47.1587 10.9072C49.647 10.9072 51.2212 11.6943 51.2212 13.04C51.2212 13.7891 50.7197 14.3667 49.8374 14.7158V16.252H52.3511ZM47.1587 18.0039C49.6089 18.0039 51.0815 18.7275 51.0815 20.0225C51.0815 21.3428 49.6089 22.0537 47.1587 22.0537C44.6831 22.0537 43.2104 21.3428 43.2104 20.0225C43.2104 18.7275 44.6831 18.0039 47.1587 18.0039ZM47.1587 18.9307C45.4194 18.9307 44.4292 19.3242 44.4292 20.0225C44.4292 20.7334 45.4194 21.1396 47.1587 21.127C48.8726 21.1396 49.8755 20.7334 49.8755 20.0225C49.8755 19.3242 48.8726 18.9307 47.1587 18.9307ZM47.1587 11.834C45.394 11.834 44.3276 12.2783 44.3403 13.04C44.3276 13.8018 45.394 14.2334 47.1587 14.2334C48.9233 14.2334 49.9771 13.8018 49.9771 13.04C49.9771 12.2783 48.9233 11.834 47.1587 11.834ZM45.686 16.252H48.644V15.0332C48.1997 15.1094 47.6982 15.1475 47.1587 15.1475C46.6255 15.1475 46.1304 15.1094 45.686 15.0459V16.252ZM54.9663 11.2881V12.9512H57.8101V11.2881H59.0034V13.4336H61.4917V10.7041H62.6978V16.9121H61.4917V14.4365H59.0034V16.5312H53.7603V11.2881H54.9663ZM54.9663 15.5537H57.8101V13.8906H54.9663V15.5537ZM56.4771 17.4453V18.7275H61.4917V17.4453H62.6851V21.9141H55.2837V17.4453H56.4771ZM56.4771 20.9365H61.4917V19.667H56.4771V20.9365ZM78.0337 19.667V20.6699H67.6235V19.667H72.2065V17.3311H68.8169V11.4785H70.0229V13.4336H75.6089V11.4785H76.8022V17.3311H73.3999V19.667H78.0337ZM70.0229 16.3535H75.6089V14.4111H70.0229V16.3535ZM88.3169 10.7041V22.0791H87.0981V10.7041H88.3169ZM84.9272 11.9229C84.9272 15.249 83.5054 18.1436 79.6079 20.0098L78.9731 19.0322C82.001 17.5913 83.4736 15.541 83.7085 12.8877H79.519V11.9229H84.9272Z" fill="white"/>
<rect x="0.6" y="0.6" width="118.8" height="30.8" rx="9.4" stroke="white" stroke-width="1.2"/>
</svg>
