<svg width="120" height="32" viewBox="0 0 120 32" fill="none" xmlns="http://www.w3.org/2000/svg">
<path d="M19.6416 11.834V19.2227H14.3223V11.834H19.6416ZM15.5029 12.7861V18.2451H18.4482V12.7861H15.5029ZM22.752 10.7041V15.1602H24.5801V16.1758H22.752V22.0791H21.5459V10.7041H22.752ZM34.5459 10.7041V22.1045H33.3398V10.7041H34.5459ZM28.4648 11.5547C30.1533 11.5547 31.3975 13.1035 31.3975 15.541C31.3975 17.9912 30.1533 19.54 28.4648 19.54C26.751 19.54 25.5195 17.9912 25.5195 15.541C25.5195 13.1035 26.751 11.5547 28.4648 11.5547ZM28.4648 12.6338C27.4111 12.6338 26.6875 13.751 26.6875 15.541C26.6875 17.3438 27.4111 18.4609 28.4648 18.4609C29.5059 18.4609 30.2295 17.3438 30.2295 15.541C30.2295 13.751 29.5059 12.6338 28.4648 12.6338ZM46.2002 10.7041V22.0791H45.0449V10.7041H46.2002ZM43.9531 10.958V21.4951H42.8105V16.0488H41.3887V14.9697H42.8105V10.958H43.9531ZM41.6934 12.1006V13.0908H40.8174V18.1689C41.2046 18.1436 41.5791 18.0991 41.9219 18.0547L42.0107 18.9307C40.208 19.2861 37.8467 19.3369 36.374 19.3369L36.2344 18.3213C36.5645 18.3213 36.9453 18.3213 37.3516 18.3086V13.0908H36.4756V12.1006H41.6934ZM38.4434 18.2959C38.856 18.2832 39.2812 18.2705 39.7002 18.2451V13.0908H38.4434V18.2959ZM57.0166 10.7041V22.1045H55.8105V10.7041H57.0166ZM50.9355 11.5547C52.624 11.5547 53.8682 13.1035 53.8682 15.541C53.8682 17.9912 52.624 19.54 50.9355 19.54C49.2217 19.54 47.9902 17.9912 47.9902 15.541C47.9902 13.1035 49.2217 11.5547 50.9355 11.5547ZM50.9355 12.6338C49.8818 12.6338 49.1582 13.751 49.1582 15.541C49.1582 17.3438 49.8818 18.4609 50.9355 18.4609C51.9766 18.4609 52.7002 17.3438 52.7002 15.541C52.7002 13.751 51.9766 12.6338 50.9355 12.6338ZM63.0215 14.0557C63.0215 15.96 64.2656 17.9277 66.0176 18.6768L65.3574 19.6162C64.0181 19.0259 62.9517 17.7754 62.4248 16.252C61.8979 17.877 60.8252 19.2607 59.5049 19.9082L58.8066 18.9561C60.5205 18.1562 61.79 16.0107 61.8027 14.0557V12.8496H59.2002V11.8467H65.6113V12.8496H63.0215V14.0557ZM68.252 10.7041V22.0791H67.0459V10.7041H68.252ZM80.4775 19.7051V20.7207H70.0674V19.7051H74.6504V17.7119H71.3369V14.0938H78.0146V12.4941H71.3115V11.5039H79.208V15.0586H72.5303V16.7217H79.4746V17.7119H75.8438V19.7051H80.4775ZM93.8965 10.7041V22.1045H92.6904V10.7041H93.8965ZM87.8154 11.5547C89.5039 11.5547 90.748 13.1035 90.748 15.541C90.748 17.9912 89.5039 19.54 87.8154 19.54C86.1016 19.54 84.8701 17.9912 84.8701 15.541C84.8701 13.1035 86.1016 11.5547 87.8154 11.5547ZM87.8154 12.6338C86.7617 12.6338 86.0381 13.751 86.0381 15.541C86.0381 17.3438 86.7617 18.4609 87.8154 18.4609C88.8564 18.4609 89.5801 17.3438 89.5801 15.541C89.5801 13.751 88.8564 12.6338 87.8154 12.6338ZM106.097 16.2393V17.2041H95.7119V16.2393H100.32V15.0332H97.0068V11.2246H104.814V12.1768H98.2002V14.0684H104.891V15.0332H101.488V16.2393H106.097ZM100.892 17.9404C103.342 17.9404 104.814 18.6895 104.814 20.0098C104.814 21.3301 103.342 22.0664 100.892 22.0791C98.4287 22.0664 96.9434 21.3301 96.9434 20.0098C96.9434 18.6895 98.4287 17.9404 100.892 17.9404ZM100.892 18.8799C99.1523 18.8799 98.1621 19.2861 98.1621 20.0098C98.1621 20.7334 99.1523 21.1396 100.892 21.127C102.605 21.1396 103.608 20.7334 103.608 20.0098C103.608 19.2861 102.605 18.8799 100.892 18.8799Z" fill="white"/>
<rect x="0.6" y="0.6" width="118.8" height="30.8" rx="9.4" stroke="white" stroke-width="1.2"/>
</svg>
