<svg width="120" height="32" viewBox="0 0 120 32" fill="none" xmlns="http://www.w3.org/2000/svg">
<rect width="120" height="32" rx="10" fill="#5A45F5"/>
<path d="M58.2354 14.0049H59.7842V15.1729H58.2354V18.4229H56.8262V10.666H58.2354V14.0049ZM49.0439 17.0518C50.1104 17.0518 51.0752 17.0412 51.9385 17.02V16.3154C51.2952 16.235 50.7874 16.0488 50.415 15.7568C50.0426 15.4606 49.8564 15.0882 49.8564 14.6396C49.8564 14.2926 49.9707 13.9901 50.1992 13.7319C50.4277 13.4738 50.7515 13.277 51.1704 13.1416C51.5894 13.002 52.0739 12.9342 52.624 12.9385C53.1784 12.9342 53.6629 13.002 54.0776 13.1416C54.4966 13.277 54.8203 13.4738 55.0488 13.7319C55.2773 13.9901 55.3916 14.2926 55.3916 14.6396C55.3916 15.084 55.2096 15.4521 54.8457 15.7441C54.4818 16.0361 53.9824 16.2244 53.3477 16.3091V16.9629C54.4098 16.9163 55.3704 16.8359 56.2295 16.7217L56.3438 17.6992C55.2562 17.8896 54.1348 18.0145 52.9795 18.0737C51.8285 18.1287 50.5674 18.1562 49.1963 18.1562L49.0439 17.0518ZM58.2354 22.1299H56.8262V20.0225H50.4912V18.918H58.2354V22.1299ZM55.9248 12.6084H49.3359V11.5674H51.9385V10.5645H53.3477V11.5674H55.9248V12.6084ZM52.624 13.8906C52.1755 13.8822 51.8263 13.9435 51.5767 14.0747C51.3312 14.2059 51.2106 14.3942 51.2148 14.6396C51.2064 14.8766 51.3291 15.0649 51.583 15.2046C51.8369 15.34 52.1839 15.4056 52.624 15.4014C53.0641 15.4056 53.4111 15.34 53.665 15.2046C53.9189 15.0649 54.0459 14.8766 54.0459 14.6396C54.0459 14.3942 53.9211 14.2059 53.6714 14.0747C53.4217 13.9435 53.0726 13.8822 52.624 13.8906ZM69.9404 18.9561H68.5186V10.666H69.9404V18.9561ZM70.2578 21.9014H62.3486V18.1182H63.7705V20.7588H70.2578V21.9014ZM63.6816 11.415C64.2572 11.415 64.7798 11.5399 65.2495 11.7896C65.7192 12.035 66.0895 12.3757 66.3604 12.8115C66.6312 13.2474 66.7666 13.7383 66.7666 14.2842C66.7666 14.8385 66.6312 15.3358 66.3604 15.7759C66.0895 16.2118 65.7192 16.5524 65.2495 16.7979C64.7798 17.0433 64.2572 17.166 63.6816 17.166C63.1019 17.166 62.575 17.0433 62.1011 16.7979C61.6313 16.5524 61.2611 16.2118 60.9902 15.7759C60.7194 15.3358 60.584 14.8385 60.584 14.2842C60.584 13.7383 60.7194 13.2474 60.9902 12.8115C61.2611 12.3757 61.6313 12.035 62.1011 11.7896C62.575 11.5399 63.1019 11.415 63.6816 11.415ZM63.6816 12.6465C63.3558 12.6465 63.0617 12.7142 62.7993 12.8496C62.5369 12.985 62.3317 13.1776 62.1836 13.4272C62.0355 13.6769 61.9635 13.9626 61.9678 14.2842C61.9635 14.6143 62.0355 14.9041 62.1836 15.1538C62.3317 15.4035 62.5369 15.596 62.7993 15.7314C63.0617 15.8669 63.3558 15.9346 63.6816 15.9346C63.999 15.9346 64.2868 15.8669 64.5449 15.7314C64.8031 15.596 65.0062 15.4035 65.1543 15.1538C65.3066 14.9041 65.3828 14.6143 65.3828 14.2842C65.3828 13.9626 65.3066 13.6769 65.1543 13.4272C65.0062 13.1776 64.8031 12.985 64.5449 12.8496C64.2868 12.7142 63.999 12.6465 63.6816 12.6465Z" fill="white"/>
</svg>
