<svg width="346" height="37" viewBox="0 0 346 37" fill="none" xmlns="http://www.w3.org/2000/svg">
<rect width="346" height="37" rx="10" fill="#2B2C3F"/>
<path d="M119.068 21.2363H117.988V18.625H115.883V17.75H117.988V16.0957H115.883V15.207H117.988V11.9668H119.068V21.2363ZM115.883 14.332H109.006V13.457H111.959V11.9531H113.025V13.457H115.883V14.332ZM112.479 15.002C113.016 15.002 113.495 15.0999 113.914 15.2959C114.338 15.4873 114.666 15.7585 114.898 16.1094C115.135 16.4603 115.254 16.8659 115.254 17.3262C115.254 17.7819 115.135 18.1852 114.898 18.5361C114.666 18.887 114.338 19.1605 113.914 19.3564C113.495 19.5524 113.016 19.6504 112.479 19.6504C111.941 19.6504 111.462 19.5524 111.043 19.3564C110.628 19.1605 110.305 18.887 110.072 18.5361C109.84 18.1852 109.726 17.7819 109.73 17.3262C109.726 16.8659 109.84 16.4603 110.072 16.1094C110.305 15.7585 110.628 15.4873 111.043 15.2959C111.462 15.0999 111.941 15.002 112.479 15.002ZM112.479 15.8496C112.137 15.8542 111.831 15.918 111.562 16.041C111.298 16.1641 111.093 16.3372 110.947 16.5605C110.801 16.7839 110.729 17.0391 110.729 17.3262C110.729 17.6133 110.801 17.8685 110.947 18.0918C111.093 18.3105 111.298 18.4814 111.562 18.6045C111.831 18.7275 112.137 18.7891 112.479 18.7891C112.82 18.7891 113.123 18.7275 113.388 18.6045C113.657 18.4814 113.864 18.3105 114.01 18.0918C114.16 17.8685 114.238 17.6133 114.242 17.3262C114.238 17.0391 114.16 16.7839 114.01 16.5605C113.864 16.3372 113.657 16.1641 113.388 16.041C113.123 15.918 112.82 15.8542 112.479 15.8496ZM119.342 23.8477H111.207V20.416H112.287V22.9453H119.342V23.8477ZM131.537 24.1074H130.498V17.791H128.844V23.4922H127.818V12.2129H128.844V16.875H130.498V11.9531H131.537V24.1074ZM124.688 15.2754C124.688 16.0228 124.788 16.7292 124.988 17.3945C125.193 18.0553 125.494 18.641 125.891 19.1514C126.287 19.6572 126.77 20.056 127.34 20.3477L126.697 21.1816C126.091 20.8535 125.576 20.4023 125.152 19.8281C124.733 19.2493 124.414 18.5794 124.195 17.8184C123.986 18.6797 123.664 19.4316 123.231 20.0742C122.803 20.7168 122.272 21.2227 121.639 21.5918L120.969 20.7715C121.543 20.457 122.031 20.0264 122.432 19.4795C122.833 18.9326 123.136 18.3014 123.341 17.5859C123.546 16.8704 123.648 16.1003 123.648 15.2754V14.3047H121.256V13.4023H126.943V14.3047H124.688V15.2754ZM147.15 24.1074H146.111V17.791H144.457V23.4922H143.432V12.2129H144.457V16.875H146.111V11.9531H147.15V24.1074ZM140.301 15.2754C140.301 16.0228 140.401 16.7292 140.602 17.3945C140.807 18.0553 141.107 18.641 141.504 19.1514C141.9 19.6572 142.383 20.056 142.953 20.3477L142.311 21.1816C141.704 20.8535 141.189 20.4023 140.766 19.8281C140.346 19.2493 140.027 18.5794 139.809 17.8184C139.599 18.6797 139.278 19.4316 138.845 20.0742C138.416 20.7168 137.885 21.2227 137.252 21.5918L136.582 20.7715C137.156 20.457 137.644 20.0264 138.045 19.4795C138.446 18.9326 138.749 18.3014 138.954 17.5859C139.159 16.8704 139.262 16.1003 139.262 15.2754V14.3047H136.869V13.4023H142.557V14.3047H140.301V15.2754ZM152.428 14.373C152.428 14.8197 152.528 15.2594 152.729 15.6924C152.934 16.1253 153.225 16.515 153.604 16.8613C153.982 17.2077 154.424 17.4766 154.93 17.668L154.369 18.4883C153.795 18.265 153.298 17.9482 152.879 17.5381C152.464 17.1279 152.145 16.6562 151.922 16.123C151.689 16.7246 151.357 17.2646 150.924 17.7432C150.491 18.2171 149.985 18.5794 149.406 18.8301L148.818 17.9961C149.338 17.7682 149.791 17.4583 150.179 17.0664C150.571 16.6699 150.871 16.237 151.081 15.7676C151.295 15.2936 151.402 14.8288 151.402 14.373V12.7188H152.428V14.373ZM159.127 19.4727H158.102V16.123H156.488V19.0898H155.477V12.1992H156.488V15.2344H158.102V11.9668H159.127V19.4727ZM155.107 19.7461C155.946 19.7461 156.671 19.8327 157.281 20.0059C157.896 20.1745 158.368 20.4229 158.696 20.751C159.029 21.0745 159.195 21.4642 159.195 21.9199C159.195 22.3711 159.029 22.7585 158.696 23.082C158.368 23.4056 157.896 23.6517 157.281 23.8203C156.671 23.9935 155.946 24.0801 155.107 24.0801C154.269 24.0801 153.542 23.9935 152.927 23.8203C152.312 23.6517 151.84 23.4056 151.512 23.082C151.188 22.7585 151.029 22.3711 151.033 21.9199C151.029 21.4642 151.188 21.0745 151.512 20.751C151.84 20.4229 152.309 20.1745 152.92 20.0059C153.535 19.8327 154.264 19.7461 155.107 19.7461ZM155.107 20.5664C154.492 20.5664 153.957 20.6211 153.501 20.7305C153.045 20.8353 152.697 20.9902 152.455 21.1953C152.214 21.4004 152.095 21.6419 152.1 21.9199C152.095 22.1934 152.214 22.4303 152.455 22.6309C152.697 22.8314 153.043 22.984 153.494 23.0889C153.95 23.1937 154.488 23.2461 155.107 23.2461C155.723 23.2461 156.256 23.1937 156.707 23.0889C157.158 22.984 157.507 22.8314 157.753 22.6309C157.999 22.4303 158.124 22.1934 158.129 21.9199C158.124 21.6419 157.999 21.4004 157.753 21.1953C157.507 20.9902 157.156 20.8353 156.7 20.7305C156.249 20.6211 155.718 20.5664 155.107 20.5664ZM170.57 16.5742H166.975V18.1328H171.979V19.0078H160.904V18.1328H165.908V16.5742H162.34V12.4727H170.57V16.5742ZM163.393 15.7129H169.504V13.334H163.393V15.7129ZM170.611 24.1074H169.531V21.1406H162.135V20.2793H170.611V24.1074ZM184.119 19.541H172.99V18.6523H178.021V17.3672H174.439V14.4004H181.604V13.1426H174.398V12.2676H182.684V15.207H175.506V16.5059H182.943V17.3672H179.074V18.6523H184.119V19.541ZM182.752 23.998H181.672V21.3457H174.234V20.4707H182.752V23.998ZM198.693 24.1348H197.613V17.2715H194.947V16.3828H197.613V11.9531H198.693V24.1348ZM192.828 15.5625C192.828 16.2233 192.972 16.8932 193.259 17.5723C193.55 18.2467 193.942 18.8529 194.435 19.3906C194.927 19.9284 195.467 20.3294 196.055 20.5938L195.412 21.4551C194.724 21.1178 194.102 20.6074 193.546 19.9238C192.994 19.2357 192.58 18.4655 192.302 17.6133C192.024 18.5111 191.604 19.3268 191.044 20.0605C190.483 20.7897 189.857 21.3366 189.164 21.7012L188.508 20.8672C189.091 20.5801 189.629 20.1562 190.121 19.5957C190.618 19.0306 191.012 18.3949 191.304 17.6885C191.595 16.9775 191.743 16.2689 191.748 15.5625V14.0996H188.973V13.2109H195.617V14.0996H192.828V15.5625ZM204.832 14.2637C204.832 14.7878 204.955 15.2891 205.201 15.7676C205.452 16.2415 205.8 16.6608 206.247 17.0254C206.698 17.3854 207.22 17.6634 207.812 17.8594L207.307 18.707C206.614 18.4792 206.008 18.1351 205.488 17.6748C204.973 17.2145 204.584 16.6745 204.319 16.0547C204.06 16.752 203.661 17.3626 203.123 17.8867C202.585 18.4062 201.952 18.7982 201.223 19.0625L200.676 18.2012C201.277 17.9961 201.813 17.6953 202.282 17.2988C202.752 16.9023 203.116 16.4421 203.376 15.918C203.64 15.3893 203.775 14.8379 203.779 14.2637V13.7441H201.004V12.8555H207.566V13.7441H204.832V14.2637ZM210.219 15.0566H212.051V15.959H210.219V19.2949H209.152V11.9531H210.219V15.0566ZM206.322 19.623C207.152 19.623 207.867 19.7119 208.469 19.8896C209.07 20.0628 209.531 20.3158 209.85 20.6484C210.169 20.9811 210.328 21.3776 210.328 21.8379C210.328 22.3073 210.169 22.7106 209.85 23.0479C209.531 23.3851 209.07 23.6403 208.469 23.8135C207.867 23.9912 207.152 24.0801 206.322 24.0801C205.493 24.0801 204.775 23.9912 204.169 23.8135C203.563 23.6403 203.098 23.3851 202.774 23.0479C202.451 22.7106 202.289 22.3073 202.289 21.8379C202.289 21.3776 202.451 20.9811 202.774 20.6484C203.098 20.3158 203.563 20.0628 204.169 19.8896C204.775 19.7119 205.493 19.623 206.322 19.623ZM206.322 20.4844C205.716 20.4844 205.19 20.5391 204.743 20.6484C204.297 20.7533 203.955 20.9082 203.718 21.1133C203.481 21.3184 203.365 21.5599 203.369 21.8379C203.365 22.125 203.481 22.3734 203.718 22.583C203.955 22.7881 204.294 22.9453 204.736 23.0547C205.183 23.1641 205.712 23.2188 206.322 23.2188C206.938 23.2188 207.466 23.1641 207.908 23.0547C208.355 22.9453 208.697 22.7881 208.934 22.583C209.171 22.3734 209.289 22.125 209.289 21.8379C209.289 21.5553 209.171 21.3138 208.934 21.1133C208.697 20.9082 208.355 20.7533 207.908 20.6484C207.462 20.5391 206.933 20.4844 206.322 20.4844ZM222.223 16.9707H224.26V17.8594H222.223V24.1074H221.156V11.9531H222.223V16.9707ZM219.98 14.7969H212.748V13.9082H215.879V12.1035H216.945V13.9082H219.98V14.7969ZM216.426 15.8086C216.995 15.8086 217.506 15.9271 217.957 16.1641C218.408 16.401 218.761 16.7314 219.017 17.1553C219.272 17.5791 219.402 18.0599 219.406 18.5977C219.402 19.1354 219.272 19.6162 219.017 20.04C218.761 20.4639 218.408 20.7943 217.957 21.0312C217.506 21.2682 216.995 21.3867 216.426 21.3867C215.852 21.3867 215.337 21.2682 214.881 21.0312C214.43 20.7943 214.076 20.4639 213.821 20.04C213.566 19.6162 213.441 19.1354 213.445 18.5977C213.441 18.0599 213.566 17.5791 213.821 17.1553C214.076 16.7314 214.43 16.401 214.881 16.1641C215.337 15.9271 215.852 15.8086 216.426 15.8086ZM216.426 16.7109C216.052 16.7109 215.715 16.793 215.414 16.957C215.118 17.1165 214.885 17.3398 214.717 17.627C214.548 17.9141 214.466 18.2376 214.471 18.5977C214.466 18.9622 214.548 19.2881 214.717 19.5752C214.885 19.8577 215.118 20.0788 215.414 20.2383C215.715 20.3978 216.052 20.4753 216.426 20.4707C216.795 20.4753 217.128 20.3978 217.424 20.2383C217.72 20.0788 217.952 19.8577 218.121 19.5752C218.29 19.2881 218.376 18.9622 218.381 18.5977C218.376 18.2376 218.29 17.9141 218.121 17.627C217.952 17.3398 217.72 17.1165 217.424 16.957C217.128 16.793 216.795 16.7109 216.426 16.7109ZM234.965 24.1074H233.885V11.9531H234.965V24.1074ZM231.369 13.2793C231.36 15.1159 230.895 16.7656 229.975 18.2285C229.054 19.6868 227.614 20.8854 225.654 21.8242L225.066 20.9492C226.689 20.179 227.931 19.222 228.792 18.0781C229.658 16.9342 230.152 15.6263 230.275 14.1543H225.627V13.2793H231.369Z" fill="white"/>
</svg>
