<svg width="284" height="23" viewBox="0 0 284 23" fill="none" xmlns="http://www.w3.org/2000/svg">
<path d="M56.4014 13.3672C59.2432 13.3672 61.0303 14.2607 61.0449 15.7988C61.0303 17.3223 59.2432 18.2305 56.4014 18.2158C53.5889 18.2305 51.7871 17.3223 51.7871 15.7988C51.7871 14.2607 53.5889 13.3672 56.4014 13.3672ZM56.4014 14.4219C54.4092 14.4219 53.1641 14.9346 53.1787 15.7988C53.1641 16.6484 54.4092 17.1465 56.4014 17.1465C58.4082 17.1465 59.6533 16.6484 59.668 15.7988C59.6533 14.9346 58.4082 14.4219 56.4014 14.4219ZM60.9424 5.76465V6.86328C60.9424 7.91797 60.9424 9.00195 60.5762 10.3496L59.2139 10.2031C59.5654 8.86279 59.5654 7.896 59.5654 6.87793H51.8896V5.76465H60.9424ZM62.4365 11.1553V12.2832H50.498V11.1553H55.2881V8.69434H56.6504V11.1553H62.4365ZM75.1443 12.5322V13.6748H72.0975V18.2451H70.6912V13.6748H67.5564V18.2451H66.1209V13.6748H63.1326V12.5322H75.1443ZM69.1092 5.61816C71.8777 5.61816 73.782 6.74609 73.782 8.51855C73.782 10.2617 71.8777 11.375 69.1092 11.3604C66.326 11.375 64.4363 10.2617 64.4363 8.51855C64.4363 6.74609 66.326 5.61816 69.1092 5.61816ZM69.1092 6.73145C67.1609 6.74609 65.8572 7.41992 65.8719 8.51855C65.8572 9.58789 67.1609 10.2617 69.1092 10.2617C71.0574 10.2617 72.3611 9.58789 72.3611 8.51855C72.3611 7.41992 71.0574 6.74609 69.1092 6.73145Z" fill="white"/>
<g opacity="0.7">
<path d="M16.011 2.19727L14.6558 3.55241L16.8533 5.74984H16.2917C10.481 5.74984 5.75008 10.4807 5.75008 16.2915V17.2498H7.66675V16.2915C7.66675 11.5165 11.5168 7.6665 16.2917 7.6665H16.8533L14.6558 9.86393L16.011 11.2191L20.5219 6.70817L16.011 2.19727ZM1.91675 7.6665V8.62484V18.2082C1.91675 19.7846 3.21532 21.0832 4.79175 21.0832H18.2084C19.7848 21.0832 21.0834 19.7846 21.0834 18.2082V17.2498V16.2915H19.1667V17.2498V18.2082C19.1667 18.7497 18.7499 19.1665 18.2084 19.1665H4.79175C4.25026 19.1665 3.83341 18.7497 3.83341 18.2082V8.62484V7.6665H1.91675Z" fill="white"/>
</g>
</svg>
