<svg width="20" height="20" viewBox="0 0 20 20" fill="none" xmlns="http://www.w3.org/2000/svg">
<path id="Vector" d="M9.09695 19.0909C7.84341 19.0909 6.66538 18.8523 5.56286 18.375C4.46035 17.8977 3.49621 17.2462 2.67045 16.4205C1.8447 15.5947 1.19318 14.6306 0.715909 13.528C0.238636 12.4255 0 11.2475 0 9.99395C0 8.74041 0.239386 7.56061 0.718159 6.45455C1.19695 5.34848 1.84672 4.38636 2.66748 3.56818C3.48823 2.75 4.45339 2.10227 5.56295 1.625C6.6725 1.14773 7.84848 0.909091 9.09091 0.909091C9.7848 0.909091 10.4545 0.984848 11.1 1.13636C11.7454 1.28788 12.3636 1.5 12.9545 1.77273V3.29545C12.3788 2.96212 11.7689 2.70833 11.125 2.53409C10.4811 2.35985 9.8047 2.27273 9.09591 2.27273C6.95342 2.27273 5.12909 3.02273 3.62291 4.52273C2.11673 6.02273 1.36364 7.8448 1.36364 9.98895C1.36364 12.1331 2.11732 13.9589 3.62468 15.4662C5.13203 16.9736 6.95779 17.7273 9.10195 17.7273C11.2461 17.7273 13.0682 16.9747 14.5682 15.4695C16.0682 13.9642 16.8182 12.1411 16.8182 10C16.8182 9.47298 16.7689 8.96245 16.6705 8.46839C16.572 7.97431 16.4242 7.5 16.2273 7.04545H17.6818C17.8485 7.52147 17.9735 8.00158 18.0568 8.4858C18.1402 8.97001 18.1818 9.47474 18.1818 10C18.1818 11.2424 17.9432 12.4184 17.4659 13.528C16.9886 14.6375 16.3409 15.6027 15.5227 16.4234C14.7045 17.2442 13.7424 17.894 12.6364 18.3727C11.5303 18.8515 10.3505 19.0909 9.09695 19.0909ZM16.5909 3.40909H15.2273C15.0341 3.40909 14.8722 3.34337 14.7415 3.21193C14.6108 3.08048 14.5455 2.9176 14.5455 2.7233C14.5455 2.52898 14.6108 2.36742 14.7415 2.23864C14.8722 2.10985 15.0341 2.04545 15.2273 2.04545H16.5909V0.681818C16.5909 0.488636 16.6566 0.326705 16.7881 0.196023C16.9195 0.0653409 17.0824 0 17.2767 0C17.471 0 17.6326 0.0653409 17.7614 0.196023C17.8902 0.326705 17.9545 0.488636 17.9545 0.681818V2.04545H19.3182C19.5114 2.04545 19.6733 2.11117 19.804 2.24261C19.9347 2.37407 20 2.53695 20 2.73125C20 2.92557 19.9347 3.08712 19.804 3.21591C19.6733 3.3447 19.5114 3.40909 19.3182 3.40909H17.9545V4.77273C17.9545 4.96591 17.8888 5.12784 17.7574 5.25852C17.6259 5.3892 17.4631 5.45455 17.2688 5.45455C17.0744 5.45455 16.9129 5.3892 16.7841 5.25852C16.6553 5.12784 16.5909 4.96591 16.5909 4.77273V3.40909ZM12.4091 8.79545C12.75 8.79545 13.0398 8.67614 13.2784 8.4375C13.517 8.19886 13.6364 7.90909 13.6364 7.56818C13.6364 7.22727 13.517 6.9375 13.2784 6.69886C13.0398 6.46023 12.75 6.34091 12.4091 6.34091C12.0682 6.34091 11.7784 6.46023 11.5398 6.69886C11.3011 6.9375 11.1818 7.22727 11.1818 7.56818C11.1818 7.90909 11.3011 8.19886 11.5398 8.4375C11.7784 8.67614 12.0682 8.79545 12.4091 8.79545ZM5.77273 8.79545C6.11364 8.79545 6.40341 8.67614 6.64205 8.4375C6.88068 8.19886 7 7.90909 7 7.56818C7 7.22727 6.88068 6.9375 6.64205 6.69886C6.40341 6.46023 6.11364 6.34091 5.77273 6.34091C5.43182 6.34091 5.14205 6.46023 4.90341 6.69886C4.66477 6.9375 4.54545 7.22727 4.54545 7.56818C4.54545 7.90909 4.66477 8.19886 4.90341 8.4375C5.14205 8.67614 5.43182 8.79545 5.77273 8.79545ZM9.07964 14.9773C9.95079 14.9773 10.7538 14.7803 11.4886 14.3864C12.2235 13.9924 12.8182 13.4439 13.2727 12.7409C13.3636 12.5652 13.358 12.3939 13.2557 12.2273C13.1534 12.0606 13 11.9773 12.7955 11.9773H5.3845C5.17362 11.9773 5.01894 12.0606 4.92045 12.2273C4.82197 12.3939 4.81818 12.5652 4.90909 12.7409C5.36364 13.4439 5.95833 13.9924 6.69318 14.3864C7.42803 14.7803 8.22352 14.9773 9.07964 14.9773Z" fill="white"/>
</svg>
