<svg width="38" height="38" viewBox="0 0 38 38" fill="none" xmlns="http://www.w3.org/2000/svg">
<g filter="url(#filter0_d_385_4330)">
<circle cx="19.2" cy="17.9998" r="16.2" fill="#73737C"/>
</g>
<g opacity="0.5">
<path d="M16.5171 15.3167C16.5171 12.4582 21.0088 12.4583 21.0088 15.3167C21.0088 17.3584 18.9671 16.9499 18.9671 19.4" stroke="white" stroke-width="1.25644" stroke-linecap="round" stroke-linejoin="round"/>
<path d="M18.9673 22.6747L18.9751 22.666" stroke="white" stroke-width="1.25644" stroke-linecap="round" stroke-linejoin="round"/>
<path d="M18.9671 25.9333C23.4775 25.9333 27.134 22.2768 27.134 17.7664C27.134 13.256 23.4775 9.59961 18.9671 9.59961C14.4567 9.59961 10.8003 13.256 10.8003 17.7664C10.8003 19.2539 11.198 20.6486 11.8929 21.8499L11.2086 25.5249L14.8837 24.8407C16.0849 25.5355 17.4796 25.9333 18.9671 25.9333Z" stroke="white" stroke-width="1.25644" stroke-linecap="round" stroke-linejoin="round"/>
</g>
<defs>
<filter id="filter0_d_385_4330" x="0.6" y="0.599805" width="37.1999" height="37.2004" filterUnits="userSpaceOnUse" color-interpolation-filters="sRGB">
<feFlood flood-opacity="0" result="BackgroundImageFix"/>
<feColorMatrix in="SourceAlpha" type="matrix" values="0 0 0 0 0 0 0 0 0 0 0 0 0 0 0 0 0 0 127 0" result="hardAlpha"/>
<feOffset dy="1.2"/>
<feGaussianBlur stdDeviation="1.2"/>
<feComposite in2="hardAlpha" operator="out"/>
<feColorMatrix type="matrix" values="0 0 0 0 0 0 0 0 0 0 0 0 0 0 0 0 0 0 0.25 0"/>
<feBlend mode="normal" in2="BackgroundImageFix" result="effect1_dropShadow_385_4330"/>
<feBlend mode="normal" in="SourceGraphic" in2="effect1_dropShadow_385_4330" result="shape"/>
</filter>
</defs>
</svg>
