<svg width="279" height="65" viewBox="0 0 279 65" fill="none" xmlns="http://www.w3.org/2000/svg">
<path d="M5.82812 7.70312V10.2656C7.17188 10.1953 8.53125 10.0859 9.8125 9.89062L9.90625 10.7969C6.72656 11.375 3.3125 11.3984 0.8125 11.3906L0.640625 10.375C1.80469 10.3672 3.17969 10.3594 4.625 10.3125V7.70312H5.82812ZM1.0625 7.21875C3.11719 6.60938 4.5625 5.08594 4.59375 3.21875H1.40625V2.20312H4.625V0.484375H5.82812V2.20312H9.09375V3.21875H5.82812C5.86719 5.00781 7.35156 6.47656 9.40625 7.0625L8.82812 8.03125C7.16406 7.53125 5.85156 6.46094 5.22656 5.05469C4.625 6.53906 3.32812 7.64844 1.65625 8.15625L1.0625 7.21875ZM10.7344 14.2969V0.375H11.9531V14.2969H10.7344ZM25.5394 0.390625V10.5781H24.3206V0.390625H25.5394ZM14.2113 7.60938C16.3128 6.78906 17.7425 4.75781 17.7425 2.5625V1.17188H18.9925V2.5625C18.9769 4.67969 20.4222 6.57812 22.4925 7.32812L21.8519 8.3125C20.2425 7.69531 18.9925 6.44531 18.3753 4.84375C17.7738 6.54688 16.5081 7.91406 14.8831 8.5625L14.2113 7.60938ZM16.5706 13.9688V9.64062H17.7894V12.9375H25.9769V13.9688H16.5706ZM42.4463 5.07812V6.09375H32.8838V1.09375H34.1338V5.07812H42.4463ZM31.2744 9.125V8.10938H43.9306V9.125H40.6338V14.2656H39.415V9.125H35.8056V14.2656H34.5869V9.125H31.2744ZM51.7044 2.42188C51.7122 4.80469 54.4309 6.92188 56.845 7.375L56.2825 8.40625C54.1809 7.92188 51.9778 6.42969 51.0794 4.39062C50.1731 6.42969 47.9778 7.91406 45.8763 8.40625L45.3138 7.375C47.72 6.91406 50.4153 4.8125 50.4231 2.42188V1.35938H51.7044V2.42188ZM44.7825 12.375V11.3594H57.5013V12.375H44.7825ZM70.9938 8.625V9.625H65.1969V14.2656H63.9938V9.625H58.275V8.625H70.9938ZM59.9 6.9375V0.953125H61.1188V2.875H68.1188V0.953125H69.3531V6.9375H59.9ZM61.1188 5.9375H68.1188V3.875H61.1188V5.9375ZM83.3144 0.375V14.2969H82.0956V6.64062H79.1581V5.625H82.0956V0.375H83.3144ZM72.4394 10.9375V1.65625H78.9238V2.67188H73.6738V5.5625H78.3144V6.5625H73.6738V9.92188C76.2206 9.91406 77.8613 9.84375 79.7675 9.5L79.9081 10.5156C77.8847 10.8438 76.1894 10.9375 73.5019 10.9375H72.4394ZM99.7525 0.375V6.03125H102.003V7.0625H99.7525V14.2656H98.5338V0.375H99.7525ZM89.0963 10.6562C92.6822 8.875 94.6353 6.19531 94.9166 2.90625H89.7369V1.875H96.1588C96.1509 5.80469 94.3072 9.39062 89.7838 11.625L89.0963 10.6562ZM114.026 0.375V14.2969H112.808V8.64062H109.479V10.7812H103.073V1.46875H104.308V5.09375H108.276V1.46875H109.479V3.85938H112.808V0.375H114.026ZM104.308 9.76562H108.276V6.07812H104.308V9.76562ZM109.479 7.60938H112.808V4.875H109.479V7.60938ZM128.722 7.4375V8.45312H123.081V11.2969H121.847V8.45312H116.003V7.4375H128.722ZM117.441 3.53125C117.433 1.80469 119.378 0.742188 122.347 0.734375C125.316 0.742188 127.238 1.80469 127.238 3.53125C127.238 5.24219 125.316 6.30469 122.347 6.29688C119.378 6.30469 117.433 5.24219 117.441 3.53125ZM117.644 13.9688V9.90625H118.878V12.9219H127.3V13.9688H117.644ZM118.753 3.53125C118.738 4.60938 120.183 5.29688 122.347 5.29688C124.503 5.29688 125.941 4.60938 125.941 3.53125C125.941 2.42188 124.503 1.74219 122.347 1.73438C120.183 1.74219 118.738 2.42188 118.753 3.53125ZM140.316 1C140.308 4.4375 138.176 6.86719 133.941 7.98438L133.473 7.01562C135.738 6.41406 137.269 5.46875 138.144 4.26562L133.613 4.60938L133.394 3.57812L138.652 3.375C138.84 2.9375 138.957 2.46875 138.996 1.98438H134.098V1H140.316ZM135.223 9.25V8.26562H144.082V11.5469H136.473V13.0938H144.598V14.0781H135.254V10.6406H142.863V9.25H135.223ZM142.863 7.64062V0.375H144.082V3.57812H146.176V4.60938H144.082V7.64062H142.863ZM158.246 9.32812V14.0781H149.106V9.32812H158.246ZM147.293 2.10938V1.09375H153.481V4.9375H148.543V6.95312C150.832 6.96094 152.551 6.88281 154.637 6.54688L154.746 7.57812C152.567 7.91406 150.777 7.98438 148.371 7.96875H147.324V3.98438H152.293V2.10938H147.293ZM150.324 13.0781H157.027V10.2812H150.324V13.0781ZM154.371 4.53125V3.51562H157.012V0.390625H158.246V8.54688H157.012V4.53125H154.371ZM171.239 0.375V6.10938H173.348V7.14062H171.239V14.2656H170.004V0.375H171.239ZM160.192 10.4219C162.286 8.27344 163.137 5.6875 163.293 2.92188H160.629V1.89062H164.458C164.442 5.19531 163.7 8.46094 161.176 11.125L160.192 10.4219ZM164.176 11.3594C166.348 8.90625 166.997 5.82031 167.114 2.92188H164.895V1.89062H168.27C168.262 5.1875 167.778 9.02344 165.176 12.0469L164.176 11.3594ZM178.716 4.64062C178.723 7 180.434 9.39844 182.481 10.2812L181.794 11.25C180.169 10.5156 178.77 8.91406 178.122 6.99219C177.473 9.03125 176.067 10.7969 174.481 11.5938L173.747 10.625C175.739 9.67188 177.473 7.04688 177.481 4.64062V2.82812H174.2V1.8125H182.028V2.82812H178.716V4.64062ZM183.966 14.2656V0.375H185.2V14.2656H183.966ZM188.724 13.0938C188.177 13.0859 187.708 12.6328 187.724 12.0781C187.708 11.5312 188.177 11.0781 188.724 11.0781C189.278 11.0781 189.732 11.5312 189.724 12.0781C189.732 12.6328 189.278 13.0859 188.724 13.0938ZM83.705 25.375V39.2656H82.5175V25.375H83.705ZM71.9706 31.375C71.9784 28.4219 73.1503 26.5547 74.955 26.5469C76.6425 26.5547 77.7831 28.1797 77.9394 30.7969H79.7363V25.6719H80.9081V38.5625H79.7363V31.8125H77.9472C77.83 34.5156 76.6659 36.2109 74.955 36.2031C73.1503 36.2109 71.9784 34.3281 71.9706 31.375ZM73.1269 31.375C73.1113 33.625 73.83 35.0469 74.955 35.0312C76.0878 35.0469 76.8066 33.625 76.7988 31.375C76.8066 29.1172 76.0878 27.7031 74.955 27.7031C73.83 27.7031 73.1113 29.1172 73.1269 31.375ZM90.1975 29.1094C90.1897 31.625 91.8069 34.1562 93.8225 35.0781L93.0881 36.0781C91.51 35.2656 90.2053 33.6094 89.5881 31.6328C88.9709 33.7109 87.6663 35.4922 86.0881 36.3281L85.2913 35.3438C87.3303 34.3438 88.9397 31.6719 88.9475 29.1094V26.5781H90.1975V29.1094ZM92.3069 31.125V30.125H95.6038V25.375H96.8225V39.2969H95.6038V31.125H92.3069ZM107.167 27.0781C107.167 28.9922 108.565 30.6172 110.651 31.2969L109.964 32.25C108.417 31.7109 107.198 30.625 106.597 29.2031C106.003 30.8359 104.722 32.0859 103.058 32.7031L102.417 31.7188C104.534 30.9844 105.956 29.1953 105.964 27.0938V25.9375H107.167V27.0781ZM103.714 34.4531V33.5156H108.136V36.6562H104.948V38.1875C106.401 38.1875 107.3 38.1562 108.433 37.9219L108.558 38.8906C107.261 39.125 106.268 39.1484 104.479 39.1562H103.745V35.75H106.948V34.4531H103.714ZM108.995 39.1562V33.5156H113.37V39.1562H108.995ZM110.089 38.2188H112.292V34.4375H110.089V38.2188ZM112.151 32.7969V25.375H113.37V28.4375H115.464V29.4688H113.37V32.7969H112.151ZM120.566 26.3906C122.745 26.3984 124.292 27.7266 124.3 29.6562C124.292 31.5938 122.745 32.9141 120.566 32.9219C118.37 32.9141 116.808 31.5938 116.816 29.6562C116.808 27.7266 118.37 26.3984 120.566 26.3906ZM116.097 35.1875C118.659 35.1953 122.198 35.1719 125.269 34.7188L125.363 35.625C122.183 36.2188 118.769 36.2344 116.269 36.2344L116.097 35.1875ZM118.019 29.6562C118.011 30.9531 119.081 31.8438 120.566 31.8438C122.034 31.8438 123.105 30.9531 123.097 29.6562C123.105 28.3672 122.034 27.4688 120.566 27.4688C119.081 27.4688 118.011 28.3672 118.019 29.6562ZM126.191 39.2969V25.375H127.409V39.2969H126.191ZM145.941 36.4531V37.4844H133.223V36.4531H138.941V33.0625H134.723V26.5469H144.363V33.0625H140.144V36.4531H145.941ZM135.926 32.0781H143.176V27.5312H135.926V32.0781ZM159.402 32.3906V33.3906H146.731V32.3906H159.402ZM148.34 30.8594V25.9844H157.824V26.9844H149.559V29.8438H157.949V30.8594H148.34ZM148.371 38.9531V34.8906H149.59V37.9219H158.059V38.9531H148.371ZM175.387 25.375V39.2969H174.153V25.375H175.387ZM164.45 31.2969C164.458 28.3438 165.927 26.4609 167.997 26.4531C170.059 26.4609 171.552 28.3438 171.544 31.2969C171.552 34.2578 170.059 36.1328 167.997 36.125C165.927 36.1328 164.458 34.2578 164.45 31.2969ZM165.637 31.2969C165.637 33.5547 166.606 35.0391 167.997 35.0312C169.395 35.0391 170.356 33.5547 170.356 31.2969C170.356 29.0391 169.395 27.5547 167.997 27.5469C166.606 27.5547 165.637 29.0391 165.637 31.2969ZM181.161 26.4531C183.208 26.4609 184.661 28.3438 184.677 31.2969C184.661 34.2578 183.208 36.1328 181.161 36.125C179.099 36.1328 177.653 34.2578 177.661 31.2969C177.653 28.3438 179.099 26.4609 181.161 26.4531ZM178.818 31.2969C178.825 33.5547 179.786 35.0391 181.161 35.0312C182.552 35.0391 183.489 33.5547 183.489 31.2969C183.489 29.0391 182.552 27.5547 181.161 27.5469C179.786 27.5547 178.825 29.0391 178.818 31.2969ZM186.974 39.2656V25.375H188.193V28.875H190.443V29.9219H188.193V33.0156H190.443V34.0469H188.193V39.2656H186.974ZM202.435 25.375V39.2656H201.201V25.375H202.435ZM191.122 35.6562C194.88 33.875 196.802 31.2109 197.076 27.8906H191.763V26.8906H198.326C198.31 30.8828 196.451 34.4219 191.794 36.6562L191.122 35.6562ZM208.646 26.2812C210.779 26.2969 212.342 27.6094 212.349 29.5469C212.342 31.2891 211.076 32.5234 209.271 32.7578V35.1172C210.568 35.0625 211.873 34.9688 213.084 34.8125L213.162 35.7344C210.217 36.2344 206.935 36.2656 204.49 36.25L204.287 35.2188C205.404 35.2109 206.693 35.2031 208.037 35.1641V32.7578C206.193 32.5391 204.935 31.2969 204.943 29.5469C204.935 27.6094 206.474 26.2969 208.646 26.2812ZM206.146 29.5469C206.131 30.8516 207.185 31.7578 208.646 31.75C210.084 31.7578 211.131 30.8516 211.146 29.5469C211.131 28.2422 210.084 27.3516 208.646 27.3438C207.185 27.3516 206.131 28.2422 206.146 29.5469ZM213.974 39.2656V25.375H215.193V31.1094H217.459V32.1719H215.193V39.2656H213.974ZM6.89062 59.9688C9.9375 59.9609 11.6562 60.7031 11.6719 62.1094C11.6562 63.5156 9.9375 64.25 6.89062 64.2656C3.8125 64.25 2.08594 63.5156 2.09375 62.1094C2.08594 60.7031 3.8125 59.9609 6.89062 59.9688ZM0.5625 59.0156V58.0469H13.2188V59.0156H0.5625ZM1.21875 52.5312V51.5781H6.28125V50.1719H7.5V51.5781H12.4844V52.5312H1.21875ZM2.375 55.125C2.375 53.8203 4.00781 53.1094 6.89062 53.1094C9.76562 53.1094 11.3906 53.8203 11.3906 55.125C11.3906 56.4375 9.76562 57.1328 6.89062 57.125C4.00781 57.1328 2.375 56.4375 2.375 55.125ZM3.34375 62.1094C3.35156 62.8984 4.63281 63.3281 6.89062 63.3281C9.14062 63.3281 10.4219 62.8984 10.4219 62.1094C10.4219 61.3203 9.14062 60.875 6.89062 60.875C4.63281 60.875 3.35156 61.3203 3.34375 62.1094ZM3.6875 55.125C3.67969 55.8516 4.85156 56.25 6.89062 56.25C8.92969 56.25 10.0859 55.8516 10.0938 55.125C10.0859 54.3906 8.92969 53.9688 6.89062 53.9688C4.85156 53.9688 3.67969 54.3906 3.6875 55.125ZM21.305 51.75V60.7812H14.8831V51.75H21.305ZM16.0863 59.7812H20.1019V52.7344H16.0863V59.7812ZM24.2894 64.2969V50.375H25.5238V64.2969H24.2894ZM40.2975 61.5156V62.5469H27.5788V61.5156H33.2975V58.8906H29.1725V54.6094H37.485V52.4219H29.1413V51.4062H38.6881V55.6094H30.3913V57.875H39.0163V58.8906H34.5006V61.5156H40.2975ZM53.79 57.4375V58.4531H48.1494V61.2969H46.915V58.4531H41.0713V57.4375H53.79ZM42.5088 53.5312C42.5009 51.8047 44.4463 50.7422 47.415 50.7344C50.3838 50.7422 52.3056 51.8047 52.3056 53.5312C52.3056 55.2422 50.3838 56.3047 47.415 56.2969C44.4463 56.3047 42.5009 55.2422 42.5088 53.5312ZM42.7119 63.9688V59.9062H43.9463V62.9219H52.3681V63.9688H42.7119ZM43.8213 53.5312C43.8056 54.6094 45.2509 55.2969 47.415 55.2969C49.5713 55.2969 51.0088 54.6094 51.0088 53.5312C51.0088 52.4219 49.5713 51.7422 47.415 51.7344C45.2509 51.7422 43.8056 52.4219 43.8213 53.5312ZM65.4156 51.6406V52.6719H60.1344V55.5469H65.1031V56.5469H60.1344V59.9062C62.6422 59.9062 64.4 59.8125 66.4781 59.4531L66.6188 60.4688C64.4469 60.8359 62.6266 60.9141 59.9938 60.9219H58.9V51.6406H65.4156ZM67.8219 64.2656V50.375H69.0406V55.9688H71.3688V57.0156H69.0406V64.2656H67.8219ZM83.2675 50.3906V60.5469H82.0488V50.3906H83.2675ZM72.1269 54.7656C72.1191 52.7656 73.6894 51.3672 75.7675 51.3594C77.8456 51.3672 79.4003 52.7656 79.4081 54.7656C79.4003 56.7891 77.8456 58.1953 75.7675 58.1875C73.6894 58.1953 72.1191 56.7891 72.1269 54.7656ZM73.33 54.7656C73.3144 56.1484 74.3613 57.1094 75.7675 57.1094C77.1503 57.1094 78.205 56.1484 78.205 54.7656C78.205 53.4062 77.1503 52.4375 75.7675 52.4375C74.3613 52.4375 73.3144 53.4062 73.33 54.7656ZM74.2988 63.9688V59.5156H75.5175V62.9375H83.705V63.9688H74.2988ZM89.8538 51.3906C92.0334 51.3984 93.5803 52.7266 93.5881 54.6562C93.5803 56.5938 92.0334 57.9141 89.8538 57.9219C87.6584 57.9141 86.0959 56.5938 86.1038 54.6562C86.0959 52.7266 87.6584 51.3984 89.8538 51.3906ZM85.385 60.1875C87.9475 60.1953 91.4866 60.1719 94.5569 59.7188L94.6506 60.625C91.4709 61.2188 88.0569 61.2344 85.5569 61.2344L85.385 60.1875ZM87.3069 54.6562C87.2991 55.9531 88.3694 56.8438 89.8538 56.8438C91.3225 56.8438 92.3928 55.9531 92.385 54.6562C92.3928 53.3672 91.3225 52.4688 89.8538 52.4688C88.3694 52.4688 87.2991 53.3672 87.3069 54.6562ZM95.4788 64.2969V50.375H96.6975V64.2969H95.4788ZM106.651 53.1406C106.659 54.6797 107.729 56.2344 109.511 56.9062L108.87 57.8438C107.534 57.3281 106.573 56.3359 106.073 55.1406C105.565 56.4609 104.565 57.6406 103.198 58.2344L102.526 57.2812C104.354 56.4844 105.472 54.6875 105.479 53.1406V51.25H106.651V53.1406ZM105.058 61.7656C105.042 60.1953 106.823 59.2734 109.714 59.2812C112.589 59.2734 114.378 60.1953 114.386 61.7656C114.378 63.3203 112.589 64.2344 109.714 64.2344C106.823 64.2344 105.042 63.3203 105.058 61.7656ZM106.276 61.7656C106.261 62.7109 107.581 63.2891 109.714 63.2812C111.823 63.2891 113.151 62.7109 113.167 61.7656C113.151 60.8047 111.823 60.2266 109.714 60.2188C107.581 60.2266 106.261 60.8047 106.276 61.7656ZM110.136 58.5312V50.6562H111.292V54.125H113.136V50.3906H114.308V58.9688H113.136V55.1406H111.292V58.5312H110.136ZM126.878 50.375V53.9062H128.972V54.9531H126.878V58.5312H125.659V50.375H126.878ZM116.003 57.4219C119.409 56.5 121.511 54.6406 121.761 52.2812H116.628V51.2656H123.066C123.058 54.7812 120.605 57.2891 116.503 58.375L116.003 57.4219ZM117.784 60.1719V59.1719H126.878V64.2656H125.659V60.1719H117.784ZM140.527 50.375V56.1094H142.636V57.1406H140.527V64.2656H139.292V50.375H140.527ZM129.48 60.4219C131.574 58.2734 132.425 55.6875 132.582 52.9219H129.917V51.8906H133.746C133.73 55.1953 132.988 58.4609 130.464 61.125L129.48 60.4219ZM133.464 61.3594C135.636 58.9062 136.285 55.8203 136.402 52.9219H134.183V51.8906H137.558C137.55 55.1875 137.066 59.0234 134.464 62.0469L133.464 61.3594ZM148.004 54.6406C148.012 57 149.723 59.3984 151.769 60.2812L151.082 61.25C149.457 60.5156 148.058 58.9141 147.41 56.9922C146.762 59.0312 145.355 60.7969 143.769 61.5938L143.035 60.625C145.027 59.6719 146.762 57.0469 146.769 54.6406V52.8281H143.488V51.8125H151.316V52.8281H148.004V54.6406ZM153.254 64.2656V50.375H154.488V64.2656H153.254ZM172.958 61.4531V62.4844H160.239V61.4531H165.958V58.0625H161.739V51.5469H171.379V58.0625H167.161V61.4531H172.958ZM162.942 57.0781H170.192V52.5312H162.942V57.0781ZM184.825 55.5781V56.5625H175.497V51.2031H184.637V52.2188H176.747V55.5781H184.825ZM173.731 59.4062V58.4062H186.45V59.4062H180.653V64.2188H179.45V59.4062H173.731ZM201.794 50.3906V54.5938H203.872V55.625H201.794V59.7031H200.56V50.3906H201.794ZM190.888 58.2812C191.997 58.2812 193.294 58.2812 194.654 58.2422V57.2188C193.037 57.0703 191.99 56.3281 191.997 55.1719C191.99 53.9062 193.294 53.125 195.247 53.125C197.216 53.125 198.497 53.9062 198.513 55.1719C198.497 56.3203 197.482 57.0625 195.872 57.2188V58.1953C197.169 58.1328 198.482 58.0234 199.701 57.8438L199.81 58.7344C196.794 59.2656 193.474 59.2891 191.029 59.2812L190.888 58.2812ZM191.232 52.5938V51.6562H194.654V50.2656H195.872V51.6562H199.279V52.5938H191.232ZM192.591 61.375V60.3906H201.794V64.2656H200.56V61.375H192.591ZM193.169 55.1719C193.162 55.8984 193.966 56.3906 195.247 56.375C196.529 56.3906 197.341 55.8984 197.341 55.1719C197.341 54.4375 196.529 53.9844 195.247 54C193.966 53.9844 193.162 54.4375 193.169 55.1719ZM215.928 50.3906V60.5469H214.709V50.3906H215.928ZM204.787 54.7656C204.779 52.7656 206.349 51.3672 208.428 51.3594C210.506 51.3672 212.06 52.7656 212.068 54.7656C212.06 56.7891 210.506 58.1953 208.428 58.1875C206.349 58.1953 204.779 56.7891 204.787 54.7656ZM205.99 54.7656C205.974 56.1484 207.021 57.1094 208.428 57.1094C209.81 57.1094 210.865 56.1484 210.865 54.7656C210.865 53.4062 209.81 52.4375 208.428 52.4375C207.021 52.4375 205.974 53.4062 205.99 54.7656ZM206.959 63.9688V59.5156H208.178V62.9375H216.365V63.9688H206.959ZM224.904 52.7812V53.7812H217.936V52.7812H220.826V50.7969H222.045V52.7812H224.904ZM218.436 57.875C218.436 56.0312 219.693 54.7266 221.42 54.7188C223.17 54.7266 224.42 56.0312 224.436 57.875C224.42 59.7422 223.17 61.0547 221.42 61.0625C219.693 61.0547 218.436 59.7422 218.436 57.875ZM219.529 57.875C219.529 59.1094 220.318 59.9922 221.42 59.9844C222.529 59.9922 223.342 59.1094 223.342 57.875C223.342 56.6562 222.529 55.7656 221.42 55.75C220.318 55.7656 219.529 56.6562 219.529 57.875ZM225.623 63.5781V50.7188H226.779V56.2344H228.623V50.375H229.795V64.2656H228.623V57.25H226.779V63.5781H225.623ZM247.889 61.4688V62.4844H235.171V61.4688H240.889V58.4688H236.671V51.3594H237.905V53.875H245.124V51.3594H246.327V58.4688H242.092V61.4688H247.889ZM237.905 57.4688H245.124V54.875H237.905V57.4688ZM252.804 54.3281C252.804 56.5391 253.882 58.9219 255.726 60.0156L255.023 60.9688C253.679 60.1562 252.718 58.6719 252.233 56.9766C251.726 58.8281 250.694 60.4219 249.304 61.2656L248.523 60.3438C250.444 59.2188 251.616 56.7578 251.616 54.375V51.6875H252.804V54.3281ZM254.194 56.4062V55.3594H256.554V50.6719H257.71V63.5625H256.554V56.4062H254.194ZM259.398 64.2656V50.375H260.585V64.2656H259.398ZM274.906 61.4531V62.4844H262.187V61.4531H265.343V57.7109C264.156 57.0938 263.437 56.0938 263.437 54.8281C263.437 52.6797 265.546 51.2656 268.515 51.25C271.484 51.2656 273.593 52.6797 273.593 54.8281C273.593 56.0703 272.898 57.0547 271.749 57.6719V61.4531H274.906ZM264.624 54.8281C264.617 56.3828 266.234 57.4219 268.515 57.4219C270.773 57.4219 272.406 56.3828 272.406 54.8281C272.406 53.2734 270.773 52.25 268.515 52.2656C266.234 52.25 264.617 53.2734 264.624 54.8281ZM266.546 61.4531H270.515V58.1484C269.913 58.3047 269.242 58.3906 268.515 58.3906C267.804 58.3906 267.14 58.3125 266.546 58.1562V61.4531ZM277.164 63.0938C276.617 63.0859 276.148 62.6328 276.164 62.0781C276.148 61.5312 276.617 61.0781 277.164 61.0781C277.718 61.0781 278.172 61.5312 278.164 62.0781C278.172 62.6328 277.718 63.0859 277.164 63.0938Z" fill="white"/>
<path d="M8.53125 26.7188V28.2812H5.65625C5.67969 29.7344 6.69531 31.1875 8.98438 31.7812L8.07812 33.3438C6.46094 32.9141 5.34375 32.0156 4.70312 30.875C4.07812 32.1719 2.9375 33.2031 1.26562 33.7031L0.3125 32.1406C2.60156 31.5156 3.65625 29.9062 3.67188 28.2812H0.8125V26.7188H3.67188V25.1562H5.6875V26.7188H8.53125ZM2.17188 36.7656C2.16406 35.0391 4.01562 34.0625 7.04688 34.0625C10.0156 34.0625 11.8359 35.0391 11.8438 36.7656C11.8359 38.4453 10.0156 39.4219 7.04688 39.4219C4.01562 39.4219 2.16406 38.4453 2.17188 36.7656ZM4.17188 36.7656C4.15625 37.5391 5.15625 37.9219 7.04688 37.9219C8.89062 37.9219 9.875 37.5391 9.875 36.7656C9.875 35.9531 8.89062 35.5938 7.04688 35.5938C5.15625 35.5938 4.15625 35.9531 4.17188 36.7656ZM9.70312 33.7969V25.2188H11.7031V28.5938H13.625V30.2031H11.7031V33.7969H9.70312ZM25.2113 25.2188V28.5156H27.1331V30.1719H25.2113V33.5H23.2113V25.2188H25.2113ZM14.3519 32.8281V26.0781H16.3363V27.8906H19.2425V26.0781H21.2425V32.8281H14.3519ZM15.305 35.7188V34.125H20.0081V39.4219H18.0394V35.7188H15.305ZM16.3363 31.2656H19.2425V29.4219H16.3363V31.2656ZM20.6488 35.7188V34.125H25.2113V39.4219H23.2425V35.7188H20.6488ZM33.9225 25.4219C37.1959 25.4219 39.0866 26.2812 39.0944 27.8438C39.0866 29.4297 37.1959 30.2812 33.9225 30.2812C30.6413 30.2812 28.735 29.4297 28.735 27.8438C28.735 26.2812 30.6413 25.4219 33.9225 25.4219ZM27.4381 32.5312V30.9531H40.4069V32.5312H27.4381ZM28.9381 34.8125V33.3594H38.8288V36.9844H30.9069V37.8438H39.2038V39.3438H28.9538V35.5938H36.86V34.8125H28.9381ZM30.8288 27.8438C30.8209 28.5391 31.8366 28.8125 33.9225 28.8125C36.0241 28.8125 37.0319 28.5391 37.0319 27.8438C37.0319 27.2109 36.0241 26.875 33.9225 26.875C31.8366 26.875 30.8209 27.2109 30.8288 27.8438ZM53.9619 36.1562V37.7812H40.9463V36.1562H46.4306V33.5312H42.3213V26.125H44.3213V28.3281H50.5244V26.125H52.5088V33.5312H48.415V36.1562H53.9619ZM44.3213 31.9375H50.5244V29.9219H44.3213V31.9375ZM65.6731 25.2188V30.5938H67.7669V32.2344H65.6731V39.4688H63.7044V25.2188H65.6731ZM55.0325 28.0156V26.4062H61.6106V31.9219H57.0325V34.5C59.1028 34.4922 60.8138 34.3984 62.7044 34.0781L62.8763 35.6719C60.7044 36.0703 58.7513 36.1562 56.2513 36.1562H55.0481V30.3438H59.6263V28.0156H55.0325Z" fill="#A397FF"/>
</svg>
