<svg width="32" height="32" viewBox="0 0 32 32" fill="none" xmlns="http://www.w3.org/2000/svg">
<g filter="url(#filter0_d_286_1125)">
<circle cx="16" cy="16" r="12" fill="white" fill-opacity="0.4" shape-rendering="crispEdges"/>
<circle cx="16" cy="16" r="11.65" stroke="white" stroke-opacity="0.2" stroke-width="0.7" shape-rendering="crispEdges"/>
</g>
<path d="M15.9144 19.9324L12.9744 21.1924C12.6744 21.3224 12.3894 21.2986 12.1194 21.1211C11.8494 20.9435 11.7144 20.6923 11.7144 20.3674V11.7574C11.7144 11.5174 11.8044 11.3074 11.9844 11.1274C12.1644 10.9474 12.3744 10.8574 12.6144 10.8574H19.2144C19.4544 10.8574 19.6644 10.9474 19.8444 11.1274C20.0244 11.3074 20.1144 11.5174 20.1144 11.7574V20.3674C20.1144 20.6923 19.9794 20.9435 19.7094 21.1211C19.4394 21.2986 19.1544 21.3224 18.8544 21.1924L15.9144 19.9324ZM15.9144 18.9724L19.2144 20.3674V11.7574H12.6144V20.3674L15.9144 18.9724ZM15.9144 11.7574H12.6144H19.2144H15.9144Z" fill="white"/>
<defs>
<filter id="filter0_d_286_1125" x="0" y="0" width="32" height="32" filterUnits="userSpaceOnUse" color-interpolation-filters="sRGB">
<feFlood flood-opacity="0" result="BackgroundImageFix"/>
<feColorMatrix in="SourceAlpha" type="matrix" values="0 0 0 0 0 0 0 0 0 0 0 0 0 0 0 0 0 0 127 0" result="hardAlpha"/>
<feOffset/>
<feGaussianBlur stdDeviation="2"/>
<feComposite in2="hardAlpha" operator="out"/>
<feColorMatrix type="matrix" values="0 0 0 0 0 0 0 0 0 0 0 0 0 0 0 0 0 0 0.15 0"/>
<feBlend mode="normal" in2="BackgroundImageFix" result="effect1_dropShadow_286_1125"/>
<feBlend mode="normal" in="SourceGraphic" in2="effect1_dropShadow_286_1125" result="shape"/>
</filter>
</defs>
</svg>
