<svg width="29" height="29" viewBox="0 0 29 29" fill="none" xmlns="http://www.w3.org/2000/svg">
<g id="&#235;&#139;&#171;&#234;&#184;&#176;">
<path id="Vector" d="M15 15.4483L7.75862 22.6897C7.55172 22.8966 7.31034 23 7.03448 23C6.75862 23 6.51724 22.8966 6.31034 22.6897C6.10345 22.4828 6 22.2414 6 21.9655C6 21.6897 6.10345 21.4483 6.31034 21.2414L13.5517 14L6.31034 6.75862C6.10345 6.55172 6 6.31034 6 6.03448C6 5.75862 6.10345 5.51724 6.31034 5.31034C6.51724 5.10345 6.75862 5 7.03448 5C7.31034 5 7.55172 5.10345 7.75862 5.31034L15 12.5517L22.2414 5.31034C22.4483 5.10345 22.6897 5 22.9655 5C23.2414 5 23.4828 5.10345 23.6897 5.31034C23.8966 5.51724 24 5.75862 24 6.03448C24 6.31034 23.8966 6.55172 23.6897 6.75862L16.4483 14L23.6897 21.2414C23.8966 21.4483 24 21.6897 24 21.9655C24 22.2414 23.8966 22.4828 23.6897 22.6897C23.4828 22.8966 23.2414 23 22.9655 23C22.6897 23 22.4483 22.8966 22.2414 22.6897L15 15.4483Z" fill="white"/>
</g>
</svg>
