<svg width="20" height="21" viewBox="0 0 20 21" fill="none" xmlns="http://www.w3.org/2000/svg">
<g id="&#240;&#159;&#166;&#134; icon &#34;light bulb on&#34;">
<path id="Vector" d="M19.256 0.76123L18.2734 1.74304" stroke="white" stroke-width="1.47381" stroke-linecap="round" stroke-linejoin="round"/>
<path id="Vector_2" d="M1.56982 0.76123L2.55236 1.74304" stroke="white" stroke-width="1.47381" stroke-linecap="round" stroke-linejoin="round"/>
<path id="Vector_3" d="M19.256 14.5067L18.2734 13.5249" stroke="white" stroke-width="1.47381" stroke-linecap="round" stroke-linejoin="round"/>
<path id="Vector_4" d="M1.56982 14.5067L2.55236 13.5249" stroke="white" stroke-width="1.47381" stroke-linecap="round" stroke-linejoin="round"/>
<path id="Vector_5" d="M7.46484 16.4702H13.3601" stroke="white" stroke-width="1.47381" stroke-linecap="round" stroke-linejoin="round"/>
<path id="Vector_6" d="M8.44727 19.4155H12.3774" stroke="white" stroke-width="1.47381" stroke-linecap="round" stroke-linejoin="round"/>
<path id="Vector_7" d="M10.4131 1.74316C6.48283 1.74316 4.47075 3.65798 4.5179 6.65221C4.54088 8.11205 5.00902 9.10673 5.99171 10.0885C6.97439 11.0704 7.46566 11.5613 7.46551 13.5249H13.3607C13.3609 11.5614 13.8522 11.0704 14.8344 10.0886C15.8168 9.10683 16.2854 8.11205 16.3083 6.65221C16.3555 3.65798 14.3434 1.74316 10.4131 1.74316Z" stroke="white" stroke-width="1.47381" stroke-linecap="round" stroke-linejoin="round"/>
</g>
</svg>
