<svg width="93" height="37" viewBox="0 0 93 37" fill="none" xmlns="http://www.w3.org/2000/svg">
<path d="M24.9648 11.9258V20.8945H23.666V16.2871H21.3281V15.2344H23.666V11.9258H24.9648ZM14.7656 18.3379C16.6455 17.7021 17.8213 16.0889 17.8145 14.4004V13.9219H15.1621V12.8555H21.7656V13.9219H19.1406V14.4004C19.1338 15.9248 20.2412 17.4629 22.0938 18.0781L21.4238 19.1172C20.0498 18.6387 19.0312 17.6543 18.498 16.4375C17.9648 17.791 16.8916 18.8711 15.4355 19.3906L14.7656 18.3379ZM17.0078 23.9023V20.0879H18.3066V22.8496H25.293V23.9023H17.0078ZM30.5156 15.6719C30.5156 17.5996 31.4111 19.5615 33.0996 20.4707L32.375 21.4277C31.1855 20.7988 30.3652 19.6299 29.9209 18.2422C29.4834 19.7256 28.6631 21.0039 27.4805 21.7148L26.7148 20.7305C28.4102 19.7461 29.2852 17.6475 29.2988 15.6719V15.1797H27.084V14.1133H29.2988V12.3496H30.5156V14.1133H32.6895V15.1797H30.5156V15.6719ZM31.8828 17.7637V16.6836H33.6465V12.1719H34.877V23.5469H33.6465V17.7637H31.8828ZM36.1211 24.1621V11.9121H37.3652V24.1621H36.1211ZM50.1621 21.5645V22.6445H38.9512V21.5645H43.8867V19.0488H40.2363V12.7461H41.5352V14.8516H47.5508V12.7461H48.8359V19.0488H45.1719V21.5645H50.1621ZM41.5352 17.9961H47.5508V15.9043H41.5352V17.9961ZM61.2363 11.9121V24.1621H59.9238V11.9121H61.2363ZM51.1738 20.8809C54.4277 19.3291 56.0205 17.1211 56.2734 14.2637H51.7617V13.2246H57.5859C57.5859 16.8135 56.0615 19.917 51.8574 21.9336L51.1738 20.8809Z" fill="white"/>
<path d="M73.3109 18.4719L68.8812 14.0422C68.7781 13.9391 68.7266 13.8102 68.7266 13.6555C68.7266 13.5008 68.7781 13.3672 68.8812 13.2547C68.9937 13.1422 69.1273 13.0859 69.282 13.0859C69.4367 13.0859 69.5703 13.1422 69.6828 13.2547L74.3094 17.8812C74.3937 17.9656 74.4547 18.0594 74.4922 18.1625C74.5297 18.2656 74.5484 18.3688 74.5484 18.4719C74.5484 18.575 74.5297 18.6781 74.4922 18.7812C74.4547 18.8844 74.3937 18.9781 74.3094 19.0625L69.6687 23.7031C69.5562 23.8156 69.425 23.8695 69.275 23.8648C69.125 23.8602 68.9937 23.8016 68.8812 23.6891C68.7781 23.5766 68.7242 23.4453 68.7195 23.2953C68.7148 23.1453 68.7687 23.0141 68.8812 22.9016L73.3109 18.4719Z" fill="white"/>
<rect x="0.5" y="0.5" width="91.5" height="36" rx="18" stroke="#DEDDDD"/>
</svg>
