<svg width="21" height="21" viewBox="0 0 21 21" fill="none" xmlns="http://www.w3.org/2000/svg">
<g id="&#240;&#159;&#166;&#134; icon &#34;chat bubble&#34;">
<path id="Vector" d="M15.2944 11.1894C15.547 11.1894 15.7519 10.9845 15.7519 10.7319C15.7519 10.4793 15.547 10.2744 15.2944 10.2744C15.0418 10.2744 14.8369 10.4793 14.8369 10.7319C14.8369 10.9845 15.0418 11.1894 15.2944 11.1894Z" fill="white" stroke="white" stroke-width="1.35631" stroke-linecap="round" stroke-linejoin="round"/>
<path id="Vector_2" d="M10.7197 11.1894C10.9723 11.1894 11.1772 10.9845 11.1772 10.7319C11.1772 10.4793 10.9723 10.2744 10.7197 10.2744C10.4671 10.2744 10.2622 10.4793 10.2622 10.7319C10.2622 10.9845 10.4671 11.1894 10.7197 11.1894Z" fill="white" stroke="white" stroke-width="1.35631" stroke-linecap="round" stroke-linejoin="round"/>
<path id="Vector_3" d="M6.14499 11.1894C6.39765 11.1894 6.60247 10.9845 6.60247 10.7319C6.60247 10.4793 6.39765 10.2744 6.14499 10.2744C5.89233 10.2744 5.6875 10.4793 5.6875 10.7319C5.6875 10.9845 5.89233 11.1894 6.14499 11.1894Z" fill="white" stroke="white" stroke-width="1.35631" stroke-linecap="round" stroke-linejoin="round"/>
<path id="Vector_4" d="M10.7195 19.8742C15.7727 19.8742 19.8693 15.7808 19.8693 10.7313C19.8693 5.68181 15.7727 1.58838 10.7195 1.58838C5.66629 1.58838 1.56982 5.68181 1.56982 10.7313C1.56982 12.3966 2.01539 13.9579 2.79389 15.3028L2.02731 19.4171L6.14468 18.6511C7.49049 19.429 9.05301 19.8742 10.7195 19.8742Z" stroke="white" stroke-width="1.35631" stroke-linecap="round" stroke-linejoin="round"/>
</g>
</svg>
