<svg width="174" height="25" viewBox="0 0 174 25" fill="none" xmlns="http://www.w3.org/2000/svg">
<rect width="174" height="25" rx="12.5" fill="#5A45F5"/>
<path d="M63.2461 17.6016H61.7344V6.91406H63.2461V17.6016ZM57.457 7.66406C57.9922 7.66406 58.4707 7.82031 58.8926 8.13281C59.3184 8.44531 59.6523 8.88867 59.8945 9.46289C60.1367 10.0371 60.2578 10.7031 60.2578 11.4609C60.2578 12.2266 60.1367 12.8984 59.8945 13.4766C59.6523 14.0508 59.3184 14.4941 58.8926 14.8066C58.4707 15.1152 57.9922 15.2695 57.457 15.2695C56.9102 15.2695 56.4219 15.1152 55.9922 14.8066C55.5625 14.4941 55.2266 14.0508 54.9844 13.4766C54.7461 12.8984 54.6289 12.2266 54.6328 11.4609C54.6289 10.7031 54.7461 10.0371 54.9844 9.46289C55.2266 8.88867 55.5625 8.44531 55.9922 8.13281C56.4219 7.82031 56.9102 7.66406 57.457 7.66406ZM57.457 9.01172C57.1797 9.01172 56.9355 9.10742 56.7246 9.29883C56.5176 9.48633 56.3574 9.76367 56.2441 10.1309C56.1309 10.498 56.0742 10.9414 56.0742 11.4609C56.0742 11.9844 56.1309 12.4297 56.2441 12.7969C56.3574 13.1641 56.5176 13.4414 56.7246 13.6289C56.9355 13.8164 57.1797 13.9102 57.457 13.9102C57.7305 13.9102 57.9688 13.8164 58.1719 13.6289C58.375 13.4375 58.5332 13.1582 58.6465 12.791C58.7598 12.4238 58.8164 11.9805 58.8164 11.4609C58.8164 10.9453 58.7598 10.5039 58.6465 10.1367C58.5332 9.76562 58.373 9.48633 58.166 9.29883C57.9629 9.10742 57.7266 9.01172 57.457 9.01172ZM74.4141 13.1602H64.6875V11.9648H66.8789V10.6875C66.4844 10.5117 66.1816 10.293 65.9707 10.0312C65.7637 9.76953 65.6602 9.46875 65.6602 9.12891C65.6602 8.70312 65.8184 8.33594 66.1348 8.02734C66.4512 7.71484 66.9023 7.47656 67.4883 7.3125C68.0742 7.14844 68.7617 7.06641 69.5508 7.06641C70.332 7.06641 71.0137 7.14844 71.5957 7.3125C72.1777 7.47656 72.627 7.71484 72.9434 8.02734C73.2637 8.33594 73.4258 8.70312 73.4297 9.12891C73.4258 9.46875 73.3164 9.77344 73.1016 10.043C72.8867 10.3086 72.5781 10.5273 72.1758 10.6992V11.9648H74.4141V13.1602ZM69.5391 13.7227C70.3086 13.7227 70.9707 13.7969 71.5254 13.9453C72.0801 14.0938 72.5059 14.3105 72.8027 14.5957C73.0996 14.8809 73.25 15.2266 73.2539 15.6328C73.25 16.0469 73.0996 16.3984 72.8027 16.6875C72.5059 16.9766 72.0801 17.1953 71.5254 17.3438C70.9707 17.4922 70.3086 17.5664 69.5391 17.5664C68.7578 17.5664 68.0879 17.4922 67.5293 17.3438C66.9707 17.1953 66.543 16.9766 66.2461 16.6875C65.9492 16.3984 65.8008 16.0469 65.8008 15.6328C65.8008 15.2266 65.9492 14.8809 66.2461 14.5957C66.543 14.3105 66.9707 14.0938 67.5293 13.9453C68.0879 13.7969 68.7578 13.7227 69.5391 13.7227ZM69.5391 14.8477C68.0508 14.8477 67.3125 15.1094 67.3242 15.6328C67.3125 16.1797 68.0508 16.4531 69.5391 16.4531C71.0039 16.4531 71.7422 16.1797 71.7539 15.6328C71.7422 15.1094 71.0039 14.8477 69.5391 14.8477ZM69.5508 8.21484C68.793 8.21484 68.2129 8.29297 67.8105 8.44922C67.4121 8.60547 67.2148 8.83203 67.2188 9.12891C67.2148 9.41797 67.4121 9.63672 67.8105 9.78516C68.209 9.93359 68.7891 10.0078 69.5508 10.0078C70.3047 10.0078 70.8809 9.93359 71.2793 9.78516C71.6816 9.63672 71.8828 9.41797 71.8828 9.12891C71.8828 8.83203 71.6816 8.60547 71.2793 8.44922C70.877 8.29297 70.3008 8.21484 69.5508 8.21484ZM70.6875 11.9648V11.0742C70.3516 11.1133 69.9727 11.1328 69.5508 11.1328C69.1055 11.1328 68.7188 11.1113 68.3906 11.0684V11.9648H70.6875ZM77.0156 8.82422H79.1133V7.45312H80.5898V9.35156H82.5586V6.91406H84.0469V12.75H82.5586V10.5703H80.5898V12.4453H75.5156V7.45312H77.0156V8.82422ZM79.1133 11.25V9.97266H77.0156V11.25H79.1133ZM78.4102 14.1797H82.5586V13.1953H84.0469V17.4375H76.9336V13.1953H78.4102V14.1797ZM82.5586 16.2422V15.3281H78.4102V16.2422H82.5586ZM97.957 16.3359H88.1953V15.1172H92.3086V13.1484H89.2266V7.59375H90.7266V9.24609H95.3789V7.59375H96.8672V13.1484H93.7969V15.1172H97.957V16.3359ZM95.3789 11.9531V10.4414H90.7266V11.9531H95.3789ZM107.531 17.5781H106.02V6.91406H107.531V17.5781ZM104.332 8.02734C104.332 9.16797 104.178 10.2051 103.869 11.1387C103.564 12.0723 103.049 12.9297 102.322 13.7109C101.596 14.4883 100.617 15.168 99.3867 15.75L98.6016 14.5547C99.5117 14.125 100.262 13.6465 100.852 13.1191C101.445 12.5918 101.898 12.0078 102.211 11.3672C102.527 10.7227 102.727 10 102.809 9.19922H99.1758V8.02734H104.332ZM112.406 16.3945V14.7422L116.355 13.1426V13.0723L112.406 11.4727V9.82031L118.219 12.3984V13.8281L112.406 16.3945Z" fill="white"/>
</svg>
