<svg width="16" height="16" viewBox="0 0 16 16" fill="none" xmlns="http://www.w3.org/2000/svg">
<g id="info_FILL0_wght400_GRAD0_opsz48 1">
<path id="Vector" d="M8.05296 11.333C8.19546 11.333 8.31393 11.2851 8.40837 11.1893C8.50282 11.0934 8.55004 10.9747 8.55004 10.833V7.83301C8.55004 7.69134 8.50185 7.57259 8.40546 7.47676C8.30906 7.38092 8.18961 7.33301 8.04712 7.33301C7.90462 7.33301 7.78615 7.38092 7.69171 7.47676C7.59726 7.57259 7.55004 7.69134 7.55004 7.83301V10.833C7.55004 10.9747 7.59823 11.0934 7.69462 11.1893C7.79102 11.2851 7.91047 11.333 8.05296 11.333ZM7.99974 6.09967C8.1555 6.09967 8.28615 6.04856 8.39171 5.94634C8.49726 5.84412 8.55004 5.71745 8.55004 5.56634C8.55004 5.40579 8.49736 5.2712 8.39201 5.16259C8.28664 5.05398 8.15609 4.99967 8.00034 4.99967C7.84458 4.99967 7.71393 5.05398 7.60837 5.16259C7.50282 5.2712 7.45004 5.40579 7.45004 5.56634C7.45004 5.71745 7.50272 5.84412 7.60807 5.94634C7.71344 6.04856 7.844 6.09967 7.99974 6.09967ZM8.00447 14.6663C7.08521 14.6663 6.22132 14.4913 5.41281 14.1413C4.6043 13.7913 3.89726 13.3136 3.29171 12.708C2.68615 12.1025 2.20837 11.395 1.85837 10.5857C1.50837 9.77632 1.33337 8.91155 1.33337 7.99134C1.33337 7.07113 1.50837 6.20636 1.85837 5.39702C2.20837 4.58768 2.68615 3.88301 3.29171 3.28301C3.89726 2.68301 4.60471 2.20801 5.41406 1.85801C6.22339 1.50801 7.08816 1.33301 8.00837 1.33301C8.92858 1.33301 9.79336 1.50801 10.6027 1.85801C11.412 2.20801 12.1167 2.68301 12.7167 3.28301C13.3167 3.88301 13.7917 4.58856 14.1417 5.39967C14.4917 6.21079 14.6667 7.07597 14.6667 7.99524C14.6667 8.91451 14.4917 9.7784 14.1417 10.5869C13.7917 11.3954 13.3167 12.1014 12.7167 12.7049C12.1167 13.3085 11.4112 13.7862 10.6 14.1383C9.78893 14.4903 8.92374 14.6663 8.00447 14.6663ZM8.00837 13.6663C9.5806 13.6663 10.9167 13.1136 12.0167 12.008C13.1167 10.9025 13.6667 9.56356 13.6667 7.99134C13.6667 6.41912 13.1178 5.08301 12.0198 3.98301C10.9219 2.88301 9.58198 2.33301 8.00004 2.33301C6.43337 2.33301 5.09726 2.88196 3.99171 3.97987C2.88615 5.0778 2.33337 6.41773 2.33337 7.99967C2.33337 9.56634 2.88615 10.9025 3.99171 12.008C5.09726 13.1136 6.43615 13.6663 8.00837 13.6663Z" fill="#1A1920"/>
</g>
</svg>
