<svg width="191" height="37" viewBox="0 0 191 37" fill="none" xmlns="http://www.w3.org/2000/svg">
<rect width="190.5" height="37" rx="18.5" fill="#5A45F5"/>
<path d="M38.7324 12.7598C40.5918 12.7598 41.9316 14.4551 41.9453 17.1211C41.9316 19.8076 40.5918 21.4961 38.7324 21.4961C36.8525 21.4961 35.5127 19.8076 35.5195 17.1211C35.5127 14.4551 36.8525 12.7598 38.7324 12.7598ZM36.9824 17.1211C36.9756 19.0215 37.6934 20.1221 38.7324 20.1289C39.7783 20.1221 40.4756 19.0215 40.4824 17.1211C40.4756 15.2344 39.7783 14.127 38.7324 14.127C37.6934 14.127 36.9756 15.2344 36.9824 17.1211ZM43.5723 24.2168V11.8574H45.0898V16.6016H46.9902V17.8867H45.0898V24.2168H43.5723ZM54.4141 12.9238V14.168H49.7246V16.3691H53.9219V17.5723H49.7246V20.1152C51.748 20.1084 53.293 20.0332 55.0703 19.7461L55.2207 20.9766C53.2725 21.2842 51.5361 21.3457 49.2598 21.3457H48.2207V12.9238H54.4141ZM56.3008 24.2168V11.8574H57.832V24.2168H56.3008ZM69.5215 12.3633V13.3887C69.5283 14.3525 69.5283 15.4053 69.2617 16.7246H70.8477V17.9414H59.6367V16.7246H67.751C67.833 16.2871 67.8877 15.8838 67.9287 15.501L60.8672 15.7949L60.6895 14.6191L67.9902 14.4414C68.0039 14.1406 68.0039 13.8535 68.0039 13.5664H61.0039V12.3633H69.5215ZM60.8809 19.9922V18.8301H69.5898V21.9473H62.4121V22.877H70.0273V24.0664H60.9082V20.8398H68.0723V19.9922H60.8809ZM86.3105 16.8066V18.0098H75.0312V16.8066H86.3105ZM76.3574 20.0059V18.8574H84.8887V21.9609H77.8613V22.9043H85.2305V24.0938H76.3711V20.8672H83.3984V20.0059H76.3574ZM76.4668 16.0137V12.1719H84.8613V13.3887H77.9844V14.8105H84.9707V16.0137H76.4668ZM92.75 12.5547C95.3545 12.5547 97.3643 13.9424 97.3574 16.041C97.3643 18.167 95.3545 19.5547 92.75 19.5547C90.1592 19.5547 88.1631 18.167 88.1699 16.041C88.1631 13.9424 90.1592 12.5547 92.75 12.5547ZM87.1309 22.6582V21.4141H98.4238V22.6582H87.1309ZM89.6328 16.041C89.626 17.4424 90.9521 18.3037 92.75 18.3105C94.5547 18.3037 95.8672 17.4424 95.8672 16.041C95.8672 14.6738 94.5547 13.7715 92.75 13.7852C90.9521 13.7715 89.626 14.6738 89.6328 16.041ZM109.58 11.8574V24.2305H108.062V17.6543H105.943V16.4102H108.062V11.8574H109.58ZM99.6406 14.168V12.9375H105.232V17.4629H101.186V20.0605C103.024 20.0537 104.501 19.9922 106.162 19.6914L106.285 20.9355C104.446 21.2568 102.792 21.3252 100.666 21.332H99.6816V16.2324H103.742V14.168H99.6406ZM124.332 11.8574V16.6836H126.164V17.9551H124.332V24.1895H122.814V11.8574H124.332ZM114.584 20.8125C117.592 19.3086 119.219 17.2168 119.52 14.4004H115.254V13.1426H121.064C121.058 16.7725 119.554 19.9648 115.445 21.9883L114.584 20.8125ZM137.074 11.8574V24.2168H135.543V11.8574H137.074ZM126.834 20.8125C130.074 19.2744 131.564 17.1826 131.838 14.373H127.463V13.1699H133.383C133.383 16.8477 131.954 19.9717 127.627 22.0293L126.834 20.8125Z" fill="white"/>
<path d="M150.311 18.4719L145.881 14.0422C145.778 13.9391 145.727 13.8102 145.727 13.6555C145.727 13.5008 145.778 13.3672 145.881 13.2547C145.994 13.1422 146.127 13.0859 146.282 13.0859C146.437 13.0859 146.57 13.1422 146.683 13.2547L151.309 17.8812C151.394 17.9656 151.455 18.0594 151.492 18.1625C151.53 18.2656 151.548 18.3687 151.548 18.4719C151.548 18.575 151.53 18.6781 151.492 18.7812C151.455 18.8844 151.394 18.9781 151.309 19.0625L146.669 23.7031C146.556 23.8156 146.425 23.8695 146.275 23.8648C146.125 23.8602 145.994 23.8016 145.881 23.6891C145.778 23.5766 145.724 23.4453 145.72 23.2953C145.715 23.1453 145.769 23.0141 145.881 22.9016L150.311 18.4719Z" fill="white"/>
</svg>
