<svg width="246" height="27" viewBox="0 0 246 27" fill="none" xmlns="http://www.w3.org/2000/svg">
<path opacity="0.5" d="M26.6035 1.51562H29.8496C30.4473 1.51562 30.9512 1.60938 31.3613 1.79688C31.7754 1.98438 32.0859 2.24414 32.293 2.57617C32.5 2.9082 32.6035 3.28906 32.6035 3.71875C32.6035 4.20703 32.4668 4.60352 32.1934 4.9082C31.9199 5.21289 31.5605 5.41797 31.1152 5.52344V5.60547C31.4238 5.62109 31.7168 5.71484 31.9941 5.88672C32.2754 6.05859 32.502 6.30078 32.6738 6.61328C32.8457 6.92188 32.9316 7.28125 32.9316 7.69141C32.9316 8.14062 32.8223 8.53906 32.6035 8.88672C32.3887 9.23438 32.0645 9.50781 31.6309 9.70703C31.1973 9.90234 30.666 10 30.0371 10H26.6035V1.51562ZM29.8027 8.72266C30.3379 8.72266 30.7344 8.61914 30.9922 8.41211C31.2539 8.20508 31.3848 7.92578 31.3848 7.57422C31.3848 7.32031 31.3203 7.0918 31.1914 6.88867C31.0664 6.68164 30.8867 6.51953 30.6523 6.40234C30.418 6.28516 30.1465 6.22656 29.8379 6.22656H28.127V8.72266H29.8027ZM29.6621 5.125C29.9316 5.125 30.1738 5.07617 30.3887 4.97852C30.6035 4.87695 30.7715 4.73438 30.8926 4.55078C31.0176 4.36719 31.0801 4.15234 31.0801 3.90625C31.0801 3.56641 30.9609 3.29492 30.7227 3.0918C30.4844 2.88477 30.1426 2.78125 29.6973 2.78125H28.127V5.125H29.6621ZM36.8809 10.1289C36.2715 10.1289 35.7363 9.99219 35.2754 9.71875C34.8145 9.44531 34.459 9.0625 34.209 8.57031C33.959 8.07422 33.834 7.5 33.834 6.84766C33.834 6.19141 33.959 5.61523 34.209 5.11914C34.459 4.62305 34.8145 4.23828 35.2754 3.96484C35.7363 3.69141 36.2715 3.55469 36.8809 3.55469C37.4941 3.55469 38.0312 3.69141 38.4922 3.96484C38.9531 4.23828 39.3066 4.62305 39.5527 5.11914C39.8027 5.61523 39.9277 6.19141 39.9277 6.84766C39.9277 7.5 39.8027 8.07422 39.5527 8.57031C39.3027 9.06641 38.9473 9.45117 38.4863 9.72461C38.0293 9.99414 37.4941 10.1289 36.8809 10.1289ZM36.8926 8.93359C37.2207 8.93359 37.498 8.8418 37.7246 8.6582C37.9551 8.47461 38.127 8.22461 38.2402 7.9082C38.3574 7.5918 38.416 7.23438 38.416 6.83594C38.416 6.44141 38.3574 6.08594 38.2402 5.76953C38.127 5.44922 37.9551 5.19727 37.7246 5.01367C37.498 4.83008 37.2207 4.73828 36.8926 4.73828C36.5566 4.73828 36.2715 4.83008 36.0371 5.01367C35.8066 5.19727 35.6328 5.44727 35.5156 5.76367C35.4023 6.08008 35.3457 6.4375 35.3457 6.83594C35.3457 7.23438 35.4023 7.5918 35.5156 7.9082C35.6328 8.22461 35.8066 8.47461 36.0371 8.6582C36.2715 8.8418 36.5566 8.93359 36.8926 8.93359ZM41.0879 3.63672H42.541V4.69141H42.6113C42.7207 4.33203 42.918 4.05078 43.2031 3.84766C43.4883 3.64453 43.8145 3.54297 44.1816 3.54297C44.4004 3.54297 44.5801 3.55469 44.7207 3.57812V4.96094C44.6543 4.9375 44.5527 4.91602 44.416 4.89648C44.2793 4.87695 44.1504 4.86719 44.0293 4.86719C43.7559 4.86719 43.5098 4.92578 43.291 5.04297C43.0723 5.16016 42.9004 5.32422 42.7754 5.53516C42.6504 5.74609 42.5879 5.98438 42.5879 6.25V10H41.0879V3.63672ZM45.2012 8.20703C45.2012 7.55078 45.4219 7.07812 45.8633 6.78906C46.3086 6.49609 46.877 6.32812 47.5684 6.28516C48.2441 6.23828 48.7871 6.20703 49.1973 6.19141V5.6875C49.1973 5.37109 49.0977 5.12695 48.8984 4.95508C48.6992 4.7793 48.416 4.69141 48.0488 4.69141C47.7246 4.69141 47.459 4.75977 47.252 4.89648C47.0449 5.0332 46.9121 5.21875 46.8535 5.45312H45.4121C45.4473 5.08984 45.5762 4.76562 45.7988 4.48047C46.0215 4.19141 46.3281 3.96484 46.7188 3.80078C47.1094 3.63672 47.5645 3.55469 48.084 3.55469C48.5293 3.55469 48.9473 3.625 49.3379 3.76562C49.7324 3.90234 50.0547 4.13477 50.3047 4.46289C50.5586 4.78711 50.6855 5.21484 50.6855 5.74609V10H49.2559V9.12109H49.209C49.0527 9.41797 48.8184 9.66016 48.5059 9.84766C48.1934 10.0352 47.8027 10.1289 47.334 10.1289C46.9238 10.1289 46.5566 10.0547 46.2324 9.90625C45.9121 9.75781 45.6602 9.53906 45.4766 9.25C45.293 8.96094 45.2012 8.61328 45.2012 8.20703ZM46.6426 8.19531C46.6426 8.46484 46.7402 8.67188 46.9355 8.81641C47.1309 8.95703 47.3926 9.02734 47.7207 9.02734C48.0137 9.02734 48.2734 8.96875 48.5 8.85156C48.7266 8.73438 48.9004 8.57617 49.0215 8.37695C49.1465 8.17383 49.209 7.95312 49.209 7.71484L49.2031 7.19336C49.0273 7.20117 48.7285 7.21875 48.3066 7.24609C48.0801 7.25781 47.9121 7.26953 47.8027 7.28125C47.4355 7.3125 47.1504 7.4043 46.9473 7.55664C46.7441 7.70898 46.6426 7.92188 46.6426 8.19531ZM55.1621 1.1875C55.7129 1.18359 56.209 1.29102 56.6504 1.50977C57.0957 1.72461 57.4434 2.02734 57.6934 2.41797C57.9473 2.80859 58.0762 3.25 58.0801 3.74219C58.0762 4.23828 57.9473 4.68164 57.6934 5.07227C57.4434 5.46289 57.0977 5.76758 56.6562 5.98633C56.2148 6.20117 55.7168 6.30859 55.1621 6.30859C54.6113 6.30859 54.1152 6.19922 53.6738 5.98047C53.2324 5.76172 52.8848 5.45898 52.6309 5.07227C52.3809 4.68164 52.2559 4.23828 52.2559 3.74219C52.2559 3.25 52.3809 2.80859 52.6309 2.41797C52.8848 2.02734 53.2324 1.72461 53.6738 1.50977C54.1191 1.29102 54.6152 1.18359 55.1621 1.1875ZM55.1621 2.3125C54.8535 2.3125 54.5762 2.37109 54.3301 2.48828C54.084 2.60547 53.8906 2.77344 53.75 2.99219C53.6133 3.20703 53.5449 3.45703 53.5449 3.74219C53.5449 4.03125 53.6133 4.28516 53.75 4.50391C53.8906 4.71875 54.084 4.88477 54.3301 5.00195C54.5762 5.11523 54.8535 5.17188 55.1621 5.17188C55.4746 5.17188 55.7539 5.11523 56 5.00195C56.25 4.88477 56.4453 4.71875 56.5859 4.50391C56.7305 4.28516 56.8027 4.03125 56.8027 3.74219C56.8027 3.45703 56.7305 3.20703 56.5859 2.99219C56.4453 2.77344 56.25 2.60547 56 2.48828C55.7539 2.37109 55.4746 2.3125 55.1621 2.3125ZM60.5527 11.0547H59.252V0.449219H60.5527V11.0547ZM51.7754 7.77344C53.0723 7.77344 54.2832 7.75195 55.4082 7.70898C56.5371 7.66211 57.6074 7.56641 58.6191 7.42188L58.7246 8.37109C57.6777 8.57422 56.6133 8.70312 55.5312 8.75781C54.4531 8.8125 53.2559 8.83984 51.9395 8.83984L51.7754 7.77344ZM67.7949 1.22266C68.3262 1.22266 68.7988 1.37695 69.2129 1.68555C69.627 1.99023 69.9512 2.42578 70.1855 2.99219C70.4238 3.55469 70.5449 4.21094 70.5488 4.96094C70.5449 5.71875 70.4238 6.38086 70.1855 6.94727C69.9512 7.51367 69.627 7.94922 69.2129 8.25391C68.7988 8.55859 68.3262 8.71094 67.7949 8.71094C67.2598 8.71094 66.7832 8.55859 66.3652 8.25391C65.9473 7.94531 65.6211 7.50781 65.3867 6.94141C65.1523 6.375 65.0371 5.71484 65.041 4.96094C65.0371 4.21484 65.1523 3.55859 65.3867 2.99219C65.6211 2.42578 65.9473 1.99023 66.3652 1.68555C66.7832 1.37695 67.2598 1.22266 67.7949 1.22266ZM67.7949 2.39453C67.498 2.39453 67.2363 2.49805 67.0098 2.70508C66.7832 2.9082 66.6074 3.20312 66.4824 3.58984C66.3574 3.97266 66.2949 4.42969 66.2949 4.96094C66.2949 5.49609 66.3574 5.95703 66.4824 6.34375C66.6074 6.73047 66.7832 7.02734 67.0098 7.23438C67.2363 7.4375 67.498 7.53906 67.7949 7.53906C68.0957 7.53906 68.3594 7.4375 68.5859 7.23438C68.8125 7.02734 68.9863 6.73047 69.1074 6.34375C69.2324 5.95703 69.2949 5.49609 69.2949 4.96094C69.2949 4.42969 69.2324 3.9707 69.1074 3.58398C68.9863 3.19727 68.8125 2.90234 68.5859 2.69922C68.3594 2.49609 68.0957 2.39453 67.7949 2.39453ZM73.2441 4.51562H74.873V5.61719H73.2441V11.043H71.9434V0.449219H73.2441V4.51562ZM81.2363 2.42969H77.2168V4.31641H80.8145V5.34766H77.2168V7.52734C78.1543 7.52344 78.9727 7.5 79.6719 7.45703C80.3711 7.41016 81.0801 7.32812 81.7988 7.21094L81.9277 8.26562C81.1387 8.38672 80.3535 8.4707 79.5723 8.51758C78.791 8.56055 77.873 8.58203 76.8184 8.58203H75.9277V1.36328H81.2363V2.42969ZM84.166 11.043H82.8535V0.449219H84.166V11.043ZM94.1855 1.76172C94.1855 2.32422 94.1719 2.81641 94.1445 3.23828C94.1211 3.66016 94.0605 4.12109 93.9629 4.62109H95.3223V5.66406H85.7129V4.62109H92.668C92.7305 4.28906 92.7812 3.93945 92.8203 3.57227L86.7676 3.82422L86.6152 2.81641L92.873 2.66406C92.8809 2.49219 92.8848 2.24219 92.8848 1.91406H86.8848V0.882812H94.1855V1.76172ZM94.2441 9.09766H88.0918V9.89453H94.6191V10.9141H86.8027V8.14844H92.9434V7.42188H86.7793V6.42578H94.2441V9.09766ZM100.877 0.613281C101.682 0.613281 102.367 0.683594 102.934 0.824219C103.504 0.964844 103.939 1.17187 104.24 1.44531C104.541 1.71484 104.693 2.04297 104.697 2.42969C104.693 3.01562 104.359 3.46484 103.695 3.77734C103.031 4.08984 102.092 4.25 100.877 4.25781C99.6582 4.25 98.7168 4.08984 98.0527 3.77734C97.3887 3.46484 97.0566 3.01562 97.0566 2.42969C97.0566 2.04297 97.207 1.71484 97.5078 1.44531C97.8086 1.17187 98.2441 0.964844 98.8145 0.824219C99.3848 0.683594 100.072 0.613281 100.877 0.613281ZM100.877 1.57422C100.072 1.57422 99.4609 1.64844 99.043 1.79688C98.625 1.94141 98.4199 2.15234 98.4277 2.42969C98.4238 2.71875 98.627 2.93359 99.0371 3.07422C99.4473 3.21484 100.061 3.28516 100.877 3.28516C101.705 3.28516 102.324 3.21484 102.734 3.07422C103.145 2.93359 103.35 2.71875 103.35 2.42969C103.35 2.15234 103.141 1.94141 102.723 1.79688C102.305 1.64844 101.689 1.57422 100.877 1.57422ZM105.717 5.86328H96.0605V4.82031H105.717V5.86328ZM104.51 9.16797H98.4863V9.95312H104.803V10.9492H97.209V8.24219H103.232V7.53906H97.1973V6.57812H104.51V9.16797ZM114.096 1.04688C114.85 1.04688 115.525 1.16602 116.123 1.4043C116.725 1.64258 117.195 1.97852 117.535 2.41211C117.875 2.8457 118.045 3.34375 118.045 3.90625C118.045 4.42578 117.904 4.88867 117.623 5.29492C117.346 5.70117 116.957 6.0293 116.457 6.2793C115.961 6.52539 115.389 6.68164 114.74 6.74805V8.6875H118.959V9.75391H109.279V8.6875H113.451V6.74805C112.807 6.68164 112.236 6.52539 111.74 6.2793C111.244 6.0293 110.857 5.70117 110.58 5.29492C110.303 4.88867 110.166 4.42578 110.17 3.90625C110.166 3.34375 110.332 2.8457 110.668 2.41211C111.008 1.97852 111.477 1.64258 112.074 1.4043C112.672 1.16602 113.346 1.04688 114.096 1.04688ZM114.096 2.10156C113.58 2.09766 113.121 2.16992 112.719 2.31836C112.316 2.46289 112.002 2.67383 111.775 2.95117C111.553 3.22461 111.443 3.54297 111.447 3.90625C111.443 4.28125 111.553 4.60742 111.775 4.88477C112.002 5.1582 112.316 5.36914 112.719 5.51758C113.121 5.66211 113.58 5.73438 114.096 5.73438C114.619 5.73438 115.082 5.66211 115.484 5.51758C115.891 5.36914 116.205 5.1582 116.428 4.88477C116.654 4.60742 116.768 4.28125 116.768 3.90625C116.768 3.53906 116.654 3.21875 116.428 2.94531C116.201 2.67187 115.885 2.46289 115.479 2.31836C115.076 2.16992 114.615 2.09766 114.096 2.10156ZM128.463 11.0547H127.15V0.449219H128.463V11.0547ZM125.416 2.47656H121.619V7.39844C122.65 7.39453 123.504 7.37109 124.18 7.32812C124.855 7.28516 125.529 7.20312 126.201 7.08203L126.33 8.16016C125.607 8.29297 124.869 8.38281 124.115 8.42969C123.365 8.47656 122.396 8.5 121.209 8.5H120.307V1.41016H125.416V2.47656ZM134.838 1.04688C135.592 1.04688 136.268 1.16602 136.865 1.4043C137.467 1.64258 137.938 1.97852 138.277 2.41211C138.617 2.8457 138.787 3.34375 138.787 3.90625C138.787 4.42578 138.646 4.88867 138.365 5.29492C138.088 5.70117 137.699 6.0293 137.199 6.2793C136.703 6.52539 136.131 6.68164 135.482 6.74805V8.6875H139.701V9.75391H130.021V8.6875H134.193V6.74805C133.549 6.68164 132.979 6.52539 132.482 6.2793C131.986 6.0293 131.6 5.70117 131.322 5.29492C131.045 4.88867 130.908 4.42578 130.912 3.90625C130.908 3.34375 131.074 2.8457 131.41 2.41211C131.75 1.97852 132.219 1.64258 132.816 1.4043C133.414 1.16602 134.088 1.04688 134.838 1.04688ZM134.838 2.10156C134.322 2.09766 133.863 2.16992 133.461 2.31836C133.059 2.46289 132.744 2.67383 132.518 2.95117C132.295 3.22461 132.186 3.54297 132.189 3.90625C132.186 4.28125 132.295 4.60742 132.518 4.88477C132.744 5.1582 133.059 5.36914 133.461 5.51758C133.863 5.66211 134.322 5.73438 134.838 5.73438C135.361 5.73438 135.824 5.66211 136.227 5.51758C136.633 5.36914 136.947 5.1582 137.17 4.88477C137.396 4.60742 137.51 4.28125 137.51 3.90625C137.51 3.53906 137.396 3.21875 137.17 2.94531C136.943 2.67187 136.627 2.46289 136.221 2.31836C135.818 2.16992 135.357 2.09766 134.838 2.10156ZM150.072 9.8125H140.393V8.73438H144.564V7.01172H141.541V3.54297H147.635V2.23047H141.518V1.17578H148.924V4.57422H142.842V5.94531H149.17V7.01172H145.854V8.73438H150.072V9.8125ZM163.268 5.86328H153.611V4.82031H163.268V5.86328ZM162.061 9.17969H156.037V9.95312H162.354V10.9492H154.76V8.25391H160.783V7.53906H154.748V6.57812H162.061V9.17969ZM162.4 1.84375H159.248C159.338 2.10937 159.539 2.35547 159.852 2.58203C160.164 2.80859 160.574 3 161.082 3.15625C161.59 3.30859 162.166 3.40625 162.811 3.44922L162.4 4.45703C161.455 4.38281 160.637 4.19336 159.945 3.88867C159.254 3.58398 158.748 3.19531 158.428 2.72266C158.107 3.19531 157.604 3.58398 156.916 3.88867C156.232 4.19336 155.424 4.38281 154.49 4.45703L154.08 3.44922C154.721 3.40625 155.291 3.30859 155.791 3.15625C156.295 3 156.701 2.80859 157.01 2.58203C157.322 2.35547 157.523 2.10937 157.613 1.84375H154.49V0.8125H162.4V1.84375ZM172.807 5.81641H171.494V0.449219H172.807V5.81641ZM169.607 0.882812C169.604 2.28125 169.184 3.40039 168.348 4.24023C167.516 5.08008 166.268 5.67578 164.604 6.02734L164.146 4.97266C165.424 4.72266 166.393 4.33789 167.053 3.81836C167.713 3.29883 168.082 2.67187 168.16 1.9375H164.709V0.882812H169.607ZM172.807 9.01562H167.111V9.91797H173.123V10.9375H165.799V8.06641H171.494V7.26953H165.775V6.25H172.807V9.01562ZM182.721 1.32812C182.721 1.77344 182.877 2.20703 183.189 2.62891C183.506 3.05078 183.947 3.41211 184.514 3.71289C185.084 4.01367 185.736 4.21094 186.471 4.30469L185.955 5.35938C185.064 5.22656 184.275 4.95312 183.588 4.53906C182.9 4.12109 182.383 3.61133 182.035 3.00977C181.688 3.61133 181.172 4.12109 180.488 4.53906C179.805 4.95312 179.021 5.22656 178.139 5.35938L177.623 4.30469C178.35 4.21094 178.996 4.01367 179.562 3.71289C180.129 3.41211 180.568 3.05078 180.881 2.62891C181.193 2.20703 181.35 1.77344 181.35 1.32812V0.789062H182.721V1.32812ZM186.857 7.35156H182.65V11.043H181.361V7.35156H177.201V6.27344H186.857V7.35156ZM194.182 7.33984C194.182 7.80469 194.291 8.25 194.51 8.67578C194.732 9.09766 195.061 9.44727 195.494 9.72461C195.932 9.42773 196.266 9.06445 196.496 8.63477C196.727 8.20117 196.846 7.76953 196.854 7.33984V6.90625H198.131V7.33984C198.127 7.71875 198.199 8.07812 198.348 8.41797C198.496 8.75781 198.723 9.05859 199.027 9.32031C199.336 9.58203 199.717 9.78516 200.17 9.92969L199.537 10.8789C199.033 10.7109 198.607 10.4668 198.26 10.1465C197.912 9.82617 197.643 9.44922 197.451 9.01562C197.271 9.45312 197.02 9.8418 196.695 10.1816C196.375 10.5254 195.986 10.7891 195.529 10.9727C195.045 10.7969 194.639 10.543 194.311 10.2109C193.982 9.87891 193.73 9.49219 193.555 9.05078C193.363 9.46875 193.096 9.83398 192.752 10.1465C192.412 10.4629 192.002 10.707 191.521 10.8789L190.877 9.92969C191.318 9.77344 191.691 9.56055 191.996 9.29102C192.301 9.01758 192.529 8.71289 192.682 8.37695C192.834 8.04102 192.912 7.69531 192.916 7.33984V6.90625H194.182V7.33984ZM199.244 6.46094H197.932V0.460938H199.244V6.46094ZM193.467 1.02344C194.006 1.02344 194.492 1.13086 194.926 1.3457C195.359 1.55664 195.699 1.85352 195.945 2.23633C196.191 2.61914 196.314 3.05469 196.314 3.54297C196.314 4.02734 196.191 4.46094 195.945 4.84375C195.699 5.22266 195.359 5.51953 194.926 5.73438C194.492 5.94531 194.006 6.05078 193.467 6.05078C192.924 6.05078 192.436 5.94531 192.002 5.73438C191.568 5.51953 191.227 5.22266 190.977 4.84375C190.73 4.46094 190.607 4.02734 190.607 3.54297C190.607 3.05469 190.73 2.61914 190.977 2.23633C191.227 1.85352 191.568 1.55664 192.002 1.3457C192.436 1.13086 192.924 1.02344 193.467 1.02344ZM193.467 2.125C193.158 2.125 192.883 2.18359 192.641 2.30078C192.402 2.41797 192.215 2.58398 192.078 2.79883C191.945 3.00977 191.881 3.25781 191.885 3.54297C191.881 3.82812 191.945 4.07812 192.078 4.29297C192.215 4.50781 192.402 4.67578 192.641 4.79688C192.883 4.91406 193.158 4.97266 193.467 4.97266C193.771 4.97266 194.041 4.91406 194.275 4.79688C194.514 4.67969 194.699 4.51367 194.832 4.29883C194.969 4.08008 195.037 3.82812 195.037 3.54297C195.037 3.25781 194.971 3.00977 194.838 2.79883C194.705 2.58398 194.52 2.41797 194.281 2.30078C194.043 2.18359 193.771 2.125 193.467 2.125ZM203.686 1.22266C204.162 1.22266 204.592 1.34961 204.975 1.60352C205.357 1.85742 205.67 2.2207 205.912 2.69336C206.154 3.16211 206.305 3.71484 206.363 4.35156H208.385V0.449219H209.674V11.0547H208.385V5.40625H206.381C206.334 6.07812 206.191 6.66406 205.953 7.16406C205.715 7.66016 205.4 8.04297 205.01 8.3125C204.619 8.57812 204.178 8.71094 203.686 8.71094C203.154 8.71094 202.684 8.55859 202.273 8.25391C201.863 7.94922 201.543 7.51367 201.312 6.94727C201.082 6.38086 200.967 5.71875 200.967 4.96094C200.967 4.21094 201.082 3.55469 201.312 2.99219C201.543 2.42578 201.863 1.99023 202.273 1.68555C202.688 1.37695 203.158 1.22266 203.686 1.22266ZM203.686 2.39453C203.393 2.39453 203.135 2.49805 202.912 2.70508C202.689 2.9082 202.518 3.20312 202.396 3.58984C202.275 3.97266 202.217 4.42969 202.221 4.96094C202.217 5.49609 202.275 5.95703 202.396 6.34375C202.518 6.73047 202.689 7.02734 202.912 7.23438C203.135 7.4375 203.393 7.53906 203.686 7.53906C203.979 7.53906 204.234 7.4375 204.453 7.23438C204.676 7.02734 204.848 6.73047 204.969 6.34375C205.094 5.95703 205.158 5.49609 205.162 4.96094C205.158 4.42969 205.094 3.9707 204.969 3.58398C204.848 3.19727 204.676 2.90234 204.453 2.69922C204.234 2.49609 203.979 2.39453 203.686 2.39453ZM220.842 9.75391H211.162V8.6875H213.4V6.00977C212.971 5.75977 212.637 5.44922 212.398 5.07812C212.164 4.70703 212.049 4.28906 212.053 3.82422C212.049 3.27344 212.215 2.78516 212.551 2.35938C212.887 1.93359 213.354 1.60547 213.951 1.375C214.549 1.14062 215.225 1.02344 215.979 1.02344C216.736 1.02344 217.414 1.14062 218.012 1.375C218.613 1.60547 219.082 1.93359 219.418 2.35938C219.758 2.78125 219.928 3.26953 219.928 3.82422C219.928 4.27734 219.812 4.68945 219.582 5.06055C219.355 5.42773 219.033 5.73438 218.615 5.98047V8.6875H220.842V9.75391ZM215.979 2.05469C215.451 2.05469 214.986 2.12695 214.584 2.27148C214.186 2.41211 213.875 2.61523 213.652 2.88086C213.434 3.14648 213.326 3.46094 213.33 3.82422C213.326 4.18359 213.434 4.49609 213.652 4.76172C213.875 5.02734 214.188 5.23242 214.59 5.37695C214.992 5.52148 215.455 5.59375 215.979 5.59375C216.502 5.59375 216.965 5.52148 217.367 5.37695C217.773 5.23242 218.088 5.02734 218.311 4.76172C218.537 4.49609 218.65 4.18359 218.65 3.82422C218.65 3.46484 218.537 3.15234 218.311 2.88672C218.088 2.61719 217.775 2.41211 217.373 2.27148C216.971 2.12695 216.506 2.05469 215.979 2.05469ZM217.291 8.6875V6.47852C216.877 6.56836 216.439 6.61328 215.979 6.61328C215.537 6.61328 215.107 6.57031 214.689 6.48438V8.6875H217.291ZM9.79297 26.0547H8.49219V20.6406H6.44141V19.5859H8.49219V15.4492H9.79297V26.0547ZM4.77734 18.8125C4.77344 19.3516 4.875 19.8867 5.08203 20.418C5.28906 20.9492 5.5918 21.4316 5.99023 21.8652C6.38867 22.2949 6.85938 22.6289 7.40234 22.8672L6.69922 23.8633C6.10938 23.6133 5.5957 23.2402 5.1582 22.7441C4.7207 22.248 4.38086 21.6738 4.13867 21.0215C3.90039 21.7129 3.5625 22.3223 3.125 22.8496C2.69141 23.377 2.17969 23.7734 1.58984 24.0391L0.886719 23.0312C1.42188 22.7891 1.88477 22.4434 2.27539 21.9941C2.66602 21.5449 2.96289 21.043 3.16602 20.4883C3.37305 19.9336 3.47656 19.375 3.47656 18.8125V18.2617H1.20312V17.2188H3.48828V15.6719H4.78906V17.2188H7.00391V18.2617H4.77734V18.8125ZM16.0977 15.6602C16.875 15.6602 17.5488 15.7422 18.1191 15.9062C18.6934 16.0703 19.1348 16.3086 19.4434 16.6211C19.7559 16.9297 19.9141 17.2969 19.918 17.7227C19.9141 18.1406 19.7559 18.502 19.4434 18.8066C19.1348 19.1113 18.6934 19.3438 18.1191 19.5039C17.5488 19.6641 16.875 19.7422 16.0977 19.7383C15.3281 19.7422 14.6543 19.6641 14.0762 19.5039C13.502 19.3438 13.0586 19.1113 12.7461 18.8066C12.4336 18.502 12.2773 18.1406 12.2773 17.7227C12.2773 17.2969 12.4336 16.9297 12.7461 16.6211C13.0586 16.3086 13.502 16.0703 14.0762 15.9062C14.6543 15.7422 15.3281 15.6602 16.0977 15.6602ZM16.0977 16.6797C15.3164 16.6797 14.709 16.7695 14.2754 16.9492C13.8457 17.1289 13.6328 17.3867 13.6367 17.7227C13.6328 18.043 13.8457 18.2891 14.2754 18.4609C14.709 18.6328 15.3164 18.7227 16.0977 18.7305C16.8789 18.7227 17.4863 18.6328 17.9199 18.4609C18.3535 18.2891 18.5703 18.043 18.5703 17.7227C18.5703 17.3867 18.3535 17.1289 17.9199 16.9492C17.4863 16.7695 16.8789 16.6797 16.0977 16.6797ZM19.7656 25.9141H12.418V22.3516H19.7656V25.9141ZM13.707 24.8594H18.5V23.3828H13.707V24.8594ZM20.9375 21.5078H11.2812V20.4531H20.9375V21.5078ZM33.3125 26.0547H32V15.4492H33.3125V26.0547ZM27.6055 16.2227C28.1367 16.2227 28.6094 16.377 29.0234 16.6855C29.4414 16.9902 29.7695 17.4258 30.0078 17.9922C30.2461 18.5547 30.3672 19.2109 30.3711 19.9609C30.3672 20.7148 30.2461 21.375 30.0078 21.9414C29.7734 22.5078 29.4473 22.9453 29.0293 23.2539C28.6113 23.5586 28.1367 23.7109 27.6055 23.7109C27.0703 23.7109 26.5938 23.5586 26.1758 23.2539C25.7578 22.9453 25.4297 22.5078 25.1914 21.9414C24.957 21.375 24.8398 20.7148 24.8398 19.9609C24.8398 19.2109 24.957 18.5547 25.1914 17.9922C25.4297 17.4258 25.7578 16.9902 26.1758 16.6855C26.5938 16.377 27.0703 16.2227 27.6055 16.2227ZM27.6055 17.3945C27.3047 17.3945 27.0391 17.4961 26.8086 17.6992C26.582 17.9023 26.4062 18.1973 26.2812 18.584C26.1562 18.9707 26.0938 19.4297 26.0938 19.9609C26.0938 20.4961 26.1562 20.957 26.2812 21.3438C26.4062 21.7305 26.582 22.0273 26.8086 22.2344C27.0391 22.4375 27.3047 22.5391 27.6055 22.5391C27.9023 22.5391 28.1641 22.4375 28.3906 22.2344C28.6172 22.0273 28.793 21.7305 28.918 21.3438C29.043 20.957 29.1055 20.4961 29.1055 19.9609C29.1055 19.4297 29.043 18.9727 28.918 18.5898C28.793 18.2031 28.6172 17.9082 28.3906 17.7051C28.1641 17.498 27.9023 17.3945 27.6055 17.3945ZM44.5273 21.5898H34.8711V20.5469H37.1211V19.2051C36.7188 19.0332 36.4082 18.8145 36.1895 18.5488C35.9746 18.2832 35.8672 17.9805 35.8672 17.6406C35.8672 17.2227 36.0215 16.8633 36.3301 16.5625C36.6426 16.2578 37.0859 16.0254 37.6602 15.8652C38.2383 15.7051 38.9141 15.625 39.6875 15.625C40.4609 15.625 41.1348 15.7051 41.709 15.8652C42.2832 16.0254 42.7246 16.2578 43.0332 16.5625C43.3457 16.8633 43.5039 17.2227 43.5078 17.6406C43.5039 17.9844 43.3926 18.2891 43.1738 18.5547C42.959 18.8203 42.6484 19.0371 42.2422 19.2051V20.5469H44.5273V21.5898ZM39.6875 22.2344C40.4492 22.2305 41.1035 22.3027 41.6504 22.4512C42.1973 22.5957 42.6172 22.8105 42.9102 23.0957C43.2031 23.377 43.3516 23.7188 43.3555 24.1211C43.3516 24.5273 43.2031 24.8711 42.9102 25.1523C42.6172 25.4375 42.1973 25.6523 41.6504 25.7969C41.1035 25.9453 40.4492 26.0195 39.6875 26.0195C38.918 26.0195 38.2559 25.9453 37.7012 25.7969C37.1504 25.6523 36.7285 25.4375 36.4355 25.1523C36.1426 24.8711 35.9961 24.5273 35.9961 24.1211C35.9961 23.7188 36.1426 23.377 36.4355 23.0957C36.7285 22.8105 37.1504 22.5957 37.7012 22.4512C38.2559 22.3027 38.918 22.2305 39.6875 22.2344ZM39.6875 23.2188C38.9102 23.2188 38.3203 23.2949 37.918 23.4473C37.5156 23.5996 37.3164 23.8242 37.3203 24.1211C37.3164 24.418 37.5156 24.6445 37.918 24.8008C38.3242 24.957 38.9141 25.0352 39.6875 25.0352C40.4453 25.0352 41.0273 24.957 41.4336 24.8008C41.8438 24.6445 42.0508 24.418 42.0547 24.1211C42.0508 23.8242 41.8457 23.5996 41.4395 23.4473C41.0332 23.2949 40.4492 23.2188 39.6875 23.2188ZM39.6875 16.6328C38.8984 16.6328 38.2891 16.7207 37.8594 16.8965C37.4336 17.0684 37.2227 17.3164 37.2266 17.6406C37.2227 17.9609 37.4336 18.2051 37.8594 18.373C38.2852 18.541 38.8945 18.625 39.6875 18.625C40.4727 18.625 41.0801 18.541 41.5098 18.373C41.9434 18.2051 42.1602 17.9609 42.1602 17.6406C42.1602 17.3164 41.9434 17.0684 41.5098 16.8965C41.0801 16.7207 40.4727 16.6328 39.6875 16.6328ZM40.9414 20.5469V19.5391C40.5469 19.5938 40.1289 19.6211 39.6875 19.6211C39.2461 19.6211 38.8281 19.5938 38.4336 19.5391V20.5469H40.9414ZM53.5391 19.668H55.168V20.7461H53.5391V26.043H52.25V15.4492H53.5391V19.668ZM51.4297 18.1211H45.1836V17.0781H47.6914V15.6016H48.9922V17.0781H51.4297V18.1211ZM48.3477 18.8125C48.8516 18.8125 49.3047 18.9199 49.707 19.1348C50.1133 19.3457 50.4316 19.6406 50.6621 20.0195C50.8926 20.3984 51.0078 20.8281 51.0078 21.3086C51.0078 21.7891 50.8926 22.2188 50.6621 22.5977C50.4316 22.9727 50.1133 23.2656 49.707 23.4766C49.3047 23.6875 48.8516 23.793 48.3477 23.793C47.8359 23.793 47.377 23.6875 46.9707 23.4766C46.5645 23.2656 46.2461 22.9727 46.0156 22.5977C45.7852 22.2188 45.6719 21.7891 45.6758 21.3086C45.6719 20.8281 45.7852 20.3984 46.0156 20.0195C46.2461 19.6406 46.5645 19.3457 46.9707 19.1348C47.377 18.9199 47.8359 18.8125 48.3477 18.8125ZM48.3477 19.8789C48.0703 19.8789 47.8223 19.9375 47.6035 20.0547C47.3887 20.1719 47.2207 20.3398 47.0996 20.5586C46.9785 20.7734 46.918 21.0234 46.918 21.3086C46.918 21.5938 46.9785 21.8438 47.0996 22.0586C47.2207 22.2695 47.3887 22.4336 47.6035 22.5508C47.8223 22.6641 48.0703 22.7188 48.3477 22.7148C48.6172 22.7188 48.8574 22.6641 49.0684 22.5508C49.2832 22.4336 49.4512 22.2695 49.5723 22.0586C49.6973 21.8438 49.7617 21.5938 49.7656 21.3086C49.7617 21.0234 49.6973 20.7734 49.5723 20.5586C49.4512 20.3438 49.2832 20.1777 49.0684 20.0605C48.8574 19.9395 48.6172 19.8789 48.3477 19.8789ZM64.4375 23.1953H63.125V15.4609H64.4375V23.1953ZM64.7305 25.832H57.4297V22.457H58.7422V24.7773H64.7305V25.832ZM59.5625 17.0781C59.5625 17.5781 59.6582 18.0547 59.8496 18.5078C60.0449 18.9609 60.334 19.3633 60.7168 19.7148C61.0996 20.0625 61.5625 20.3281 62.1055 20.5117L61.4375 21.543C60.8438 21.3359 60.332 21.0312 59.9023 20.6289C59.4727 20.2266 59.1387 19.75 58.9004 19.1992C58.6582 19.793 58.3164 20.3086 57.875 20.7461C57.4375 21.1836 56.9141 21.5117 56.3047 21.7305L55.625 20.6992C56.1836 20.5039 56.6562 20.2207 57.043 19.8496C57.4336 19.4746 57.7266 19.0488 57.9219 18.5723C58.1172 18.0957 58.2148 17.5977 58.2148 17.0781V16.0469H59.5625V17.0781ZM74.2812 19.4688H75.9102V20.5352H74.2812V26.0547H72.9805V15.4492H74.2812V19.4688ZM71.375 17.5117H67.7188V22.375C68.5742 22.375 69.3457 22.3496 70.0332 22.2988C70.7207 22.248 71.418 22.1602 72.125 22.0352L72.2773 23.1367C71.5117 23.2695 70.7539 23.3574 70.0039 23.4004C69.2578 23.4434 68.3555 23.4648 67.2969 23.4648H66.418V16.457H71.375V17.5117ZM81.793 17.1836H83.9258V15.4609H85.2266V23.1719H83.9258V20.5H81.793V21.4141H76.8125V16.3398H81.793V17.1836ZM78.1133 20.3945H80.5039V17.3711H78.1133V20.3945ZM85.4609 25.832H78.2422V22.457H79.5664V24.7773H85.4609V25.832ZM83.9258 19.457V18.25H81.793V19.457H83.9258ZM97.8711 19.668H99.5V20.7461H97.8711V26.043H96.582V15.4492H97.8711V19.668ZM95.7617 18.1211H89.5156V17.0781H92.0234V15.6016H93.3242V17.0781H95.7617V18.1211ZM92.6797 18.8125C93.1836 18.8125 93.6367 18.9199 94.0391 19.1348C94.4453 19.3457 94.7637 19.6406 94.9941 20.0195C95.2246 20.3984 95.3398 20.8281 95.3398 21.3086C95.3398 21.7891 95.2246 22.2188 94.9941 22.5977C94.7637 22.9727 94.4453 23.2656 94.0391 23.4766C93.6367 23.6875 93.1836 23.793 92.6797 23.793C92.168 23.793 91.709 23.6875 91.3027 23.4766C90.8965 23.2656 90.5781 22.9727 90.3477 22.5977C90.1172 22.2188 90.0039 21.7891 90.0078 21.3086C90.0039 20.8281 90.1172 20.3984 90.3477 20.0195C90.5781 19.6406 90.8965 19.3457 91.3027 19.1348C91.709 18.9199 92.168 18.8125 92.6797 18.8125ZM92.6797 19.8789C92.4023 19.8789 92.1543 19.9375 91.9355 20.0547C91.7207 20.1719 91.5527 20.3398 91.4316 20.5586C91.3105 20.7734 91.25 21.0234 91.25 21.3086C91.25 21.5938 91.3105 21.8438 91.4316 22.0586C91.5527 22.2695 91.7207 22.4336 91.9355 22.5508C92.1543 22.6641 92.4023 22.7188 92.6797 22.7148C92.9492 22.7188 93.1895 22.6641 93.4004 22.5508C93.6152 22.4336 93.7832 22.2695 93.9043 22.0586C94.0293 21.8438 94.0938 21.5938 94.0977 21.3086C94.0938 21.0234 94.0293 20.7734 93.9043 20.5586C93.7832 20.3438 93.6152 20.1777 93.4004 20.0605C93.1895 19.9395 92.9492 19.8789 92.6797 19.8789ZM108.301 18.4258H109.789V19.5039H108.301V23.1133H107V15.4492H108.301V18.4258ZM105.137 17.3711H101.68V20.2539H101.902C102.855 20.2539 103.635 20.2305 104.24 20.1836C104.85 20.1367 105.449 20.0508 106.039 19.9258L106.18 20.9805C105.504 21.1133 104.809 21.2031 104.094 21.25C103.379 21.2969 102.43 21.3203 101.246 21.3203H100.391V16.3281H105.137V17.3711ZM108.723 25.832H101.516V22.3047H102.816V24.7773H108.723V25.832ZM113.75 16.1875C114.301 16.1836 114.797 16.291 115.238 16.5098C115.684 16.7246 116.031 17.0273 116.281 17.418C116.535 17.8086 116.664 18.25 116.668 18.7422C116.664 19.2383 116.535 19.6816 116.281 20.0723C116.031 20.4629 115.686 20.7676 115.244 20.9863C114.803 21.2012 114.305 21.3086 113.75 21.3086C113.199 21.3086 112.703 21.1992 112.262 20.9805C111.82 20.7617 111.473 20.459 111.219 20.0723C110.969 19.6816 110.844 19.2383 110.844 18.7422C110.844 18.25 110.969 17.8086 111.219 17.418C111.473 17.0273 111.82 16.7246 112.262 16.5098C112.707 16.291 113.203 16.1836 113.75 16.1875ZM113.75 17.3125C113.441 17.3125 113.164 17.3711 112.918 17.4883C112.672 17.6055 112.479 17.7734 112.338 17.9922C112.201 18.207 112.133 18.457 112.133 18.7422C112.133 19.0312 112.201 19.2852 112.338 19.5039C112.479 19.7188 112.672 19.8848 112.918 20.002C113.164 20.1152 113.441 20.1719 113.75 20.1719C114.062 20.1719 114.342 20.1152 114.588 20.002C114.838 19.8848 115.033 19.7188 115.174 19.5039C115.318 19.2852 115.391 19.0312 115.391 18.7422C115.391 18.457 115.318 18.207 115.174 17.9922C115.033 17.7734 114.838 17.6055 114.588 17.4883C114.342 17.3711 114.062 17.3125 113.75 17.3125ZM119.141 26.0547H117.84V15.4492H119.141V26.0547ZM110.363 22.7734C111.66 22.7734 112.871 22.752 113.996 22.709C115.125 22.6621 116.195 22.5664 117.207 22.4219L117.312 23.3711C116.266 23.5742 115.201 23.7031 114.119 23.7578C113.041 23.8125 111.844 23.8398 110.527 23.8398L110.363 22.7734ZM127.32 17.9922C127.316 18.625 127.416 19.2461 127.619 19.8555C127.826 20.4609 128.125 21.0039 128.516 21.4844C128.906 21.9648 129.367 22.332 129.898 22.5859L129.102 23.6289C128.539 23.3438 128.051 22.9375 127.637 22.4102C127.227 21.8828 126.906 21.2734 126.676 20.582C126.438 21.3203 126.102 21.9727 125.668 22.5391C125.238 23.1016 124.727 23.5312 124.133 23.8281L123.336 22.7852C123.887 22.5234 124.363 22.1426 124.766 21.6426C125.172 21.1387 125.48 20.5703 125.691 19.9375C125.906 19.3008 126.016 18.6523 126.02 17.9922V16.3047H127.32V17.9922ZM131.832 19.5977H133.461V20.7109H131.832V26.043H130.531V15.4492H131.832V19.5977ZM143.562 21.5898H133.906V20.5469H136.156V19.2051C135.754 19.0332 135.443 18.8145 135.225 18.5488C135.01 18.2832 134.902 17.9805 134.902 17.6406C134.902 17.2227 135.057 16.8633 135.365 16.5625C135.678 16.2578 136.121 16.0254 136.695 15.8652C137.273 15.7051 137.949 15.625 138.723 15.625C139.496 15.625 140.17 15.7051 140.744 15.8652C141.318 16.0254 141.76 16.2578 142.068 16.5625C142.381 16.8633 142.539 17.2227 142.543 17.6406C142.539 17.9844 142.428 18.2891 142.209 18.5547C141.994 18.8203 141.684 19.0371 141.277 19.2051V20.5469H143.562V21.5898ZM138.723 22.2344C139.484 22.2305 140.139 22.3027 140.686 22.4512C141.232 22.5957 141.652 22.8105 141.945 23.0957C142.238 23.377 142.387 23.7188 142.391 24.1211C142.387 24.5273 142.238 24.8711 141.945 25.1523C141.652 25.4375 141.232 25.6523 140.686 25.7969C140.139 25.9453 139.484 26.0195 138.723 26.0195C137.953 26.0195 137.291 25.9453 136.736 25.7969C136.186 25.6523 135.764 25.4375 135.471 25.1523C135.178 24.8711 135.031 24.5273 135.031 24.1211C135.031 23.7188 135.178 23.377 135.471 23.0957C135.764 22.8105 136.186 22.5957 136.736 22.4512C137.291 22.3027 137.953 22.2305 138.723 22.2344ZM138.723 23.2188C137.945 23.2188 137.355 23.2949 136.953 23.4473C136.551 23.5996 136.352 23.8242 136.355 24.1211C136.352 24.418 136.551 24.6445 136.953 24.8008C137.359 24.957 137.949 25.0352 138.723 25.0352C139.48 25.0352 140.062 24.957 140.469 24.8008C140.879 24.6445 141.086 24.418 141.09 24.1211C141.086 23.8242 140.881 23.5996 140.475 23.4473C140.068 23.2949 139.484 23.2188 138.723 23.2188ZM138.723 16.6328C137.934 16.6328 137.324 16.7207 136.895 16.8965C136.469 17.0684 136.258 17.3164 136.262 17.6406C136.258 17.9609 136.469 18.2051 136.895 18.373C137.32 18.541 137.93 18.625 138.723 18.625C139.508 18.625 140.115 18.541 140.545 18.373C140.979 18.2051 141.195 17.9609 141.195 17.6406C141.195 17.3164 140.979 17.0684 140.545 16.8965C140.115 16.7207 139.508 16.6328 138.723 16.6328ZM139.977 20.5469V19.5391C139.582 19.5938 139.164 19.6211 138.723 19.6211C138.281 19.6211 137.863 19.5938 137.469 19.5391V20.5469H139.977ZM146.059 17.4414H148.426V16H149.715V17.9336H151.848V15.4492H153.148V21.2383H151.848V19.0117H149.715V20.9102H144.758V16H146.059V17.4414ZM148.426 19.8555V18.4492H146.059V19.8555H148.426ZM147.465 22.7852H151.848V21.707H153.148V25.8906H146.164V21.707H147.465V22.7852ZM151.848 24.8359V23.793H147.465V24.8359H151.848ZM167.176 24.7656H157.496V23.6992H161.668V21.6367H158.562V16.1523H159.863V17.8867H164.773V16.1523H166.074V21.6367H162.957V23.6992H167.176V24.7656ZM164.773 20.582V18.9297H159.863V20.582H164.773ZM176.715 26.043H175.402V15.4492H176.715V26.043ZM173.551 16.5742C173.551 18.2578 173.17 19.7363 172.408 21.0098C171.646 22.2793 170.383 23.332 168.617 24.168L167.938 23.125C169.301 22.4766 170.326 21.7012 171.014 20.7988C171.705 19.8926 172.109 18.8281 172.227 17.6055H168.477V16.5742H173.551ZM187.906 21.2383H178.227V20.2539H187.906V21.2383ZM186.734 24.2852H180.664V25.0234H187.051V25.9258H179.363V23.4414H185.445V22.7852H179.352V21.8711H186.734V24.2852ZM186.711 18.0742H180.746V18.7656H186.898V19.6562H179.457V17.2305H185.41V16.5859H179.422V15.6836H186.711V18.0742ZM200.012 18.7773H192.699V15.5898H193.977V17.7344H200.012V18.7773ZM201.125 20.5469H196.906V21.4727H199.941V24.1094H193.918V24.9414H200.293V25.9492H192.605V23.1953H198.652V22.457H192.594V21.4727H195.629V20.5469H191.445V19.4922H201.125V20.5469ZM210.699 26.0547H209.398V20.418H207.582V19.3516H209.398V15.4492H210.699V26.0547ZM206.973 20.2539H203.504V22.4805C204.375 22.4766 205.137 22.4531 205.789 22.4102C206.445 22.3672 207.105 22.2852 207.77 22.1641L207.875 23.2305C207.129 23.3633 206.389 23.4531 205.654 23.5C204.92 23.5469 204.055 23.5703 203.059 23.5703H202.215V19.1992H205.695V17.4297H202.18V16.375H206.973V20.2539ZM221.855 22.4102H217.648V26.0312H216.359V22.4102H212.199V21.3555H221.855V22.4102ZM220.965 17.0781H217.783C217.811 17.4648 217.977 17.8379 218.281 18.1973C218.586 18.5527 219.004 18.8574 219.535 19.1113C220.066 19.3652 220.672 19.5352 221.352 19.6211L220.883 20.6406C219.984 20.5156 219.197 20.2578 218.521 19.8672C217.85 19.4766 217.352 18.9922 217.027 18.4141C216.703 18.9883 216.205 19.4727 215.533 19.8672C214.861 20.2578 214.082 20.5156 213.195 20.6406L212.703 19.6211C213.379 19.5352 213.98 19.3652 214.508 19.1113C215.039 18.8574 215.457 18.5527 215.762 18.1973C216.07 17.8379 216.24 17.4648 216.271 17.0781H213.09V16.0469H220.965V17.0781ZM225.875 18.2266C225.875 18.8203 225.945 19.3965 226.086 19.9551C226.23 20.5137 226.455 21.0254 226.76 21.4902C227.064 21.9551 227.445 22.332 227.902 22.6211L227.188 23.6172C226.727 23.3398 226.336 22.9688 226.016 22.5039C225.695 22.0352 225.443 21.498 225.26 20.8926C225.061 21.5527 224.789 22.1387 224.445 22.6504C224.102 23.1621 223.688 23.5664 223.203 23.8633L222.395 22.8906C222.891 22.5898 223.305 22.1953 223.637 21.707C223.969 21.2188 224.215 20.6816 224.375 20.0957C224.539 19.5098 224.621 18.9062 224.621 18.2852V16.3867H225.875V18.2266ZM231.711 26.043H230.457V15.4492H231.711V26.043ZM229.508 25.5273H228.277V20.1719H226.766V19.0938H228.277V15.6367H229.508V25.5273ZM242.621 24.7539H232.941V23.6875H235.18V21.0098C234.75 20.7598 234.416 20.4492 234.178 20.0781C233.943 19.707 233.828 19.2891 233.832 18.8242C233.828 18.2734 233.994 17.7852 234.33 17.3594C234.666 16.9336 235.133 16.6055 235.73 16.375C236.328 16.1406 237.004 16.0234 237.758 16.0234C238.516 16.0234 239.193 16.1406 239.791 16.375C240.393 16.6055 240.861 16.9336 241.197 17.3594C241.537 17.7812 241.707 18.2695 241.707 18.8242C241.707 19.2773 241.592 19.6895 241.361 20.0605C241.135 20.4277 240.812 20.7344 240.395 20.9805V23.6875H242.621V24.7539ZM237.758 17.0547C237.23 17.0547 236.766 17.127 236.363 17.2715C235.965 17.4121 235.654 17.6152 235.432 17.8809C235.213 18.1465 235.105 18.4609 235.109 18.8242C235.105 19.1836 235.213 19.4961 235.432 19.7617C235.654 20.0273 235.967 20.2324 236.369 20.377C236.771 20.5215 237.234 20.5938 237.758 20.5938C238.281 20.5938 238.744 20.5215 239.146 20.377C239.553 20.2324 239.867 20.0273 240.09 19.7617C240.316 19.4961 240.43 19.1836 240.43 18.8242C240.43 18.4648 240.316 18.1523 240.09 17.8867C239.867 17.6172 239.555 17.4121 239.152 17.2715C238.75 17.127 238.285 17.0547 237.758 17.0547ZM239.07 23.6875V21.4785C238.656 21.5684 238.219 21.6133 237.758 21.6133C237.316 21.6133 236.887 21.5703 236.469 21.4844V23.6875H239.07ZM245.363 22.5039H244.039L243.898 16.5156H245.492L245.363 22.5039ZM244.707 25.0938C244.543 25.0938 244.391 25.0527 244.25 24.9707C244.109 24.8887 243.998 24.7773 243.916 24.6367C243.834 24.4961 243.793 24.3438 243.793 24.1797C243.793 24.0195 243.834 23.8711 243.916 23.7344C243.998 23.5938 244.109 23.4824 244.25 23.4004C244.391 23.3184 244.543 23.2773 244.707 23.2773C244.863 23.2773 245.01 23.3184 245.146 23.4004C245.287 23.4824 245.398 23.5938 245.48 23.7344C245.566 23.8711 245.609 24.0195 245.609 24.1797C245.609 24.3438 245.566 24.4961 245.48 24.6367C245.398 24.7773 245.287 24.8887 245.146 24.9707C245.01 25.0527 244.863 25.0938 244.707 25.0938Z" fill="white"/>
</svg>
