<svg width="231" height="37" viewBox="0 0 231 37" fill="none" xmlns="http://www.w3.org/2000/svg">
<rect width="230.5" height="37" rx="18.5" fill="#5A45F5"/>
<path d="M45.0898 11.8574V16.6016H46.9902V17.873H45.0898V24.2305H43.5859V11.8574H45.0898ZM35.9023 14.168V12.9375H41.5898V17.5996H37.4336V20.0605C39.3955 20.0469 40.9199 19.9648 42.6426 19.6641L42.7793 20.8945C40.8721 21.2363 39.1904 21.3184 36.9414 21.3184H35.9297V16.3828H40.0723V14.168H35.9023ZM57.791 11.8574V24.2305H56.2598V11.8574H57.791ZM48.2754 21.25V12.9785H54.2363V14.2227H49.8066V19.9648C52.0762 19.9512 53.5049 19.8896 55.1523 19.5957L55.3027 20.8535C53.5322 21.1816 51.9395 21.25 49.3281 21.25H48.2754ZM65.2285 12.5547C67.8809 12.5615 69.8428 13.8809 69.8359 15.8906C69.8428 17.7432 68.25 18.9805 65.9805 19.2061V21.4688H70.9023V22.7129H59.6094V21.4688H64.4766V19.2061C62.2344 18.9805 60.6416 17.7432 60.6484 15.8906C60.6416 13.8809 62.5967 12.5615 65.2285 12.5547ZM62.1387 15.8906C62.1318 17.2236 63.4238 18.0234 65.2285 18.0234C67.0605 18.0234 68.3457 17.2236 68.3457 15.8906C68.3457 14.5986 67.0605 13.7783 65.2285 13.7852C63.4238 13.7783 62.1318 14.5986 62.1387 15.8906ZM78.3535 12.7598C80.2129 12.7598 81.5527 14.4551 81.5664 17.1211C81.5527 19.8076 80.2129 21.4961 78.3535 21.4961C76.4736 21.4961 75.1338 19.8076 75.1406 17.1211C75.1338 14.4551 76.4736 12.7598 78.3535 12.7598ZM76.6035 17.1211C76.5967 19.0215 77.3145 20.1221 78.3535 20.1289C79.3994 20.1221 80.0967 19.0215 80.1035 17.1211C80.0967 15.2344 79.3994 14.127 78.3535 14.127C77.3145 14.127 76.5967 15.2344 76.6035 17.1211ZM83.1934 24.2168V11.8574H84.7109V16.6016H86.6113V17.8867H84.7109V24.2168H83.1934ZM94.0352 12.9238V14.168H89.3457V16.3691H93.543V17.5723H89.3457V20.1152C91.3691 20.1084 92.9141 20.0332 94.6914 19.7461L94.8418 20.9766C92.8936 21.2842 91.1572 21.3457 88.8809 21.3457H87.8418V12.9238H94.0352ZM95.9219 24.2168V11.8574H97.4531V24.2168H95.9219ZM109.143 12.3633V13.3887C109.149 14.3525 109.149 15.4053 108.883 16.7246H110.469V17.9414H99.2578V16.7246H107.372C107.454 16.2871 107.509 15.8838 107.55 15.501L100.488 15.7949L100.311 14.6191L107.611 14.4414C107.625 14.1406 107.625 13.8535 107.625 13.5664H100.625V12.3633H109.143ZM100.502 19.9922V18.8301H109.211V21.9473H102.033V22.877H109.648V24.0664H100.529V20.8398H107.693V19.9922H100.502ZM124.975 11.8574V24.2168H123.443V11.8574H124.975ZM114.734 20.8125C117.975 19.2744 119.465 17.1826 119.738 14.373H115.363V13.1699H121.283C121.283 16.8477 119.854 19.9717 115.527 22.0293L114.734 20.8125ZM136.746 15.0703V16.3008H128.215V12.0762H129.732V15.0703H136.746ZM126.752 18.7207V17.4902H138.031V18.7207H126.752ZM128.064 21.8926C128.064 20.4365 129.685 19.6162 132.371 19.6094C135.037 19.6162 136.644 20.4365 136.65 21.8926C136.644 23.3418 135.037 24.1621 132.371 24.1621C129.685 24.1621 128.064 23.3418 128.064 21.8926ZM129.609 21.8926C129.603 22.6035 130.573 22.9932 132.371 23C134.142 22.9932 135.119 22.6035 135.133 21.8926C135.119 21.1611 134.142 20.8057 132.371 20.7988C130.573 20.8057 129.603 21.1611 129.609 21.8926ZM146.59 14.8242C146.576 17.0322 147.684 19.2607 149.598 20.1836L148.668 21.4004C147.328 20.7236 146.364 19.418 145.838 17.8457C145.298 19.5273 144.286 20.9219 142.871 21.6328L141.941 20.416C143.931 19.4727 145.065 17.1074 145.072 14.8242V12.8555H146.59V14.8242ZM150.336 24.2168V11.8574H151.854V16.6973H153.754V17.9961H151.854V24.2168H150.336ZM165.539 17.8047V19.0215H154.273V17.8047H156.898V16.2393C155.962 15.8428 155.436 15.2207 155.436 14.4141C155.436 12.9307 157.165 12.0625 159.893 12.0625C162.613 12.0625 164.343 12.9307 164.35 14.4141C164.343 15.2275 163.81 15.8496 162.873 16.2393V17.8047H165.539ZM155.586 21.9746C155.586 20.5527 157.192 19.7598 159.893 19.7734C162.552 19.7598 164.165 20.5527 164.172 21.9746C164.165 23.4102 162.552 24.1895 159.893 24.1895C157.192 24.1895 155.586 23.4102 155.586 21.9746ZM157.021 14.4141C157.008 15.166 158.067 15.5693 159.893 15.5625C161.711 15.5693 162.777 15.166 162.777 14.4141C162.777 13.6553 161.711 13.2314 159.893 13.2383C158.067 13.2314 157.008 13.6553 157.021 14.4141ZM157.131 21.9746C157.124 22.6719 158.095 23.0479 159.893 23.041C161.663 23.0479 162.641 22.6719 162.654 21.9746C162.641 21.2842 161.663 20.9287 159.893 20.9219C158.095 20.9287 157.124 21.2842 157.131 21.9746ZM158.43 17.8047H161.355V16.6289C160.911 16.6904 160.419 16.7246 159.893 16.7246C159.366 16.7246 158.874 16.6904 158.43 16.6289V17.8047ZM168.451 12.5V14.1816H171.213V12.5H172.717V14.7559H175.205V11.8574H176.723V18.6113H175.205V16.0137H172.717V18.2285H166.934V12.5H168.451ZM168.451 16.998H171.213V15.3574H168.451V16.998ZM168.574 24.0391V19.1582H170.092V20.416H175.205V19.1582H176.723V24.0391H168.574ZM170.092 22.8086H175.205V21.5918H170.092V22.8086Z" fill="white"/>
<path d="M190.311 18.4719L185.881 14.0422C185.778 13.9391 185.727 13.8102 185.727 13.6555C185.727 13.5008 185.778 13.3672 185.881 13.2547C185.994 13.1422 186.127 13.0859 186.282 13.0859C186.437 13.0859 186.57 13.1422 186.683 13.2547L191.309 17.8812C191.394 17.9656 191.455 18.0594 191.492 18.1625C191.53 18.2656 191.548 18.3688 191.548 18.4719C191.548 18.575 191.53 18.6781 191.492 18.7812C191.455 18.8844 191.394 18.9781 191.309 19.0625L186.669 23.7031C186.556 23.8156 186.425 23.8695 186.275 23.8648C186.125 23.8602 185.994 23.8016 185.881 23.6891C185.778 23.5766 185.724 23.4453 185.72 23.2953C185.715 23.1453 185.769 23.0141 185.881 22.9016L190.311 18.4719Z" fill="white"/>
</svg>
