<svg width="390" height="67" viewBox="0 0 390 67" fill="none" xmlns="http://www.w3.org/2000/svg">
<path d="M33.3594 33.7031V35.1406H20.4688V33.7031H33.3594ZM22.0469 41.2031V36.3125H31.8281V37.7188H23.7656V39.7969H31.9375V41.2031H22.0469ZM22.0938 32.5469V27.6562H31.75V29.0781H23.8125V31.1406H31.9062V32.5469H22.0938ZM45.3254 31.2656V32.6406H35.5442V27.7812H37.2629V31.2656H45.3254ZM33.8723 35.6562V34.2812H46.7785V35.6562H33.8723ZM35.4192 41.0625V36.9062H37.1535V39.6562H45.4192V41.0625H35.4192ZM54.4919 28.2969C56.6169 28.2969 58.1481 30.2344 58.1638 33.2812C58.1481 36.3516 56.6169 38.2812 54.4919 38.2812C52.3435 38.2812 50.8122 36.3516 50.82 33.2812C50.8122 30.2344 52.3435 28.2969 54.4919 28.2969ZM52.4919 33.2812C52.4841 35.4531 53.3044 36.7109 54.4919 36.7188C55.6872 36.7109 56.4841 35.4531 56.4919 33.2812C56.4841 31.125 55.6872 29.8594 54.4919 29.8594C53.3044 29.8594 52.4841 31.125 52.4919 33.2812ZM60.0231 41.3906V27.2656H61.7575V32.6875H63.9294V34.1562H61.7575V41.3906H60.0231ZM72.0048 28.4844V29.9062H66.6454V32.4219H71.4423V33.7969H66.6454V36.7031C68.9579 36.6953 70.7236 36.6094 72.7548 36.2812L72.9267 37.6875C70.7001 38.0391 68.7158 38.1094 66.1142 38.1094H64.9267V28.4844H72.0048ZM74.1611 41.3906V27.2656H75.9111V41.3906H74.1611ZM88.8615 27.8438V29.0156C88.8693 30.1172 88.8693 31.3203 88.5646 32.8281H90.3771V34.2188H77.5646V32.8281H86.8381C86.9318 32.3281 86.9943 31.8672 87.0412 31.4297L78.9709 31.7656L78.7677 30.4219L87.1115 30.2188C87.1271 29.875 87.1271 29.5469 87.1271 29.2188H79.1271V27.8438H88.8615ZM78.9865 36.5625V35.2344H88.9396V38.7969H80.7365V39.8594H89.4396V41.2188H79.0177V37.5312H87.2052V36.5625H78.9865Z" fill="white"/>
</svg>
