<svg width="181" height="23" viewBox="0 0 181 23" fill="none" xmlns="http://www.w3.org/2000/svg">
<path d="M0.901718 3.03125H7.65172C8.87047 3.03125 9.90172 3.21484 10.7455 3.58203C11.5892 3.94922 12.222 4.46094 12.6439 5.11719C13.0658 5.76562 13.2767 6.52344 13.2767 7.39062C13.2767 8.35156 12.9955 9.14453 12.433 9.76953C11.8783 10.3945 11.1439 10.8125 10.2298 11.0234V11.1875C10.8861 11.2188 11.4955 11.4062 12.058 11.75C12.6283 12.0938 13.0853 12.5742 13.4291 13.1914C13.7806 13.8008 13.9564 14.5078 13.9564 15.3125C13.9564 16.2266 13.7298 17.0352 13.2767 17.7383C12.8314 18.4414 12.1673 18.9961 11.2845 19.4023C10.4095 19.8008 9.34703 20 8.09703 20H0.901718V3.03125ZM7.39391 17.0938C8.37828 17.0938 9.10875 16.9102 9.58531 16.543C10.0619 16.168 10.3002 15.6484 10.3002 14.9844C10.3002 14.5078 10.183 14.0859 9.94859 13.7188C9.72203 13.3516 9.39781 13.0664 8.97594 12.8633C8.55406 12.6523 8.05797 12.5469 7.48766 12.5469H4.41734V17.0938H7.39391ZM7.13609 10.1328C7.62828 10.1328 8.06969 10.0469 8.46031 9.875C8.85094 9.69531 9.15562 9.44141 9.37437 9.11328C9.60094 8.78516 9.71422 8.39844 9.71422 7.95312C9.71422 7.32812 9.49156 6.82812 9.04625 6.45312C8.60875 6.07812 7.99547 5.89062 7.20641 5.89062H4.41734V10.1328H7.13609ZM21.3514 20.2578C20.0858 20.2578 18.9842 19.9844 18.0467 19.4375C17.1092 18.8906 16.3866 18.1211 15.8787 17.1289C15.3709 16.1289 15.117 14.9766 15.117 13.6719C15.117 12.3672 15.367 11.2188 15.867 10.2266C16.3748 9.23438 17.0975 8.46875 18.035 7.92969C18.9803 7.38281 20.0858 7.10938 21.3514 7.10938C22.617 7.10938 23.7225 7.38281 24.6678 7.92969C25.6131 8.46875 26.3397 9.23438 26.8475 10.2266C27.3553 11.2188 27.6092 12.3672 27.6092 13.6719C27.6092 14.9766 27.3553 16.1289 26.8475 17.1289C26.3397 18.1211 25.6131 18.8906 24.6678 19.4375C23.7225 19.9844 22.617 20.2578 21.3514 20.2578ZM21.3748 17.5625C21.953 17.5625 22.4452 17.3984 22.8514 17.0703C23.2577 16.7344 23.5623 16.2734 23.7655 15.6875C23.9686 15.1016 24.0702 14.4297 24.0702 13.6719C24.0702 12.9141 23.9686 12.2422 23.7655 11.6562C23.5623 11.0625 23.2577 10.5977 22.8514 10.2617C22.4452 9.92578 21.953 9.75781 21.3748 9.75781C20.7889 9.75781 20.2889 9.92578 19.8748 10.2617C19.4686 10.5977 19.16 11.0625 18.9491 11.6562C18.7381 12.2422 18.6327 12.9141 18.6327 13.6719C18.6327 14.4219 18.7381 15.0938 18.9491 15.6875C19.16 16.2734 19.4686 16.7344 19.8748 17.0703C20.2889 17.3984 20.7889 17.5625 21.3748 17.5625ZM29.3089 7.27344H32.6605V9.47656H32.8011C33.0277 8.70312 33.4144 8.11328 33.9613 7.70703C34.5081 7.29297 35.1448 7.08594 35.8714 7.08594C36.2698 7.08594 36.637 7.125 36.973 7.20312V10.2969C36.8011 10.25 36.5706 10.207 36.2816 10.168C35.9925 10.1289 35.7308 10.1094 35.4964 10.1094C34.9808 10.1094 34.5159 10.2227 34.1019 10.4492C33.6878 10.6758 33.3636 10.9922 33.1292 11.3984C32.8948 11.7969 32.7777 12.25 32.7777 12.7578V20H29.3089V7.27344ZM37.2195 16.4375C37.2195 15.125 37.6609 14.1641 38.5438 13.5547C39.4266 12.9453 40.5633 12.6016 41.9539 12.5234C42.8133 12.4688 43.868 12.4141 45.118 12.3594V11.3281C45.1023 10.7969 44.9188 10.3828 44.5672 10.0859C44.2156 9.78906 43.7195 9.64062 43.0789 9.64062C42.5008 9.64062 42.0281 9.76562 41.6609 10.0156C41.2938 10.2656 41.0633 10.6094 40.9695 11.0469H37.6648C37.7352 10.2969 37.993 9.625 38.4383 9.03125C38.8914 8.4375 39.5203 7.96875 40.325 7.625C41.1297 7.28125 42.0789 7.10938 43.1727 7.10938C44.1414 7.10938 45.032 7.26172 45.8445 7.56641C46.6648 7.87109 47.3211 8.34766 47.8133 8.99609C48.3133 9.63672 48.5633 10.4453 48.5633 11.4219V20H45.282V18.2422H45.1883C44.8523 18.8594 44.3719 19.3477 43.7469 19.707C43.1297 20.0586 42.368 20.2344 41.4617 20.2344C40.6336 20.2344 39.8992 20.0938 39.2586 19.8125C38.6258 19.5234 38.1258 19.0938 37.7586 18.5234C37.3992 17.9531 37.2195 17.2578 37.2195 16.4375ZM40.5477 16.3438C40.5477 16.8203 40.7195 17.1914 41.0633 17.457C41.4148 17.7148 41.8758 17.8438 42.4461 17.8438C42.9617 17.8438 43.4227 17.7383 43.8289 17.5273C44.243 17.3164 44.5633 17.0273 44.7898 16.6602C45.0164 16.293 45.1258 15.8906 45.118 15.4531V14.5273C44.7508 14.5352 44.2977 14.5547 43.7586 14.5859C43.2195 14.6172 42.8055 14.6484 42.5164 14.6797C41.907 14.7422 41.4266 14.9141 41.075 15.1953C40.7234 15.4766 40.5477 15.8594 40.5477 16.3438ZM56.9192 2.25781C58.0286 2.25 59.0325 2.47266 59.9309 2.92578C60.8372 3.37109 61.5442 3.99219 62.052 4.78906C62.5677 5.58594 62.8255 6.48438 62.8255 7.48438C62.8255 8.49219 62.5677 9.39453 62.052 10.1914C61.5442 10.9883 60.8411 11.6133 59.9427 12.0664C59.0442 12.5117 58.0364 12.7344 56.9192 12.7344C55.802 12.7344 54.7903 12.5117 53.8841 12.0664C52.9856 11.6133 52.2786 10.9883 51.763 10.1914C51.2473 9.39453 50.9895 8.49219 50.9895 7.48438C50.9895 6.48438 51.2473 5.58594 51.763 4.78906C52.2786 3.99219 52.9895 3.37109 53.8958 2.92578C54.802 2.47266 55.8098 2.25 56.9192 2.25781ZM56.9192 4.83594C56.3567 4.83594 55.8489 4.94141 55.3958 5.15234C54.9427 5.36328 54.5872 5.67187 54.3294 6.07812C54.0794 6.47656 53.9583 6.94531 53.9661 7.48438C53.9583 8.03125 54.0794 8.50391 54.3294 8.90234C54.5872 9.30078 54.9388 9.60547 55.3841 9.81641C55.8372 10.0273 56.3489 10.1328 56.9192 10.1328C57.4895 10.1328 57.9973 10.0273 58.4427 9.81641C58.8958 9.60547 59.2513 9.30078 59.5091 8.90234C59.7747 8.50391 59.9114 8.03125 59.9192 7.48438C59.9114 6.9375 59.7786 6.46484 59.5208 6.06641C59.263 5.66797 58.9075 5.36328 58.4544 5.15234C58.0013 4.94141 57.4895 4.83594 56.9192 4.83594ZM67.9348 22.2031H64.9583V0.828125H67.9348V22.2031ZM51.2708 15.4062C56.2786 15.4062 60.4348 15.1797 63.7395 14.7266L63.9739 16.8828C61.8802 17.2891 59.7434 17.5508 57.5638 17.668C55.3841 17.7852 53.013 17.8438 50.4505 17.8438L50.0989 15.4062H51.2708ZM94.8186 12.8281H75.3186V10.3906H94.8186V12.8281ZM92.6623 8.89062H77.7327V1.34375H92.428V3.80469H80.6858V6.52344H92.6623V8.89062ZM92.6858 21.8984H77.6623V14.375H92.5217V16.7656H80.6389V19.5078H92.6858V21.8984ZM112.901 8.98438H97.9948V1.57812H100.971V6.64062H112.901V8.98438ZM115.081 13.625H95.5573V11.2812H115.081V13.625ZM113.042 21.6875H97.8073V15.3594H100.807V19.2969H113.042V21.6875ZM126.636 2.32812C127.715 2.32812 128.679 2.64063 129.531 3.26562C130.382 3.88281 131.047 4.76562 131.523 5.91406C132.007 7.0625 132.254 8.39844 132.261 9.92188C132.254 11.4531 132.007 12.7969 131.523 13.9531C131.047 15.1016 130.382 15.9883 129.531 16.6133C128.687 17.2305 127.722 17.5391 126.636 17.5391C125.55 17.5391 124.578 17.2305 123.718 16.6133C122.867 15.9883 122.199 15.1016 121.715 13.9531C121.238 12.7969 121.004 11.4531 121.011 9.92188C121.004 8.40625 121.238 7.07422 121.715 5.92578C122.199 4.77734 122.867 3.89062 123.718 3.26562C124.578 2.64063 125.55 2.32812 126.636 2.32812ZM126.636 5.02344C126.09 5.02344 125.609 5.21484 125.195 5.59766C124.781 5.97266 124.461 6.52734 124.234 7.26172C124.007 7.99609 123.894 8.88281 123.894 9.92188C123.894 10.9609 124.007 11.8516 124.234 12.5938C124.461 13.3281 124.781 13.8828 125.195 14.2578C125.609 14.6328 126.09 14.8203 126.636 14.8203C127.191 14.8203 127.675 14.6328 128.09 14.2578C128.504 13.8828 128.824 13.3281 129.05 12.5938C129.277 11.8594 129.394 10.9688 129.402 9.92188C129.394 8.88281 129.277 7.99609 129.05 7.26172C128.824 6.52734 128.504 5.97266 128.09 5.59766C127.675 5.21484 127.191 5.02344 126.636 5.02344ZM137.722 8.86719H140.863V11.3516H137.722V22.1562H134.722V0.828125H137.722V8.86719ZM153.18 5.02344H145.281V8.53906H152.289V10.8828H145.281V14.9141C147.063 14.8984 148.633 14.8477 149.992 14.7617C151.352 14.6758 152.735 14.5234 154.141 14.3047L154.422 16.7188C152.852 16.9453 151.277 17.1016 149.699 17.1875C148.129 17.2656 146.281 17.3047 144.156 17.3047H142.328V2.58594H153.18V5.02344ZM159.086 22.1562H156.063V0.828125H159.086V22.1562ZM178.622 3.45312C178.622 4.58594 178.598 5.56641 178.551 6.39453C178.505 7.22266 178.387 8.11719 178.2 9.07812H180.825V11.4453H161.465V9.07812H175.212C175.313 8.58594 175.407 7.98438 175.493 7.27344L163.551 7.74219L163.223 5.44531L175.633 5.1875C175.641 4.90625 175.645 4.49219 175.645 3.94531H163.809V1.60156H178.622V3.45312ZM178.715 18.3125H166.575V19.625H179.465V21.9219H163.598V16.1562H175.739V14.9844H163.575V12.7109H178.715V18.3125Z" fill="white"/>
</svg>
