<svg width="6" height="11" viewBox="0 0 6 11" fill="none" xmlns="http://www.w3.org/2000/svg">
<path d="M4.72624 5.49627L0.166747 0.975839C0.0606002 0.870601 0.00752678 0.739054 0.00752678 0.581198C0.00752678 0.423342 0.0606002 0.287011 0.166747 0.172207C0.282544 0.0574023 0.420052 0 0.579272 0C0.738493 0 0.876001 0.0574023 0.991798 0.172207L5.75393 4.89354C5.84078 4.97965 5.9035 5.07532 5.9421 5.18056C5.9807 5.28579 6 5.39103 6 5.49627C6 5.60151 5.9807 5.70674 5.9421 5.81198C5.9035 5.91722 5.84078 6.01289 5.75393 6.09899L0.977323 10.8347C0.861527 10.9495 0.726431 11.0045 0.572035 10.9997C0.41764 10.9949 0.282544 10.9351 0.166747 10.8203C0.0606002 10.7055 0.00511435 10.5716 0.000289491 10.4185C-0.00453537 10.2654 0.0509505 10.1315 0.166747 10.0167L4.72624 5.49627Z" fill="white"/>
</svg>
