<svg width="41" height="41" viewBox="0 0 41 41" fill="none" xmlns="http://www.w3.org/2000/svg">
<path d="M20.5 20.457C18.6208 20.457 17.0833 19.8591 15.8875 18.6633C14.6916 17.4674 14.0937 15.9299 14.0937 14.0508C14.0937 12.1716 14.6916 10.6341 15.8875 9.43828C17.0833 8.24245 18.6208 7.64453 20.5 7.64453C22.3791 7.64453 23.9166 8.24245 25.1125 9.43828C26.3083 10.6341 26.9062 12.1716 26.9062 14.0508C26.9062 15.9299 26.3083 17.4674 25.1125 18.6633C23.9166 19.8591 22.3791 20.457 20.5 20.457ZM31.6041 34.1664H9.39581C8.69113 34.1664 8.08787 33.9155 7.58605 33.4137C7.08422 32.9118 6.83331 32.3086 6.83331 31.6039V30.1518C6.83331 29.0699 7.1038 28.1445 7.64477 27.3758C8.18574 26.607 8.88331 26.0234 9.73748 25.6247C11.6451 24.7706 13.4745 24.1299 15.2255 23.7029C16.9765 23.2758 18.7347 23.0622 20.5 23.0622C22.2653 23.0622 24.0163 23.2829 25.7531 23.7242C27.4899 24.1655 29.311 24.8018 31.2164 25.633C32.1076 26.0352 32.8221 26.6184 33.3599 27.3826C33.8977 28.1468 34.1666 29.0699 34.1666 30.1518V31.6039C34.1666 32.3086 33.9157 32.9118 33.4139 33.4137C32.9121 33.9155 32.3088 34.1664 31.6041 34.1664ZM9.39581 31.6039H31.6041V30.1518C31.6041 29.6963 31.4689 29.2621 31.1984 28.8492C30.9279 28.4364 30.5934 28.1303 30.1948 27.931C28.3725 27.0484 26.7069 26.4433 25.1979 26.1159C23.6889 25.7885 22.1229 25.6247 20.5 25.6247C18.8771 25.6247 17.2969 25.7885 15.7594 26.1159C14.2219 26.4433 12.5562 27.0484 10.7625 27.931C10.3639 28.1303 10.0364 28.4364 9.78019 28.8492C9.52394 29.2621 9.39581 29.6963 9.39581 30.1518V31.6039ZM20.5 17.8945C21.6104 17.8945 22.5286 17.5315 23.2547 16.8055C23.9807 16.0794 24.3437 15.1612 24.3437 14.0508C24.3437 12.9404 23.9807 12.0221 23.2547 11.2961C22.5286 10.5701 21.6104 10.207 20.5 10.207C19.3896 10.207 18.4713 10.5701 17.7453 11.2961C17.0193 12.0221 16.6562 12.9404 16.6562 14.0508C16.6562 15.1612 17.0193 16.0794 17.7453 16.8055C18.4713 17.5315 19.3896 17.8945 20.5 17.8945Z" fill="white" fill-opacity="0.5"/>
</svg>
