<svg width="54" height="12" viewBox="0 0 54 12" fill="none" xmlns="http://www.w3.org/2000/svg">
<path d="M10.0078 6.8125V7.87891H5.8125V11.0547H4.52344V7.87891H0.351562V6.8125H10.0078ZM0.878906 5.13672C2.99414 4.87891 4.38281 3.79492 4.51172 2.73438H1.24219V1.70312H4.52344V0.460938H5.8125V1.70312H9.10547V2.73438H5.83594C5.95898 3.7832 7.3418 4.87891 9.45703 5.13672L8.97656 6.16797C7.22461 5.94531 5.86523 5.17773 5.17969 4.1582C4.48828 5.18945 3.11133 5.94531 1.34766 6.16797L0.878906 5.13672ZM14.2913 2.95703C14.2854 4.2168 15.1702 5.44141 16.8459 5.95703L16.2131 6.97656C15.012 6.61914 14.1389 5.85156 13.6584 4.87891C13.1897 5.92773 12.3166 6.75391 11.0803 7.15234L10.4475 6.13281C12.1174 5.61133 12.9905 4.31641 12.9905 2.95703V2.79297H10.7756V1.76172H12.9905V0.519531H14.303V1.76172H16.5061V2.79297H14.2913V2.95703ZM12.4045 10.832V7.64453H13.7053V9.77734H19.6233V10.832H12.4045ZM16.1545 4.65625V3.61328H18.053V0.460938H19.3538V8.32422H18.053V4.65625H16.1545ZM28.9636 1.49219C28.9519 4.68555 27.9909 7.47461 24.0534 9.40234L23.362 8.39453C25.1843 7.50391 26.3152 6.44336 26.9655 5.17188L23.5964 5.47656L23.4323 4.36328L27.3816 4.11719C27.528 3.625 27.6159 3.09766 27.6628 2.54688H23.9714V1.49219H28.9636ZM30.7566 11.043V0.449219H32.0691V11.043H30.7566ZM42.2939 0.460938V11.0312H40.9697V8.60547H38.7197V7.62109H40.9697V0.460938H42.2939ZM33.3056 5.89844C35.2978 5.89258 37.9463 5.88672 40.2431 5.57031L40.3252 6.53125C39.3525 6.69531 38.3505 6.80078 37.372 6.86523V10.7148H36.0595V6.92969C35.1338 6.96484 34.2548 6.96484 33.4697 6.96484L33.3056 5.89844ZM34.0673 3.0625C34.0673 1.80273 35.1923 0.917969 36.7861 0.917969C38.3447 0.917969 39.4814 1.80273 39.4814 3.0625C39.4814 4.35156 38.3447 5.18945 36.7861 5.19531C35.1923 5.18945 34.0673 4.35156 34.0673 3.0625ZM35.2978 3.0625C35.292 3.77148 35.8955 4.19922 36.7861 4.19922C37.6298 4.19922 38.2392 3.77148 38.2392 3.0625C38.2392 2.37109 37.6357 1.91406 36.7861 1.91406C35.8955 1.91406 35.292 2.37109 35.2978 3.0625ZM52.0852 5.41797V6.46094H44.6555V1.375H52.0031V2.42969H45.9445V5.41797H52.0852ZM43.4836 9.69531V8.61719H53.1633V9.69531H43.4836Z" fill="white" fill-opacity="0.7"/>
</svg>
