<svg width="15" height="26" viewBox="0 0 15 26" fill="none" xmlns="http://www.w3.org/2000/svg">
<g id="&#236;&#151;&#176;&#234;&#178;&#176;">
<ellipse id="Ellipse 6" cx="7.72054" cy="7.49996" rx="7.72054" ry="7.49996" transform="matrix(4.37114e-08 -1 -1 -4.37114e-08 15 25.7061)" fill="#6F54E3" fill-opacity="0.1"/>
<ellipse id="Ellipse 5" cx="4.63233" cy="4.41174" rx="4.63233" ry="4.41174" transform="matrix(4.37114e-08 -1 -1 -4.37114e-08 11.9121 22.6182)" fill="#6F54E3" fill-opacity="0.33"/>
<path id="Vector 14" d="M8 19.1765C8.64974 19.1765 9.17646 18.6497 9.17646 18C9.17646 17.3503 8.64974 16.8235 8 16.8235C7.35026 16.8235 6.82354 17.3503 6.82354 18C6.82354 18.6497 7.35026 19.1765 8 19.1765ZM8.22059 18L8.22059 -1.91699e-06L7.77941 -1.89771e-06L7.77941 18L8.22059 18Z" fill="#6F54E3"/>
</g>
</svg>
