<svg width="34" height="34" viewBox="0 0 34 34" fill="none" xmlns="http://www.w3.org/2000/svg">
<path d="M16.2708 31.1667C12.8258 27.932 10.2528 24.9275 8.55166 22.1532C6.85055 19.3789 6 16.8112 6 14.45C6 10.9084 7.03243 8.08685 9.0973 5.98546C11.1622 3.88407 13.5533 2.83337 16.2708 2.83337C18.9883 2.83337 21.3795 3.88407 23.4444 5.98546C25.5092 8.08685 26.5417 10.9084 26.5417 14.45C26.5417 16.8112 25.6911 19.3789 23.99 22.1532C22.2889 24.9275 19.7158 27.932 16.2708 31.1667Z" fill="url(#paint0_linear_105_119)"/>
<path d="M14.4092 16L15.0079 13.4118L13 11.6711L15.6526 11.4408L16.6842 9L17.7158 11.4408L20.3684 11.6711L18.3605 13.4118L18.9592 16L16.6842 14.6276L14.4092 16Z" fill="white"/>
<defs>
<linearGradient id="paint0_linear_105_119" x1="8.83333" y1="5.66671" x2="21.5833" y2="25.8542" gradientUnits="userSpaceOnUse">
<stop stop-color="#5A45F5"/>
<stop offset="1" stop-color="#EC90EE"/>
</linearGradient>
</defs>
</svg>
