<svg width="390" height="47" viewBox="0 0 390 47" fill="none" xmlns="http://www.w3.org/2000/svg">
<path d="M347.16 21.6601C347.16 20.0971 348.427 18.8301 349.99 18.8301H365.99C367.553 18.8301 368.82 20.0971 368.82 21.6601V27.0001C368.82 28.563 367.553 29.8301 365.99 29.8301H349.99C348.427 29.8301 347.16 28.563 347.16 27.0001V21.6601Z" stroke="white" stroke-opacity="0.4"/>
<path d="M370.33 22.3301V26.3301C371.135 25.9913 371.658 25.2032 371.658 24.3301C371.658 23.4569 371.135 22.6689 370.33 22.3301Z" fill="white" fill-opacity="0.4"/>
<rect x="348.66" y="20.3301" width="18.66" height="8" rx="1.33333" fill="white"/>
<path fill-rule="evenodd" clip-rule="evenodd" d="M333.017 20.4922C335.442 20.4923 337.774 21.424 339.532 23.0948C339.664 23.2238 339.876 23.2222 340.006 23.0912L341.271 21.8145C341.337 21.748 341.374 21.658 341.373 21.5644C341.373 21.4707 341.335 21.3811 341.268 21.3155C336.655 16.8948 329.378 16.8948 324.766 21.3155C324.699 21.3811 324.661 21.4706 324.66 21.5643C324.66 21.6579 324.696 21.748 324.762 21.8145L326.028 23.0912C326.158 23.2224 326.37 23.224 326.502 23.0948C328.26 21.4239 330.592 20.4922 333.017 20.4922ZM333.017 24.6459C334.349 24.6459 335.634 25.1411 336.622 26.0354C336.755 26.1623 336.966 26.1596 337.096 26.0292L338.36 24.7525C338.426 24.6855 338.463 24.5946 338.462 24.5002C338.461 24.4058 338.422 24.3158 338.355 24.2502C335.347 21.4526 330.69 21.4526 327.682 24.2502C327.614 24.3158 327.576 24.4059 327.575 24.5003C327.574 24.5947 327.611 24.6856 327.678 24.7525L328.941 26.0292C329.071 26.1596 329.281 26.1623 329.415 26.0354C330.402 25.1417 331.686 24.6465 333.017 24.6459ZM335.548 27.4406C335.55 27.5353 335.513 27.6266 335.445 27.6929L333.26 29.8987C333.196 29.9635 333.108 30 333.017 30C332.926 30 332.839 29.9635 332.775 29.8987L330.588 27.6929C330.521 27.6265 330.484 27.5352 330.486 27.4405C330.488 27.3459 330.529 27.2562 330.599 27.1928C331.995 26.0121 334.039 26.0121 335.435 27.1928C335.505 27.2563 335.546 27.346 335.548 27.4406Z" fill="white"/>
<path fill-rule="evenodd" clip-rule="evenodd" d="M318.33 18.6602H317.33C316.778 18.6602 316.33 19.1357 316.33 19.7223V28.928C316.33 29.5146 316.778 29.9902 317.33 29.9902H318.33C318.882 29.9902 319.33 29.5146 319.33 28.928V19.7223C319.33 19.1357 318.882 18.6602 318.33 18.6602ZM312.66 21.3202H313.66C314.212 21.3202 314.66 21.786 314.66 22.3606V28.9498C314.66 29.5244 314.212 29.9902 313.66 29.9902H312.66C312.108 29.9902 311.66 29.5244 311.66 28.9498V22.3606C311.66 21.786 312.108 21.3202 312.66 21.3202ZM309 23.9901H308C307.448 23.9901 307 24.4378 307 24.9901V28.9901C307 29.5424 307.448 29.9901 308 29.9901H309C309.552 29.9901 310 29.5424 310 28.9901V24.9901C310 24.4378 309.552 23.9901 309 23.9901ZM304.33 25.9901H303.33C302.778 25.9901 302.33 26.4378 302.33 26.9901V28.9901C302.33 29.5424 302.778 29.9901 303.33 29.9901H304.33C304.882 29.9901 305.33 29.5424 305.33 28.9901V26.9901C305.33 26.4378 304.882 25.9901 304.33 25.9901Z" fill="white"/>
<path d="M40.5204 19.0209C38.127 19.0209 36.4219 20.6573 36.4219 22.8977V22.913C36.4219 25.0081 37.9053 26.5527 40.0233 26.5527C41.5374 26.5527 42.5008 25.7804 42.9061 24.9087H43.059C43.059 24.9928 43.0514 25.0769 43.0514 25.1611C42.9672 27.2715 42.2255 28.9843 40.4745 28.9843C39.5034 28.9843 38.8229 28.4796 38.5323 27.7073L38.5093 27.6309H36.5671L36.5824 27.715C36.9342 29.4049 38.4482 30.6054 40.4745 30.6054C43.2502 30.6054 44.9247 28.4032 44.9247 24.687V24.6717C44.9247 20.6955 42.8755 19.0209 40.5204 19.0209ZM40.5127 25.0387C39.2587 25.0387 38.3488 24.1211 38.3488 22.8442V22.8289C38.3488 21.5978 39.3199 20.6267 40.5357 20.6267C41.7591 20.6267 42.7149 21.6131 42.7149 22.8748V22.89C42.7149 24.1364 41.7591 25.0387 40.5127 25.0387ZM48.1163 23.1806C48.8197 23.1806 49.332 22.6454 49.332 21.9725C49.332 21.2919 48.8197 20.7643 48.1163 20.7643C47.4204 20.7643 46.9005 21.2919 46.9005 21.9725C46.9005 22.6454 47.4204 23.1806 48.1163 23.1806ZM48.1163 28.8543C48.8197 28.8543 49.332 28.3267 49.332 27.6462C49.332 26.9656 48.8197 26.438 48.1163 26.438C47.4204 26.438 46.9005 26.9656 46.9005 27.6462C46.9005 28.3267 47.4204 28.8543 48.1163 28.8543ZM56.6603 30.3301H58.549V28.212H60.0324V26.5833H58.549V19.2962H55.758C54.2593 21.5749 52.6918 24.1135 51.2619 26.5986V28.212H56.6603V30.3301ZM53.097 26.6292V26.5145C54.1675 24.6411 55.4445 22.5995 56.5762 20.8714H56.6909V26.6292H53.097ZM64.325 30.3301H66.2978V19.2962H64.3326L61.4499 21.3225V23.1806L64.195 21.2384H64.325V30.3301Z" fill="white"/>
</svg>
