<svg width="31" height="17" viewBox="0 0 31 17" fill="none" xmlns="http://www.w3.org/2000/svg">
<path d="M6.36328 4.75195C6.3457 7.62598 8.08594 10.5264 10.5293 11.6074L9.52734 12.9258C7.7168 12.0645 6.28418 10.2979 5.5459 8.14453C4.81641 10.4561 3.36621 12.3545 1.47656 13.2773L0.457031 11.8711C2.93555 10.7725 4.67578 7.75781 4.67578 4.75195V2.0625H6.36328V4.75195ZM11.9531 16.5293V0.744141H13.623V16.5293H11.9531ZM21.2787 3.57422C21.2699 5.58691 22.6673 7.49414 25.0755 8.30273L24.2318 9.60352C22.4476 8.98828 21.138 7.75781 20.4525 6.21094C19.767 7.90723 18.3959 9.25195 16.5502 9.90234L15.6537 8.60156C18.1146 7.7666 19.6 5.72754 19.6088 3.55664V3.13477H16.1459V1.78125H24.6713V3.13477H21.2787V3.57422ZM17.7455 12.3633V11.0098H28.1517V16.4941H26.4818V12.3633H17.7455ZM26.4818 10.2363V0.744141H28.1517V4.78711H30.4369V6.19336H28.1517V10.2363H26.4818Z" fill="white" fill-opacity="0.7"/>
<path d="M0 17.8213H30.7533V19.1836H0V17.8213Z" fill="white" fill-opacity="0.7"/>
</svg>
