<svg width="35" height="35" viewBox="0 0 35 35" fill="none" xmlns="http://www.w3.org/2000/svg">
<circle cx="17.5" cy="17.5" r="17.5" fill="url(#paint0_linear_318_2374)"/>
<path d="M17.1975 13.2739L12.1369 18.3344C12.0032 18.4682 11.8471 18.535 11.6688 18.535C11.4904 18.535 11.3344 18.4682 11.2006 18.3344C11.0669 18.2006 11 18.0446 11 17.8662C11 17.6879 11.0669 17.5318 11.2006 17.3981L17.3981 11.2006C17.4724 11.1263 17.5467 11.0743 17.621 11.0446C17.6953 11.0149 17.7771 11 17.8662 11C17.9554 11 18.0372 11.0149 18.1115 11.0446C18.1858 11.0743 18.2601 11.1263 18.3344 11.2006L24.5318 17.3981C24.6656 17.5318 24.7325 17.6879 24.7325 17.8662C24.7325 18.0446 24.6656 18.2006 24.5318 18.3344C24.3981 18.4682 24.242 18.535 24.0637 18.535C23.8854 18.535 23.7293 18.4682 23.5955 18.3344L18.535 13.2739V24.3312C18.535 24.5244 18.4719 24.6842 18.3455 24.8105C18.2192 24.9368 18.0594 25 17.8662 25C17.673 25 17.5133 24.9368 17.3869 24.8105C17.2606 24.6842 17.1975 24.5244 17.1975 24.3312V13.2739Z" fill="white"/>
<defs>
<linearGradient id="paint0_linear_318_2374" x1="5.21541e-07" y1="35" x2="41.7081" y2="12.3552" gradientUnits="userSpaceOnUse">
<stop stop-color="#5A45F5"/>
<stop offset="1" stop-color="#AC85FF"/>
</linearGradient>
</defs>
</svg>
