<svg width="11" height="11" viewBox="0 0 11 11" fill="none" xmlns="http://www.w3.org/2000/svg">
<path d="M7.9155 10.2121H1.31986C1.1432 10.2121 1 10.0689 1 9.8922V4.66788C1 4.49123 1.1432 4.34803 1.31986 4.34803H2.79525C3.16977 4.34803 3.51682 4.15153 3.7095 3.83039L5.15439 1.42221C5.4662 0.902585 6.20054 0.853189 6.57908 1.32638C6.75751 1.54942 6.81503 1.84588 6.73294 2.11947L6.1879 3.93626C6.12633 4.14149 6.28002 4.34803 6.49427 4.34803H8.93322C9.63621 4.34803 10.1468 5.01653 9.96183 5.69473L8.9441 9.42638C8.81759 9.89028 8.39629 10.2121 7.9155 10.2121Z" stroke="#A397FF" stroke-width="0.79964" stroke-linecap="round"/>
</svg>
