<svg width="8" height="14" viewBox="0 0 8 14" fill="none" xmlns="http://www.w3.org/2000/svg">
<path d="M5.84971 6.96634L0.599715 1.71634C0.477493 1.59412 0.416382 1.44134 0.416382 1.25801C0.416382 1.07467 0.477493 0.916341 0.599715 0.783008C0.733048 0.649674 0.891382 0.583008 1.07471 0.583008C1.25805 0.583008 1.41638 0.649674 1.54971 0.783008L7.03305 6.26634C7.13305 6.36634 7.20527 6.47745 7.24971 6.59967C7.29416 6.7219 7.31638 6.84412 7.31638 6.96634C7.31638 7.08856 7.29416 7.21079 7.24971 7.33301C7.20527 7.45523 7.13305 7.56634 7.03305 7.66634L1.53305 13.1663C1.39971 13.2997 1.24416 13.3636 1.06638 13.358C0.888604 13.3525 0.733048 13.283 0.599715 13.1497C0.477493 13.0163 0.413604 12.8608 0.408048 12.683C0.402493 12.5052 0.466382 12.3497 0.599715 12.2163L5.84971 6.96634Z" fill="white"/>
</svg>
