<svg width="23" height="21" viewBox="0 0 23 21" fill="none" xmlns="http://www.w3.org/2000/svg">
<g id="&#240;&#159;&#166;&#134; icon &#34;Vote&#34;">
<g id="Group">
<path id="Vector" d="M14.8214 9.32068H16.611C17.0007 9.32068 17.3168 9.63646 17.3168 10.026C17.3168 10.4155 17.0007 10.7313 16.611 10.7313H6.72927C6.33945 10.7313 6.02344 10.4155 6.02344 10.026C6.02344 9.63646 6.33945 9.32068 6.72927 9.32068H7.79816C7.39939 8.87879 7.31066 8.2138 7.62447 7.67066L11.1536 1.56249C11.5435 0.887785 12.4069 0.656626 13.0821 1.04616L16.7496 3.16209C17.4248 3.55162 17.6562 4.41435 17.2664 5.08905L14.8214 9.32068ZM16.0438 4.38373L12.3762 2.2678L8.84702 8.37597L10.4845 9.32068H13.1913L16.0438 4.38373Z" fill="white"/>
<path id="Vector_2" d="M17.2601 7.91014L18.0746 6.50046C18.4996 6.516 18.896 6.72238 19.1522 7.06376L22.6813 11.7658C22.8646 12.01 22.9637 12.3071 22.9637 12.6122V19.1951C22.9637 19.9742 22.3317 20.6058 21.552 20.6058H1.78862C1.00899 20.6058 0.376953 19.9742 0.376953 19.1951V12.6122C0.376953 12.3071 0.476024 12.01 0.659287 11.7658L4.18846 7.06376C4.45506 6.70855 4.87346 6.49951 5.3178 6.49951H6.67793L6.00122 7.67074C5.95635 7.74839 5.91972 7.82852 5.89104 7.91014H5.3178L2.14154 12.142H21.1991L18.0228 7.91014H17.2601ZM1.78862 19.1951H21.552V13.5526H1.78862V19.1951Z" fill="white"/>
</g>
</g>
</svg>
