<svg width="350" height="76" viewBox="0 0 350 76" fill="none" xmlns="http://www.w3.org/2000/svg">
<rect y="38" width="350" height="13" rx="6.5" fill="#242237"/>
<rect y="38" width="77" height="13" rx="6.5" fill="url(#paint0_linear_105_180)"/>
<path d="M67.4898 64.5156V73H65.9898V64.5156H67.4898ZM68.6795 73V66.6367H70.1795V73H68.6795ZM68.574 64.9141C68.574 64.4688 68.9666 64.1055 69.4412 64.1055C69.9158 64.1055 70.3084 64.4688 70.3084 64.9141C70.3084 65.3652 69.9158 65.7285 69.4412 65.7344C68.9666 65.7285 68.574 65.3652 68.574 64.9141ZM74.1465 75.5195C72.459 75.5195 71.3867 74.7695 71.2871 73.5742H72.7754C72.8809 74.1309 73.4023 74.3887 74.1699 74.3945C75.0664 74.3887 75.6465 74.002 75.6465 73.0703V71.8516H75.5762C75.3418 72.3203 74.832 72.9062 73.7363 72.9062C72.2656 72.9062 71.1113 71.8398 71.1113 69.7656C71.1113 67.6738 72.2715 66.5547 73.748 66.5547C74.8672 66.5547 75.3418 67.2285 75.5762 67.6797H75.6465V66.6367H77.123V73.1055C77.123 74.7344 75.8633 75.5195 74.1465 75.5195ZM72.6348 69.7891C72.6348 70.9609 73.1621 71.7344 74.1465 71.7344C75.1133 71.7344 75.6582 71.0078 75.6582 69.7891C75.6582 68.5762 75.1191 67.7793 74.1465 67.7734C73.1504 67.7793 72.6348 68.6289 72.6348 69.7891ZM79.8127 69.2734V73H78.3127V64.5156H79.7776V67.7148H79.8596C80.1467 66.9941 80.7678 66.5547 81.7463 66.5547C83.0647 66.5547 83.9377 67.4102 83.9377 68.9453V73H82.4495V69.1797C82.4436 68.3125 81.9807 67.8145 81.1955 67.8203C80.387 67.8145 79.8127 68.3477 79.8127 69.2734ZM88.2915 66.6367V67.7852H87.0376V71.0898C87.0376 71.6992 87.3423 71.8223 87.7173 71.8281C87.893 71.834 88.186 71.8164 88.3735 71.8047V73.0234C88.1977 73.0527 87.9106 73.0879 87.5298 73.082C86.4048 73.0879 85.5376 72.5312 85.5493 71.3359V67.7852H84.6352V66.6367H85.5493V65.1133H87.0376V66.6367H88.2915Z" fill="white"/>
<path d="M180.955 73V66.6367H182.385V67.7148H182.467C182.731 66.9883 183.37 66.5547 184.213 66.5547C185.075 66.5547 185.696 66.9941 185.936 67.7148H186.006C186.282 67.0117 186.991 66.5547 187.916 66.5547C189.082 66.5547 189.903 67.3047 189.897 68.7227V73H188.409V68.957C188.409 68.166 187.928 67.8086 187.319 67.8086C186.586 67.8086 186.159 68.3066 186.159 69.0273V73H184.705V68.8984C184.7 68.2363 184.266 67.8086 183.627 67.8086C182.983 67.8086 182.455 68.3418 182.455 69.1328V73H180.955ZM193.911 73.1289C191.995 73.1289 190.817 71.8516 190.817 69.8594C190.817 67.8906 192.012 66.5547 193.829 66.5547C195.387 66.5547 196.735 67.5332 196.735 69.7656V70.2344H192.294C192.317 71.3184 192.956 71.9629 193.923 71.957C194.579 71.9629 195.018 71.6816 195.212 71.3008H196.676C196.407 72.4023 195.387 73.1289 193.911 73.1289ZM192.299 69.2148H195.305C195.299 68.3477 194.714 67.7148 193.852 67.7148C192.956 67.7148 192.352 68.4062 192.299 69.2148ZM200.022 73.1172C198.528 73.1113 197.397 71.916 197.397 69.8242C197.397 67.7031 198.558 66.5547 200.034 66.5547C201.153 66.5547 201.622 67.2285 201.85 67.6797H201.909V64.5156H203.397V73H201.933V71.9922H201.85C201.61 72.4609 201.124 73.1113 200.022 73.1172ZM198.921 69.8125C198.921 71.0137 199.448 71.8867 200.433 71.8867C201.399 71.8867 201.944 71.0547 201.944 69.8125C201.944 68.5762 201.405 67.7793 200.433 67.7734C199.436 67.7793 198.921 68.6289 198.921 69.8125ZM204.669 73V66.6367H206.169V73H204.669ZM204.564 64.9141C204.564 64.4688 204.956 64.1055 205.431 64.1055C205.905 64.1055 206.298 64.4688 206.298 64.9141C206.298 65.3652 205.905 65.7285 205.431 65.7344C204.956 65.7285 204.564 65.3652 204.564 64.9141ZM211.425 70.3281V66.6367H212.913V73H211.472V71.875H211.402C211.109 72.584 210.441 73.082 209.492 73.082C208.232 73.082 207.365 72.2148 207.359 70.6914V66.6367H208.859V70.457C208.859 71.2656 209.339 71.7812 210.066 71.7812C210.722 71.7812 211.425 71.3008 211.425 70.3281ZM214.103 73V66.6367H215.533V67.7148H215.615C215.879 66.9883 216.517 66.5547 217.361 66.5547C218.222 66.5547 218.843 66.9941 219.084 67.7148H219.154C219.429 67.0117 220.138 66.5547 221.064 66.5547C222.23 66.5547 223.05 67.3047 223.045 68.7227V73H221.556V68.957C221.556 68.166 221.076 67.8086 220.466 67.8086C219.734 67.8086 219.306 68.3066 219.306 69.0273V73H217.853V68.8984C217.847 68.2363 217.414 67.8086 216.775 67.8086C216.13 67.8086 215.603 68.3418 215.603 69.1328V73H214.103Z" fill="white" fill-opacity="0.3"/>
<path d="M317.466 69.2734V73H315.966V64.5156H317.431V67.7148H317.513C317.8 66.9941 318.421 66.5547 319.4 66.5547C320.718 66.5547 321.591 67.4102 321.591 68.9453V73H320.103V69.1797C320.097 68.3125 319.634 67.8145 318.849 67.8203C318.041 67.8145 317.466 68.3477 317.466 69.2734ZM325.594 73.1289C323.677 73.1289 322.5 71.8516 322.5 69.8594C322.5 67.8906 323.695 66.5547 325.511 66.5547C327.07 66.5547 328.418 67.5332 328.418 69.7656V70.2344H323.976C324 71.3184 324.638 71.9629 325.605 71.957C326.261 71.9629 326.701 71.6816 326.894 71.3008H328.359C328.09 72.4023 327.07 73.1289 325.594 73.1289ZM323.982 69.2148H326.988C326.982 68.3477 326.396 67.7148 325.535 67.7148C324.638 67.7148 324.035 68.4062 323.982 69.2148ZM329.045 71.207C329.045 69.7773 330.234 69.3613 331.412 69.2852C331.857 69.25 332.766 69.209 333.047 69.1973L333.041 68.6875C333.041 68.0547 332.637 67.6914 331.893 67.6914C331.225 67.6914 330.814 67.9961 330.697 68.4531H329.256C329.361 67.3691 330.334 66.5547 331.928 66.5547C333.135 66.5547 334.529 67.0527 334.529 68.7461V73H333.1V72.1211H333.053C332.771 72.6602 332.18 73.1289 331.178 73.1289C329.965 73.1289 329.045 72.4668 329.045 71.207ZM330.486 71.1953C330.486 71.7461 330.938 72.0273 331.564 72.0273C332.473 72.0273 333.053 71.4297 333.053 70.7148L333.047 70.1934C332.777 70.2051 331.945 70.2578 331.646 70.2812C330.938 70.3398 330.486 70.6387 330.486 71.1953ZM341.145 66.6367L338.871 73H337.231L334.957 66.6367H336.551L338.016 71.3711H338.086L339.563 66.6367H341.145ZM342.745 75.3906C342.446 75.3848 342.165 75.3789 341.971 75.3555V74.1602C342.153 74.1777 342.405 74.1777 342.604 74.1836C342.967 74.1777 343.272 74.1543 343.53 73.4688L343.659 73.1289L341.338 66.6367H342.92L344.397 71.4414H344.467L345.944 66.6367H347.526L344.971 73.7734C344.608 74.7871 343.94 75.3848 342.745 75.3906Z" fill="white" fill-opacity="0.3"/>
<path d="M76.2708 31.1668C72.8258 27.9321 70.2528 24.9276 68.5517 22.1533C66.8506 19.379 66 16.8113 66 14.4502C66 10.9085 67.0324 8.08697 69.0973 5.98558C71.1622 3.88419 73.5533 2.8335 76.2708 2.8335C78.9883 2.8335 81.3795 3.88419 83.4444 5.98558C85.5092 8.08697 86.5417 10.9085 86.5417 14.4502C86.5417 16.8113 85.6911 19.379 83.99 22.1533C82.2889 24.9276 79.7158 27.9321 76.2708 31.1668Z" fill="url(#paint1_linear_105_180)"/>
<path d="M74.4092 16L75.0079 13.4118L73 11.6711L75.6526 11.4408L76.6842 9L77.7158 11.4408L80.3684 11.6711L78.3605 13.4118L78.9592 16L76.6842 14.6276L74.4092 16Z" fill="white"/>
<path d="M203.397 29.0863C202.947 29.5469 202.478 30.0124 201.99 30.483L201.643 30.123C201.52 30.2413 201.396 30.36 201.271 30.479C201.146 30.36 201.022 30.2413 200.899 30.123L200.552 30.483C200.064 30.0124 199.595 29.5469 199.144 29.0863L199.502 28.7367C199.03 28.2547 198.58 27.7784 198.151 27.3081L197.781 27.6451C197.322 27.1416 196.886 26.6444 196.474 26.1534L196.857 25.8319C196.422 25.3144 196.015 24.8044 195.634 24.3022L195.236 24.6041C194.822 24.0575 194.438 23.519 194.086 22.9886L194.502 22.7118C194.319 22.436 194.144 22.1627 193.978 21.8919C193.799 21.5997 193.629 21.3102 193.47 21.0233L193.033 21.2664C192.686 20.6418 192.383 20.028 192.124 19.4251L192.584 19.2282C192.31 18.5891 192.089 17.9652 191.92 17.3565L191.438 17.4906C191.247 16.8036 191.118 16.1319 191.052 15.4754L191.55 15.4254C191.516 15.0955 191.5 14.7705 191.5 14.4502C191.5 14.0665 191.512 13.6923 191.537 13.3275L191.038 13.2936C191.093 12.491 191.206 11.729 191.377 11.0075L191.863 11.1228C192.039 10.3791 192.279 9.68348 192.582 9.03485L192.129 8.82348C192.458 8.11679 192.86 7.46045 193.334 6.85449L193.728 7.16258C193.953 6.87541 194.195 6.5999 194.454 6.33602C194.685 6.10077 194.92 5.87976 195.158 5.67285L194.831 5.29516C195.355 4.84015 195.899 4.44822 196.463 4.11937L196.715 4.55125C197.275 4.22465 197.854 3.96442 198.452 3.76975L198.297 3.29431C198.931 3.08774 199.587 2.95061 200.265 2.88294L200.315 3.38047C200.628 3.34919 200.947 3.3335 201.271 3.3335C201.595 3.3335 201.914 3.34919 202.227 3.38047L202.277 2.88294C202.954 2.95061 203.61 3.08774 204.245 3.29431L204.09 3.76975C204.688 3.96442 205.267 4.22465 205.827 4.55125L206.079 4.11937C206.642 4.44822 207.186 4.84015 207.711 5.29516L207.383 5.67285C207.622 5.87976 207.857 6.10077 208.088 6.33602C208.347 6.5999 208.589 6.87541 208.814 7.16258L209.207 6.85449C209.681 7.46045 210.083 8.11679 210.413 8.82348L209.96 9.03485C210.262 9.68348 210.502 10.3791 210.678 11.1228L211.165 11.0075C211.336 11.729 211.449 12.491 211.503 13.2936L211.004 13.3275C211.029 13.6923 211.042 14.0665 211.042 14.4502C211.042 14.7705 211.025 15.0955 210.992 15.4254L211.49 15.4754C211.424 16.1319 211.295 16.8036 211.104 17.4906L210.622 17.3565C210.453 17.9652 210.232 18.5891 209.958 19.2282L210.417 19.4251C210.159 20.028 209.856 20.6418 209.509 21.2664L209.072 21.0233C208.912 21.3102 208.743 21.5997 208.564 21.8919C208.398 22.1627 208.223 22.436 208.04 22.7118L208.456 22.9886C208.104 23.519 207.72 24.0575 207.306 24.6041L206.907 24.3022C206.527 24.8044 206.119 25.3144 205.685 25.8319L206.068 26.1534C205.655 26.6444 205.22 27.1416 204.76 27.6451L204.391 27.3081C203.962 27.7784 203.511 28.2547 203.04 28.7367L203.397 29.0863Z" stroke="#2B2C3F" stroke-dasharray="2 2"/>
<path d="M195.284 15.3767L195.829 13.019L194 11.4332L196.416 11.2235L197.356 9L198.296 11.2235L200.712 11.4332L198.883 13.019L199.429 15.3767L197.356 14.1265L195.284 15.3767Z" fill="#2B2C3F"/>
<path d="M203.571 15.3767L204.117 13.019L202.288 11.4332L204.704 11.2235L205.644 9L206.583 11.2235L209 11.4332L207.171 13.019L207.716 15.3767L205.644 14.1265L203.571 15.3767Z" fill="#2B2C3F"/>
<path d="M332.397 29.0863C331.947 29.5469 331.478 30.0124 330.99 30.483L330.643 30.123C330.52 30.2413 330.396 30.36 330.271 30.479C330.146 30.36 330.022 30.2413 329.899 30.123L329.552 30.483C329.064 30.0124 328.595 29.5469 328.144 29.0863L328.502 28.7367C328.03 28.2547 327.58 27.7784 327.151 27.3081L326.781 27.6451C326.322 27.1416 325.886 26.6444 325.474 26.1534L325.857 25.8319C325.422 25.3144 325.015 24.8044 324.634 24.3022L324.236 24.6041C323.822 24.0575 323.438 23.519 323.086 22.9886L323.502 22.7118C323.319 22.436 323.144 22.1627 322.978 21.8919C322.799 21.5997 322.629 21.3102 322.47 21.0233L322.033 21.2664C321.686 20.6418 321.383 20.028 321.124 19.4251L321.584 19.2282C321.31 18.5891 321.089 17.9652 320.92 17.3565L320.438 17.4906C320.247 16.8036 320.118 16.1319 320.052 15.4754L320.55 15.4254C320.516 15.0955 320.5 14.7705 320.5 14.4502C320.5 14.0665 320.512 13.6923 320.537 13.3275L320.038 13.2936C320.093 12.491 320.206 11.729 320.377 11.0075L320.863 11.1228C321.039 10.3791 321.279 9.68348 321.582 9.03485L321.129 8.82348C321.458 8.11679 321.86 7.46045 322.334 6.85449L322.728 7.16258C322.953 6.87541 323.195 6.5999 323.454 6.33602C323.685 6.10077 323.92 5.87976 324.158 5.67285L323.831 5.29516C324.355 4.84015 324.899 4.44822 325.463 4.11937L325.715 4.55125C326.275 4.22465 326.854 3.96442 327.452 3.76975L327.297 3.29431C327.931 3.08774 328.587 2.95061 329.265 2.88294L329.315 3.38047C329.628 3.34919 329.947 3.3335 330.271 3.3335C330.595 3.3335 330.914 3.34919 331.227 3.38047L331.277 2.88294C331.954 2.95061 332.61 3.08774 333.245 3.29431L333.09 3.76975C333.688 3.96442 334.267 4.22465 334.827 4.55125L335.079 4.11937C335.642 4.44822 336.186 4.84015 336.711 5.29516L336.383 5.67285C336.622 5.87976 336.857 6.10077 337.088 6.33602C337.347 6.5999 337.589 6.87541 337.814 7.16258L338.207 6.85449C338.681 7.46045 339.083 8.11679 339.413 8.82348L338.96 9.03485C339.262 9.68348 339.502 10.3791 339.678 11.1228L340.165 11.0075C340.336 11.729 340.449 12.491 340.503 13.2936L340.004 13.3275C340.029 13.6923 340.042 14.0665 340.042 14.4502C340.042 14.7705 340.025 15.0955 339.992 15.4254L340.49 15.4754C340.424 16.1319 340.295 16.8036 340.104 17.4906L339.622 17.3565C339.453 17.9652 339.232 18.5891 338.958 19.2282L339.417 19.4251C339.159 20.028 338.856 20.6418 338.509 21.2664L338.072 21.0233C337.912 21.3102 337.743 21.5997 337.564 21.8919C337.398 22.1627 337.223 22.436 337.04 22.7118L337.456 22.9886C337.104 23.519 336.72 24.0575 336.306 24.6041L335.907 24.3022C335.527 24.8044 335.119 25.3144 334.685 25.8319L335.068 26.1534C334.655 26.6444 334.22 27.1416 333.76 27.6451L333.391 27.3081C332.962 27.7784 332.511 28.2547 332.04 28.7367L332.397 29.0863Z" stroke="#2B2C3F" stroke-dasharray="2 2"/>
<path d="M324.284 20.3767L324.829 18.019L323 16.4332L325.416 16.2235L326.356 14L327.296 16.2235L329.712 16.4332L327.883 18.019L328.429 20.3767L326.356 19.1265L324.284 20.3767Z" fill="#2B2C3F"/>
<path d="M332.571 20.3767L333.117 18.019L331.288 16.4332L333.704 16.2235L334.644 14L335.583 16.2235L338 16.4332L336.171 18.019L336.716 20.3767L334.644 19.1265L332.571 20.3767Z" fill="#2B2C3F"/>
<path d="M328.284 13.3767L328.829 11.019L327 9.43322L329.416 9.22346L330.356 7L331.296 9.22346L333.712 9.43322L331.883 11.019L332.429 13.3767L330.356 12.1265L328.284 13.3767Z" fill="#2B2C3F"/>
<defs>
<linearGradient id="paint0_linear_105_180" x1="-5.64554e-07" y1="43.7661" x2="77" y2="43.7661" gradientUnits="userSpaceOnUse">
<stop stop-color="#5A45F5"/>
<stop offset="1" stop-color="#EC90EE"/>
</linearGradient>
<linearGradient id="paint1_linear_105_180" x1="68.8333" y1="5.66683" x2="81.5833" y2="25.8543" gradientUnits="userSpaceOnUse">
<stop stop-color="#5A45F5"/>
<stop offset="1" stop-color="#EC90EE"/>
</linearGradient>
</defs>
</svg>
