<svg width="71" height="25" viewBox="0 0 71 25" fill="none" xmlns="http://www.w3.org/2000/svg">
<path d="M16.75 16.75C16.75 12.55 19.975 9.75 24.3 9.75C28.625 9.75 31.85 12.55 31.85 16.75C31.85 20.95 28.625 23.75 24.3 23.75C19.975 23.75 16.75 20.95 16.75 16.75ZM21.45 16.75C21.45 18.55 22.6 19.85 24.3 19.85C26 19.85 27.15 18.55 27.15 16.75C27.15 14.95 26 13.65 24.3 13.65C22.6 13.65 21.45 14.95 21.45 16.75ZM44.9516 10.475L43.5766 14.925C42.8016 14.425 41.9016 14.125 40.9016 14.125C39.3766 14.125 38.1766 15.325 38.1766 17.375V23.25H33.4766V10.25H38.1766V12.425C38.8016 10.65 40.1766 9.75 41.7766 9.75C42.8766 9.75 44.0016 10 44.9516 10.475ZM44.3877 16.75C44.3877 12.55 47.1877 9.75 50.9377 9.75C52.5877 9.75 53.9627 10.5 54.7877 11.725V10.25H59.3877V23.25H54.7877V21.775C53.9627 23.075 52.5877 23.75 50.9377 23.75C47.1877 23.75 44.3877 20.95 44.3877 16.75ZM49.0877 16.75C49.0877 18.55 50.2377 19.85 51.9377 19.85C53.6377 19.85 54.7877 18.55 54.7877 16.75C54.7877 14.95 53.6377 13.65 51.9377 13.65C50.2377 13.65 49.0877 14.95 49.0877 16.75ZM64.852 24.5C63.277 24.5 62.052 23.275 62.052 21.775C62.052 20.275 63.277 19.05 64.852 19.05C66.427 19.05 67.652 20.275 67.652 21.775C67.652 23.275 66.427 24.5 64.852 24.5Z" fill="#5A45F5"/>
<g clip-path="url(#clip0_1288_10409)">
<path d="M14.2253 14.5899C13.488 13.7541 12.5078 13.2278 11.2854 13.0122L11.1813 13.0082C12.2599 12.7564 13.1139 12.2488 13.7437 11.4842C14.373 10.7202 14.6877 9.79835 14.6877 8.71972C14.6877 7.87481 14.4721 7.09272 14.0403 6.37344C13.6085 5.65473 12.9385 5.07863 12.0307 4.64741C11.123 4.21561 9.99458 4 8.64601 4H0V23.6078L9.26229 23.5036C10.5209 23.5036 11.6086 23.2654 12.5259 22.7889C13.4427 22.313 14.1393 21.6559 14.6164 20.8201C15.0923 19.9842 15.3311 19.0448 15.3311 18.0018C15.3311 16.5633 14.9622 15.4258 14.2253 14.5899ZM9.26229 20.3385L1.876 22.2558V5.50703L9.26229 7.12158V20.3385Z" fill="#5A45F5"/>
<path d="M7.75433 13.8869C8.09907 13.8869 8.37853 13.5567 8.37853 13.1495C8.37853 12.7422 8.09907 12.4121 7.75433 12.4121C7.40959 12.4121 7.13013 12.7422 7.13013 13.1495C7.13013 13.5567 7.40959 13.8869 7.75433 13.8869Z" fill="#5A45F5"/>
</g>
<defs>
<clipPath id="clip0_1288_10409">
<rect width="15.3311" height="19.6078" fill="white" transform="translate(0 4)"/>
</clipPath>
</defs>
</svg>
