<svg width="45" height="45" viewBox="0 0 45 45" fill="none" xmlns="http://www.w3.org/2000/svg">
<g id="&#235;&#140;&#147;&#234;&#184;&#128;&#235;&#139;&#172;&#234;&#184;&#176;">
<circle id="Ellipse 162" cx="22.0862" cy="22.5003" r="22.0862" fill="#4F5170"/>
<path id="Vector" d="M17.7166 24.3245H23.1017C23.2827 24.3245 23.4343 24.263 23.5567 24.1399C23.6791 24.0167 23.7403 23.8642 23.7403 23.6822C23.7403 23.5002 23.6791 23.3489 23.5567 23.2283C23.4343 23.1077 23.2827 23.0474 23.1017 23.0474H17.7166C17.5357 23.0474 17.3841 23.109 17.2617 23.2321C17.1393 23.3552 17.0781 23.5077 17.0781 23.6897C17.0781 23.8717 17.1393 24.023 17.2617 24.1436C17.3841 24.2642 17.5357 24.3245 17.7166 24.3245ZM17.7166 21.5575H26.6563C26.8373 21.5575 26.9889 21.4959 27.1113 21.3728C27.2337 21.2497 27.2949 21.0972 27.2949 20.9152C27.2949 20.7332 27.2337 20.5819 27.1113 20.4613C26.9889 20.3407 26.8373 20.2804 26.6563 20.2804H17.7166C17.5357 20.2804 17.3841 20.3419 17.2617 20.465C17.1393 20.5881 17.0781 20.7407 17.0781 20.9226C17.0781 21.1046 17.1393 21.2559 17.2617 21.3765C17.3841 21.4972 17.5357 21.5575 17.7166 21.5575ZM17.7166 18.7904H26.6563C26.8373 18.7904 26.9889 18.7289 27.1113 18.6058C27.2337 18.4827 27.2949 18.3301 27.2949 18.1481C27.2949 17.9661 27.2337 17.8148 27.1113 17.6942C26.9889 17.5736 26.8373 17.5133 26.6563 17.5133H17.7166C17.5357 17.5133 17.3841 17.5749 17.2617 17.698C17.1393 17.8211 17.0781 17.9736 17.0781 18.1556C17.0781 18.3376 17.1393 18.4889 17.2617 18.6095C17.3841 18.7301 17.5357 18.7904 17.7166 18.7904ZM17.0781 27.7088L14.758 30.0289C14.5594 30.2275 14.3288 30.2726 14.0663 30.1639C13.8037 30.0553 13.6725 29.8613 13.6725 29.5819V15.3635C13.6725 15.023 13.8002 14.725 14.0556 14.4696C14.311 14.2141 14.609 14.0864 14.9496 14.0864H29.4234C29.7639 14.0864 30.0619 14.2141 30.3174 14.4696C30.5728 14.725 30.7005 15.023 30.7005 15.3635V26.4317C30.7005 26.7723 30.5728 27.0703 30.3174 27.3257C30.0619 27.5811 29.7639 27.7088 29.4234 27.7088H17.0781Z" fill="white" fill-opacity="0.7"/>
</g>
</svg>
