<svg width="45" height="45" viewBox="0 0 45 45" fill="none" xmlns="http://www.w3.org/2000/svg">
<g id="&#234;&#176;&#144;&#236;&#160;&#149;&#237;&#145;&#156;&#237;&#152;&#132;">
<circle id="Ellipse 165" cx="22.2759" cy="22.5003" r="22.0862" fill="url(#paint0_linear_154_7138)"/>
<path id="Vector" d="M21.33 31.9658C20.156 31.9658 19.0527 31.7423 18.0201 31.2953C16.9876 30.8484 16.0846 30.2382 15.3113 29.4648C14.5379 28.6915 13.9278 27.7885 13.4808 26.756C13.0338 25.7234 12.8103 24.6202 12.8103 23.4462C12.8103 22.2722 13.0345 21.1672 13.4829 20.1314C13.9313 19.0955 14.5398 18.1944 15.3085 17.4282C16.0772 16.6619 16.9811 16.0553 18.0202 15.6083C19.0594 15.1613 20.1607 14.9378 21.3243 14.9378C21.9742 14.9378 22.6013 15.0088 23.2059 15.1507C23.8104 15.2926 24.3893 15.4912 24.9427 15.7467V17.7049C24.9427 18.0587 25.0671 18.36 25.3159 18.6088C25.5647 18.8576 25.866 18.982 26.2198 18.982H26.6455V19.4077C26.6455 19.7624 26.7697 20.064 27.018 20.3123C27.2664 20.5606 27.5679 20.6848 27.9226 20.6848H29.37C29.5261 21.1306 29.6432 21.5802 29.7212 22.0337C29.7993 22.4872 29.8383 22.9599 29.8383 23.4518C29.8383 24.6154 29.6148 25.7168 29.1678 26.7559C28.7208 27.795 28.1142 28.699 27.348 29.4676C26.5817 30.2363 25.6806 30.8448 24.6448 31.2932C23.6089 31.7416 22.504 31.9658 21.33 31.9658ZM21.3137 28.1132C22.1296 28.1132 22.8817 27.9288 23.5699 27.5598C24.2581 27.1909 24.815 26.6772 25.2407 26.0188C25.3259 25.8542 25.3206 25.6938 25.2248 25.5378C25.129 25.3817 24.9853 25.3036 24.7938 25.3036H17.8531C17.6556 25.3036 17.5107 25.3817 17.4185 25.5378C17.3263 25.6938 17.3227 25.8542 17.4079 26.0188C17.8336 26.6772 18.3905 27.1909 19.0787 27.5598C19.7669 27.9288 20.512 28.1132 21.3137 28.1132ZM18.2167 22.3237C18.536 22.3237 18.8073 22.212 19.0308 21.9885C19.2543 21.765 19.3661 21.4936 19.3661 21.1743C19.3661 20.8551 19.2543 20.5837 19.0308 20.3602C18.8073 20.1367 18.536 20.0249 18.2167 20.0249C17.8974 20.0249 17.626 20.1367 17.4025 20.3602C17.179 20.5837 17.0673 20.8551 17.0673 21.1743C17.0673 21.4936 17.179 21.765 17.4025 21.9885C17.626 22.212 17.8974 22.3237 18.2167 22.3237ZM24.4319 22.3237C24.7512 22.3237 25.0226 22.212 25.2461 21.9885C25.4696 21.765 25.5813 21.4936 25.5813 21.1743C25.5813 20.8551 25.4696 20.5837 25.2461 20.3602C25.0226 20.1367 24.7512 20.0249 24.4319 20.0249C24.1126 20.0249 23.8413 20.1367 23.6178 20.3602C23.3943 20.5837 23.2825 20.8551 23.2825 21.1743C23.2825 21.4936 23.3943 21.765 23.6178 21.9885C23.8413 22.212 24.1126 22.3237 24.4319 22.3237ZM28.3483 17.2792H27.0712C26.8903 17.2792 26.7387 17.2176 26.6163 17.0945C26.4939 16.9714 26.4327 16.8189 26.4327 16.6369C26.4327 16.4549 26.4939 16.3036 26.6163 16.183C26.7387 16.0624 26.8903 16.0021 27.0712 16.0021H28.3483V14.725C28.3483 14.5441 28.4099 14.3924 28.533 14.27C28.6561 14.1476 28.8087 14.0864 28.9906 14.0864C29.1726 14.0864 29.3239 14.1476 29.4445 14.27C29.5651 14.3924 29.6254 14.5441 29.6254 14.725V16.0021H30.9025C31.0835 16.0021 31.2351 16.0636 31.3575 16.1867C31.4799 16.3098 31.5411 16.4624 31.5411 16.6443C31.5411 16.8263 31.4799 16.9776 31.3575 17.0983C31.2351 17.2189 31.0835 17.2792 30.9025 17.2792H29.6254V18.5563C29.6254 18.7372 29.5639 18.8889 29.4408 19.0112C29.3177 19.1336 29.1651 19.1948 28.9832 19.1948C28.8012 19.1948 28.6499 19.1336 28.5293 19.0112C28.4087 18.8889 28.3483 18.7372 28.3483 18.5563V17.2792Z" fill="white"/>
</g>
<defs>
<linearGradient id="paint0_linear_154_7138" x1="6.5822e-07" y1="44.5865" x2="52.6385" y2="16.0071" gradientUnits="userSpaceOnUse">
<stop stop-color="#5A45F5"/>
<stop offset="1" stop-color="#AC85FF"/>
</linearGradient>
</defs>
</svg>
