<svg width="45" height="45" viewBox="0 0 45 45" fill="none" xmlns="http://www.w3.org/2000/svg">
<g id="&#235;&#176;&#145;&#236;&#164;&#132;">
<circle id="Ellipse 164" cx="22.0862" cy="22.5003" r="22.0862" fill="#4F5170"/>
<path id="Vector" d="M20.0324 20.8008L24.8979 25.6662L19.7405 30.8236C19.4324 31.1317 19.0066 31.2858 18.4633 31.2858C17.92 31.2858 17.4943 31.1317 17.1861 30.8236L16.9185 30.556L16.3104 31.1642C16.1806 31.2939 16.0225 31.3993 15.836 31.4804C15.6495 31.5615 15.4589 31.6021 15.2643 31.6021H12.9775C12.8153 31.6021 12.7059 31.525 12.6491 31.371C12.5923 31.2169 12.6207 31.0831 12.7343 30.9696L15.021 28.6828L14.9237 28.5855C14.5669 28.2287 14.3926 27.7786 14.4007 27.2353C14.4088 26.692 14.5912 26.242 14.948 25.8852L20.0324 20.8008ZM21.0785 19.7547L26.3332 14.5C26.6089 14.2243 26.9576 14.0864 27.3793 14.0864C27.801 14.0864 28.1496 14.2243 28.4254 14.5L31.15 17.2246C31.4257 17.5004 31.5595 17.8693 31.5514 18.3315C31.5433 18.7938 31.4014 19.1627 31.1257 19.4384L25.944 24.6201L21.0785 19.7547Z" fill="white" fill-opacity="0.7"/>
</g>
</svg>
