<svg width="45" height="45" viewBox="0 0 45 45" fill="none" xmlns="http://www.w3.org/2000/svg">
<g id="&#236;&#167;&#136;&#235;&#172;&#184;&#237;&#149;&#152;&#234;&#184;&#176;">
<circle id="Ellipse 163" cx="22.1724" cy="22.5003" r="22.0862" fill="url(#paint0_linear_154_7138)"/>
<path id="Subtract" fill-rule="evenodd" clip-rule="evenodd" d="M31.2124 22.8133C31.2124 27.6329 27.3052 31.5401 22.4855 31.5401C20.9408 31.5401 19.4897 31.1387 18.231 30.4346C18.1604 30.3951 18.0784 30.3808 17.9989 30.3956L14.6806 31.0134C14.4467 31.0569 14.2419 30.8521 14.2854 30.6182L14.9032 27.2999C14.918 27.2204 14.9037 27.1383 14.8642 27.0678C14.16 25.809 13.7587 24.358 13.7587 22.8133C13.7587 17.9936 17.6658 14.0864 22.4855 14.0864C27.3052 14.0864 31.2124 17.9936 31.2124 22.8133ZM22.0464 24.2054C22.1554 24.3346 22.3028 24.3992 22.4886 24.3992C22.6515 24.3992 22.7932 24.3427 22.9137 24.2296C23.0341 24.1165 23.1064 23.9752 23.1307 23.8056C23.163 23.5875 23.2357 23.3937 23.3487 23.224C23.4618 23.0544 23.6597 22.8323 23.9424 22.5577C24.3059 22.2104 24.5704 21.8792 24.7359 21.5642C24.9015 21.2493 24.9843 20.8996 24.9843 20.5152C24.9843 19.8848 24.7666 19.3447 24.3312 18.895C23.8958 18.4453 23.2735 18.2204 22.4643 18.2204C21.9703 18.2204 21.5398 18.3274 21.173 18.5415C20.8062 18.7555 20.5097 19.0281 20.2836 19.3593C20.1947 19.4966 20.1685 19.65 20.2048 19.8196C20.2412 19.9893 20.339 20.1077 20.4982 20.175C20.6297 20.2289 20.7641 20.2316 20.9015 20.1831C21.0388 20.1346 21.1518 20.0458 21.2407 19.9166C21.3633 19.7378 21.5232 19.5882 21.7204 19.4675C21.9175 19.3469 22.1655 19.2866 22.4643 19.2866C22.8982 19.2866 23.2368 19.4077 23.4803 19.65C23.7237 19.8923 23.8455 20.1945 23.8455 20.5566C23.8455 20.8568 23.7546 21.1382 23.5729 21.4007C23.3912 21.6632 23.1307 21.9479 22.7914 22.2548C22.5168 22.4971 22.3129 22.7314 22.1796 22.9575C22.0464 23.1837 21.9595 23.4421 21.9191 23.7329C21.8949 23.9187 21.9373 24.0762 22.0464 24.2054ZM21.8646 27.1786C22.0302 27.3449 22.2297 27.4281 22.4633 27.4281C22.6968 27.4281 22.8967 27.3453 23.063 27.1797C23.2293 27.0141 23.3124 26.8146 23.3124 26.5811C23.3124 26.3475 23.2296 26.1476 23.064 25.9814C22.8985 25.8151 22.6989 25.7319 22.4654 25.7319C22.2319 25.7319 22.032 25.8147 21.8657 25.9803C21.6994 26.1459 21.6163 26.3454 21.6163 26.5789C21.6163 26.8124 21.699 27.0123 21.8646 27.1786Z" fill="white"/>
</g>
<defs>
<linearGradient id="paint0_linear_154_7138" x1="6.5822e-07" y1="44.5865" x2="52.6385" y2="16.0071" gradientUnits="userSpaceOnUse">
<stop stop-color="#5A45F5"/>
<stop offset="1" stop-color="#AC85FF"/>
</linearGradient>
</defs>
</svg>
