<svg width="211" height="37" viewBox="0 0 211 37" fill="none" xmlns="http://www.w3.org/2000/svg">
<rect width="211" height="37" rx="18.5" fill="url(#paint0_linear_369_6874)"/>
<path d="M77.959 18.0781V19.2949H74.3086V21.5508H79.2031V22.7676H67.9102V21.5508H72.7773V19.2949H69.291V12.7734H77.8496V14.0039H70.8359V15.3984H77.5625V16.6016H70.8359V18.0781H77.959ZM91.2891 18.7617V19.9922H79.9961V18.7617H84.8906V17.6816H81.4316V14.4004H88.377V13.3613H81.3906V12.1719H89.8945V15.4805H82.9355V16.5059H90.1406V17.6816H86.3945V18.7617H91.2891ZM81.4453 24.2168V20.6758H82.9766V22.9863H90.168V24.2168H81.4453ZM101.803 16.2734V17.8457H106.697V19.0762H95.4316V17.8457H100.299V16.2734H101.803ZM95.9648 15.7539C98.248 15.5283 99.7314 14.6328 99.9844 13.6211H96.457V12.4043H105.686V13.6211H102.124C102.377 14.626 103.86 15.5283 106.164 15.7539L105.617 16.9434C103.375 16.7109 101.721 15.8359 101.051 14.5918C100.381 15.8359 98.7402 16.7109 96.498 16.9434L95.9648 15.7539ZM96.7441 22.0293C96.7441 20.6416 98.3506 19.8691 101.051 19.8691C103.73 19.8691 105.323 20.6416 105.33 22.0293C105.323 23.4307 103.73 24.2031 101.051 24.2031C98.3506 24.2031 96.7441 23.4307 96.7441 22.0293ZM98.2891 22.0293C98.2822 22.7061 99.2324 23.0547 101.051 23.0547C102.835 23.0547 103.799 22.7061 103.812 22.0293C103.799 21.373 102.835 21.0381 101.051 21.0312C99.2324 21.0381 98.2822 21.373 98.2891 22.0293ZM118.824 21.5234V22.7812H107.531V21.5234H110.525V19.4863H108.871V15.4531H115.98V13.9355H108.844V12.7051H117.484V16.6699H110.389V18.2559H117.771V19.4863H115.967V21.5234H118.824ZM112.002 21.5234H114.477V19.4863H112.002V21.5234ZM129.311 11.8574V16.7793H131.211V18.0371H129.311V24.2168H127.807V11.8574H129.311ZM119.562 14.9746V13.7578H122.488V12.0352H124.006V13.7578H126.85V14.9746H119.562ZM120.137 18.6934C120.123 16.9844 121.449 15.7744 123.254 15.7812C125.031 15.7744 126.351 16.9844 126.357 18.6934C126.351 20.3955 125.031 21.5918 123.254 21.5918C121.449 21.5918 120.123 20.3955 120.137 18.6934ZM121.586 18.6934C121.579 19.6982 122.283 20.3408 123.254 20.334C124.204 20.3408 124.895 19.6982 124.908 18.6934C124.895 17.6885 124.204 17.0254 123.254 17.0254C122.283 17.0254 121.579 17.6885 121.586 18.6934ZM142.053 11.8574V24.2168H140.521V11.8574H142.053ZM131.812 20.8125C135.053 19.2744 136.543 17.1826 136.816 14.373H132.441V13.1699H138.361C138.361 16.8477 136.933 19.9717 132.605 22.0293L131.812 20.8125Z" fill="white"/>
<defs>
<linearGradient id="paint0_linear_369_6874" x1="3.14415e-06" y1="37" x2="30.7524" y2="-58.2157" gradientUnits="userSpaceOnUse">
<stop stop-color="#5A45F5"/>
<stop offset="1" stop-color="#AC85FF"/>
</linearGradient>
</defs>
</svg>
