<svg width="150" height="37" viewBox="0 0 150 37" fill="none" xmlns="http://www.w3.org/2000/svg">
<rect width="150" height="37" rx="18.5" fill="url(#paint0_linear_369_5041)"/>
<path d="M45.459 18.0781V19.2949H41.8086V21.5508H46.7031V22.7676H35.4102V21.5508H40.2773V19.2949H36.791V12.7734H45.3496V14.0039H38.3359V15.3984H45.0625V16.6016H38.3359V18.0781H45.459ZM58.7891 18.7617V19.9922H47.4961V18.7617H52.3906V17.6816H48.9316V14.4004H55.877V13.3613H48.8906V12.1719H57.3945V15.4805H50.4355V16.5059H57.6406V17.6816H53.8945V18.7617H58.7891ZM48.9453 24.2168V20.6758H50.4766V22.9863H57.668V24.2168H48.9453ZM67.6074 14.8242C67.5938 17.0938 68.79 19.3633 70.793 20.2246L69.8906 21.4414C68.4688 20.7852 67.4297 19.4795 66.8555 17.8662C66.2881 19.6025 65.2217 21.0244 63.7246 21.7285L62.7949 20.457C64.8525 19.5684 66.0557 17.21 66.0625 14.8242V12.8555H67.6074V14.8242ZM71.6816 24.2305V11.8574H73.2129V24.2305H71.6816ZM79.4609 14.0039C79.4609 15.5283 80.4385 17.0254 82.3867 17.668L81.6211 18.8438C80.2334 18.3789 79.2559 17.4561 78.7158 16.3008C78.1689 17.5654 77.1436 18.5703 75.7012 19.0625L74.8945 17.8867C76.8838 17.2236 77.9297 15.624 77.9297 14.0039V13.8535H75.3184V12.6367H82.0312V13.8535H79.4609V14.0039ZM76.5488 21.0996V19.8828H84.7793V24.2168H83.2617V21.0996H76.5488ZM83.2617 19.3086V11.8574H84.7793V14.9473H86.502V16.2188H84.7793V19.3086H83.2617ZM96.8105 11.8574V16.7793H98.7109V18.0371H96.8105V24.2168H95.3066V11.8574H96.8105ZM87.0625 14.9746V13.7578H89.9883V12.0352H91.5059V13.7578H94.3496V14.9746H87.0625ZM87.6367 18.6934C87.623 16.9844 88.9492 15.7744 90.7539 15.7812C92.5312 15.7744 93.8506 16.9844 93.8574 18.6934C93.8506 20.3955 92.5312 21.5918 90.7539 21.5918C88.9492 21.5918 87.623 20.3955 87.6367 18.6934ZM89.0859 18.6934C89.0791 19.6982 89.7832 20.3408 90.7539 20.334C91.7041 20.3408 92.3945 19.6982 92.4082 18.6934C92.3945 17.6885 91.7041 17.0254 90.7539 17.0254C89.7832 17.0254 89.0791 17.6885 89.0859 18.6934ZM109.553 11.8574V24.2168H108.021V11.8574H109.553ZM99.3125 20.8125C102.553 19.2744 104.043 17.1826 104.316 14.373H99.9414V13.1699H105.861C105.861 16.8477 104.433 19.9717 100.105 22.0293L99.3125 20.8125ZM113.873 13.1016L113.723 20.0879H112.178L112.014 13.1016H113.873ZM111.891 22.043C111.884 21.4688 112.369 20.9971 112.957 20.9902C113.524 20.9971 114.01 21.4688 114.01 22.043C114.01 22.6309 113.524 23.1094 112.957 23.1094C112.369 23.1094 111.884 22.6309 111.891 22.043Z" fill="white"/>
<defs>
<linearGradient id="paint0_linear_369_5041" x1="2.23517e-06" y1="37" x2="39.5976" y2="-50.158" gradientUnits="userSpaceOnUse">
<stop stop-color="#5A45F5"/>
<stop offset="1" stop-color="#AC85FF"/>
</linearGradient>
</defs>
</svg>
