<svg width="31" height="31" viewBox="0 0 31 31" fill="none" xmlns="http://www.w3.org/2000/svg">
<path d="M4.84375 23.25C4.56927 23.25 4.33919 23.1566 4.15352 22.9699C3.96784 22.7831 3.875 22.5517 3.875 22.2756C3.875 21.9995 3.96784 21.77 4.15352 21.587C4.33919 21.404 4.56927 21.3125 4.84375 21.3125H26.1562C26.4307 21.3125 26.6608 21.4059 26.8465 21.5926C27.0322 21.7794 27.125 22.0108 27.125 22.2869C27.125 22.563 27.0322 22.7925 26.8465 22.9755C26.6608 23.1585 26.4307 23.25 26.1562 23.25H4.84375ZM4.84375 16.4688C4.56927 16.4688 4.33919 16.3754 4.15352 16.1886C3.96784 16.0018 3.875 15.7704 3.875 15.4943C3.875 15.2183 3.96784 14.9887 4.15352 14.8057C4.33919 14.6227 4.56927 14.5312 4.84375 14.5312H26.1562C26.4307 14.5312 26.6608 14.6246 26.8465 14.8114C27.0322 14.9982 27.125 15.2296 27.125 15.5057C27.125 15.7817 27.0322 16.0113 26.8465 16.1943C26.6608 16.3773 26.4307 16.4688 26.1562 16.4688H4.84375ZM4.84375 9.6875C4.56927 9.6875 4.33919 9.59412 4.15352 9.40737C3.96784 9.2206 3.875 8.98917 3.875 8.7131C3.875 8.43701 3.96784 8.20747 4.15352 8.02448C4.33919 7.84149 4.56927 7.75 4.84375 7.75H26.1562C26.4307 7.75 26.6608 7.84338 26.8465 8.03013C27.0322 8.2169 27.125 8.44833 27.125 8.7244C27.125 9.00049 27.0322 9.23003 26.8465 9.41302C26.6608 9.59601 26.4307 9.6875 26.1562 9.6875H4.84375Z" fill="white"/>
</svg>
