<svg width="390" height="67" viewBox="0 0 390 67" fill="none" xmlns="http://www.w3.org/2000/svg">
<path d="M27.6562 26.6406V35.8906H20.9688V26.6406H27.6562ZM22.6719 34.5H25.9219V28H22.6719V34.5ZM29.7969 39.3906V25.2656H31.5312V30.6875H33.7031V32.1562H31.5312V39.3906H29.7969ZM45.6379 25.2656V39.4062H43.8879V25.2656H45.6379ZM34.341 31.2812C34.3332 28.2344 35.8879 26.2969 38.0285 26.2969C40.1457 26.2969 41.7082 28.2344 41.716 31.2812C41.7082 34.3516 40.1457 36.2812 38.0285 36.2812C35.8879 36.2812 34.3332 34.3516 34.341 31.2812ZM36.0129 31.2812C36.0129 33.4531 36.8332 34.7109 38.0285 34.7188C39.216 34.7109 40.0285 33.4531 40.0285 31.2812C40.0285 29.125 39.216 27.8594 38.0285 27.8594C36.8332 27.8594 36.0129 29.125 36.0129 31.2812ZM59.5727 25.2656V39.3906H57.9165V25.2656H59.5727ZM47.1508 34.625H48.4321V28.3438H47.4321V26.9375H53.9008V28.3438H52.9008V34.4375C53.3462 34.3984 53.768 34.3516 54.1665 34.2969L54.2758 35.5625C52.0493 36.0156 49.143 36.0703 47.354 36.0625L47.1508 34.625ZM49.9946 34.5938C50.4243 34.5859 50.8696 34.5703 51.3071 34.5469V28.3438H49.9946V34.5938ZM53.5415 32.0312V30.4844H55.104V25.5625H56.7602V38.6875H55.104V32.0312H53.5415ZM72.4763 25.2656V39.4062H70.7263V25.2656H72.4763ZM61.1794 31.2812C61.1716 28.2344 62.7263 26.2969 64.8669 26.2969C66.9841 26.2969 68.5466 28.2344 68.5544 31.2812C68.5466 34.3516 66.9841 36.2812 64.8669 36.2812C62.7263 36.2812 61.1716 34.3516 61.1794 31.2812ZM62.8513 31.2812C62.8513 33.4531 63.6716 34.7109 64.8669 34.7188C66.0544 34.7109 66.8669 33.4531 66.8669 31.2812C66.8669 29.125 66.0544 27.8594 64.8669 27.8594C63.6716 27.8594 62.8513 29.125 62.8513 31.2812ZM79.4736 29.2812C79.4736 31.5938 80.8329 34.0312 83.1142 34.9844L82.1611 36.3594C80.4892 35.6328 79.2704 34.1562 78.622 32.3594C77.9736 34.2969 76.7314 35.9219 75.0829 36.7031L74.0829 35.3438C76.3095 34.3125 77.7001 31.6797 77.7079 29.2812V28.0938H74.5986V26.6562H82.5673V28.0938H79.4736V29.2812ZM84.1454 39.3906V25.2656H85.8954V39.3906H84.1454Z" fill="white"/>
</svg>
