<svg width="390" height="67" viewBox="0 0 390 67" fill="none" xmlns="http://www.w3.org/2000/svg">
<path d="M31.9375 31.6875V33.0625H27.75V36.2969H33.375V37.7188H20.4688V36.2969H26.0312V33.0625H22.0312V26.3125H31.8281V27.7031H23.7656V31.6875H31.9375ZM40.3098 25.4844C43.4348 25.4922 45.3957 26.5 45.4035 28.2031C45.3957 29.875 43.4348 30.875 40.3098 30.8594C37.216 30.875 35.216 29.875 35.216 28.2031C35.216 26.5 37.216 25.4922 40.3098 25.4844ZM33.8879 33.1094V31.7188H46.7629V33.1094H41.1692V34.4688H45.2004V39.2188H35.4035V34.4688H39.4504V33.1094H33.8879ZM37.0285 28.2031C37.0129 29.0625 38.2473 29.5312 40.3098 29.5312C42.3723 29.5312 43.6067 29.0625 43.6067 28.2031C43.6067 27.3047 42.3723 26.8203 40.3098 26.8281C38.2473 26.8203 37.0129 27.3047 37.0285 28.2031ZM37.1223 37.8125H43.5129V35.8438H37.1223V37.8125ZM58.4477 25.2656V28.1094H60.4165V29.5469H58.4477V32.3594H56.7133V25.2656H58.4477ZM47.7915 31.7656V25.9844H54.479V31.7656H47.7915ZM49.2133 34.3125V32.9688H58.4477V36.6719H50.9477V37.8438H58.8852V39.2188H49.229V35.4062H56.7133V34.3125H49.2133ZM49.4946 30.3906H52.7758V27.3594H49.4946V30.3906Z" fill="white"/>
</svg>
