<svg width="390" height="67" viewBox="0 0 390 67" fill="none" xmlns="http://www.w3.org/2000/svg">
<path d="M33.375 36.2656V37.6875H20.4688V36.2656H26.0312V33.5156H21.8906V26.2031H23.625V28.5156H30.1719V26.2031H31.9062V33.5156H27.75V36.2656H33.375ZM23.625 32.1094H30.1719V29.9062H23.625V32.1094ZM44.9504 25.2656V30.6875H47.1223V32.1406H44.9504V39.4062H43.2317V25.2656H44.9504ZM34.4504 27.9062V26.5H40.9504V31.8281H36.2004V34.6406C38.4426 34.625 40.1848 34.5312 42.1535 34.1875L42.3098 35.5938C40.1301 35.9844 38.2082 36.0781 35.6379 36.0781H34.4817V30.4375H39.216V27.9062H34.4504ZM54.4919 26.2969C56.6169 26.2969 58.1481 28.2344 58.1638 31.2812C58.1481 34.3516 56.6169 36.2812 54.4919 36.2812C52.3435 36.2812 50.8122 34.3516 50.82 31.2812C50.8122 28.2344 52.3435 26.2969 54.4919 26.2969ZM52.4919 31.2812C52.4841 33.4531 53.3044 34.7109 54.4919 34.7188C55.6872 34.7109 56.4841 33.4531 56.4919 31.2812C56.4841 29.125 55.6872 27.8594 54.4919 27.8594C53.3044 27.8594 52.4841 29.125 52.4919 31.2812ZM60.0231 39.3906V25.2656H61.7575V30.6875H63.9294V32.1562H61.7575V39.3906H60.0231ZM72.0048 26.4844V27.9062H66.6454V30.4219H71.4423V31.7969H66.6454V34.7031C68.9579 34.6953 70.7236 34.6094 72.7548 34.2812L72.9267 35.6875C70.7001 36.0391 68.7158 36.1094 66.1142 36.1094H64.9267V26.4844H72.0048ZM74.1611 39.3906V25.2656H75.9111V39.3906H74.1611ZM88.8615 25.8438V27.0156C88.8693 28.1172 88.8693 29.3203 88.5646 30.8281H90.3771V32.2188H77.5646V30.8281H86.8381C86.9318 30.3281 86.9943 29.8672 87.0412 29.4297L78.9709 29.7656L78.7677 28.4219L87.1115 28.2188C87.1271 27.875 87.1271 27.5469 87.1271 27.2188H79.1271V25.8438H88.8615ZM78.9865 34.5625V33.2344H88.9396V36.7969H80.7365V37.8594H89.4396V39.2188H79.0177V35.5312H87.2052V34.5625H78.9865Z" fill="white"/>
</svg>
