<svg width="34" height="34" viewBox="0 0 34 34" fill="none" xmlns="http://www.w3.org/2000/svg">
<path d="M16.2708 31.1667C12.8258 27.932 10.2528 24.9275 8.55166 22.1532C6.85055 19.3789 6 16.8112 6 14.45C6 10.9084 7.03243 8.08685 9.0973 5.98546C11.1622 3.88407 13.5533 2.83337 16.2708 2.83337C18.9883 2.83337 21.3795 3.88407 23.4444 5.98546C25.5092 8.08685 26.5417 10.9084 26.5417 14.45C26.5417 16.8112 25.6911 19.3789 23.99 22.1532C22.2889 24.9275 19.7158 27.932 16.2708 31.1667Z" fill="url(#paint0_linear_105_148)"/>
<path d="M10.2837 15.3767L10.8291 13.019L9 11.4332L11.4164 11.2235L12.3562 9L13.2959 11.2235L15.7123 11.4332L13.8832 13.019L14.4286 15.3767L12.3562 14.1265L10.2837 15.3767Z" fill="white"/>
<path d="M18.5713 15.3767L19.1167 13.019L17.2876 11.4332L19.704 11.2235L20.6438 9L21.5835 11.2235L23.9999 11.4332L22.1708 13.019L22.7162 15.3767L20.6438 14.1265L18.5713 15.3767Z" fill="white"/>
<defs>
<linearGradient id="paint0_linear_105_148" x1="8.83333" y1="5.66671" x2="21.5833" y2="25.8542" gradientUnits="userSpaceOnUse">
<stop stop-color="#5A45F5"/>
<stop offset="1" stop-color="#EC90EE"/>
</linearGradient>
</defs>
</svg>
