<svg width="34" height="34" viewBox="0 0 34 34" fill="none" xmlns="http://www.w3.org/2000/svg">
<path d="M18.3975 29.0862C17.947 29.5468 17.4778 30.0123 16.9897 30.4829L16.6427 30.1229C16.52 30.2412 16.396 30.3599 16.2708 30.4789C16.1457 30.3599 16.0217 30.2412 15.899 30.1229L15.552 30.4829C15.0639 30.0123 14.5946 29.5468 14.1442 29.0862L14.5017 28.7366C14.0303 28.2545 13.58 27.7783 13.1508 27.3079L12.7815 27.645C12.3221 27.1415 11.8863 26.6443 11.474 26.1533L11.857 25.8318C11.4224 25.3142 11.0149 24.8043 10.6343 24.302L10.2358 24.604C9.82155 24.0574 9.43815 23.5189 9.08559 22.9885L9.50198 22.7117C9.31861 22.4359 9.14393 22.1626 8.97791 21.8918C8.79872 21.5996 8.62938 21.31 8.46985 21.0232L8.03289 21.2662C7.68551 20.6417 7.38265 20.0279 7.1243 19.425L7.58389 19.2281C7.31006 18.589 7.08889 17.9651 6.91951 17.3564L6.43781 17.4904C6.24666 16.8035 6.1181 16.1318 6.05214 15.4752L6.54963 15.4253C6.51649 15.0954 6.5 14.7704 6.5 14.45C6.5 14.0664 6.51246 13.6922 6.53727 13.3274L6.03842 13.2935C6.09301 12.4909 6.20577 11.7288 6.3767 11.0074L6.86323 11.1227C7.03943 10.379 7.27926 9.68336 7.58183 9.03473L7.1287 8.82336C7.45835 8.11666 7.86021 7.46033 8.33427 6.85437L8.72808 7.16245C8.95274 6.87529 9.19465 6.59977 9.45394 6.3359C9.6851 6.10065 9.91996 5.87963 10.1585 5.67273L9.83083 5.29504C10.3554 4.84003 10.8995 4.4481 11.4632 4.11925L11.7151 4.55113C12.275 4.22453 12.8537 3.9643 13.4516 3.76963L13.2968 3.29419C13.9313 3.08761 14.5874 2.95049 15.2651 2.88282L15.3148 3.38035C15.628 3.34907 15.9466 3.33337 16.2708 3.33337C16.595 3.33337 16.9137 3.34907 17.2269 3.38035L17.2766 2.88282C17.9542 2.95049 18.6103 3.08761 19.2448 3.29419L19.0901 3.76963C19.688 3.9643 20.2667 4.22453 20.8266 4.55113L21.0785 4.11925C21.6422 4.4481 22.1863 4.84003 22.7108 5.29504L22.3832 5.67273C22.6217 5.87963 22.8566 6.10065 23.0877 6.3359C23.347 6.59977 23.5889 6.87529 23.8136 7.16245L24.2074 6.85437C24.6815 7.46033 25.0833 8.11666 25.413 8.82336L24.9598 9.03473C25.2624 9.68336 25.5022 10.379 25.6784 11.1227L26.165 11.0074C26.3359 11.7288 26.4487 12.4909 26.5032 13.2935L26.0044 13.3274C26.0292 13.6922 26.0417 14.0664 26.0417 14.45C26.0417 14.7704 26.0252 15.0954 25.992 15.4253L26.4895 15.4752C26.4236 16.1318 26.295 16.8035 26.1039 17.4904L25.6222 17.3564C25.4528 17.9651 25.2316 18.589 24.9578 19.2281L25.4174 19.425C25.159 20.0279 24.8562 20.6417 24.5088 21.2662L24.0718 21.0232C23.9123 21.31 23.7429 21.5996 23.5638 21.8918C23.3977 22.1626 23.2231 22.4359 23.0397 22.7117L23.4561 22.9885C23.1035 23.5189 22.7201 24.0574 22.3059 24.604L21.9074 24.302C21.5268 24.8043 21.1192 25.3142 20.6847 25.8318L21.0676 26.1533C20.6554 26.6443 20.2196 27.1415 19.7602 27.645L19.3908 27.3079C18.9617 27.7783 18.5114 28.2545 18.04 28.7366L18.3975 29.0862Z" stroke="#2B2C3F" stroke-dasharray="2 2"/>
<path d="M10.2837 20.3767L10.8291 18.019L9 16.4332L11.4164 16.2235L12.3562 14L13.2959 16.2235L15.7123 16.4332L13.8832 18.019L14.4286 20.3767L12.3562 19.1265L10.2837 20.3767Z" fill="#2B2C3F"/>
<path d="M18.5713 20.3767L19.1167 18.019L17.2876 16.4332L19.704 16.2235L20.6438 14L21.5835 16.2235L23.9999 16.4332L22.1708 18.019L22.7162 20.3767L20.6438 19.1265L18.5713 20.3767Z" fill="#2B2C3F"/>
<path d="M14.2837 13.3767L14.8291 11.019L13 9.43322L15.4164 9.22346L16.3562 7L17.2959 9.22346L19.7123 9.43322L17.8832 11.019L18.4286 13.3767L16.3562 12.1265L14.2837 13.3767Z" fill="#2B2C3F"/>
</svg>
