<svg width="44" height="10" viewBox="0 0 44 10" fill="none" xmlns="http://www.w3.org/2000/svg">
<path d="M0.955469 9V2.63672H2.38516V3.71484H2.46719C2.73086 2.98828 3.36953 2.55469 4.21328 2.55469C5.07461 2.55469 5.6957 2.99414 5.93594 3.71484H6.00625C6.28164 3.01172 6.99063 2.55469 7.91641 2.55469C9.08242 2.55469 9.90273 3.30469 9.89688 4.72266V9H8.40859V4.95703C8.40859 4.16602 7.92813 3.80859 7.31875 3.80859C6.58633 3.80859 6.15859 4.30664 6.15859 5.02734V9H4.70547V4.89844C4.69961 4.23633 4.26602 3.80859 3.62734 3.80859C2.98281 3.80859 2.45547 4.3418 2.45547 5.13281V9H0.955469ZM13.9108 9.12891C11.9948 9.12891 10.817 7.85156 10.817 5.85938C10.817 3.89062 12.0123 2.55469 13.8288 2.55469C15.3873 2.55469 16.735 3.5332 16.735 5.76562V6.23438H12.2936C12.317 7.31836 12.9557 7.96289 13.9225 7.95703C14.5788 7.96289 15.0182 7.68164 15.2116 7.30078H16.6764C16.4069 8.40234 15.3873 9.12891 13.9108 9.12891ZM12.2995 5.21484H15.3053C15.2995 4.34766 14.7135 3.71484 13.8522 3.71484C12.9557 3.71484 12.3522 4.40625 12.2995 5.21484ZM20.0223 9.11719C18.5282 9.11133 17.3973 7.91602 17.3973 5.82422C17.3973 3.70312 18.5575 2.55469 20.0341 2.55469C21.1532 2.55469 21.622 3.22852 21.8505 3.67969H21.9091V0.515625H23.3973V9H21.9325V7.99219H21.8505C21.6102 8.46094 21.1239 9.11133 20.0223 9.11719ZM18.9208 5.8125C18.9208 7.01367 19.4481 7.88672 20.4325 7.88672C21.3993 7.88672 21.9442 7.05469 21.9442 5.8125C21.9442 4.57617 21.4052 3.7793 20.4325 3.77344C19.4364 3.7793 18.9208 4.62891 18.9208 5.8125ZM24.6691 9V2.63672H26.1691V9H24.6691ZM24.5636 0.914062C24.5636 0.46875 24.9562 0.105469 25.4308 0.105469C25.9054 0.105469 26.298 0.46875 26.298 0.914062C26.298 1.36523 25.9054 1.72852 25.4308 1.73438C24.9562 1.72852 24.5636 1.36523 24.5636 0.914062ZM31.4252 6.32812V2.63672H32.9134V9H31.472V7.875H31.4017C31.1088 8.58398 30.4408 9.08203 29.4916 9.08203C28.2318 9.08203 27.3646 8.21484 27.3588 6.69141V2.63672H28.8588V6.45703C28.8588 7.26562 29.3392 7.78125 30.0658 7.78125C30.722 7.78125 31.4252 7.30078 31.4252 6.32812ZM34.1031 9V2.63672H35.5328V3.71484H35.6148C35.8785 2.98828 36.5172 2.55469 37.3609 2.55469C38.2223 2.55469 38.8434 2.99414 39.0836 3.71484H39.1539C39.4293 3.01172 40.1383 2.55469 41.0641 2.55469C42.2301 2.55469 43.0504 3.30469 43.0445 4.72266V9H41.5563V4.95703C41.5563 4.16602 41.0758 3.80859 40.4664 3.80859C39.734 3.80859 39.3063 4.30664 39.3063 5.02734V9H37.8531V4.89844C37.8473 4.23633 37.4137 3.80859 36.775 3.80859C36.1305 3.80859 35.6031 4.3418 35.6031 5.13281V9H34.1031Z" fill="white" fill-opacity="0.3"/>
</svg>
