<svg width="24" height="12" viewBox="0 0 24 12" fill="none" xmlns="http://www.w3.org/2000/svg">
<path d="M2.48977 0.515625V9H0.989765V0.515625H2.48977ZM3.67945 9V2.63672H5.17945V9H3.67945ZM3.57398 0.914062C3.57398 0.46875 3.96656 0.105469 4.44117 0.105469C4.91578 0.105469 5.30836 0.46875 5.30836 0.914062C5.30836 1.36523 4.91578 1.72852 4.44117 1.73438C3.96656 1.72852 3.57398 1.36523 3.57398 0.914062ZM9.14648 11.5195C7.45898 11.5195 6.38672 10.7695 6.28711 9.57422H7.77539C7.88086 10.1309 8.40234 10.3887 9.16992 10.3945C10.0664 10.3887 10.6465 10.002 10.6465 9.07031V7.85156H10.5762C10.3418 8.32031 9.83203 8.90625 8.73633 8.90625C7.26562 8.90625 6.11133 7.83984 6.11133 5.76562C6.11133 3.67383 7.27148 2.55469 8.74805 2.55469C9.86719 2.55469 10.3418 3.22852 10.5762 3.67969H10.6465V2.63672H12.123V9.10547C12.123 10.7344 10.8633 11.5195 9.14648 11.5195ZM7.63477 5.78906C7.63477 6.96094 8.16211 7.73438 9.14648 7.73438C10.1133 7.73438 10.6582 7.00781 10.6582 5.78906C10.6582 4.57617 10.1191 3.7793 9.14648 3.77344C8.15039 3.7793 7.63477 4.62891 7.63477 5.78906ZM14.8127 5.27344V9H13.3127V0.515625H14.7776V3.71484H14.8596C15.1467 2.99414 15.7678 2.55469 16.7463 2.55469C18.0647 2.55469 18.9377 3.41016 18.9377 4.94531V9H17.4495V5.17969C17.4436 4.3125 16.9807 3.81445 16.1955 3.82031C15.387 3.81445 14.8127 4.34766 14.8127 5.27344ZM23.2915 2.63672V3.78516H22.0376V7.08984C22.0376 7.69922 22.3423 7.82227 22.7173 7.82812C22.893 7.83398 23.186 7.81641 23.3735 7.80469V9.02344C23.1977 9.05273 22.9106 9.08789 22.5298 9.08203C21.4048 9.08789 20.5376 8.53125 20.5493 7.33594V3.78516H19.6352V2.63672H20.5493V1.11328H22.0376V2.63672H23.2915Z" fill="white"/>
</svg>
