<svg width="33" height="12" viewBox="0 0 33 12" fill="none" xmlns="http://www.w3.org/2000/svg">
<path d="M2.46633 5.27344V9H0.966328V0.515625H2.43117V3.71484H2.5132C2.80031 2.99414 3.42141 2.55469 4.39992 2.55469C5.71828 2.55469 6.59133 3.41016 6.59133 4.94531V9H5.10305V5.17969C5.09719 4.3125 4.6343 3.81445 3.84914 3.82031C3.04055 3.81445 2.46633 4.34766 2.46633 5.27344ZM10.5935 9.12891C8.6775 9.12891 7.49977 7.85156 7.49977 5.85938C7.49977 3.89062 8.69508 2.55469 10.5115 2.55469C12.0701 2.55469 13.4177 3.5332 13.4177 5.76562V6.23438H8.97633C8.99977 7.31836 9.63844 7.96289 10.6052 7.95703C11.2615 7.96289 11.7009 7.68164 11.8943 7.30078H13.3591C13.0896 8.40234 12.0701 9.12891 10.5935 9.12891ZM8.98219 5.21484H11.988C11.9822 4.34766 11.3962 3.71484 10.5349 3.71484C9.63844 3.71484 9.03492 4.40625 8.98219 5.21484ZM14.0449 7.20703C14.0449 5.77734 15.2344 5.36133 16.4121 5.28516C16.8574 5.25 17.7656 5.20898 18.0469 5.19727L18.041 4.6875C18.041 4.05469 17.6367 3.69141 16.8926 3.69141C16.2246 3.69141 15.8145 3.99609 15.6973 4.45312H14.2559C14.3613 3.36914 15.334 2.55469 16.9277 2.55469C18.1348 2.55469 19.5293 3.05273 19.5293 4.74609V9H18.0996V8.12109H18.0527C17.7715 8.66016 17.1797 9.12891 16.1777 9.12891C14.9648 9.12891 14.0449 8.4668 14.0449 7.20703ZM15.4863 7.19531C15.4863 7.74609 15.9375 8.02734 16.5645 8.02734C17.4727 8.02734 18.0527 7.42969 18.0527 6.71484L18.0469 6.19336C17.7773 6.20508 16.9453 6.25781 16.6465 6.28125C15.9375 6.33984 15.4863 6.63867 15.4863 7.19531ZM26.1448 2.63672L23.8713 9H22.2307L19.9573 2.63672H21.551L23.0159 7.37109H23.0862L24.5627 2.63672H26.1448ZM27.7446 11.3906C27.4458 11.3848 27.1645 11.3789 26.9712 11.3555V10.1602C27.1528 10.1777 27.4048 10.1777 27.604 10.1836C27.9673 10.1777 28.272 10.1543 28.5298 9.46875L28.6587 9.12891L26.3384 2.63672H27.9204L29.397 7.44141H29.4673L30.9438 2.63672H32.5259L29.9712 9.77344C29.6079 10.7871 28.9399 11.3848 27.7446 11.3906Z" fill="white"/>
</svg>
